<svg xmlns="http://www.w3.org/2000/svg" viewBox="0 0 1293.4 456.53"><defs><style>.cls-1{font-size:333px;font-family:IndieFlower, Indie Flower;}.cls-2{fill:#c26fc2;}</style></defs><title>aktionenHover</title><g id="Layer_2" data-name="Layer 2"><g id="Element_2" data-name="Element 2"><text class="cls-1" transform="translate(86.35 293.93)">Aktionen</text></g><g id="Layer_3" data-name="Layer 3"><path class="cls-2" d="M425.72,10.13c-1.36.21-.58.6,3.19.33q1.33-.43,2.66-.92Z"/><path class="cls-2" d="M451.13,10.76c4.42-.64,9.53-2.07,6.64-3.13a30.12,30.12,0,0,1-5,1.29,43.75,43.75,0,0,0-5.2,1.3c-3.77.24-6.59-.1-6-.48-1.33.3-5.87.1-7.89.73A74.45,74.45,0,0,0,451.4,10C452.8,10.18,451.45,10.54,451.13,10.76Z"/><path class="cls-2" d="M817.34,44.81l-2.23-1.06A6,6,0,0,0,817.34,44.81Z"/><path class="cls-2" d="M1038.11,98.28c-1.7-.31-2.58.16-2.84.75C1036.93,99,1038.31,99,1038.11,98.28Z"/><path class="cls-2" d="M1072.5,117.07c-.71-.47-1.33-.78-2-1.16C1071.13,116.8,1071.84,117.42,1072.5,117.07Z"/><path class="cls-2" d="M817.34,44.81c1.91.91,3.8,1.9,5.7,2.86C823.76,45.87,820.2,45.68,817.34,44.81Z"/><path class="cls-2" d="M502,5.27a19.77,19.77,0,0,0-3.33.64c1.05-.12,2.07-.22,3.12-.3A1.68,1.68,0,0,1,502,5.27Z"/><path class="cls-2" d="M717.58,34.22,715.75,34A11.79,11.79,0,0,0,714,35.74Z"/><path class="cls-2" d="M641.08,25.93c1.72.34,2.58-3.07,3.36-4.54a5.38,5.38,0,0,1-4,2A4.7,4.7,0,0,0,641.08,25.93Z"/><path class="cls-2" d="M519.29,13l-2.18.21C517.68,13.15,518.63,13.09,519.29,13Z"/><path class="cls-2" d="M771.93,43.11a3.92,3.92,0,0,0,.47,1.74A2.72,2.72,0,0,0,771.93,43.11Z"/><path class="cls-2" d="M177.94,6.41c0,.16.09.23.1.36C178.45,6.47,178.55,6.29,177.94,6.41Z"/><path class="cls-2" d="M269.06,3.88l-1.24.06c-.13.11-.27.23-.27.34Z"/><path class="cls-2" d="M1134.38,148.43a2,2,0,0,0-.23-.22C1132.22,148.16,1133.21,148.44,1134.38,148.43Z"/><path class="cls-2" d="M825,373.6c3.76.61.84,1.63-1.63,2.58s-4.47,1.85,1.17,2.45c-.56-.4,1.88-1.55,3.29-2.68S829.62,373.74,825,373.6Z"/><path class="cls-2" d="M504,5.45c1,0,2.11-.09,3.18-.1A23.92,23.92,0,0,0,504,5.45Z"/><path class="cls-2" d="M824.53,378.63v0l1.16.1Z"/><path class="cls-2" d="M1245.09,220.91a8,8,0,0,0,2.41-.7A9.27,9.27,0,0,0,1245.09,220.91Z"/><path class="cls-2" d="M1176,154.6l2.23,2A8.16,8.16,0,0,0,1176,154.6Z"/><path class="cls-2" d="M1225.09,258.46c-1.48.55-2.28.26-3.6,2a2.87,2.87,0,0,0,.89.18C1222.61,259.65,1223.19,258.78,1225.09,258.46Z"/><path class="cls-2" d="M1170.34,290.52a11.63,11.63,0,0,0,1.51.43l1.71-1.15C1172.5,290.06,1171.42,290.29,1170.34,290.52Z"/><path class="cls-2" d="M8.25,127.33A12.32,12.32,0,0,1,13,124.8c-1.6.17-1.75-2.63-2-3.8S10.31,120.34,8.25,127.33Z"/><path class="cls-2" d="M502.06,6.27a2.83,2.83,0,0,1,2-.82c-.76,0-1.5.1-2.21.15C501.64,5.87,501.59,6.12,502.06,6.27Z"/><path class="cls-2" d="M1247.16,294.66c-1.72,1-3.44,1.93-5.16,2.89l-5,2.6c1.49-.6,3.14-1.37,4.86-2.26S1245.4,295.84,1247.16,294.66Z"/><path class="cls-2" d="M379,377.17l-2.5.1A3.86,3.86,0,0,0,379,377.17Z"/><path class="cls-2" d="M1208.26,317a16.76,16.76,0,0,0-7.24-.33,4.59,4.59,0,0,0-.56,1.74C1203.07,318.06,1205.64,317.51,1208.26,317Z"/><path class="cls-2" d="M13,124.79a.05.05,0,0,1,0,0A.05.05,0,0,0,13,124.79Z"/><path class="cls-2" d="M53,57.89c-4.38,3.41-4.58,5.15-3.71,6.39s2.8,2.1,2.85,3.85c-.55.58-1.06,1.09-1.54,1.54s-.88.88-1.27,1.23a10.81,10.81,0,0,1-2,1.5,2.45,2.45,0,0,1-2.53.2c-1.3-.68-2.14-2.45-4.71-1.8A31.83,31.83,0,0,0,37,76a48.89,48.89,0,0,0-2.25,5.16c-1.3,3.4-2.53,6.37-4.48,8.81-1-.14-2,.64-1.92-1.12A34.05,34.05,0,0,1,25,96.36c-.75,1.35-1.61,2.71-2.48,4.12L20,104.94l-1.26,2.27q-.56,1.19-1.09,2.4c-.7,1.6-1.35,3.2-1.9,4.79a34.92,34.92,0,0,0-1,4.85,22.7,22.7,0,0,0-.18,2.32,13,13,0,0,0,.19,2.28,3.56,3.56,0,0,1-1.72.94,10.36,10.36,0,0,1,7.6.7,15.37,15.37,0,0,0-.52,3.48c-.06,1.12-.06,2.19,0,3.09,0,1.83-.4,3.19-2.37,3.66.78-2.76-.58-3.32-1.34-4.9l.34,5.15c-3,1.65-3.14-.11-2.83-2.38a22.24,22.24,0,0,0,.31-3.44c-.06-1-.26-1.94-1.19-2.17a29.5,29.5,0,0,0-.3,3.91c0,1.3-.09,2.6,0,3.93.07,2.65.14,5.29.29,7.85.19,5.11.43,9.81-.68,13.48-1.35.3-2-.66-2.35-2.13a20.54,20.54,0,0,1-.26-5.14c.11-3.38.17-5.78-2.86-1l.92-2.9,1-2.86,1-2.84,1.1-2.79c-4.92,3.67-4.42,2-3.93.09s.94-3.88-4.23-.51a47.71,47.71,0,0,0-1.41,5.33,34.79,34.79,0,0,0-.7,4.46c-.13,1.37-.2,2.63-.24,3.84s0,2.38.06,3.54c0,2.31.2,4.63.17,7.39,0,1.38,0,2.88-.13,4.55s-.26,3.51-.4,5.61c1.51,1.83,2.6,1.46,3.7,1.11s2.18-.67,3.71,1a39.48,39.48,0,0,1,1.4,7.18,18.1,18.1,0,0,1-.12,5.36,22.33,22.33,0,0,1-3,7.7c-1.17,2.22-2.34,4.33-2.47,6.88s.8,5.56,4,9.23c2.43,1.62,5.54,2.13,8.08,3.79a9.58,9.58,0,0,1,1.79,1.5,10.42,10.42,0,0,1,1.61,2.1,14.12,14.12,0,0,1,1.28,3,29.44,29.44,0,0,1,1,4c-2.49-.21-5.05-.45-7.57-.82,1.71,3.79,3.38,5.94,5,7.18A14.62,14.62,0,0,0,23,233.34,8.9,8.9,0,0,1,27,235.83a17,17,0,0,1,2,2.86c.71,1.23,1.4,2.82,2.26,4.75-1.93-.32-4.16-2.57-5.85-4.4s-2.68-3.36-2.35-2.11c.41,3,1.22,4.78,2.09,5.85a4.35,4.35,0,0,0,3,1.58,24.77,24.77,0,0,1,3.5.48,7.63,7.63,0,0,1,3.77,2.57q-1.64,2.52-3.25,5.09A104.17,104.17,0,0,0,52.9,268.66c7.57,4.65,15.47,8.71,23.07,13-1.75,1-5.33.88-2.83,4.68A339.52,339.52,0,0,1,103.38,303c9.92,6,19.63,12.26,28.64,17.83,3.11-.63,6.2-1.32,9.28-2,1.68.71,2.34,3.44.12,3.7,6.84,4.7,1.57-3,5.9-3.59,4.38,1.24,4.6,4.91,1.34,5.43a196.32,196.32,0,0,1,27.5,3.26c9.86,1.87,19.34,5.12,25.54,9.79l-3.19.69c10.34,5.19,15.4-6.62,24.1.95l-2.19.31A171.78,171.78,0,0,0,238.35,345c3,.81,6.1,1.59,9.13,2.35l9,2.2a167.23,167.23,0,0,1,16.9,5,66.41,66.41,0,0,1,14.3,6.72c2.56-2.94,8.32-.85,14,.7s11.13,2.65,12.9-1.57c12.79,7.07,8.49,7.91,27.49,13.88,5.17,1.19,8.83-3.78,15.44-3.58l-.67,4.17q4.83-1.52,9.61-2.95,1.86,2.79,3.75,5.51l6.26-.13c-2.38-.58-4.8-2.54-4.22-3.63,9.75-.22,22.6,5.92,22.53,7.82l23-.35c-.72,1.33-4.56,1.38-7.7,2,12.6-2.23,1.61,3.87,13.15,1.83-1.36-.93,1.11-1.93,1.47-2.57a23.9,23.9,0,0,0,5.08,1.76,66.54,66.54,0,0,0,6.87,1.18,141.18,141.18,0,0,0,15.1,1l-2.07,2c2.08.25,4.2.48,6.34.69s4.32.33,6.52.46c4.4.27,8.89.48,13.45.69,9.11.48,18.49.65,27.87,1.38-6.65-1.29-4.75-4.31.75-4.11l1.91,2.85c3.71-1.35-5.62-1.48,1.85-2.88,7,.86,4.41,3.3.29,3.92l8.61-.37c.43.79-1.61,1.07-2.23,2,1.83-.7,5.44.17,9.28.86s7.88,1.24,10.51.1l.42.75c9.39.43,16.23.54,22.63.66s12.37.09,20,.35c.41-1.84,6.36-1.16,11-2.4,5.59.5,11.48,1.17,17.67,1.8,3.09.31,6.26.59,9.5.82s6.55.32,9.93.37c9.53-.63,2.82-1.38,7.12-2.29.65,1.56,14.16,1.79,7.13,2.71,8.12.05,13.3,0,19-.13,2.86-.06,5.86-.14,9.42-.28s7.69-.42,12.82-.72c-2.23-.64-4.73-.92-3.43-1.44,3.72-.25,8.46.66,7.93,1.41l-1,.16c11.51-1.06,24.78-.23,37.53.78,6.37.38,12.6.79,18.37.85,2.89,0,5.66,0,8.29-.2a51.17,51.17,0,0,0,7.36-1.1l-1,.21,18.93-2.55c4.38,0,3.09.36,1.52.89s-3.42,1.09-.15,1.56a134.59,134.59,0,0,1,26-2.31c7.67-.18,14.91-.15,23.26-1.78,6.82,2.76,18.46,1.95,30.62.78,6.08-.66,12.28-1.43,18.11-1.83,2.91-.2,5.73-.31,8.4-.25a43.45,43.45,0,0,1,7.46.61l-1.25-1.69c4.34-2.16,5.66.52,9.09.67-.67-1.38-5.18-1.19-2.47-2.43,4.8-.73,9.64-1.34,14.53-1.91s9.81-1.16,14.77-1.61c9.94-.84,20-1.65,30.13-2.2l7.62-.39,7.63-.46L985,380.4l3.82-.2,3.81-.26,7.61-.54q7.6-.55,15.14-1.26c14.67-1.71,5.34-14.41,24.82-11.83l-4,5.82c13.92-5.59,28.74-8.72,43.54-12.09,3.7-.86,7.4-1.65,11.06-2.61s7.31-1.94,10.91-3,7.13-2.38,10.59-3.74c1.73-.69,3.45-1.41,5.14-2.18s3.35-1.65,5-2.54c-1.26,1.76-.77,3.39-3.53,4.21,3.61,1,9.16-.62,13.64-2.95s7.84-5.53,7.3-7.15c4.47-1.12,2.07,2.56,5.37,3.28,3.42.18,6.66-2.5,9.6-4.77s5.59-4.26,7.95-2.94c.79.42-1.12,2-2.08,2.65,3.06-3.39,18.08-6.62,12.43-9.71,5.61-1.11,10.3-3.77,14.73-6.25s8.51-5,13.25-5.62c1.31-3.86,5.87-5.46,9.9-7.09,1-.41,2-.82,2.84-1.27a10.39,10.39,0,0,0,2.21-1.58,4.19,4.19,0,0,0,1.12-4.61c.88,1.93,2.6,2.66,4.78,2.56a13.4,13.4,0,0,0,3.55-.73,20.06,20.06,0,0,0,3.88-1.76,42.19,42.19,0,0,0,7.41-5.48,32.61,32.61,0,0,0,2.94-3.05,18.9,18.9,0,0,0,2-3c-.31,1.75,1.42,1.44,3.19,1.23s3.59-.36,3.39,2c.9-.63,1.77-1.27,2.61-1.92s1.63-1.36,2.37-2a23.32,23.32,0,0,0,3.61-4c1.78-2.57,2.09-4.85.05-6.06a18.21,18.21,0,0,0,6.54-2,22.71,22.71,0,0,0,2.75-1.74,24.23,24.23,0,0,0,2.43-2.17,26.66,26.66,0,0,0,2.15-2.42c.67-.87,1.29-1.77,1.89-2.67a59.76,59.76,0,0,0,3.2-5.62c.5-.91,1-1.88,1.41-2.83s.92-1.85,1.38-2.73a38.54,38.54,0,0,1,3-5,19,19,0,0,1,9.3-7.22c.29-1.12.62-2.19.85-3.34l.65-3.47a56.85,56.85,0,0,0,.83-7,55.29,55.29,0,0,0,.07-7.06,54,54,0,0,0-.72-6.92,51.47,51.47,0,0,0-1.44-6.6,63.23,63.23,0,0,0-4.6-11.8,50.29,50.29,0,0,0-2.89-5.13,87.06,87.06,0,0,0-13.27-16.23,134.56,134.56,0,0,0-14-11.78c3.36-3.24,8.48,1,13.25,5.86s9.08,10.35,12.67,7.18a25.05,25.05,0,0,0-1.75-1.84l-1.75-1.67L1277,174c-.58-.51-1.16-1-1.73-1.41-1.15-.91-2.29-1.78-3.41-2.6s-2.24-1.5-3.34-2.2l-1.64-1-1.63-.93-3.19-1.79c-2.11-1.09-4.16-2.15-6.18-3.17-4-2-7.93-4-11.81-6.19-1.93-1.15-3.87-2.33-5.81-3.7a71.82,71.82,0,0,1-5.81-4.39c-3.67-4,4.74-1.76,7.15-2.07a112.26,112.26,0,0,1-13.56-7.15c-4.33-2.46-8.47-5.09-12.58-7.65s-8.29-4.77-12.52-6.79a53.61,53.61,0,0,0-6.5-2.59,57.77,57.77,0,0,0-6.76-1.83c.45-.77,2.63-.73,4.61-.52-3.31-1.39-6.75-5.15-8.35-1l3.62.56c1.07,4.17-3.56,5.41-8.67,6.14s-10.74.92-11.74,2.31c5.36-4.38,1.79-7-1.29-9.82s-5.68-5.67,2-10.93c-2.49-.22-6,.47-6.73,3.37-2.79-2.2-3.12-4.23,1.46-5.83a25.29,25.29,0,0,0-7.09-.89,19.18,19.18,0,0,0-4.11.76c-2.32.6-4.36,1-9.6-1.28.85-2,3.29-1.83,5.36-3.68a48.75,48.75,0,0,1-10.59,1.57A21,21,0,0,1,1125,95.76c1-1,.55-3,3.23-1.88a45.77,45.77,0,0,0-11.61-2.29c-3.82-.32-7.57-.42-11.34-.55-7.54-.27-15-1.19-22.9-5.8,7.91-7.16-4.88-4.79-3.4-12.67L1069,72l2.59,4.82c-4-1.28-8.27-1.13-12.26-1.12s-7.75-.26-10.88-2.5l7-1.41c-5.22-1-10.45-1.95-15.67-2.82,2.61,1.75,5.22,3.46,7.81,5.26-9.32,1.62-1.86,9.86-12,4.76,2.39-.16-8-2.37-11.07-7.9,0,0,0,0,0,0-4.67,1.38-9.44,2.78-15-.61-.94-2.8,3.41-8,2.81-9.89-2.81,2.66-7.7,1.91-12.73,1.18S989.33,60.48,986,63.2c2.06-1.16,3.11-5.07,2.76-6l-4.59,4.29c-3.39-2.51-3.76-3.42-2.39-6.4-11.18-3.57,1.35,10.28-11.18,3.06,1.16-.16.83-1,3.22-1.28a50.33,50.33,0,0,0-9.92-2.77c-3.34-.57-6.68-.87-10-1.19-6.61-.64-13.06-1.31-19.05-3.86-2.12-8.07,11.35.53,8.46-6.53a133.53,133.53,0,0,0-14.2-1c-4.84,0-9.73,0-14.57,0s-9.64-.12-14.3-.54c-2.33-.21-4.63-.51-6.88-.9a64,64,0,0,1-6.63-1.42l3.13,1.36c-2.18,4.75-5.2,2.91-8.92.32s-8.16-5.94-13-4.43c2.31-.33,3.85-4.9,3.06-3.92-11.78-3.73-25.18-1.59-43.93-1.61l2.66-2c-6.77-3.32-18.61-3.9-26.17-6-2.64,2-7,1-4.81,4.73-10.9-8.28-22.61-7.67-33.88-7.07a118,118,0,0,1-16.58.18,35.23,35.23,0,0,1-15.63-4.7c2.54.23,6.26-1.23,4.24-1.44l-18.28.15c1.05,3.57,2.14,2.3,5.62,5.39-2.51,1.82-7.75,2.77-12.2,2.32,4.16-.72,4.29-2.06,3-3.54s-4.11-3-5.77-4.06c.48,1.08-.84,2.11-.65,3.18-8.81-6.74-2.27,6.54-14.7,1.36l.85-1.64c-4.9.45-9.53,2.23-14.66,1.25-1.82-3.84,5.27-1.22,5.89-4.23-3.66-.19-7.41,1.18-11,2.17s-7.1,1.42-10.25-.58c3.18-.74,7.64-.43,10.82-1.21-6.83-4.7-7.77-3.64-13.07-4.64l.52.12L650.68,7.56l3.07,1.26c-4.93,4.18-9.59,4.11-14.64,3.89s-10.48-.85-16.8,1.43c6.14-2.15,6.69-2.91,5.84-3.49s-3.1-1.05-2.52-2.8c-3.09-1.12-7.82-2.36-6.39-3.29-6,2.59-9.64-2.5-18.1,1.32-.31-1.06-6.24-.22-4.79-2.79-7.65.72,1.71,1.8,1,3.11-5.94,1.63-12.75.37-20.23-.59S561.46,4.13,553,6.13c-14.55,1.61-17.29,4.1-30.73,5.16-2.25-.61-1.32-1.23.19-1.74A31.73,31.73,0,0,1,526,8.67c-7.3-1.06-12.81-.75-19.71,0,1.4-.56,0-1-2.13-1.72-5.54.28-3.72,2.22-11,1.51a24.18,24.18,0,0,1,5.54-2.54c-6.53.82-13,2.09-19.72,2.69-1.79-.82,4.07-1.46,6.45-2.19-7.59.75-19.66,1.64-22,2.82l4.87.33c-2.76.1-1.43-1,.61-1.3,6.49-1.24,9.38.14,9.75.67l-4.8.41c2.48,1.35,7.29,1.29,12.71.73S498,8.4,502.84,8.52q-2,1.34-4,2.59,5-1,9.93-2.13c2.1.72,3.52,2.36-1.25,2.67,6.91,1.56,6.14-.91,12.07.83.65.27.35.41-.26.52l6.78-.75c-1.34.62,1.08,2.25-3.06,1.66a52.08,52.08,0,0,0,14.9.34c4-.36,7-.76,9.21.69l-1,.17c8.42-.18,8.85-.86,8.76-1.78s-.7-2.06,5.68-3.55q4.14,3.52,8.24,7.3l1.77-2.81c1.73.2,5.15.62,4.47,1.77,6.54-1.66-1-1.35,2.78-3.08,4.12,1.58,9.89,1.59,14.84,1.78s9.09.61,9.88,3.31c3.14-2.36-7.88-2.37,1.13-3.64,1.12,2.9,3.7,2.86,6.94,2.46s7.16-1.21,10.88.44c-2.54,3-9.63.69-2.2,4.09,2.46-2.42,6.15-1.87,10-.7s7.92,2.95,11.17,2.69c.63-4.48,14.07-.52,24.95-1.07-.41.77,4.6,1.9,10.92,3.22s13.95,3,18.84,4.56l-.38.83c2.44-4.93,12.65-2.87,20.26-3.09-.64,3.2-2.13,4.28-6.33,5.24,2.34.27,4.68.55,7,.89,1.84-1.51,4.13-2.13,8.76-2.16l-2.23,3.87c4.67.54,9.51,0,14.65-.21s10.58,0,16.39,2.37c.6-2-1.43-5.15-2-7.9s.37-5.13,6.94-5.68c.19,2.26.17,6.1-3.27,6.54,1.13-.13,4.13-1.29,6.21,0l-5.56,3c5.26,2.42,3.26-2.69,7.6-1.73-.5,3.16,2.94,2.73,2,5.16-1.15.14-3.64-1.87-5.48-.87,4.86,1.28,10.55,4.07,12.18,6.82-.18-1.9.59-4.33,4.26-4.23,9.36,1.14,2.65,4.37,7.83,6.91,2.57-1.9,8.14,1.49,9-3.44,2.72.47,2.88,2.88,3.72,4.41,5.13-1.39,22.52,3.14,18-3.19L813.54,43c.25-.07.52,0,.82-.1h0a33.6,33.6,0,0,1,6.19-.38,45.78,45.78,0,0,1,6.11.67,91.35,91.35,0,0,1,12.06,3.16c8,2.56,15.86,5.48,23.85,5.9l-.35,1.8c9.67-.24,20.89,2.84,28.32.14,2.75.57,5.81,4.75,4.2,6.72,7.34.12,8.59-1.84,18.17,3.45-7.79,1.77,1.85,3.45-7.78.84,8.85,3.62,10.26,7.07,21.2,4.08-4.38,4.1,5.53,7.8,10.18,7.35l-5.62-5c5,.43,9.21,1.86,13.46,3.29l-3.8,6a24.19,24.19,0,0,0,13,4.62,79.11,79.11,0,0,0,13-.52c8.45-.74,16.29-1,21.66,7.55,6.08-3.44-9.27-5.83-3.53-10.18,8.4,3,14.78,15,17.42,15.75,5.32,3.42,8.63,1.75,12.1-.12s7.08-3.88,12.78-.86c-.88-2.85-.62-9.7,9.16-9.43,8.32,3.27,7.51,13.2,1.66,13.53-2.08-.38-2.84-1.43-2.52-2.22-3,.1-6.84.11-4.24,3.69l1.77-2.11a16.7,16.7,0,0,0,3.78,2.65c1.52.87,3.17,1.72,4.59,2.55,2.85,1.65,4.78,3.24,2.84,4.82,7-.42,3.88-3.17-.45-5.82a41.8,41.8,0,0,0,13.29,5.85c4.23,1.22,8.61,2.22,13.66,5.24-1.3-1.91-2-5.28-.28-4.69,15.08,8.31,8.61-2.34,19.86.37,4.9,5.82-5.23,8,6.72,8.71,5.68,4.92-.89,6.86-4.19,7.91,5.7-.57,10,1.91,13.46,4.81s6.07,6.43,8.64,7.89l-5.76,0a21.71,21.71,0,0,1,8.39,2l-1-5.87c2.64,2,5.15,3,4.29,4.94,4.31-1.86.84-8.87,8.64-10.57,2.95,4.06,13.24,2.45,11.85,9.31-2.82-1.91-4.38-2.34-5.2-2.11s-1,1.22-1.1,2.32c-.25,2.19-.45,4.86-5.86,3.22a12.64,12.64,0,0,1,7.33,3.18c.13.89-1,1.09-1.92,1.12,4.57,5.3,6.63,4.15,9.11,2.35a13.35,13.35,0,0,1,4.34-2.44c1.78-.49,4-.41,7,1.06-3.13,2.72-.34,7.81,1.92,8-4.72-2.31.43-6.81,6.16-7.3,3.21,3.12,5.46,3.73,7.47,3.76s3.71-.42,5.62.75l-3.9-3.56c1.63-1.29,3.35-1.33,5.4-.83,1,.25,2.13.63,3.35,1.05l4,1.38c-.48,1.42-1.9,1.19-3.06.91s-2.06-.62-1.42.44c4.51-1.39,7,2,9.56,5.68a37.4,37.4,0,0,0,4.21,5.31,9.56,9.56,0,0,0,6,2.93c2.32,4.32-3.3,6.2-1,9.53a10.17,10.17,0,0,1,5.89,2.11,13,13,0,0,1,2.88,3.66c1.56,2.64,3.24,5.36,8.4,6.52.26-2.83.07-4.08.93-4.61a4.62,4.62,0,0,1,2.26-.36c1.12,0,2.66.09,4.85.17l-3.94-1.74-4-1.67-8.35-3.26,6.74,0,3.4,0,3.33.08c-2.09-1.53-5-2.4-7.5-3.21s-4.77-1.55-5.88-2.77c6.76-.49,5.66.28,5.73-4.62,1.06,5.18,4.77,6.19,8.68,7.17a24.76,24.76,0,0,1,5.72,1.9,8.41,8.41,0,0,1,4.14,4.57l-7.74,9.47c2.88,5.62,7.45,7.45,12.34,9.76a31.76,31.76,0,0,1,7,4.18,16.55,16.55,0,0,1,2.74,3,10.37,10.37,0,0,1,1.55,3.78,19.47,19.47,0,0,0,.11-2.06l-.1-2.17a3.18,3.18,0,0,1,2.88.63,6.53,6.53,0,0,1,1.54,2.57,9.72,9.72,0,0,1,.45,1.57,15.64,15.64,0,0,0,.47,1.56,5.9,5.9,0,0,0,1.3,2.72,9,9,0,0,0-4.29,1.68,16.64,16.64,0,0,1-3.11,2.07,1.25,1.25,0,0,1,1.37.76,4.57,4.57,0,0,1,.21.43l.09.5a8.46,8.46,0,0,0,.28,1.15c.15.41.16.85.37,1.3a8,8,0,0,0,.77,1.41,7.88,7.88,0,0,0,3.41,2.86,37.45,37.45,0,0,1-6.61,2.55,10.15,10.15,0,0,0-2.35,5.43c-.08,1-.16,2-.17,3s.08,2.11.07,3.19c0,4.29-.36,9-5.46,12.62.07-2.78-1.47-3.76-2.42-5s-1.38-2.74.22-6.4c-.61.65-1.35,1.23-2,1.78a17.8,17.8,0,0,0-1.63,1.58c-.91,1-1.26,1.94-.44,3-1.6-.16-2.86,2.55-4.53,5.28s-3.76,5.4-6.32,5c-.25,1.18,0,2.67-.11,4.16a5,5,0,0,1-2.92,4.19c-.86-.35-1-1.56-1-1.56,1,1.55-5.08,6.23.73,7.42-4.41-.65-8.47.37-12.54,2s-7.87,4.21-11.83,6.51c-7.76,4.83-15.64,9.3-22.88,7.56-4,2.53-8.49,5.34-13,7.85s-9,4.84-13,6.57c.12-1.18-.63-1.63,1-1.9-6.13.71-6.89,3.74-7.92,6.79a9.83,9.83,0,0,1-2.41,4.31c-1.34,1.22-3.44,2.15-7,2.5-8.44-2.79,5.77-5.36,1-5.82-2.85-5-6.5-3.18-10.84-.49s-9.49,6-14.8,4.46c.63-.44,1.26-.88,1.88-1.34-3.87-.64-7.56,1.7-11.71,4.58s-8.83,6.09-14.41,7.46c0,0,.27-1.07-.38-1.57-3,3.77-8,7.05-13.54,10s-11.67,5.35-16.92,7.39c2.42-4.67,4.38-3.31,1.38-6.66-4.68,1.8,3,5.92-6.44,9.42-1.83-.65-4.59-1-7.13-1.62s-4.85-1.64-5.78-3.54c3-.83,6-1.66,9-2.55-5.86-4-11.69,3.19-16.69,3.51l.11-2.41c-13.73,4.26-12.76,9.82-28,12.74l1.89,1.26c-3.61,3.54-5.51,3.15-7.42,2.63s-3.84-1.18-7.62,1.59l-3.5-4.67c-2.61,1.2-7.16,3.44-12.29,5.7-2.56,1.13-5.27,2.27-7.95,3.3s-5.33,1.87-7.76,2.54c5-4.46,16.14-8.82,22.79-12.59-5.41,1.1-18.27,4.45-20.71,7.28,2.11-.87,4.66-2.62,6.94-2.34-6,5.28-14.5,8.57-25.4,10.45.12-2.31-1.6-3.26-4.41-3.5a53,53,0,0,0-10.86.8c-4.18.59-8.65,1.29-12.63,1.54s-7.47,0-9.65-1.24a99.13,99.13,0,0,1-14.29,3.47c-4.83.86-9.75,1.28-14.76,1.77s-10.14.89-15.41,1.44-10.71,1-16.33,1.88c8.5,4.07-6.57,1-4.7,6-5.24,1-7.27,1-7.77.75q-8.14-.72-16.24-1.29c-3.9-1,4.93-1.59,4.35-2.63-11.55.93-5-1.47-12.7-1.84,1.69,1.51-3.83,2.78-10.45,2.78l9.42,1.24c-8,2-11.55,1.28-15.11.68s-7.13-1.11-15.21.58l5.07-1.74c-4.15.72-11.86,1.32-19.53,2.18-1.92.21-3.84.46-5.7.71s-3.66.49-5.35.77a37.38,37.38,0,0,0-8.34,2.16c-1.5-.39-3.49-1.37.19-1.84-20,.71-44.56,4.72-60.17,2.89l1.52-.91c-3.74.29-6.52,1.75-11.2.77.25-.37,1.51-.88-.22-1-2,.28-10,1.47-14.91.85l4.25-.94c-4.88-.39-9.2-.4-13.19-.35s-7.65.3-11.22.59c-7.13.59-13.89,1.48-22.11,1.32.15-2.75-15.17-4.42-22.79-5.59l.29-.38c-11.33-1.14-21-1.29-30.45-1.51s-18.76,0-29.3-.61a72,72,0,0,0-12.5-3.41c-5-1.06-10.72-2.07-16.67-3.06l-9.06-1.5c-3-.5-6.08-1.13-9.07-1.72-6-1.21-11.74-2.51-16.81-4.08,3.06,1.31-1,3.26-4.7,3-4.72-1.8-13.87.7-12.5-3.31l1.72.4c-3.07-4.75-13.13-5.65-20.83-7.47l-2.2,5.6c-4.74-3.14-10.44-5.22-16.47-6.78a151.91,151.91,0,0,0-18.54-3.4A142.22,142.22,0,0,1,371,346.94c-4.89-1.29-8.82-3.08-11.08-6.08-5.19.61-11.15-1-16.34-.31l1.11-3.93c-13.13-4.42-19.57-7-36.2-10.39l4.07-2.17c-4.58-1.4-8.2.82-11.82,3.26s-7.18,5-11.51,4l-.91-7.37c-2-.55-4-1.19-6-1.9s-3.94-1.52-5.89-2.34c-3.91-1.63-7.79-3.39-11.71-4.92-2-.77-3.93-1.49-5.92-2.12s-4-1.25-6-1.71a40.72,40.72,0,0,0-12.67-.91c.56-1,1.61-2.86,4.28-2.35-3.73-1.26-10.65-4.63-16.59-6.56s-11-2.07-11.17,3.28c.88-3.24-3.18-4.67-8.64-5.32s-12.33-.57-17.09-.56l2.88-4.32c-9.2,3.69-10,5.35-20.67,3.6-2.17-1.44-.78-4.52,2-2.22-3.53-2.6-5.45-2-7.59-1.52s-4.5.92-8.81-2.07l4.64-1.73c-7.92-3.28-7.85-1.44-13.61.37-2.89,0-6.6-1.8-9.46-4.19s-4.89-5.35-4.58-7.66a9.14,9.14,0,0,1-5.25,2.2,9,9,0,0,1-6.71-1.84c.09-1.82,2.19-2,3.24-2.13-5.75-4.42-11-5.38-15.79-6.38a29.61,29.61,0,0,1-6.62-2,12.45,12.45,0,0,1-5.31-4.57,3.59,3.59,0,0,0,.07-3.33c9.45,5.55,17.45,9.63,16.53,9.59,1-2.05-.4-4.21-.87-6.2s0-3.73,4.47-5l-6.8.08a70.63,70.63,0,0,1-7.86-.43c-5.33-.6-10.42-2.19-13.45-5.32a5.18,5.18,0,0,1-.08-1.91l1,.05a8.1,8.1,0,0,0-4.82-2.29,30,30,0,0,0-4.81-5c1.37-3.47-6.35-7.28-9.25-10.11-1.49,1.91-3.12,1.83-4.25,2s-1.76.72-1.15,3.93c-.14-.36.11-.33.67,0s1.44,1,2.61,1.79a6.06,6.06,0,0,0,1.72.78,4.74,4.74,0,0,1-.5.14c2.25,1.68,5.22,3.86,8.66,6.26-4.2,0-8.49-.61-10.42-5.75a59.16,59.16,0,0,1-9.83,1.78,38.51,38.51,0,0,0-.76-7c-.44-2.31-.93-4.61-1.39-6.7a44.77,44.77,0,0,1-.81-5.69,7.14,7.14,0,0,1,.7-3.89c-4.89-3.8-9.29-9.39-13.25-14.68S37.4,196.93,32.19,194c-2-3.38,1.36-4.73,2.34-6.29a20.39,20.39,0,0,1,1.57,2.91,4.07,4.07,0,0,0,1.71,2.08c-2-3.1-3.45-8.24-4.68-12.83-.36-1.14-.66-2.25-1-3.29a19.3,19.3,0,0,0-1.18-2.83,5.71,5.71,0,0,0-3.35-3.34c1.17-4.85,2.58-3.45,3.45-2.58.45.44.78.76.94.18a6.69,6.69,0,0,0,.09-1.66c0-.85-.13-2-.17-3.63.57.6,1.12,1.2,1.71,1.78a46.61,46.61,0,0,0,3-17.1c0-1.38-.06-2.75-.09-4.13s-.18-2.77-.23-4.16l-.27-4.2L35.9,131c0-.66-.07-1.34,0-2l.15-2c.13-1.36.21-2.76.48-4.14a34.89,34.89,0,0,1,2.64-8.26q.48-1,1-2l.55-1c.2-.33.42-.65.64-1a47.42,47.42,0,0,1,2.91-3.83,34.35,34.35,0,0,1,3.69-3.54q1-.85,2.08-1.68c.76-.52,1.55-1,2.36-1.53-1.74,1.15-2.61,1.75-3.5,1.57,5.91-5.89,11.77-11.89,17.91-17.87A249.79,249.79,0,0,1,86.23,66.38c3.39-2.78,7-5.3,10.55-7.84,1.82-1.22,3.67-2.39,5.51-3.56.93-.58,1.84-1.17,2.79-1.72l2.85-1.6a124.27,124.27,0,0,1,23.65-10.31,25,25,0,0,0,8.55-4.57c1.76-1.49,3-3.1,5.39-5l2.94,1.77c2.71-2.26,5.47-4.52,8.29-6.68a35.38,35.38,0,0,1,9.66-3.45c3.26-.63,6.53-1,9.87-1.49A72.71,72.71,0,0,0,186.69,20a55.28,55.28,0,0,0,5.63-1.69c1.94-.7,3.95-1.55,6.07-2.46l-2.58-.75c1.61-.32,3.66-.83,5.83-1.38s4.45-1.17,6.53-1.58c4.15-.88,7.38-1.44,7-.69A6.76,6.76,0,0,1,219.68,10l.32.79c2.6-.71,5.21-1.48,7.84-2.08s5.27-1.18,7.92-1.74c12.48-1-1.7,2.78,16.37.5,6.68-1.29,19.24-2.79,16.69-2.85-2.75.14-7,.11-7.23-.3l6.23-.36c.56-.51,2-1,1.47-1.4s-3.2-.95-11-1.9c-3.59.15-7.18.37-10.77.68L244,.57c3-.1,6.08,0,9.12.05a29.89,29.89,0,0,0-6.65-.4c-1.92.14-3.63.46-5.45.74a14,14,0,0,0-4.65-1c-3.49.74-7,1.62-10.41,2.56-1.41-.8,4.56-2-2.67-2.06-2.43.69-1.15,1.13-.3,1.52s1.28.76-2.77,1.52c-5.31-.55-4-1.78-9.87,0-1-.57.23-1.17,2.59-1.73-2.64.71-6.2,1.21-9.42,1.79S197.47,5,196.26,6c-2.87-.46-7.36.56-11.16,1.23a36.92,36.92,0,0,1-4.88.66c-1.27,0-2.08-.28-2.17-1.1a40.53,40.53,0,0,1-5.52,2.86,57.47,57.47,0,0,1-7.94,3.26c1.89-1.6,1.71-2.11.36-2.08a18.06,18.06,0,0,0-2.78.4c-1.13.24-2.43.59-3.78.94a69.17,69.17,0,0,1-7.81,1.71c-2.18.3-3.67.06-3.51-1.3a18.79,18.79,0,0,1-5.91,4.06,94.05,94.05,0,0,1-8.72,3.82c-3.16,1.32-6.49,2.7-9.67,4.14a56,56,0,0,0-8.62,5c.45-.62,1.33-1.86,2.43-2.06a41.1,41.1,0,0,1-7.47,2c-2,.31-3.75.43-6,.93,1.18,4.1-7.88,9.8-11.32,15.1-2.38.1-3.49-.27-3.86-.93s0-1.65.52-2.69c1.07-2.08,2.85-4.48.6-5.61.56.72.14,1.72-.73,2.83s-2.21,2.32-3.43,3.56c-2.47,2.45-4.65,4.69-2.56,5.24-3.54.5-4.89,1.06-6,1.2s-2,0-4.56-.69c1.25,2.74.1,3.72-1.6,4.9S66.09,55.75,65,58.8c-4.71,1.69-6.14,1-7.26.78a2.22,2.22,0,0,0-1.85.51,10.8,10.8,0,0,0-1.48,1.29c-.59.62-1.29,1.41-2.16,2.45-2.6.91-2.47-.57-1.63-2.29a20,20,0,0,1,1.49-2.48c.24-.36.46-.64.62-.84ZM76.88,280.27l-.05.08c-1.86-1-3.42-2-4.42-2.59C73.33,278.3,74.6,279.07,76.88,280.27Zm17.84,10.45c-2.1-1.38-4.82-2.9-7.69-4.55.23-1.84,1.79-3,3.51-1.88-.76.22-.23,1.15.75,2.37S93.71,289.34,94.72,290.72ZM79.11,240.2c2.58,1.15,2.75,2.44,2.46,3.46-1.13-.69-2.42-1.52-4.22-2.49-.18.09-.44.15-.63.26A7.09,7.09,0,0,1,79.11,240.2Z"/><path class="cls-2" d="M71.14,242a5.14,5.14,0,0,1-1.13-.48,12.88,12.88,0,0,0,.6,1.92c.6-.17,1.2-.33,1.76-.51Z"/><path class="cls-2" d="M814.72,43.57l.39.18a2.39,2.39,0,0,1-.75-.83C814.6,43.2,814.58,43.35,814.72,43.57Z"/><polygon class="cls-2" points="356.67 375.8 356.84 374.84 354.95 375.42 356.67 375.8"/><path class="cls-2" d="M709.21,14.32a2.53,2.53,0,0,0-1.32-1.16C707.93,13.44,708.51,13.85,709.21,14.32Z"/><path class="cls-2" d="M662.41,10l-6.53-1.69A54.2,54.2,0,0,0,662.41,10Z"/><path class="cls-2" d="M626.42,6.46a3.83,3.83,0,0,0-.8,1.39l.07,0Z"/><path class="cls-2" d="M1192.31,118a5.52,5.52,0,0,0,1.41.44C1197.28,119,1195,118.29,1192.31,118Z"/><path class="cls-2" d="M1024.43,71.11a31.14,31.14,0,0,1,6.06-1.29C1027.66,68.59,1025.38,67.89,1024.43,71.11Z"/><path class="cls-2" d="M1248.3,294s0,0,0-.09c-.37.28-.72.49-1.1.75Z"/><path class="cls-2" d="M1038.18,72a11,11,0,0,0-7.68-2.2C1032.81,70.86,1035.5,72.22,1038.18,72Z"/><path class="cls-2" d="M469.86,6.63l-1.74,0c0,.08-.07.16-.21.22Z"/><path class="cls-2" d="M467.92,6.88,466,7.12A6.37,6.37,0,0,0,467.92,6.88Z"/><path class="cls-2" d="M461.94,7.62,466,7.12A14.86,14.86,0,0,0,461.94,7.62Z"/><path class="cls-2" d="M517.63,5.58l.56-.74A1,1,0,0,0,517.63,5.58Z"/><path class="cls-2" d="M532.17,5c-3.46-.13-8.67-1.42-13.52-.79l-.46.59c1.15-.57,3.81-.22,6.61.15S530.51,5.73,532.17,5Z"/><path class="cls-2" d="M592.2,18.37l-12-1.64c2.07,1.21,4.77,2.91-.73,2.74C594.49,23.91,576.4,16.82,592.2,18.37Z"/><path class="cls-2" d="M629.51,23.14c-6.51,0,0,1.87-.44,2.58C633.24,24.95,634.26,24.71,629.51,23.14Z"/><path class="cls-2" d="M897,63.4l-1.6,4.69C900.43,68.47,895.85,66.23,897,63.4Z"/><polygon class="cls-2" points="953.31 48.76 949.19 44.62 945.87 48.72 953.31 48.76"/><polygon class="cls-2" points="974.67 91.91 972.4 92.11 980.88 92.3 974.67 91.91"/><path class="cls-2" d="M1178.49,281.33l3.9,4.5C1184.87,283.42,1182.47,277.31,1178.49,281.33Z"/><path class="cls-2" d="M997.6,347.8c-2.52-1.68-8.14-1.76-11,1.07C990.91,348.16,995.53,348.85,997.6,347.8Z"/><polygon class="cls-2" points="413.91 353.61 417.96 353.22 410.54 352.68 413.91 353.61"/></g></g></svg>