<svg xmlns="http://www.w3.org/2000/svg" viewBox="0 0 1344.7 452.03"><defs><style>.cls-1{fill:#66d998;}</style></defs><title>Asset 11</title><g id="Layer_2" data-name="Layer 2"><g id="Layer_4" data-name="Layer 4"><path class="cls-1" d="M489.58,6.06c-1.36.22-.57.6,3.2.33q1.33-.43,2.66-.92Z"/><path class="cls-1" d="M515.05,6.65c4.43-.65,9.55-2.09,6.64-3.14a30.26,30.26,0,0,1-5,1.3,43.84,43.84,0,0,0-5.21,1.31c-3.78.25-6.61-.09-6-.47-1.33.3-5.88.11-7.9.74a74.78,74.78,0,0,0,17.67-.54C516.72,6.06,515.37,6.42,515.05,6.65Z"/><path class="cls-1" d="M880,52.38l-2.15-1.23A6,6,0,0,0,880,52.38Z"/><path class="cls-1" d="M1095.69,124c-1.66-.5-2.58-.12-2.89.44C1094.45,124.61,1095.83,124.7,1095.69,124Z"/><path class="cls-1" d="M1128.64,145.73c-.68-.52-1.29-.87-1.92-1.3C1127.27,145.36,1127.94,146,1128.64,145.73Z"/><path class="cls-1" d="M880,52.38l5.5,3.24C886.33,53.86,882.78,53.5,880,52.38Z"/><path class="cls-1" d="M566.09,1.23a20,20,0,0,0-3.34.65c1.06-.12,2.08-.23,3.14-.32A1.7,1.7,0,0,1,566.09,1.23Z"/><path class="cls-1" d="M781,36l-1.82-.34a11.72,11.72,0,0,0-1.82,1.68Z"/><path class="cls-1" d="M704.88,24.71c1.71.38,2.69-3,3.52-4.45a5.36,5.36,0,0,1-4,1.91A4.73,4.73,0,0,0,704.88,24.71Z"/><path class="cls-1" d="M583.33,8.89l-2.18.22C581.71,9,582.67,9,583.33,8.89Z"/><path class="cls-1" d="M834.77,47.83a4,4,0,0,0,.36,1.77A2.74,2.74,0,0,0,834.77,47.83Z"/><path class="cls-1" d="M156.26,108.16c0,.16.15.2.2.31C156.75,108.08,156.8,107.88,156.26,108.16Z"/><path class="cls-1" d="M240.47,74l-1.11.57c-.07.16-.15.32-.1.42Z"/><path class="cls-1" d="M1189.87,181.39a2.14,2.14,0,0,0-.23-.24C1187.67,181,1188.67,181.33,1189.87,181.39Z"/><path class="cls-1" d="M877.51,428.71c3.76.6.85,1.63-1.62,2.58s-4.47,1.87,1.19,2.45c-.56-.4,1.88-1.55,3.28-2.68S882.14,428.83,877.51,428.71Z"/><path class="cls-1" d="M568.1,1.4c1.05-.05,2.12-.1,3.19-.11A24.1,24.1,0,0,0,568.1,1.4Z"/><path class="cls-1" d="M877.08,433.74v0l1.17.1Z"/><path class="cls-1" d="M1295.33,264.47a6.36,6.36,0,0,0,2.27-1.32A6.3,6.3,0,0,0,1295.33,264.47Z"/><path class="cls-1" d="M1232.28,188.11c.75.67,1.46,1.37,2.19,2.06A7.47,7.47,0,0,0,1232.28,188.11Z"/><path class="cls-1" d="M1273.62,293.92c-1.55.58-2.44.19-3.93,2a3,3,0,0,0,.92.2C1270.89,295,1271.64,294.24,1273.62,293.92Z"/><path class="cls-1" d="M1217.58,327.07a11.87,11.87,0,0,0,1.55.36l1.71-1.19Z"/><path class="cls-1" d="M6.76,253.22a12.46,12.46,0,0,1,4.56-2.51C8.13,251.17,10.16,240,6.76,253.22Z"/><path class="cls-1" d="M566.11,2.23a2.87,2.87,0,0,1,2-.83c-.77,0-1.5.1-2.22.16C565.69,1.84,565.64,2.09,566.11,2.23Z"/><path class="cls-1" d="M1293.91,331.12l-9.85,4.8A69.28,69.28,0,0,0,1293.91,331.12Z"/><path class="cls-1" d="M431,430.27l-2.48.18A4,4,0,0,0,431,430.27Z"/><path class="cls-1" d="M1256.23,352.37a16.18,16.18,0,0,0-7.14-.27,4.66,4.66,0,0,0-.47,1.76Z"/><path class="cls-1" d="M11.37,250.7a.05.05,0,0,1,0,0A.05.05,0,0,0,11.37,250.7Z"/><path class="cls-1" d="M43.82,180.58c-7.9,7.84-.15,6.79.31,10.25-3.72,5.29-5.38,5.86-6.76,5.33S34.94,194,32.5,195a39.73,39.73,0,0,0-4.16,10.94c-.45,1.75-.89,3.42-1.44,4.95a18.14,18.14,0,0,1-2,4.31c-1,0-1.88.85-2-.89a34.09,34.09,0,0,1-2.44,7.81c-1.16,2.83-2.74,5.76-4,8.94-.65,1.57-1.3,3.16-1.88,4.74a39.58,39.58,0,0,0-1.31,4.83,32.9,32.9,0,0,0-.68,4.69,16.64,16.64,0,0,0,.41,4.43,3.48,3.48,0,0,1-1.66,1,10.91,10.91,0,0,1,7.63.37,26.55,26.55,0,0,0-.3,6.48c.08,1.87-.22,3.26-2.16,3.84.62-2.85-.76-3.36-1.6-5l.61,5.26c-3,1.82-3.11.07-3-2.3a25.05,25.05,0,0,0,.13-3.56c0-1.06-.33-1.88-1.26-2.09-.06.64-.13,1.29-.16,1.95v2c0,1.34.07,2.7.13,4.06s.13,2.7.22,4,.26,2.69.4,4c.57,5.28,1.22,10.12.69,14.13-2.59,1-3.27-3.74-3.47-7.34-.11-1.8-.17-3.31-.54-3.71s-1.11.25-2.39,3A92.16,92.16,0,0,1,9.69,263.6c-2.44,2-3.45,2.66-3.91,2.46s-.27-1.17,0-2.14.43-2-.05-2.28-1.64.08-4.21,2A45.16,45.16,0,0,0,0,274.32a49.42,49.42,0,0,0,.61,8.14C1,285,1.47,287.62,2,290.77s1.1,6.89,2.13,11.92c2.09,1.76,3,1,3.95.31s1.87-1.33,3.92.15c3.47,5.69,5.55,9.49,6.63,12.89a33.1,33.1,0,0,1,1.44,9,35.49,35.49,0,0,0,.45,4,12.71,12.71,0,0,0,1.37,3.76c1.41,2.37,4.05,4.72,8.85,6.19a22.84,22.84,0,0,0,4.46-.58,21.3,21.3,0,0,1,4.47-.62c3-.06,6.27,1.14,10.27,5.6-2.18,1.19-4.36,2.41-6.63,3.47A17.28,17.28,0,0,0,50.85,350a14.92,14.92,0,0,0,4.79-.51,8.57,8.57,0,0,1,4.54.06c1.77.54,3.9,1.87,7,4.48-3.58,1.23-11.48-3.3-9.79-1.56,1.72,2.3,3.11,3.46,4.31,3.95a4.19,4.19,0,0,0,3.23-.13c2-.79,4-2.23,7.51-.72l-.76,6a137.58,137.58,0,0,0,24.14,6c8.36,1.42,16.84,2.52,25.07,4.2-1.34,1.47-4.63,2.49-1.28,5.32a163.13,163.13,0,0,1,31.92,7.83c5.25,1.81,10.46,3.74,15.51,5.79s10,4.07,14.72,6.09l8.64-3.51c1.73.44,2.74,3,.63,3.63,7.25,3.63,1.1-3.19,5.22-4.42,4.43.59,5.13,4.2,2,5.17,14.49-1.47,40.47-1.58,53.73,6.45l-3.08,1c10.77,4.08,14.54-8.23,24-1.67l-2.15.55c11.89,3.18,24.76,4.62,36.78,6.54s23.23,4.3,31.92,9c2.32-3.12,8.2-1.53,13.9-.38s11.22,1.92,12.71-2.41a122.94,122.94,0,0,1,11.8,6.57c3,1.66,6.71,3.23,16.31,5.64,5.18.91,8.6-4.29,15.18-4.32l-.48,4.19q4.73-1.73,9.44-3.36l3.95,5.34,6.23-.4c-2.39-.48-4.88-2.33-4.34-3.44,4.87-.37,10.54,1,15,2.62s7.71,3.48,7.7,4.44c7.66-.38,15.29-.66,22.91-.91-.69,1.35-4.52,1.47-7.63,2.11,12.5-2.46,1.67,3.86,13.14,1.54-1.37-.9,1.07-2,1.42-2.61,5.21,2.53,17.7,3.62,27.06,3.55l-2,2c8.33.88,17.18,1.29,26.28,1.68s18.47.66,27.85,1.38c-6.64-1.32-4.74-4.33.77-4.11l1.91,2.84c3.72-1.37-5.63-1.44,1.87-2.89,7,.87,4.39,3.3.27,3.91l8.61-.32c.42.8-1.62,1.06-2.24,2,1.83-.68,5.44.21,9.27.94s7.86,1.31,10.51.19l.41.75c18.79,1,27.35.91,42.66,1.53.44-1.84,6.38-1.08,11-2.26,11.17,1.28,23.56,3.14,37.1,3.69,9.56-.51,2.85-1.34,7.17-2.2.63,1.56,14.15,2,7.09,2.79,16.26.46,20.78.37,41.36-.29-2.22-.7-4.72-1-3.41-1.53a24.47,24.47,0,0,1,5.56.47c1.58.3,2.63.72,2.36,1.1l-1,.15a127,127,0,0,1,18.35-.15c3.18.17,6.4.4,9.62.69l9.64.72c6.38.49,12.62,1,18.42,1.18a69.81,69.81,0,0,0,15.71-1.2l-1,.2c6.34-.78,12.68-1.47,19-2.36,8.79-.07-5.2,1.59,1.36,2.44a135.18,135.18,0,0,1,26.07-2.18c7.7-.22,15-.2,23.36-1.86a26.41,26.41,0,0,0,6,1.46,53.13,53.13,0,0,0,7.39.33c5.31-.07,11.28-.64,17.39-1.31s12.33-1.59,18.18-2.12,11.33-.72,16,.08l-1.3-1.67a6.25,6.25,0,0,1,4.9-.62,14.11,14.11,0,0,0,4.25,1c-.71-1.36-5.23-1-2.54-2.35q7.2-1.35,14.55-2.42,3.67-.54,7.38-1c2.47-.31,5-.6,7.44-1q7.45-1,15-1.87l7.59-.79c2.54-.24,5.09-.47,7.62-.8q7.61-.9,15.3-1.67l7.69-.78,3.85-.38c1.28-.13,2.55-.32,3.83-.48l15.3-2,7.62-1.06,3.8-.56c1.26-.19,2.51-.45,3.76-.68,7.31-1.44,8.42-5.14,10.14-8.36s4-5.94,14-5.29q-1.8,3.05-3.64,6.06,2.55-1.22,5.15-2.33c1.72-.79,3.45-1.56,5.19-2.29,3.49-1.46,7-2.8,10.6-4s7.2-2.4,10.83-3.51l2.73-.84,2.7-.9,5.42-1.78c7.23-2.36,14.46-4.68,21.47-7.39a133.59,133.59,0,0,0,19.89-10.17c-1.11,1.83-.5,3.41-3.18,4.43,3.67.76,9.09-1.21,13.35-3.89s7.32-6.13,6.66-7.71c4.34-1.47,2.24,2.4,5.55,2.87,6.8-.22,12.07-11.05,16.86-8.68.8.36-1,2-1.88,2.76,2.8-3.55,17.34-7.7,11.61-10.45,5.49-1.34,10-4.13,14.25-6.74s8.14-5.33,12.76-6c1.16-3.84,5.63-5.46,9.55-7.11s7.29-3.3,6-7.34c3.52,7.71,20.24-3.85,24.09-10.8-.64,3.38,6.68-.77,6.24,3.66,6.73-4.35,12-9.66,8.39-12.64a17.68,17.68,0,0,0,11-3.13,25,25,0,0,0,2.13-1.62q.51-.43,1-.88l.48-.45.74-.63,1.46-1.29,1.61-1.44c1.06-1,2-2,2.95-3a67.78,67.78,0,0,0,4.93-6c.74-1,1.44-1.95,2.12-2.9s1.38-1.85,2-2.79q.5-.67,1-1.3c.36-.42.74-.82,1.06-1.25a24.34,24.34,0,0,1,2.2-2.37,20.1,20.1,0,0,1,2.54-2.12,24.78,24.78,0,0,1,3-1.88,57.21,57.21,0,0,0,.94-15.31c-.07-1.25-.2-2.5-.36-3.74s-.33-2.46-.56-3.68l-.34-1.81a17.11,17.11,0,0,0-.36-1.76c-.27-1.08-.5-2-.8-3a85.14,85.14,0,0,0-3.94-10.69l-1.15-2.49c-.39-.82-.79-1.49-1.18-2.23l-2.34-4.31A146.44,146.44,0,0,0,1311.32,206c1.93-1.3,4-.66,6.09,1a17.74,17.74,0,0,1,3,3.16c1,1.23,2,2.58,3,3.92,3.75,5.48,7.06,11,11,8.36a40.37,40.37,0,0,0-2.78-3.61q-1.42-1.71-2.82-3.29a63.42,63.42,0,0,0-5.75-5.68l-2.84-2.53c-.93-.82-1.94-1.54-2.89-2.29-1.93-1.47-3.78-2.93-5.64-4.31s-3.77-2.67-5.59-4.06l-1.36-1.06-1.4-1q-1.4-1-2.77-2.12t-2.73-2.29c-.93-.75-1.87-1.52-2.8-2.35-1.87-1.63-3.7-3.49-5.65-5.36-1.78-2.26-.54-2.58,1.5-2.3,1,.14,2.23.42,3.35.68a15.29,15.29,0,0,0,2.75.59c-9.82-6-18.3-12.19-26.82-17.63s-17-10-26.26-11.79c.45-.78,2.64-.73,4.64-.51-3.36-1.43-6.81-5.1-8.4-1l3.63.5a3.54,3.54,0,0,1-2,4.36,20.08,20.08,0,0,1-6.66,1.84c-5.11.72-10.7,1-11.72,2.36,10.79-8.81-14.31-10.27,1-20.62-2.43-.24-5.92.41-6.71,3.29-2.7-2.22-2.95-4.25,1.6-5.79-12.3-3.19-10.27,3-20.42-2,.93-1.93,3.33-1.7,5.44-3.48-6.93,1.35-13.77,2.58-21.79-2.79,1-.95.72-2.92,3.31-1.75-7.65-3-15.16-3.22-22.59-4a59.86,59.86,0,0,1-11.11-2.12,37.83,37.83,0,0,1-5.54-2.19q-1.39-.68-2.78-1.51c-.93-.54-1.88-1.12-2.82-1.76,8.46-6.59-4.5-5.06-2.36-12.8l-9.9-1.33,2.16,5c-7.83-3.22-16.88-.59-22.67-5.66l7-.74L1100,94.87l7.25,6.07c-9.4.69-2.76,9.65-12.37,3.53,2.42,0-7.84-3-10.35-8.78,0,0,0,0,0,0-4.79.93-9.7,1.93-14.87-2-.67-2.89,4.16-7.67,3.73-9.58-3.05,2.37-7.85,1.14-12.79-.1a44.43,44.43,0,0,0-7.31-1.4A10,10,0,0,0,1047,84c2.17-1,3.58-4.77,3.3-5.73l-5,3.88c-3.16-2.79-3.45-3.72-1.82-6.56-10.89-4.49.44,10.34-11.47,2.09,1.17-.06.92-1,3.33-1-6.31-3.18-13-4.47-19.53-5.78-3.26-.65-6.48-1.31-9.61-2.19a42.65,42.65,0,0,1-9.11-3.3c-1.46-8.17,11.35,1.35,9-5.88-9.17-1.88-19.08-2.37-28.75-3.26-4.84-.44-9.62-1-14.24-1.8-2.3-.45-4.59-.85-6.83-1.38a61.39,61.39,0,0,1-6.53-1.91l3,1.59c-2.55,4.56-5.42,2.51-9-.35s-7.72-6.54-12.7-5.4c2.33-.16,4.21-4.6,3.35-3.68-5.77-2.25-12-3.18-19.19-3.76-7.19-.4-15.29-.37-24.69-1l2.8-1.86c-6.58-3.64-18.36-5.26-25.78-7.94-2.78,1.87-7.09.67-5.12,4.48-10.46-8.69-22.22-8.92-33.52-9.05-2.83,0-5.64,0-8.41-.16a74.47,74.47,0,0,1-8.22-.53A35.45,35.45,0,0,1,797,18.12c2.53.36,6.34-.91,4.33-1.22L783,16.12c.88,3.62,2,2.41,5.37,5.67-2.6,1.68-7.89,2.4-12.32,1.66,8.39-.91.78-5.44-2.44-7.8.43,1.11-.94,2.06-.8,3.14-8.54-7.05-2.57,6.44-14.8.81l.92-1.61c-4.93.26-9.65,1.88-14.75.71-1.66-3.9,5.33-1,6.08-4-3.66-.34-7.49.94-11.14,1.71s-7.15,1-10.22-1.13c3.21-.57,7.65,0,10.87-.63-6.64-5.07-7.63-4.06-12.9-5.34l.52.15c-4.06-1-8.13-1.93-12.21-2.86l3,1.33c-5.09,4-9.77,3.94-14.83,3.49s-10.47-1.26-16.86.77c6.21-1.91,6.79-2.65,6-3.26S689.37,7.75,690,6c-3.06-1.24-7.77-2.67-6.31-3.54-6.08,2.24-9.62-2.58-18.21.93-.29-1.06-6.26-.38-4.74-2.91-7.69.53,1.67,1.84.92,3.14-6,1.48-12.8.05-20.28-1.09a84.48,84.48,0,0,0-11.69-1.2,54.87,54.87,0,0,0-12.5,1.26c-14.63,1.45-17.4,4-30.87,4.63-2.25-.67-1.31-1.27.2-1.73a31.48,31.48,0,0,1,3.59-.78c-1.82-.32-3.54-.54-5.19-.7a46.74,46.74,0,0,0-4.83-.13c-3.16.05-6.28.32-9.74.71,1.41-.57,0-1-2.12-1.71-5.56.28-3.74,2.28-11,1.47a24.83,24.83,0,0,1,5.57-2.48c-6.56.76-13,1.93-19.78,2.45-1.8-.84,4.08-1.41,6.47-2.1-3.81.33-8.74.66-13,1.09s-7.87,1.11-9,1.74l4.88.24c-2.77.15-1.43-1,.61-1.31a27.4,27.4,0,0,1,4.22-.56,15.3,15.3,0,0,1,3,.19,4.66,4.66,0,0,1,2.58,1L537.83,5c2.48,1.38,7.31,1.38,12.73.89S562,4.42,566.88,4.48q-2,1.35-4.07,2.61,5-1,10-2.17c2.1.71,3.51,2.34-1.27,2.68,6.91,1.53,6.16-.94,12.09.78.65.27.35.41-.26.52l6.79-.58c-1.35.59,1.06,2.28-3.08,1.58a48.75,48.75,0,0,0,14.91.68c4-.32,7-.68,9.22.79l-1,.16c8.44-.09,8.88-.77,8.81-1.69s-.67-2.07,5.76-3.49q2,1.78,4.07,3.63c1.35,1.22,2.7,2.49,4,3.82L634.65,11c1.73.25,5.15.75,4.44,1.89,6.58-1.49-1-1.38,2.85-3,4.09,1.68,9.87,1.84,14.82,2.15s9.08.84,9.81,3.56c3.2-2.28-7.83-2.56,1.23-3.61,1,2.94,3.63,2.93,6.89,2.55s7.2-1,10.88.77c-2.63,2.86-9.65.31-2.32,4,2.53-2.33,6.2-1.63,10-.31s7.83,3.26,11.07,3.13c.39-2.2,3.92-2.26,8.71-1.79l7.91.89c1.4.15,2.82.25,4.23.36s2.8.2,4.17.2c-.87,1.49,19.79,5.65,29.43,9.07l-.42.81c2.65-4.81,12.8-2.5,20.39-2.14-.8,3.16-2.33,4.19-6.56,4.85l7,1.31c1.91-1.41,4.23-1.92,8.86-1.72l-2.42,3.76c4.64.78,9.5.45,14.64.53s10.57.56,16.27,3.1C818,37.46,809,28.54,822.21,28.1c.07,2.27-.17,6.11-3.63,6.32,1.13-.06,4.19-1,6.2.35l-5.72,2.64c5.12,2.76,3.41-2.48,7.69-1.24-.68,3.12,2.78,2.91,1.68,5.29-1.16.07-3.53-2.1-5.41-1.23,4.77,1.6,10.3,4.74,11.76,7.59-.07-1.91.84-4.29,4.49-3.95,9.27,1.73,2.38,4.55,7.4,7.39,2.69-1.77,8.06,1.88,9.24-3,2.69.6,2.7,3,3.46,4.57,2.62-.63,8.17.63,12.55,1.14s7.61.3,5.55-3l-1.14-.65c.25,0,.52,0,.83,0h0c8.35-.63,16.31,2,24.12,5l11.64,4.56A50.63,50.63,0,0,0,924.64,63l-.48,1.77c9.67.48,20.63,4.39,28.26,2.25a6.5,6.5,0,0,1,3.53,3c.8,1.43,1,3,.15,3.92,7.3.76,8.69-1.08,17.8,5-7.9,1.09,1.55,3.6-7.81.16,8.52,4.36,9.61,8,20.78,5.88-4.72,3.76,4.88,8.14,9.57,8l-5.2-5.39A47.13,47.13,0,0,1,1004.38,92l-4.29,5.58c7.79,7,16.95,6.56,25.47,6.51,4.25,0,8.33.07,11.93,1.27a14.75,14.75,0,0,1,5,2.78,16.42,16.42,0,0,1,4,5.37c3.16-1.38,1-3.1-1.17-4.93s-4.46-3.65-1.38-5.6c8,3.86,13.27,16.51,15.82,17.5,9.9,7.9,14-5.61,25,1.28-.63-2.88.29-9.73,10-8.56,7.94,4.18,6.28,13.93.39,13.71-2-.6-2.69-1.73-2.31-2.49-3-.24-6.82-.6-4.56,3.23l2-1.91c3.13,4.05,14.44,8.37,10.29,11.15,7,.27,4.16-2.78.06-5.85,9.12,7.65,16.32,6.73,26.16,13.39-1.17-2-1.62-5.39.08-4.67,7.34,4.6,9.46,4.37,11.25,3.21s3.11-3,8.66-1.21c4.52,6.21-5.81,7.59,6.15,9.26,5.46,5.27-1.33,6.81-4.72,7.59,11.64-.26,16.79,10.83,21.91,14l-5.93-.33a21.37,21.37,0,0,1,8.52,2.48c-.25-2-.5-4-.78-6,2.62,2.13,5.09,3.37,4.16,5.27,4.44-1.61,1.18-8.83,9.16-10.13,2.87,4.21,13.26,3.14,11.76,9.9-11.47-7.89-1.51,6.79-12.48,2.88,2.36.21,4.82,1.39,7.41,3.58.12.89-1,1.07-2,1,9.27,11,8.7-4.38,21,1.52-3.22,2.7-.28,7.81,2.08,8-4.93-2.35.38-6.8,6.23-7.29,6.39,6.38,9.3,2.15,13.13,4.48l-3.9-3.54c3.25-2.58,6.89-.21,12.67,1.59-1,2.81-5.72-.77-4.47,1.37a5.74,5.74,0,0,1,5.47.91,20.11,20.11,0,0,1,3.92,4.72c2.43,3.73,4.81,7.74,9.66,8.31,1,2.16.08,3.65-.82,5s-1.77,2.64-.9,4.31a9.46,9.46,0,0,1,5.37,2.17,11.09,11.09,0,0,1,2.23,3.65,17.82,17.82,0,0,0,2,3.8,7.49,7.49,0,0,0,1.85,1.65,15.6,15.6,0,0,0,2.91,1.35c.78-2.73.7-3.92,1.63-4.37s2.63-.08,6.81.57l-3.49-2.14c-1.17-.7-2.43-1.32-3.62-2s-2.37-1.32-3.64-1.91l-3.74-1.77c2.09.1,4.26.2,6.39.37s4.22.45,6.39.72a17.4,17.4,0,0,0-3.2-2.16c-.57-.31-1.16-.6-1.74-.88l-1.8-.73c-2.36-.93-4.34-1.81-5.35-3,6.56-.18,5.43.61,6-4.25a7.25,7.25,0,0,0,2.63,5.29,16.19,16.19,0,0,0,4.93,2.5c.91.34,1.89.65,2.78,1.07a16.21,16.21,0,0,1,2.54,1.46,7.67,7.67,0,0,1,3.34,5l-9.09,8.19a13.1,13.1,0,0,0,1.75,3.75c.38.52.74,1,1.12,1.53a14.06,14.06,0,0,0,1.26,1.38,29.2,29.2,0,0,0,3,2.4c1,.8,2.09,1.56,3.22,2.35l1.73,1.21c.56.43,1.08.89,1.62,1.36a39.76,39.76,0,0,1,3.18,3.09,22.15,22.15,0,0,1,2.54,3.92,24.65,24.65,0,0,1,1,2.26,24.09,24.09,0,0,1,.61,2.57l.1-2.53c0-.85-.06-1.66-.08-2.51a3.52,3.52,0,0,1,3,1.21,10.4,10.4,0,0,1,1.54,3.26l1.21,3.88a10.15,10.15,0,0,0,1.58,3.27c-3.93.64-4.63,3.5-6.83,5.31.72-.17,1.16.27,1.49.91a3.7,3.7,0,0,1,.38.78c.13.29.26.6.4.94a6.65,6.65,0,0,0,1.51,2.16,11.16,11.16,0,0,0,3.88,2.3,15,15,0,0,1-6.16,1.65,4.23,4.23,0,0,0-1.64,3.19c-.11,1.27.07,2.82,0,4.6-.07.46-.14.94-.23,1.41a14.22,14.22,0,0,1-.6,1.64A21.14,21.14,0,0,1,1295,286a15.6,15.6,0,0,1-6.08,5.57c1-5.67-5.42-4.58.17-12-3.63,2.42-7.24,4-5.86,6.28-1.71-.28-3.51,2.49-5.56,5.24s-4.36,5.49-7,5c-.69,2.37.87,6-3.51,8.35-.86-.36-.95-1.58-.95-1.58,1,1.58-5.3,6.2.54,7.46a22.34,22.34,0,0,0-12.65,2c-1,.44-2,.93-3,1.47l-3,1.65c-2,1.12-4,2.34-6,3.56a98.16,98.16,0,0,1-11.63,6.61,26.07,26.07,0,0,1-5.68,1.84,16,16,0,0,1-2.8.29,14.71,14.71,0,0,1-2.82-.31c-4,2.73-8.41,5.68-12.8,8.48-2.2,1.4-4.39,2.76-6.5,4s-4.15,2.49-6.11,3.44c.05-1.18-.73-1.59.92-2-12.24,2.19-2.44,12.22-16.48,14.75-8.63-2.1,5.37-5.84.54-5.91-3.21-4.77-6.74-2.64-10.88.42s-9.1,6.67-14.53,5.56l1.78-1.49c-3.93-.32-7.42,2.37-11.33,5.61s-8.32,6.83-13.8,8.6c0,0,.19-1.09-.51-1.53-2.69,4-7.38,7.75-12.65,11.18a88,88,0,0,1-8.24,4.68c-2.78,1.44-5.52,2.79-8,4,2-4.87,4.1-3.66.82-6.76-4.52,2.2,3.47,5.65-5.64,10-3.75-1-11.1-.33-13.26-4.06l2.21-.77,2.18-.85,4.37-1.69c-3.1-1.8-5.89-.64-8.6.88s-5.28,3.56-7.76,3.88l-.08-2.4c-6.67,2.62-9.66,5.3-12.85,7.86a34,34,0,0,1-5.42,3.71,41.7,41.7,0,0,1-8.68,3.13l2,1.15c-3.38,3.74-5.31,3.46-7.25,3.06s-3.91-1-7.51,2.05l-3.75-4.41c-5,2.86-17.75,9.71-27.34,13,4.77-4.85,15.68-9.63,22.11-13.69-5.34,1.36-18,5.18-20.29,8.24,2.06-1,4.5-2.91,6.8-2.71A39,39,0,0,1,1002,414a64.41,64.41,0,0,1-14.41,4.47c.06-4.62-7.06-3.6-15.33-2s-17.83,3.15-22.24.91c-9.27,3.56-18.9,4.68-28.88,5.89s-20.45,1.85-31.66,3.74c8.53,4-6.55,1.09-4.65,6-5.24,1-7.28,1-7.78.75q-8.15-.69-16.26-1.24c-3.9-1,4.93-1.61,4.35-2.65-11.54,1-5-1.46-12.69-1.79,1.69,1.52-3.84,2.76-10.46,2.72l9.42,1.29c-8,1.93-11.56,1.22-15.12.6s-7.12-1.15-15.22.54c1.7-.55,3.39-1.11,5.08-1.73-2.07.41-5,.67-8.45,1s-7.26.62-11.1,1-7.68.85-11.07,1.43a39.15,39.15,0,0,0-8.37,2c-1.5-.42-3.48-1.43.21-1.84-20,.36-44.69,4.13-60.29,1.94l1.54-.87c-3.75.2-6.56,1.55-11.23.54.25-.37,1.53-.86-.2-1-1,.13-3.49.47-6.37.7-1.44.11-3,.2-4.44.21a30.48,30.48,0,0,1-4.14-.28l4.28-.82c-19.52-2-30.16,1.18-46.64.66.1-1.37-3.68-2.53-8.44-3.5s-10.49-1.9-14.31-2.47l.3-.38c-11.34-1.26-21-1.61-30.52-1.92s-18.82-.18-29.39-.89c-6.33-2.67-17.31-4.51-29.26-6.61-6-1-12.21-2-18.22-3.18s-11.81-2.5-16.92-4.06c3.08,1.33-.93,3.23-4.7,3.09-4.77-1.69-13.93.9-12.61-3.15l1.73.39c-3.14-4.73-13.28-5.59-21.08-7.16l-2.1,5.65a54.87,54.87,0,0,0-16.73-6.47,162.42,162.42,0,0,0-18.78-2.83c-12.37-1.39-23.66-2.11-28.51-7.95-5.2.81-11.3-.42-16.49.51l.9-4c-13.48-3.79-20.19-5.8-37.2-8.2l3.94-2.42c-4.72-1.13-8.23,1.41-11.68,4.11s-6.83,5.55-11.26,4.88l-1.51-7.29a115.13,115.13,0,0,1-12.33-3.25c-4.08-1.29-8.14-2.7-12.23-3.89a78.13,78.13,0,0,0-12.38-2.73,42.2,42.2,0,0,0-12.82.32c.46-1,1.32-3,4.05-2.75-7.76-1.75-29.12-11.09-28.21-.41,1-6.62-16.9-4.11-26.43-3l2.36-4.63c-8.77,4.73-9.36,6.39-20.25,6-2.36-1.17-1.37-4.39,1.68-2.45-7.76-4.32-7.44,3.3-17-1.42l4.41-2.35c-8.45-2.17-8.12-.36-13.62,2.29-5.81.84-15.92-4.78-16.18-9.44a10.18,10.18,0,0,1-12,2.56c-.29-1.81,1.77-2.42,2.8-2.72-6.73-3.25-12.33-3-17.35-2.94s-9.45.17-13.71-3.36A3.57,3.57,0,0,0,137,345c11.12,2.83,20.21,5.13,19.25,5.3,1-4.46-7.84-7.3.84-11.79-4,.85-9.61,2.39-15.19,3.13s-11.16.74-15.19-1.4a5.18,5.18,0,0,1-.74-1.79l1-.26a9,9,0,0,0-5.6-.72,30.48,30.48,0,0,0-6.64-3.23c0-1.91-2.26-3.1-5.09-4s-6.14-1.55-8.17-2.33c-1.22,4.69-6.52,2.11-2.65,7.6-.56-.56,1-.27,3.88.46a6.68,6.68,0,0,0,2,.1,4.87,4.87,0,0,1-.43.31l10.83,2.91c-4.13,1.42-8.4,2.29-12.32-1.79a76.2,76.2,0,0,1-8.57,5.36,32.84,32.84,0,0,0-3.64-6.12c-1.41-2-2.92-3.86-4.33-5.59a57.78,57.78,0,0,1-3.52-4.87,7.34,7.34,0,0,1-1.34-3.87C74.86,321.08,67.67,318,61,315.59s-12.19-4.24-18-3.86a2.72,2.72,0,0,1-1.74-3.15c.2-1.14.82-2.25.94-3.13,1.86.82,3.31,2.46,4.92,2.25-3.16-1.35-6.39-4.7-9-7.74S33.39,294,30.37,294c0-2.29.49-3.19,1-3.46s1.2.11,1.74.37.93.45,1-.07a29.81,29.81,0,0,0-1-4.52c.66.43,1.31.85,2,1.23a50.17,50.17,0,0,0,1-15.67c-.08-1.29-.25-2.59-.34-3.91s-.23-2.65-.39-4-.41-2.72-.5-4.07l-.26-4.12-.12-2.1a17.08,17.08,0,0,1,0-2.12c.06-1.4.15-2.83.28-4.26a35.48,35.48,0,0,1,1.84-8.64c.24-.72.48-1.45.77-2.17s.67-1.41,1-2.11a47.91,47.91,0,0,1,2.45-4.18,36.18,36.18,0,0,1,3.28-4,30.58,30.58,0,0,1,4-3.74c-1.63,1.34-2.34,2.08-3.27,2,5.2-6.57,10.25-13.26,15.64-19.94S71.64,191.33,77.8,185a181.87,181.87,0,0,1,19.77-17.52c3.47-2.68,7.12-5.19,10.75-7.62s7.39-4.63,11.2-6.69c8.37-5.06,7.9-7.55,11.82-12.41l3.28,1.06q3.23-4.3,6.6-8.49a36.7,36.7,0,0,1,8.55-5.8c3-1.5,6.08-2.71,9.19-4.09a65.33,65.33,0,0,0,19.58-12.36l-2.68.11c2.86-1.64,7.23-4.53,10.86-6.76s6.55-3.79,6.39-2.94a7,7,0,0,1,3.81-2.92l.57.63q3.32-2.38,6.67-4.7t6.8-4.49c5.63-2.81,5.49-2,5.94-1.62s1.51.37,9.46-4.21c1.45-.9,3.2-2,5-3.2l5.14-3.33c3.12-2,5.26-3.39,4.07-2.9-2.45,1.26-6.37,3-6.74,2.72l5.54-2.91c.3-.69,1.46-1.73.75-1.88s-3.33.47-10.76,2.8c-3.22,1.56-6.43,3.16-9.58,4.87q-1.77.34-3.56.64,4.16-1.8,8.38-3.48c-5.11,1.25-7.86,3.06-11,5a13.38,13.38,0,0,0-4.63.86q-4.44,2.92-8.72,6.12c-1.6-.26,3.51-3.5-3.22-1-2,1.47-.68,1.45.25,1.53s1.46.27-2.06,2.37c-5.17,1.27-4.31-.26-9.25,3.31-1.1-.23-.17-1.18,1.86-2.47-4.49,3-12.7,6.56-14.37,9.22-2.82.5-6.8,2.72-10.2,4.47s-6.19,3.09-6.82,1.56a42.81,42.81,0,0,1-4.44,4.26,55,55,0,0,1-6.73,5.19c2.8-4-1.3-1.83-6.12.84s-10.36,5.76-10.73,3a18.26,18.26,0,0,1-4.71,5.25,90.09,90.09,0,0,1-7.56,5.51c-2.78,1.9-5.71,3.86-8.5,5.87a53.76,53.76,0,0,0-7.43,6.36c.32-.69.95-2.05,2-2.43-5.85,3.37-8.35,3.29-12.55,4.91,1.83,3.81-6.24,10.7-9,16.38-4.67.84-4.55-1-3.77-3.16s2.2-4.8-.17-5.63c1.31,1.3-1.13,4.11-3.24,6.84s-4,5.2-1.86,5.5c-6.83,2-5.16,2.54-10.41,1.77,1.55,2.54.58,3.73-1,5.07s-3.79,2.79-4.41,6c-4.49,2.23-6,1.67-7.15,1.6s-1.93.41-5,4.89c-2.5,1.19-2.53-.29-1.88-2.08A24.73,24.73,0,0,1,43.82,180.58Zm77.5,189.56,0,.1-4.85-1C117.46,369.4,118.86,369.68,121.32,370.14Zm19.38,4.91c-2.3-.77-5.22-1.53-8.33-2.29-.27-1.83.9-3.36,2.81-2.78C133.86,370.83,138.17,372.93,140.7,375.05Zm-30.9-43.56c3,.17,3.7,1.36,3.8,2.44-1.36-.32-3-.61-5.14-.91-.14.15-.37.29-.51.46A6.71,6.71,0,0,1,109.81,331.49Z"/><path class="cls-1" d="M102.76,336a5,5,0,0,1-1.28,0,12.06,12.06,0,0,0,1.35,1.58c.51-.38,1-.75,1.49-1.13Z"/><path class="cls-1" d="M877.46,50.95l.38.21a2.43,2.43,0,0,1-.69-.89A3.55,3.55,0,0,1,877.46,50.95Z"/><polygon class="cls-1" points="408.75 429.84 408.87 428.87 407.02 429.53 408.75 429.84"/><path class="cls-1" d="M773.57,15.65a2.46,2.46,0,0,0-1.27-1.21C772.33,14.71,772.89,15.14,773.57,15.65Z"/><path class="cls-1" d="M726.83,9.29c-2.16-.66-4.33-1.24-6.5-1.85A61.94,61.94,0,0,0,726.83,9.29Z"/><path class="cls-1" d="M690.84,4.66A3.79,3.79,0,0,0,690,6l.07,0Z"/><path class="cls-1" d="M1248.56,151.45a5.63,5.63,0,0,0,1.42.44C1253.57,152.46,1251.28,151.78,1248.56,151.45Z"/><path class="cls-1" d="M1084.54,95.69a32.67,32.67,0,0,1,6.18-.75C1088,93.48,1085.79,92.57,1084.54,95.69Z"/><path class="cls-1" d="M1295,330.6s0,0,0-.09c-.36.23-.69.4-1.05.61Z"/><path class="cls-1" d="M1098.2,97.74a11,11,0,0,0-7.49-2.8C1092.94,96.16,1095.5,97.73,1098.2,97.74Z"/><path class="cls-1" d="M533.82,2.34l-1.74.07c0,.08-.07.16-.21.22Z"/><path class="cls-1" d="M531.87,2.63l-1.93.28A6.45,6.45,0,0,0,531.87,2.63Z"/><path class="cls-1" d="M525.87,3.48l4.06-.57A15,15,0,0,0,525.87,3.48Z"/><path class="cls-1" d="M581.74,1.48l.57-.74A1,1,0,0,0,581.74,1.48Z"/><path class="cls-1" d="M596.32,1.25C592.85,1,587.64-.45,582.77.14l-.47.6C584.62-.52,593,2.54,596.32,1.25Z"/><path class="cls-1" d="M656.22,15.67l-12-1.94c2,1.26,4.71,3-.79,2.72C658.38,21.27,640.44,13.72,656.22,15.67Z"/><path class="cls-1" d="M693.41,21.47c-6.51-.25-.11,1.87-.52,2.56C697.08,23.42,698.11,23.23,693.41,21.47Z"/><path class="cls-1" d="M958.18,76.57l-2,4.54C961.16,81.94,956.78,79.3,958.18,76.57Z"/><polygon class="cls-1" points="1015.58 66.73 1011.83 62.19 1008.17 65.95 1015.58 66.73"/><polygon class="cls-1" points="1033.05 111.64 1030.76 111.64 1039.2 112.54 1033.05 111.64"/><path class="cls-1" d="M1225.56,317.46l4.05,4.34C1232,319.24,1229.49,313.18,1225.56,317.46Z"/><path class="cls-1" d="M1048.83,397.35c-2.63-1.53-8.22-1.28-10.94,1.71C1042.18,398.1,1046.83,398.51,1048.83,397.35Z"/><polygon class="cls-1" points="465.28 405.72 469.34 405.27 461.86 404.85 465.28 405.72"/></g></g></svg>