<svg xmlns="http://www.w3.org/2000/svg" viewBox="0 0 1343.69 443.32"><defs><style>.cls-1{fill:#dd5371;}</style></defs><title>Asset 15</title><g id="Layer_2" data-name="Layer 2"><g id="Layer_4" data-name="Layer 4"><path class="cls-1" d="M1003.29,72.23c-1.42-.13-.73.46,3.15,1.06q1.45-.11,2.9-.28Z"/><path class="cls-1" d="M1028.88,78.78c4.62.42,10.11.25,7.42-1.47a32.55,32.55,0,0,1-5.3.08,46.92,46.92,0,0,0-5.56,0c-3.88-.65-6.65-1.64-5.93-1.87-1.42,0-6-1.28-8.15-1.13a82,82,0,0,0,18,3.64C1030.69,78.6,1029.25,78.64,1028.88,78.78Z"/><path class="cls-1" d="M1324.12,272.83c.24-.72.53-1.44.72-2.18A6.09,6.09,0,0,0,1324.12,272.83Z"/><path class="cls-1" d="M1137.13,374.16c1.71-.53,2.28-1.36,2.24-2C1137.85,372.95,1136.61,373.64,1137.13,374.16Z"/><path class="cls-1" d="M1096.55,373.77c.88.08,1.6.06,2.39.09C1097.95,373.37,1097,373.16,1096.55,373.77Z"/><path class="cls-1" d="M1324.12,272.83c-.31.92-.69,1.82-1.07,2.71s-.78,1.74-1.21,2.59c.93.3,1.36-.34,1.67-1.4S1323.91,274.19,1324.12,272.83Z"/><path class="cls-1" d="M1081.68,85.39a20.4,20.4,0,0,0-3.52-.16c1.1.12,2.15.27,3.24.44A1.68,1.68,0,0,1,1081.68,85.39Z"/><path class="cls-1" d="M1276.27,191.78l-1.35-1.26a11.42,11.42,0,0,0-2.43.44Z"/><path class="cls-1" d="M1212.86,147.33c1.48,1,3.65-1.82,5-2.83a5.67,5.67,0,0,1-4.54.27A4.66,4.66,0,0,0,1212.86,147.33Z"/><path class="cls-1" d="M1097.33,97.08l-2.25-.33C1095.67,96.82,1096.64,97,1097.33,97.08Z"/><path class="cls-1" d="M1308.44,234.25a4.21,4.21,0,0,0-1.16,1.37A2.81,2.81,0,0,0,1308.44,234.25Z"/><path class="cls-1" d="M716.69,5.28c-.07.14,0,.25,0,.37C717.17,5.49,717.32,5.36,716.69,5.28Z"/><path class="cls-1" d="M808.77,25.63l-1.28-.19c-.16.09-.32.17-.34.28Z"/><path class="cls-1" d="M1023.36,376a2.28,2.28,0,0,0,.33.08C1025.52,375.21,1024.45,375.45,1023.36,376Z"/><path class="cls-1" d="M348.27,376.52c3.68,1.44.48,1.78-2.25,2.15s-5,.79.63,2.65c-.47-.51,2.27-1.08,4-1.86S352.94,377.71,348.27,376.52Z"/><path class="cls-1" d="M1083.68,86c1.07.2,2.16.41,3.25.65A26,26,0,0,0,1083.68,86Z"/><path class="cls-1" d="M346.65,381.32v0l1.16.36Z"/><path class="cls-1" d="M855.56,392a6.71,6.71,0,0,0,1.77,2.41C857.26,393.81,856.86,393.12,855.56,392Z"/><path class="cls-1" d="M981.79,392.55l-3.17-.5A9.18,9.18,0,0,0,981.79,392.55Z"/><path class="cls-1" d="M790,400.92c-1.7-.41-2.27-1.15-4.61-.43a3,3,0,0,0,.7.65C786.93,400.42,788.05,400.07,790,400.92Z"/><path class="cls-1" d="M721.48,400.35a12.15,12.15,0,0,0,1.23,1.05l2.18-.23Z"/><path class="cls-1" d="M505.54,11.59A12.86,12.86,0,0,1,509.19,15C507.75,12.15,517.73,10.12,505.54,11.59Z"/><path class="cls-1" d="M1081.48,86.38a3,3,0,0,1,2.2-.33c-.78-.14-1.54-.26-2.28-.37C1081.14,85.89,1081,86.12,1081.48,86.38Z"/><path class="cls-1" d="M786.83,443.19l-11-1.1A71.12,71.12,0,0,0,786.83,443.19Z"/><path class="cls-1" d="M24.13,141.52c.52-.85,1.06-1.66,1.61-2.47A5,5,0,0,0,24.13,141.52Z"/><path class="cls-1" d="M743.05,441.67a16.51,16.51,0,0,0-6.12-3.83,4.61,4.61,0,0,0-1.31,1.27Z"/><path class="cls-1" d="M509.22,15a.06.06,0,0,1,0,0A.06.06,0,0,0,509.22,15Z"/><path class="cls-1" d="M580.55.06C570,.5,576.07,5,574.11,7.83c-12.37,2.27-6.17-3.14-10.71-5.35-7.69,1.82-13.16,6.87-19,7.19-.53-.79-1.7-1-.5-2.17-7.74,4.81-24.42,2.34-33.28,8.72A3.35,3.35,0,0,1,509.22,15a11.71,11.71,0,0,1,2.41,7.24c-4.64.62-8.18,4.47-10.39,1.1,2.86-.24,2.91-1.71,4.1-3l-4.67,2.12c-5.05-4.64,6.41-2.55,5.93-6.31-9.31,2.65-19.79,8.33-27.26,7.71-2.21-5,16.79-3.69,6.47-7.17l11.53.7c-9.66-7.07,6.93-.17-2.11-7.87-15.07,0-16.28,4.29-31.27,4.35-2.94,3.31,1.68,4.22-1.26,7.55-10.15,3.9-14.73,1-18.6-1.76s-7-5.49-14.27-.93c-3.51,4.13-4.08,11.33-15.6,9L417.11,21c-14.47,1.12-6.91,10.16-22.56,7.79,2.31-2.87,11-3.56,8.7-4-10.48-3.82-6.38,4.47-13.86,5.5L387,24.75A230.23,230.23,0,0,0,363.52,31c-8,2.5-16.27,5-24.63,6.9.65-1.9,3.26-4.18-1-5.38-20.88,6.14-45.68,6.67-67,7L264,46.23c-1.83.3-3.86-1.67-2.08-3.07-8.42-.39.25,3.37-3.18,6.16-4.47,1.25-6.63-1.76-4.06-3.92-3.31,1.82-7.34,3.89-11.78,5.9s-9.29,3.91-14.2,5.69a97,97,0,0,1-14.69,4.07c-2.39.43-4.72.76-6.95.94a35.94,35.94,0,0,1-6.38,0l2.5-2.25c-6,.47-8.59,3.9-11.14,7s-5.05,5.78-10.94,4.93l1.79-1.45a187.1,187.1,0,0,0-19,4.73c-6.3,1.93-12.53,4-18.64,5.86-12.15,4-23.69,7-34.23,7.22-.66,3.87-6.94,5.46-12.86,7.5s-11.46,4.5-10.46,9c-3.85.52-6.54.78-8.73,1s-3.88.25-5.72.49a37.74,37.74,0,0,0-6.67,1.49,86.53,86.53,0,0,0-11.53,4.69,9,9,0,0,0-3,2.8,21.77,21.77,0,0,0-2,3.63c-1.2,2.59-2.4,5.37-5.07,7.92l-2.6-3.32c-.92,1.64-1.8,3.28-2.66,4.95s-1.69,3.31-2.48,5c-2.4-.12-4.77-.05-7.21,0-1.48,2-3,3.94-4.33,6,2.11-2,5.49-3.1,6-1.94-3.31,4.51-8.22,9-12.35,12.89l-2.94,2.66c-.91.82-1.78,1.52-2.51,2.12-1.46,1.21-2.56,1.86-3,1.68a91.74,91.74,0,0,0-4.46,13.62A83.4,83.4,0,0,0,4.37,184c-.63-.44-.86-1.83-.94-3.62s.13-3.94.21-5.91A33.65,33.65,0,0,1,3,181.56,1.81,1.81,0,0,1,1.61,183a1.7,1.7,0,0,0-1.37,1.28A8.31,8.31,0,0,0,0,186.58a24.29,24.29,0,0,0,.35,4.17c.9-1.73,2,1.23,2.62,1.59-1.3,3.2-1.88,8.73-1.4,14.69a66.59,66.59,0,0,0,3.85,17.4L2.75,222.9a91.52,91.52,0,0,0,4.87,14.38l1.59,3.52L11,244.21c1.22,2.27,2.37,4.6,3.8,6.76l2.07,3.3c.7,1.09,1.35,2.23,2.14,3.27l4.52,6.37L28.37,270c.79,1,1.64,2,2.49,3l2.53,3c-4.2-6.19-.53-6.72,3.45-2.35q-.29,1.76-.53,3.54c1.95.89,1-.39.62-1.41-.22-.5-.35-.91,0-.89s1.11.49,2.84,1.59c4.85,5.72,1.27,5.72-2.44,3.07l3.54,3.09,1.76,1.54,1.82,1.46c-.16.91-2-.33-3.16-.05,2,.77,4.37,4,7.16,7.26a50.47,50.47,0,0,0,4.45,4.42,16.33,16.33,0,0,0,2.27,1.67,9.22,9.22,0,0,0,2.29.94l-.07.87c2,1.59,3.84,3.09,5.63,4.43l5.13,3.67,2.38,1.68L72.84,312l4.45,2.86c1.43.95,2.91,1.77,4.36,2.64l4.4,2.63c3,1.76,6.18,3.5,9.7,5.56,1.24-1.47,6.56,2,11.51,3l7.87,4.64c2.73,1.53,5.51,3.13,8.4,4.7s5.9,3,9,4.49,6.32,2.83,9.64,4.12c9.65,2.81,3.26-.29,7.81.39.1,1.75,13.51,6.43,6.21,5,4,1.43,7.36,2.46,10.39,3.44s5.78,1.76,8.66,2.59c1.44.41,2.92.83,4.49,1.25l5.06,1.26c3.62.92,7.85,1.85,13.09,3-2.07-1.25-4.51-2.22-3.07-2.36,3.8.83,8.35,3,7.62,3.55l-1-.11c11.91,2,25.09,6.37,37.81,10.3s24.93,7.49,34.61,7.58l-1.08,0c6.59.69,13.17,1.25,19.76,1.83,8.89,2-5.59.32.84,2.7,5.36.29,10.13.74,14.51,1.42s8.4,1.51,12.3,2.31c7.8,1.6,15.11,3.4,23.95,3.66,3.14,2.09,7.68,3.7,13,4.93s11.46,2.15,17.75,3,12.73,1.55,18.7,2.55,11.49,2.18,15.9,4.13l-.85-1.95c4.89-1,5.57,1.89,9,2.86-.34-1.5-4.92-2.39-1.9-3a594.57,594.57,0,0,1,61.12,9.22c20.6,4,41.31,8.78,61.73,12.39,15,2.53,9.42-12.41,27.9-4.29l-5.69,4.4c15.33-1.37,30.78.1,46.18,1.64,7.69.8,15.38,1.54,23,1.91a133.34,133.34,0,0,0,22.71-.6c-1.83,1.18-2,2.87-4.87,2.65,6.08,4.55,23.22,1.87,23.47-1.59,4.61.69.94,3.16,3.72,5.1,6.21,2.94,16.06-4.46,19.24,0,.54.72-1.83,1.29-3,1.55,4.19-1.83,19.15,1.64,15.39-3.56,11.11,2.93,21.46-1.26,30.3,2.14,6-5.49,19.12,3.48,21.13-4.61-.48,4.21,4.4,6.09,10.29,6.46s12.81-.92,16.38-2.86c-2.4,2.54,6.14,2.86,3.33,6.4a34.38,34.38,0,0,0,10.64-1.17c2.7-.93,4.21-2.43,3.51-4.68,7.45,5.32,15,3.36,21.64,1.69s12.52-3.13,16.81,3.77c6-1.18,11.91-2.26,17.71-3.29s11.5-2.11,17.12-3,11.16-1.74,16.64-2.63,10.9-1.64,16.29-2.35c-.19,4.65-6.17,5.05-11.94,5.5a30,30,0,0,0-7.74,1.24c-2,.75-3.27,2.05-3,4.46,20.52-4.2,32-12.52,52.42-11.32,5.35,1-2.75,4.23-4.45,5.91A102.49,102.49,0,0,1,948.83,435c5-.5,9.86-.75,14.69-1s9.58-.59,14.25-1.24a66.2,66.2,0,0,0,13.68-3.47c0,.9-1.86,2-3.66,2.92,3.57-.61,8.51.71,7.7-3.62l-3.4,1.48c-6.27-5.82,13-14.43,13.31-17.85-2.42,6.52,2.13,6.95,6.29,7.69s7.93,2,3.91,10.43c2.29-1.07,5-3.46,4.18-6.32,3.59.48,4.9,2.07,1.69,5.77,6.32-1.87,8.19-3.85,10-5.5a10.55,10.55,0,0,1,3.08-2.18,21.61,21.61,0,0,1,6.12-1.43c.21,2.12-2,3.25-2.95,5.87,5.42-4.85,10.79-9.76,20.82-9.22-.42,1.35.94,2.87-2,3.21a52.57,52.57,0,0,0,11.63-3.46c3.63-1.53,7.09-3.29,10.61-4.91,7-3.3,14.31-6,23.81-5.62-3.89,10,6.77,2,9.13,9.61l9.53-4.21-4.68-3.06a26.62,26.62,0,0,0,6.18-2c2-.88,3.84-1.91,5.69-2.84,3.7-1.89,7.3-3.36,11.27-2.94-1.91,1.55-3.83,3.06-5.76,4.55,2.66-.78,5.31-1.62,8-2.46l7.93-2.52-9.77-.92c7.83-5.89-3-9.59,8.81-9.91-2.11,1.33,8.5-1.89,14,1.55,0,0,0,0,0,0,3.63-3.51,7.27-7.12,14-6.89,2.27,2,.9,8.7,2.39,10,1.25-3.74,6.11-5.58,11.09-7.51s10-4.16,11.61-8.22c-1.25,2.06-.17,6,.65,6.57.65-2,1.28-4,1.9-6.08,4.38.31,5.21.88,5.55,4.14,6-1.52,4.33-3.51,3-5.2-.65-.85-1.19-1.63-.63-2.23s2.24-1,6-1.24c-.94.78-.17,1.35-2.18,2.87,7.27-1.46,13.73-4.58,19.9-7.9s12.16-6.58,18.87-8.08c6.68,5.25-10.2,6.38-3.52,10.38q3.31-1.72,6.57-3.7c2.15-1.38,4.28-2.82,6.39-4.29s4.24-2.92,6.29-4.53l6.17-4.71c4.11-3.05,8.18-6.22,12.3-9.12a141.69,141.69,0,0,1,12.57-8.06c-1.15.48-2.32.91-3.47,1.35-1.58-5,2-5.79,6.76-7,1.19-.27,2.46-.58,3.71-1a20.9,20.9,0,0,0,3.72-1.48,11.1,11.1,0,0,0,5.51-5.66c-1.3,2.27,1.24,6.33,1,5,5.83-4.28,10.69-10.55,14.39-18.59a69.7,69.7,0,0,0,5.76-28.79q1,1.49,2,3.08c1.83-4.1,2.59-9.94,2.47-15.74a149.13,149.13,0,0,0-1.52-16.13c-2.89-2.16-3.94-7-6.36-3.21a30.4,30.4,0,0,0,.15-10.55,35.9,35.9,0,0,0-3-9.46c-2.75-5.92-6.82-10.91-11-15.46s-8.64-8.66-12.53-13a54.38,54.38,0,0,1-5.29-6.86,38.18,38.18,0,0,1-4.14-7.94c1.92,2,5.92,3.47,4.39,1.88l-3.8-3.2-3.91-3-3.89-3-4-2.85c-.57,1.78-.45,2.58,0,3.52a16,16,0,0,1,1.68,4.39,17.51,17.51,0,0,1-5.74-1.73,27.43,27.43,0,0,1-6-3.9c3.93,1.93,4.83.93,4.54-1.11s-1.88-5-2.75-6.87c-.17,1.19-1.9,1.26-2.32,2.27-2-5.46-3.42-4.43-5.29-3.44s-4.22,1.88-8.39-3.77l1.59-.95c-2.31-1.15-4.78-1.88-7.14-2.82a32.58,32.58,0,0,1-3.48-1.58,18.93,18.93,0,0,1-3.33-2.1c.13-4.27,5.46,1.5,7.45-.74-3.26-2.1-7.47-2.66-11.2-3.66s-7.21-2.13-9.25-5.45c3.27.86,7.31,3.24,10.6,4.15-2.06-3.8-3.53-5.51-5-6.77s-2.9-2-5.23-3.67l.44.35c-3.52-2.64-7-5.34-10.69-7.81l2.46,2.47c-6.47,1.67-10.87-.33-15.66-2.61s-9.82-5-16.75-5.29c13.49.63,3.13-1.81,5.48-4.62-2.61-2.25-6.88-5.12-5.14-5.48-3.43.11-5.57-1.4-8.13-2.76a17.26,17.26,0,0,0-10.28-2.44c0-1.11-6.14-2.34-3.9-4.28-7.85-1.92,1.15,2.3,0,3.3a25.83,25.83,0,0,1-4.81-.86,42.18,42.18,0,0,1-4.9-1.62c-1.65-.65-3.33-1.4-5-2.17l-5.29-2.34c-7.21-3.22-15.3-6.11-24.36-6.54a115.61,115.61,0,0,0-16.63-1.49c-2.23-.07-4.42-.16-6.9-.39s-5.29-.55-8.73-1.17c-2.12-1.17-1-1.53.6-1.64a33.92,33.92,0,0,1,3.81.06,60.85,60.85,0,0,0-9.94-3.19,95,95,0,0,0-10-1.7c1.55-.22.21-1-1.76-2.18-5.67-1.06-4.28,1.32-11.49-1.16a26.26,26.26,0,0,1,6.19-1.13c-6.8-.78-13.6-1.11-20.57-2.1-1.63-1.22,4.45-.46,7-.61-7.86-1.09-20.29-3-22.92-2.33l4.86,1.42c-2.82-.52-1.23-1.3.91-1.13,6.86.28,9.48,2.28,9.73,2.89l-5-.7c2.21,1.87,7.1,2.94,12.71,3.68l8.67,1a64.64,64.64,0,0,1,8.14,1.36c-1.58.55-3.14,1.07-4.7,1.57,3.5.13,7,.23,10.55.26,2,1.2,3,3.13-1.89,2.3a17,17,0,0,0,6.39,1.89,11.74,11.74,0,0,1,5.61,1.86c.59.43.26.49-.38.44l7,1c-1.5.26.54,2.46-3.48.83a55.94,55.94,0,0,0,14.89,4.17c4.08.63,7.19,1.09,9.07,3.08l-1.06-.11c8.49,2,9.07,1.6,9.24.66s-.16-2.19,6.63-1.83c2.14,3,4.19,6.23,6.2,9.45l2.54-2.19c1.68.66,4.95,2.11,3.94,3,7,.35-.65-1.61,3.65-2.12,3.66,2.7,9.33,4.56,14.18,6.3s8.73,3.62,8.63,6.44c3.84-1.18-7-4.89,2.28-3.06.14,3.15,2.66,4,6,4.72s7.38,1.42,10.42,4.3c-3.51,1.84-9.54-2.83-3.56,3a6.43,6.43,0,0,1,4.92,0,20.29,20.29,0,0,1,4.93,3.05c3.3,2.53,6.4,5.85,9.55,6.92,2.37-3.91,13.53,5.16,23.73,9.68-.36.25.48,1.22,2.05,2.64s3.9,3.25,6.39,5.43,5.33,4.43,7.83,6.83a82.62,82.62,0,0,1,6.58,6.57l-.75.51c2.32-1.46,5.44-.39,8.79,1.59,1.64,1,3.33,2.28,5,3.53l2.54,1.85c.82.63,1.63,1.23,2.43,1.77a5.49,5.49,0,0,1-3.5,1.76,6.86,6.86,0,0,1-2.06-.24,19.23,19.23,0,0,1-2.65-.86c1.82,1.51,3.52,3.13,5.24,4.74a8.24,8.24,0,0,1,3.69.61,13.87,13.87,0,0,1,2.17,1.08c.76.48,1.59,1.07,2.52,1.77l-4.11,1.72a45.15,45.15,0,0,0,5.51,4.46c1.93,1.44,3.91,2.92,5.93,4.49a37.29,37.29,0,0,1,5.69,5.46,25,25,0,0,1,4.5,7.27c1.84-.95,2.71-4.59,4.21-7s3.9-3.5,9.09,1.22c-1.51,1.72-4.33,4.27-7.07,2,.46.36,1.41.9,2.32,1.67a5.31,5.31,0,0,1,2,3c-2-.76-4-1.45-6-2.12,1.81,5.48,4.22.57,6.44,4.52-2.72,1.68-.17,4-2.67,4.83-.83-.77-.9-3.95-2.87-4.64a26.12,26.12,0,0,1,2.45,7.26,10.92,10.92,0,0,1-.29,6.06c1.43-1.24,3.85-2.13,5.82.87a9.23,9.23,0,0,1,1.37,4.24,2.08,2.08,0,0,1-.94,1.75c-1,.77-2.42,1.23-2.28,3.88,1.41.54,2.09,2.33,2.87,3.79s1.8,2.61,4.24,1.94c.72,2.51-1.49,3.6-2.55,4.86,1.59,1.84,2.74,6.83,3.54,10.63a22.32,22.32,0,0,0,.66,2.59,5.48,5.48,0,0,0,.82,1.8c.67.85,1.61,1,3-.34l.34-1.18c.11.22.12.47.24.74v0a22.4,22.4,0,0,1,.88,11.61,31.84,31.84,0,0,1-4.27,10.91,62.93,62.93,0,0,1-7,9.12c-2.49,2.82-5,5.54-7.26,8.59l-1.28-1.31c-2.38,3.82-6.11,7.31-9.69,10.57s-7,6.39-8.91,9.89c-2.46,1.5-7.54.39-7.6-2.17-2.8,2.37-4.17,4.11-6.18,5.53a15.14,15.14,0,0,1-3.8,1.89,41.56,41.56,0,0,1-6.42,1.47c5.14-6.22-3.61-1.56,5.69-5.49-9.34,2.66-12.43.81-19.59,9.72.56-3-1.72-3.69-4.56-3.29a17.81,17.81,0,0,0-8.11,3.34l7.57.83a52.9,52.9,0,0,1-13.1,5.1l-.2-7.05a24.74,24.74,0,0,0-13.42,3.35,75.52,75.52,0,0,0-10.77,7.53c-3.45,2.55-6.85,4.91-10.53,6.1a15.52,15.52,0,0,1-12.22-1.33c-3.61,6.06,11.13.31,8.33,7-4.49.82-9.66-.43-14.06-2s-8-3.17-9.31-2.83c-6.42-.39-8.55,2.7-10.76,6s-4.52,6.77-11.14,6.92c2.16,2.05,5.27,8.25-3.83,12.69-9.22,1-13.18-8-8-11.15,2.08-.65,3.28-.08,3.37.77,2.68-1.49,6.2-3.32,2.1-5.25l-.61,2.69c-2.47-.8-6.73-.5-10.12-.59s-5.92-.63-4.9-2.92c-6.21,3.64-2.06,4.61,3.18,4.93-12.1-1.37-17.84,3.3-30.09,2.84,2.11,1.08,4.36,3.73,2.48,4-17.9-.24-6.85,6.06-18.56,9-7.33-2.82,1-9.5-10.42-4.54-7.66-1.58-2.5-6.49.06-8.95-5.05,3.16-10.21,3.17-14.91,2.18s-8.88-2.7-12-2.75l5.43-2.77a24.5,24.5,0,0,1-8.88,2.33L1046,377c-3.47-.46-6.3-.11-6.5-2.23-3.05,3.76,3.7,8.09-2.64,13.51-2.4-1-5.75.1-8.8.61s-5.79.46-6.93-2.81c14.41.71-2.31-6.58,9.5-9-2.21,1.06-5,1.34-8.49.83-.59-.69.32-1.44,1.2-1.93-14.11-4.49-5.36,8.29-19.4,9.71,1.4-4-4-6.85-6.16-5.83,5.65-.47,3.32,6-1.61,9.43-9.29-2.08-9.62,3.12-14.39,3.22l5.53.87c-1.5,3.93-6.08,3.88-12.31,5.63-.77-2.85,5.57-2.54,3.22-3.62-3.23,3.67-7.36,2.19-11.81.58s-9.26-3.5-14-.9c-4.7-2.16-.91-7-5-8.36-10.63,5.61-12.13-4.26-23.37.52,3.57,4.72,4.1,3.49-3.77,8.84L939,391.38l-11.75,8c5.74-.29,11.91-3.89,15.39-3.27-5.55,4.44-5,3.15-2,7.13-8.29-7-15.35,5.3-24.72.79l-.31-12.23c-6.92-2.35-12.87-.45-19.35,1.74a81.37,81.37,0,0,1-10.28,3,37.21,37.21,0,0,1-12.1.43l5.75,1.86c-2.24,4.83-10.93,1.05-16.63,3.17.44-4-3.17-5.29-5.67-7.65.35,2.91-13,.09-14.46,7.94l-8-4.94c-14.31-1.7-16.29,11.25-30.13,10.06,4.17-4.19-2.09-6.81,7.13-9.9-4.6,0-8.73-.61-8.81,2-2.67-2.29-12.8,5.16-17,1.58-2,1.65-2.63,5.58-7.81,5.25a1.92,1.92,0,0,1,0-1.84c0,1.85-8.14,2.48-3.67,6.63-7-5.82-17-5.78-26.68-5.48s-19.22.62-25.26-4.3c-5.05.49-10.62,1-16.07,1.31s-10.78.5-15.36.49c.63-1,.1-1.75,1.81-1.33-12.48-3.61-8.16,9.84-22.39,5.63-7.09-5.84,7.76-2.72,3.28-5-.75-5.71-5.09-5.45-10.42-4.64S651.9,400,647.24,396.6l2.37-.57c-3.6-2-8.15-1.08-13.31.14s-10.93,2.76-16.94,2.16c0,0,.64-.92.16-1.6-8.55,5.09-24.3,6.1-36,6.9,3.86-3.74,5.41-1.83,3.45-5.94-5.24.32,1.13,6.54-9.34,7.07-3.25-2.33-10.63-4.56-11.35-8.73l9.81.2c-2.34-2.83-5.51-2.87-8.74-2.42s-6.51,1.47-9.06.9l.81-2.27c-15.06.21-15.66,5.77-31.77,4.47l1.55,1.74c-4.61,2.42-6.4,1.52-8.18.49s-3.54-2.2-8.08-.54l-2.25-5.42c-3,.47-8.15,1.43-13.91,2.26A137.7,137.7,0,0,1,479.09,397c3.11-1.57,7.75-2.63,12.58-3.54s9.86-1.72,13.72-2.66c-2.88-.17-7.78-.31-12.37-.14s-8.85.61-10.45,1.72c2.36-.32,5.39-1.36,7.62-.46-7.39,3.49-16.86,4.63-28.33,3.58,1.43-4.43-6-5.44-14.73-6.4-4.37-.47-9.07-.9-13.15-1.65s-7.55-1.85-9.46-3.54c-10.3.78-20.3-.45-30.7-1.89-5.19-.76-10.48-1.57-16-2.3s-11.1-1.48-17-2c7.68,5.94-6.9-.55-6.14,4.7-5.52-.36-7.6-.71-8-1.09l-16.17-5c-3.72-1.87,5.36-.39,5-1.53-11.92-1.81-4.73-2.63-12.46-4.77,1.37,1.85-4.53,1.89-11.24.34l9.27,3.36c-8.55.12-12-1.4-15.48-2.8a33.87,33.87,0,0,0-5.86-1.94,45.67,45.67,0,0,0-9.69-1l5.54-.56c-2.19-.11-5.27-.47-8.8-.89l-11.49-1.44c-8-.94-15.93-1.71-20.44-.94-1.43-.73-3.21-2.15.61-1.75-10.17-2.09-21.67-3.51-32.51-5.36s-21-4-28.52-7.08l1.76-.45c-3.8-.74-6.93-.23-11.31-2.46.35-.28,1.75-.42.05-1-1-.12-3.58-.53-6.47-1.14-1.45-.31-3-.67-4.44-1.08a31.37,31.37,0,0,1-4-1.48l4.44.45c-4.65-1.93-8.88-3.29-12.76-4.57-2-.62-3.84-1.17-5.68-1.67s-3.62-1.05-5.39-1.53-3.54-.92-5.28-1.42l-5.28-1.55a107,107,0,0,1-11.09-4c.58-1.2-2.55-3.79-6.63-6.55-1-.68-2.1-1.41-3.17-2.16l-3.25-2.17-3.12-2-2.68-1.83.43-.21c-9.81-6-18.15-11-26.16-16.21-1-.64-2-1.25-3-1.92l-3-2c-2-1.35-4-2.64-5.91-4.12s-4-2.89-5.92-4.46-3.91-3.27-5.92-5a49.45,49.45,0,0,0-3.08-5l-2-2.77c-.66-1-1.36-2-2.09-3s-1.5-2.09-2.3-3.16-1.51-2.25-2.3-3.39l-2.42-3.49-2.29-3.7c-.76-1.25-1.6-2.48-2.31-3.77l-2.12-3.91-1.06-2c-.35-.65-.62-1.34-.93-2l-1.77-4a38.91,38.91,0,0,1-1.49-4l-1.3-3.94c-.37-1.3-.65-2.59-.94-3.84s-.42-2.5-.59-3.7c0,1.52-.8,1.69-1.81,1A8.34,8.34,0,0,1,27.1,221a13.76,13.76,0,0,0-.81-3.85c-.37-1.34-.94-2.69-1.25-3.92a7.62,7.62,0,0,1-.4-3.05c.17-.76.68-1.18,1.74-1.11,0,.53,0,1.07,0,1.6a8.84,8.84,0,0,0,2-3.68c.18-.72.42-1.48.56-2.28s.22-1.63.36-2.47a80.1,80.1,0,0,1,1.47-10.28q-2.8-1-5.61-2.11c3.13-4.18,5.71-8.58,8.47-13,1.32-2.26,2.83-4.5,4.27-6.79s3.07-4.52,4.78-6.67c6.69-8.62,15.12-15.84,22.26-14.6,2.94-3.95,8.15-6.76,11.54-10.56l1.74,3.7c6.19-2.42,11-4,16.08-5.89s10.57-4,18.43-7.22l-2.13,4.05c4.54-1.36,6.28-5.28,8-9.32s3.36-8.19,7.67-9.7l4.79,5.72c8.24-2.43,17.08-3.4,25.61-5a80,80,0,0,0,12.59-3.08,47.42,47.42,0,0,0,6-2.55,43.84,43.84,0,0,0,5.72-3.41c0,1.11.08,3.28-2.56,4.23,4-.87,11.93-1.54,18.18-3.15s10.92-4,8.23-8.64c.92,3.22,5.3,2.36,10.51,0a169.21,169.21,0,0,0,15.56-8.47l-.31,5.2c6.3-7.94,6.16-9.8,16.66-13.83,2.72.09,3.1,3.45-.59,2.92,9.12.77,5.69-6.1,16.67-5.66l-3.24,3.94c8.91-1.44,7.87-3,12-7.6,2.59-1.54,6.87-2.09,10.75-1.72s7.41,1.73,8.48,3.82c.68-2.93,4.88-7.47,10.36-7.18,1,1.54-.71,2.94-1.57,3.63,7.72.23,13-2.13,17.74-4.27s8.94-4,14.48-2.45a3.56,3.56,0,0,0,2.22,2.6c-5.94.93-11.28,1.83-15,2.37s-5.95.79-5.54.53c.8,4.51,10.44,3.54,4,11.14,3.51-2.39,8.21-6.06,13.27-9s10.46-5.19,15.29-5A5.25,5.25,0,0,1,348,70.35l-.88.67a10.18,10.18,0,0,0,5.77-1.74,32.82,32.82,0,0,0,7.94,0c1.68,3.47,11.26.1,16.06-.52-1.12-4.72,5.27-5-1.2-8,.81.23-.82.7-4,1.44a7.66,7.66,0,0,0-2,.84,4.94,4.94,0,0,1,.26-.48c-3.12.66-7.19,1.44-11.83,2.28,3.39-3.08,7-5.76,12.73-4a93,93,0,0,1,5.53-8.78c7.59,5.67,20.73,7.2,23.07,11,14.24-5,34.21-7.21,42.3-17.06,4-1.68,5.14,1.73,6.87,2.83-2.3,1.2-5.18,1.5-6.32,2.91,8.06-3.4,24.61-4.58,25.85-10.59,10.88,1.07-5.22,6.14,9.13,3.09l-1.72,2c14.83,2.37,25.89-3.08,37.44-7.92s23.61-9.12,40-6c-2.26-.34-3.38-.5-3.93-1.28,18.25-.09,36.63-3.54,55.09-6.07s37-4.25,54.86-2.6c10.14.34,11.17-1.95,17.35-3.81l2.23,2.7c3.51-1.21,7-2.43,10.57-3.47a39.87,39.87,0,0,1,10.71,0c1.72.2,3.42.46,5.13.74s3.42.58,5.16.92a75.55,75.55,0,0,0,11,1.36,60.84,60.84,0,0,0,6.17-.06c2.15-.1,4.41-.25,6.81-.57l-2.37-1.44c3.41.29,8.83.34,13.25.53,1.1,0,2.15.1,3.08.16s1.75.19,2.41.29c1.32.21,2,.45,1.7.76a7.66,7.66,0,0,1,5-.2l.12.85c5.63-.08,11.29-.17,16.9.19,6.45,1,5.85,1.53,6,2.13.08.29.34.6,1.77.92.71.16,1.72.33,3.14.5l5.61.63c3.53.28,8.58.52,12.43.72s6.48.33,5.18,0c-2.83-.41-7.19-1.29-7.33-1.74l6.43.89c.67-.39,2.28-.54,1.78-1.08s-3.09-1.57-10.78-4q-2.75-.51-5.5-1c-1.84-.3-3.67-.63-5.53-.79q-1.7-.74-3.41-1.53l4.61.95c1.54.32,3.06.75,4.58,1.12-1.27-.5-2.43-.9-3.52-1.22a27.44,27.44,0,0,0-3.1-.63c-2-.29-3.77-.38-5.66-.5a14.74,14.74,0,0,0-4.46-2,109.43,109.43,0,0,0-11.06-.05c-1.22-1.12,5.07-.88-2.16-2.66-2.6.06-1.44.81-.69,1.4s1.09,1.05-3.16.78c-5.18-1.89-3.55-2.67-9.87-2.62-.82-.83.54-1.06,3-.94-2.81-.11-6.5-.48-9.86-.74s-6.39-.38-7.88.25C729.42,7.6,716,8.91,716.69,5.66a42.26,42.26,0,0,1-6.29,1,74.53,74.53,0,0,1-8.8.61c9.49-3.71-19.27-1.45-16.79-6.13C681.31,3.11,675,3.36,668,3.36s-14.63,0-20.75,1.38c.67-.39,2-1.17,3.1-.91a38.52,38.52,0,0,1-7.72-1.22c-2-.53-3.62-1.15-5.89-1.63-.67,4.23-11.43,5.37-17,8.49-4.39-2-3.21-3.38-1.28-4.74S623.08,2,621.6,0c.67,3.56-14.55,4.07-11.41,7.1-6.72-2.51-5.7-1.07-9.38-4.84-.63,6-6,1.27-11,5.28-9.68-2.47-3-5.64-13.11-3.12-2.55-.81-1.59-1.92,0-2.81A23.12,23.12,0,0,1,580.55.06ZM339.13,39.54l0-.1,4.95-1.06C343,38.61,341.61,38.94,339.13,39.54Zm-20.3,3.34c2.5-.23,5.59-.72,8.84-1.26,1,1.57.52,3.44-1.54,3.68C327,44,322.1,43.79,318.83,42.88ZM367,69.54c-3.06,1.21-4.27.45-4.86-.47,1.49-.33,3.21-.79,5.46-1.5.06-.2.22-.43.28-.65A6.43,6.43,0,0,1,367,69.54Z"/><path class="cls-1" d="M371.7,62.28a6.38,6.38,0,0,1,1.26-.57,15.52,15.52,0,0,0-2.06-.76c-.31.57-.63,1.14-.9,1.69Z"/><path class="cls-1" d="M1325,270.26l-.1.39a2.32,2.32,0,0,1,.68-.83C1325.3,270.09,1325.14,270.09,1325,270.26Z"/><polygon class="cls-1" points="41.83 122.35 42.42 123.13 43.51 121.2 41.83 122.35"/><path class="cls-1" d="M1280.51,170.45a2.71,2.71,0,0,0-.53-1.76C1279.87,168.94,1280.15,169.64,1280.51,170.45Z"/><path class="cls-1" d="M1239.56,141.92,1234,137.4A61.23,61.23,0,0,0,1239.56,141.92Z"/><path class="cls-1" d="M1206.12,123.43a3.7,3.7,0,0,0-1.28,1l.06,0Z"/><path class="cls-1" d="M987.79,432.22a5.61,5.61,0,0,0-1.44.39C983,434,985.31,433.4,987.79,432.22Z"/><path class="cls-1" d="M1162.83,391.48a33.91,33.91,0,0,1-5,4.05C1161.08,395.23,1163.53,394.76,1162.83,391.48Z"/><path class="cls-1" d="M788,443.32s0,0,0-.09c-.43,0-.8,0-1.23,0Z"/><path class="cls-1" d="M1149.7,397.36a11.91,11.91,0,0,0,8.16-1.83C1155.22,395.75,1152.08,395.88,1149.7,397.36Z"/><path class="cls-1" d="M1048.78,79.11l-1.77-.36c0,.09-.11.14-.26.16Z"/><path class="cls-1" d="M1046.75,78.91l-2-.2A6.94,6.94,0,0,0,1046.75,78.91Z"/><path class="cls-1" d="M1040.51,78.29l4.23.43A16.07,16.07,0,0,0,1040.51,78.29Z"/><path class="cls-1" d="M1097.42,89.46l.74-.58A1,1,0,0,0,1097.42,89.46Z"/><path class="cls-1" d="M1112.24,92.66c-3.46-1-8.42-3.64-13.47-4.25l-.61.46C1100.78,88.26,1108.57,93.09,1112.24,92.66Z"/><path class="cls-1" d="M1168.57,122.61c-3.78-1.77-7.55-3.61-11.38-5.3,1.7,1.77,3.87,4.19-1.52,2.41C1169.17,128.57,1153.49,116.2,1168.57,122.61Z"/><path class="cls-1" d="M1203,140.17c-6.19-2.47-.73,1.72-1.37,2.23C1205.88,143.27,1207,143.44,1203,140.17Z"/><path class="cls-1" d="M1277.11,326.68l-1.84-4.6C1271.33,325,1276.15,323.77,1277.11,326.68Z"/><path class="cls-1" d="M1239.07,372.88l6,1,.54-5.34C1243.5,370.08,1241.28,371.45,1239.07,372.88Z"/><path class="cls-1" d="M1196.89,348.38l1.86-1.36c-2.46,1.42-4.91,2.89-7.43,4.23l2.8-1.41Z"/><path class="cls-1" d="M733.79,396l1.42,5.81C738.75,400.87,739.65,394.36,733.79,396Z"/><path class="cls-1" d="M529.34,394.54c-2.06-2.31-7.7-3.93-11.4-2C522.51,393,527,395,529.34,394.54Z"/><path class="cls-1" d="M32.13,182.92c-.07,1.11,0,2.25,0,3.35a52.6,52.6,0,0,1,1.33-5.88C33,181.2,32.58,182.08,32.13,182.92Z"/></g></g></svg>