<svg xmlns="http://www.w3.org/2000/svg" viewBox="0 0 1377.31 493.6"><defs><style>.cls-1{font-size:333px;font-family:IndieFlower, Indie Flower;}.cls-2{fill:#6fff6f;}</style></defs><title>elementTwoHover</title><g id="Layer_2" data-name="Layer 2"><g id="Element_2" data-name="Element 2"><text class="cls-1" transform="translate(88.26 331)">Die KJG</text></g><g id="Two_Stroke" data-name="Two Stroke"><path class="cls-2" d="M623.42,15.06c-1.46.32-.59.58,3.47,0q1.41-.5,2.81-1Z"/><path class="cls-2" d="M651,13.5c4.75-.95,10.19-2.66,7-3.37a38.55,38.55,0,0,1-5.28,1.57,55.94,55.94,0,0,0-5.55,1.61c-4.07.53-7.14.47-6.49.07-1.42.38-6.34.58-8.48,1.32a97.32,97.32,0,0,0,19-1.94C652.72,12.83,651.28,13.27,651,13.5Z"/><path class="cls-2" d="M1047.14,47l-2.37-1.17A7.48,7.48,0,0,0,1047.14,47Z"/><path class="cls-2" d="M1279.09,127.08c-1.71-.65-2.67-.38-3,.09C1277.81,127.5,1279.22,127.75,1279.09,127.08Z"/><path class="cls-2" d="M1309.79,152.71c-.54-.63-1-1.1-1.56-1.65C1308.58,152,1309.08,152.8,1309.79,152.71Z"/><path class="cls-2" d="M1047.14,47,1053.2,50C1054,48.46,1050.19,48,1047.14,47Z"/><path class="cls-2" d="M705.8,5a19.24,19.24,0,0,0-3.58.78c1.13-.2,2.23-.35,3.37-.46A1.47,1.47,0,0,1,705.8,5Z"/><path class="cls-2" d="M939.85,30.23l-2-.28A11.44,11.44,0,0,0,936,31.5Z"/><path class="cls-2" d="M857.12,20.58c1.87.3,2.75-2.78,3.57-4.1a6.13,6.13,0,0,1-4.26,1.83A3.73,3.73,0,0,0,857.12,20.58Z"/><path class="cls-2" d="M724.87,11.15l-2.35.29C723.13,11.35,724.16,11.26,724.87,11.15Z"/><path class="cls-2" d="M998.33,41.59a3.28,3.28,0,0,0,.47,1.61A2.27,2.27,0,0,0,998.33,41.59Z"/><path class="cls-2" d="M425.63,71.71c-.08.13,0,.22,0,.34C426.11,71.91,426.27,71.8,425.63,71.71Z"/><path class="cls-2" d="M521.63,90.78l-1.34-.12c-.16.08-.31.17-.32.27Z"/><path class="cls-2" d="M1330.22,192.29a.93.93,0,0,0,.16-.11C1329.92,191.24,1330,191.69,1330.22,192.29Z"/><path class="cls-2" d="M696.94,383.86c4,.83.75,1.53-2,2.19s-5,1.32,1,2.29C694.83,387.57,707,384.84,696.94,383.86Z"/><path class="cls-2" d="M708,5.07c1.13-.09,2.29-.18,3.44-.24A31.3,31.3,0,0,0,708,5.07Z"/><path class="cls-2" d="M696,388.33v0l1.25.18Z"/><path class="cls-2" d="M1207.69,289.26a6.15,6.15,0,0,0,2.58,1.17C1210,290,1209.33,289.62,1207.69,289.26Z"/><path class="cls-2" d="M1318.66,224.39c-.89.48-1.84.93-2.76,1.39A8.7,8.7,0,0,0,1318.66,224.39Z"/><path class="cls-2" d="M1149.4,323.55c-1.77.3-2.55-.11-4.55,1.38a3,3,0,0,0,.88.28C1146.31,324.28,1147.26,323.57,1149.4,323.55Z"/><path class="cls-2" d="M1082.62,346.18a12.09,12.09,0,0,0,1.49.52l2.08-.88Z"/><path class="cls-2" d="M203.83,82a11.45,11.45,0,0,1,4.29,2.3C206.23,82.07,216.59,78.37,203.83,82Z"/><path class="cls-2" d="M705.88,5.9A3.36,3.36,0,0,1,708,5.07l-2.39.24C705.39,5.56,705.36,5.79,705.88,5.9Z"/><path class="cls-2" d="M1160.21,360.17c-3.79,1.11-7.55,2.31-11.37,3.28A70,70,0,0,0,1160.21,360.17Z"/><path class="cls-2" d="M212,391.34l-2.68.22A5,5,0,0,0,212,391.34Z"/><path class="cls-2" d="M1115.7,374.68a20.08,20.08,0,0,0-7.3-1.25,4.57,4.57,0,0,0-1,1.51l4.14-.08Z"/><path class="cls-2" d="M208.15,84.34a0,0,0,0,1,0,0A0,0,0,0,0,208.15,84.34Z"/><path class="cls-2" d="M283.18,63c-11.26.88-4.75,4.63-6.8,7.3a24.08,24.08,0,0,1-6.62.67c-1.3-.11-1.87-.54-2.19-1.13-.63-1.17-.21-2.92-2.67-3.75a56.77,56.77,0,0,0-10.78,4.49c-3.2,1.65-6.11,3.23-9.2,3.67-.61-.66-1.86-.72-.65-1.9a28.83,28.83,0,0,1-7.55,3c-2.92.9-6.16,1.65-9.44,2.45-1.64.4-3.29.81-4.91,1.25a48,48,0,0,0-4.7,1.61,27.92,27.92,0,0,0-7.89,4.44,3.33,3.33,0,0,1-1.64-.82,9.17,9.17,0,0,1,3.42,6,17.78,17.78,0,0,0-3.29,1.39c-1,.56-1.91,1.16-2.77,1.62-1.71.93-3.16,1.34-4.55.08,2.92-.83,2.77-2.15,3.83-3.53l-4.54,2.9c-5.94-3,6.3-3.66,5.3-6.93-4.69,2.22-9.57,5.13-14.2,7.66-4.58,2.71-9,5-12.86,5.68-3.28-3.85,16.72-7.65,5.39-8l6.06-1.2c2-.35,4.07-.65,6.1-1-11.27-4.14,7.31-1.69-3.41-6.54-2,.44-3.79.83-5.35,1.34s-3,1-4.23,1.53c-2.54,1-4.6,2-6.64,3.07-1,.51-2,1-3.13,1.54s-2.19,1.11-3.44,1.67a72.5,72.5,0,0,1-9.36,3.48c-2.32,3.81,2.7,3.17.42,7-4.72,3.39-8.33,5-11.44,5.47a22.61,22.61,0,0,1-8-.36c-4.65-.83-8.75-1.86-14.72,5-1.1,2.55-1.21,5.41-2.53,8a9.91,9.91,0,0,1-3.18,3.66,15.32,15.32,0,0,1-2.81,1.57c-.55.24-1.16.47-1.81.7s-1.32.49-2.06.72l.18-3.54.26-3.47a21.45,21.45,0,0,0-4.14,2.79,15.25,15.25,0,0,0-2.41,2.52,16.11,16.11,0,0,0-2.13,4.32c-1,2.7-2.39,4.86-10.14,8.21.5-1.78,2.73-4,4.55-5.67s3.32-2.6,2.12-2.23a19.63,19.63,0,0,0-3.55.92A8.26,8.26,0,0,0,97,132a4.79,4.79,0,0,0-1.65,2.87c-.46,2.07-.3,4.41-3.6,6.83l-4.56-3.1a58.85,58.85,0,0,0-4.82,4.32q-2.36,2.28-4.7,4.67c-1.56,1.59-3.13,3.2-4.66,4.86l-4.44,5.23-4.45,5.29c-.74.89-1.51,1.75-2.23,2.66l-2.13,2.77c-2.85,3.69-5.81,7.29-8.8,10.85-.27-.94-.14-2.24-.48-3.07s-1.19-1.21-3.27-.11c-1.7,2.48-3.5,4.92-5.38,7.35q-1.41,1.82-2.87,3.62c-1,1.2-2,2.38-2.95,3.66-4,5-8,10.09-11.95,15.31s-7.8,10.69-11.45,16.25a172.93,172.93,0,0,0-9.82,17.3q.38,2.77.81,5.46c.15.9.28,1.78.46,2.67l.57,2.68c-.58,2.18-3.08,3.68-3.4,1-1.06,2.38-1.3,3.72-1.18,4.36s.62.63,1.26.48c1.29-.32,3.13-1.13,3.64,1.39-.32,2.8-1.3,4.54-2.24,5.18s-2.06,0-2.54-1.92l.73,7.65.62,4.23c.22,1.44.36,2.9.7,4.41.6,3,1.13,6.08,2,9.18.42,1.55.72,3.11,1.22,4.67l1.42,4.66c2.06,6.15,4.52,12,6.9,17.47s4.75,10.37,6.38,14.91c-1.12-.69-2.14-1.48-3.22-2.25a24.18,24.18,0,0,0,1.28,2.31,20.75,20.75,0,0,0,1.44,1.85,15.79,15.79,0,0,0,3,2.75,26.06,26.06,0,0,0,6.32,3,26.75,26.75,0,0,1,5.87,2.66,13.67,13.67,0,0,1,2.65,2.33A18.33,18.33,0,0,1,40,344.21l-2.37-1a84.71,84.71,0,0,0,18.05,14,136.89,136.89,0,0,0,20.12,9.51c13.4,5.18,26,8.66,35.71,13.71,2.6-2.63,9.14-.78,15.41.51s12.29,2.1,13.78-1.76c7.24,3.08,9.76,4.66,13.08,6.22a47.55,47.55,0,0,0,6.29,2.39,115.79,115.79,0,0,0,11.75,2.89c5.71.81,9.14-3.82,16.28-4l-.27,3.79q5-1.61,10-3.13,2.31,2.43,4.64,4.75l6.74-.52c-2.63-.37-5.46-2-4.95-3,5.26-.47,11.5.67,16.45,2s8.63,2.89,8.68,3.75l24.75-1.78c-.63,1.26-4.77,1.52-8.08,2.24,13.33-2.78,2.15,3.41,14.36.78-1.56-.74,1-1.81,1.3-2.41,5.85,2.08,19.47,2.28,29.55,1.72l-2,1.9c9.07.31,18.66.16,28.51-.11s20-.52,30.13-.51c-7.27-.73-5.49-3.56.47-3.74l2.3,2.43c3.89-1.45-6.19-1,1.76-2.7,7.57.38,5,2.72.63,3.5l9.25-.79c.52.69-1.65,1.05-2.24,1.94,1.91-.73,5.88-.14,10.05.28s8.57.69,11.33-.49l.5.65c20.29-.06,29.49-.73,46-.73.36-1.67,6.81-1.23,11.76-2.49,6.06.34,12.44.87,19.14,1.33s13.71.81,21,.88c10.29-.6,3-1.25,7.67-2.08.72,1.4,15.32,1.56,7.73,2.41,17.54.1,22.41.17,44.61-.49-2.4-.62-5.1-.93-3.69-1.37,4-.15,9.15.78,8.56,1.44l-1.06.12c12.47-.79,26.82.54,40.54,1.83s26.82,2.57,36.75,1.23l-1.11.13,20.59-1.22c9.46.5-5.69,1.09,1.31,2.28A176.72,176.72,0,0,1,670,400.1c8.28.41,16.06,1.06,25.21.21,7.07,3,19.64,3.37,32.82,3.34s27-.37,36.57,2.07l-1.12-1.64c4.93-1.47,6,1.08,9.64,1.57-.53-1.31-5.38-1.62-2.32-2.44,20.92-.55,42.54.33,64.41,1.73s44,3.24,65.79,3.77c8,.14,10-3,12.6-5.49s5.7-4.48,15.91-2.24l-5.3,4.76c4-.87,7.94-1.58,12-2.19s8-1.17,12.1-1.6,8.12-.87,12.19-1.21l6.12-.52,6.12-.56c8.16-.68,16.3-1.57,24.31-2.76a146.06,146.06,0,0,0,23.45-5.49c-1.65,1.45-1.44,3-4.5,3.43,3.62,1.28,9.77.42,14.92-1.27s9.29-4.19,9-5.71c4.92-.56,1.68,2.52,5,3.51a12.09,12.09,0,0,0,5.51-.76,52.71,52.71,0,0,0,5.47-2.54c3.53-1.79,6.68-3.34,8.87-1.84.74.48-1.57,1.61-2.71,2.15,1.94-1.39,7-2.26,10.87-3.41s6.63-2.36,4-4a45.15,45.15,0,0,0,8.65-1.45,80.06,80.06,0,0,0,7.93-2.53c5.09-1.84,9.89-3.55,14.87-3.5a7.35,7.35,0,0,1,2.17-2,13.93,13.93,0,0,1,2.89-1.41,54,54,0,0,1,6.72-1.73c4.48-1,8.39-2.08,8.17-5.86.79,3.77,6.25,3.6,12.27,1.72a51.74,51.74,0,0,0,8.91-3.76,27.43,27.43,0,0,0,6.53-4.7c-1.56,3.07,7,0,5.4,4.06a43.45,43.45,0,0,0,10.2-5.13c2.36-1.85,3.32-3.75,1.87-5.33a21.87,21.87,0,0,0,12.13-1.67,37.75,37.75,0,0,0,5.09-2.7c1.6-1,3.11-2.16,4.59-3.23,5.89-4.33,11-7.92,17.77-4.24q8-5.61,15.81-10.86c5.12-3.63,10.12-7.22,15.08-10.66,1.24-.87,2.48-1.7,3.7-2.58l3.62-2.66,7.2-5.2c2.38-1.73,4.79-3.36,7.13-5.1l7-5.18c.93,1.88.06,3.7-1.69,5.47a37.58,37.58,0,0,1-7,5.13c-5.23,3.24-10.25,6.42-7.68,9.94,4.4-3.44,8.16-6.77,11.6-10s6.47-6.58,9.62-9.66c1.58-1.54,3.17-3,4.82-4.5s3.3-3,5.09-4.42a76.73,76.73,0,0,1,12.36-8.19c1.34-.53,2-.52,2.15-.14s-.06,1.14-.51,2c-.91,1.74-2.59,4-3,5.16,2-1.89,4.18-3.58,6.24-5.36s4.18-3.41,6.3-5,4.25-3.16,6.38-4.69l3.19-2.26,3.09-2.35c4.11-3.12,8.13-6.23,11.92-9.54a69.89,69.89,0,0,0,5.62-5.46q1.36-1.5,2.64-3.05c.85-1.06,1.66-2.16,2.44-3.27.51.62-.59,2.85-1.79,4.78,1.49-1.5,3.53-2.93,4.82-4.34s1.8-2.77.23-4c-.74,1.21-1.48,2.45-2.24,3.65-4.43.17-3.3-4.8-1.75-10.15s3.42-11.26,2.41-12.47c1.17,3.07,2.62,3.81,4.32,3.31a8.47,8.47,0,0,0,2.67-1.48c.9-.72,1.82-1.59,2.75-2.42,1.83-1.69,3.57-3.41,5.32-3.55s3.48,1.17,4.77,5.83a16.55,16.55,0,0,0,.66-2.5,10.41,10.41,0,0,0,.11-2.58c-.15-1.61-.78-2.83-2.12-3.12a26.06,26.06,0,0,1,1.94-2.25,2.49,2.49,0,0,1,1.57-.85c.93,0,1.67,1.24,1.92,4.22a50.6,50.6,0,0,0,1.6-5.75,30.29,30.29,0,0,0,.45-4.28,20.82,20.82,0,0,0-.58-5.53,36.85,36.85,0,0,1-.69-5c-.06-1,0-2.23,0-3.68s0-3.2.05-5.3c1.93,0,2.57,3.51,4.7,5.6-.4-1.19-.82-2.37-1.23-3.52l-.62-1.72-.31-.86-.37-.85c-.49-1.14-1-2.27-1.45-3.42l-.69-1.73-.76-1.76c-2-4.74-4-9.78-6.24-16,.7.1,1.21-.37,1.77-.4s1.21.32,2,2.26a40.8,40.8,0,0,0-9.62-12.9,74.5,74.5,0,0,0-11.15-8.21c-3.77-2.37-7.45-4.43-11.05-7-1.84-1.23-3.6-2.65-5.43-4.1q-1.36-1.11-2.71-2.37c-.9-.83-1.83-1.67-2.73-2.59,4.88-1.65,3.88-3.2,2-5.2s-4.7-4.25-3.22-7.6c-3.6-1.43-7.19-2.79-10.79-4,.72,1.76,1.42,3.49,2.09,5.24a32.29,32.29,0,0,0-6.45-2.91c-2.21-.7-4.41-1.29-6.55-1.84-4.28-1.12-8.24-2.3-11.38-5.07,2.53.08,5.06.28,7.61.43-5.52-2.27-11.07-4.31-16.59-6.26,2.66,2.17,5.3,4.33,7.9,6.56-5.06-.35-5.76,1.83-6.52,3.18s-1.53,1.9-6.68-1.47c1.28.16-.8-.78-3.55-2.46s-6.18-4.06-7.6-6.88c0,0,0,0,0,0a37,37,0,0,1-7.7,0,17.11,17.11,0,0,1-8.16-3.2c-.81-2.71,4.17-6.71,3.66-8.5-6.32,3.87-20.64-6.07-28.07-2.3,2.26-.69,3.63-4.06,3.31-5l-5.14,3.08c-3.41-2.93-3.78-3.74-2.13-6.24-11.75-4.93.82,9.52-12.15,1.07,1.24,0,.95-.81,3.52-.67-6.84-3.39-14-5.07-21-6.75-3.5-.83-6.94-1.71-10.31-2.7a55.5,55.5,0,0,1-9.83-3.65c-1.87-7.59,12.15,2,9.43-4.77-9.85-2.35-20.44-3.48-30.78-5-2.59-.35-5.15-.79-7.72-1.14s-5.11-.76-7.61-1.22A92.74,92.74,0,0,1,1121.91,49l3.3,1.64c-2.54,4-5.69,2-9.57-.89a47.33,47.33,0,0,0-6.36-4.22,15.21,15.21,0,0,0-3.58-1.33,10.82,10.82,0,0,0-3.86-.08c2.5-.07,4.33-4,3.45-3.23-6.3-2.23-13.08-3.28-20.8-4-3.86-.37-7.95-.68-12.33-1l-6.81-.54c-2.36-.14-4.81-.3-7.34-.49l2.93-1.61c-7.25-3.48-20-5.25-28.09-7.89-2.89,1.56-7.56.23-5.29,3.82a44.63,44.63,0,0,0-18.05-7.41A115,115,0,0,0,991,20.15L986.49,20,982,20c-3-.07-6-.24-8.88-.6a45.53,45.53,0,0,1-16.88-5.21c2.74.37,6.78-.73,4.6-1l-9.9-.49L946,12.37l-5-.11c1.13,3.26,2.33,2.09,6.08,5.06-2.72,1.47-8.41,2.27-13.23,1.66,9-1,.58-4.91-3-7,.52,1-.91,1.86-.71,2.84-9.55-6.47-2.45,5.8-15.91.58l.91-1.45c-5.3.19-10.3,1.54-15.88.66-2-3.48,5.71-1,6.37-3.74-4-.22-8,1-12,1.78s-7.68,1.09-11.11-.8c3.44-.59,8.27-.19,11.72-.8C886.8,6.65,885.79,7.58,880,6.54l.57.13L867.27,4l3.35,1.22c-5.29,3.55-10.35,3.67-15.84,3.39s-11.39-.85-18.2,1.15c13.24-3.84,2.3-2.53,3.47-5.64-3.37-1-8.54-2.19-7-3-3.24,1.16-5.86.52-8.82.14a21,21,0,0,0-10.82,1.17c-.37-.95-6.79-.14-5.28-2.46-8.29.73,1.9,1.61,1.16,2.79-6.41,1.53-13.84.46-22-.33-1-.1-2-.21-3.09-.28l-3.15-.14c-2.12-.07-4.28-.09-6.47,0a70.52,70.52,0,0,0-13.45,1.61,160,160,0,0,0-17,3A106.4,106.4,0,0,1,728,9.47c-2.47-.44-1.48-1,.12-1.57s3.84-1,3.84-1a94.25,94.25,0,0,0-21.38.91c1.49-.57-.08-.94-2.39-1.45-6,.48-3.92,2.21-11.86,2a30.06,30.06,0,0,1,5.88-2.65c-7,1.19-14,2.73-21.23,3.72-2-.62,4.33-1.58,6.87-2.38-8.19,1.17-21.22,2.76-23.67,4l5.29,0c-3,.27-1.61-.8.58-1.21,7-1.54,10.17-.49,10.6,0l-5.18.68c2.76,1,8,.68,13.8-.17,2.92-.42,6-1,9-1.45a60.92,60.92,0,0,1,8.55-1l-4.26,2.56c3.55-.83,7.11-1.56,10.66-2.42,2.31.55,3.93,2-1.23,2.46,7.56,1.08,6.62-1.11,13.12.19.72.22.4.35-.26.48l7.31-1c-1.42.62,1.27,2-3.24,1.64a65.58,65.58,0,0,0,16.15-.43c4.27-.44,7.53-.88,10,.36l-1.1.18c9.12-.4,9.56-1,9.43-1.85s-.84-1.84,6-3.35q4.61,3,9.18,6.34l1.82-2.59a29.09,29.09,0,0,1,3.42.34c1.08.2,1.83.58,1.48,1.09,7-1.56-1.18-1.21,2.92-2.8,4.51,1.38,10.77,1.34,16.14,1.46s9.87.46,10.79,2.88c3.34-2.15-8.6-2.05,1.14-3.29,1.28,2.61,4.08,2.52,7.59,2.07s7.73-1,11.8.47c-2.69,2.64-10.42.54-2.3,3.67,2.61-2.16,6.62-1.64,10.84-.55s8.63,2.72,12.13,2.52c.3-2,4.12-2.17,9.32-1.82s11.78,1.39,17.67,1.27c-.43.68,5,1.84,11.84,3.19,3.42.7,7.21,1.34,10.79,2.18s7,1.7,9.6,2.49l-.41.73c2.62-4.36,13.66-2,21.89-1.93-.71,2.86-2.31,3.81-6.85,4.47L937.87,30a9.47,9.47,0,0,1,3.62-1.38A20.43,20.43,0,0,1,944,28.3c1,0,2.05,0,3.3.06l-2.42,3.36c10,1.59,20.91-1,33.45,3.78.67-1.75-1.49-4.7-2.07-7.21s.45-4.6,7.58-4.79c.18,2,.11,5.5-3.62,5.73,1.22-.06,4.49-1,6.71.32-2,.74-4,1.56-6,2.37,2.84,1.2,3.72.65,4.49-.06s1.41-1.61,3.74-1c-.59,2.82,3.13,2.7,2.06,4.83-1.24,0-3.89-2-5.88-1.22,5.21,1.55,11.3,4.52,13,7.13-.16-1.73.71-3.87,4.65-3.48,10.05,1.77,2.77,4.17,8.3,6.86,2.81-1.55,8.75,1.87,9.81-2.52,2.93.58,3,2.85,3.91,4.3,5.53-.76,24.09,5,19.36-1.15l-1.25-.62c.27,0,.56,0,.89,0h0a51.44,51.44,0,0,1,13.24,1.36c2.18.49,4.35,1.06,6.49,1.75s4.26,1.51,6.38,2.31c8.48,3.23,16.8,6.82,25.38,7.95l-.45,1.59a68.82,68.82,0,0,1,8,1.06l8,1.62c5.26,1,10.23,1.71,14.26,1,2.93.84,6,5,4.21,6.57,7.86,1,9.33-.76,19.24,5.51-8.37.46,1.79,3.41-8.31-.38,9.24,4.58,10.54,8,22.36,6.81-4.88,3.13,5.5,7.79,10.49,8l-5.74-5.3a60,60,0,0,1,14.16,4.91l-4.36,4.81c8.54,7,18.25,7.27,27.32,7.85,2.26.15,4.48.32,6.62.62,1.07.15,2.12.34,3.14.57a26.36,26.36,0,0,1,3,.95,18.51,18.51,0,0,1,9.7,8.38c6.65-2-9.38-7-3-9.92,8.65,4.27,14.62,16.25,17.36,17.37,5.4,4,9.07,3,12.84,1.95s7.72-2.22,13.43,1.56c-.68-2.73.14-9,10.37-6.77,4.2,2.35,5.8,5.79,5.6,8.45a4.35,4.35,0,0,1-5.21,4.19c-2.07-.79-2.77-1.87-2.36-2.54-3.07-.53-7.06-1.25-4.7,2.5l2-1.56c1.63,2,5.3,4.32,8,6.41s4.38,4,2.24,5c3.47.59,4.55.12,4.26-1s-1.94-2.73-4-4.39a48,48,0,0,0,6.37,4.92c2,1.35,4,2.39,5.95,3.49l3,1.65c1,.57,2,1.19,3,1.85a36.6,36.6,0,0,1,6.06,5c-.76-2.07-.74-5.25.8-4.21a33.64,33.64,0,0,0,6.65,5.39,4.41,4.41,0,0,0,3.48.46,9.88,9.88,0,0,1,3.1-.64,9.54,9.54,0,0,1,5.33,2.32c1.36,3.53-.52,4.66-1.34,5.64a1,1,0,0,0,0,1.59,19.74,19.74,0,0,0,4.22,2.91c1.36,3.18.3,4.38-1.24,4.81a15.46,15.46,0,0,1-5.27-.07,9.81,9.81,0,0,1,7,8.39,12,12,0,0,1-.32,4.16,21.53,21.53,0,0,0-.66,2.62c-.77-.48-1.65-.94-2.52-1.39a3.36,3.36,0,0,1,2,2.67q1.06-.48,2.11-1.07c.7-.39,1.34-.83,2-1.29-.31,1.71-.25,2.74-2.12,3,1.5.46,3.41.09,5.44-.27s4.18-.63,6.43,1.65a4.13,4.13,0,0,0-.8,2.7,13.1,13.1,0,0,0-.1,1.58v.81c0,.27-.08.54-.12.81-.26,2.13-1.39,4-4.33,3.37a10.84,10.84,0,0,0,1.16-2.44,1.72,1.72,0,0,0-.15-1.27c-.37-.54-1.25-.56-2.23-.59a6.77,6.77,0,0,1-2.84-.51,2.16,2.16,0,0,1-.94-.9,3.4,3.4,0,0,1-.46-1.51,3,3,0,0,1,.3.82,3.31,3.31,0,0,1,.06.44,4,4,0,0,1-.11.47,4.2,4.2,0,0,1-1.2,2c-.72,0-1.12-.64-1.3-1.13a9.58,9.58,0,0,0-1.12.73,8.76,8.76,0,0,0-.72.66,1.57,1.57,0,0,0-.5,1.27,5.26,5.26,0,0,0,1.51,2.75c.41.51.85,1,1.24,1.64a6.65,6.65,0,0,1,.81,2,5,5,0,0,1-.05,2.47,8.73,8.73,0,0,1-.59,1.46,7.83,7.83,0,0,1-1,1.61,4.15,4.15,0,0,0-4.1-2,5,5,0,0,0-2,.57,2.26,2.26,0,0,0-1.16,1.17c1.5-1.66,2.88-1.17,3.91.35a9.25,9.25,0,0,1,.87,6.79,17.3,17.3,0,0,0-2.34,1.51,11.7,11.7,0,0,0-1.64,1.44,8.22,8.22,0,0,0-1.06,1.41,9.37,9.37,0,0,0-.72,1.36c-.39.9-.64,1.77-1,2.59a6.15,6.15,0,0,1-1.84,2.28c1.58-.83,3.16-1.66,4.69-2.53.52,1.85-.12,3.45-1.44,5.18a29.32,29.32,0,0,1-2.4,2.75l-3.11,3.28c-1-.86-.16-2.13.66-3.12s1.46-1.68.24-1.42a6.89,6.89,0,0,1-3.47,4.82,26.21,26.21,0,0,1-6.24,2.42c-4.61,1.33-9.48,2.77-12.4,7.28-5.1.92-4.11-4.82-8.28-3.66-3.21,5.06-6.3,6-9.52,6.74s-6.58,1.41-10.4,6.21c5.25,1.81,5.19.54.7,8.88l7.16-6.8,3.56-3.39c1.19-1.12,2.37-2.25,3.51-3.44-1,2.15-2.14,4.18-3.24,6.26l-3.35,6.22a40.54,40.54,0,0,0,6.62-6.07c2-2.08,3.65-4.07,5.31-4.79-2.69,6.53-2.87,5.27,1.58,6.64a9.93,9.93,0,0,0-3.48.34,9.26,9.26,0,0,0-2.82,1.28,21.37,21.37,0,0,0-4.46,4.43,37.78,37.78,0,0,1-4.46,4.92,11.27,11.27,0,0,1-6.27,2.88l-5.71-9.41c-7.18,1.65-11.54,6.21-16.4,11.17a97.46,97.46,0,0,1-8,7.34,37.55,37.55,0,0,1-10.77,6.16c2-.4,4-.74,6-1.21,0,2.52-2.42,4-5.36,5.38s-6.4,2.74-8.61,4.92c-1.18-3.44-5-2.78-8.22-3.6,1.45,2.21-11.9,5.78-10.33,12.87l-4.64-.25-4.66-.37c-7,2.25-9.79,6.29-12.53,10.38s-5.54,8-12.35,10.26c2.52-5.13-4.32-4.84,3.35-11.05-4.34,1.83-8.47,2.93-7.65,5.16-.84-.22-1.9.26-3.1,1.08s-2.59,1.91-4,3c-2.87,2.22-6,4.37-8.6,3.67-1.34,2.1-.7,5.72-5.82,7.32-.78-.44-.55-1.57-.55-1.57.56,1.57-7.15,4.94-1.47,6.87a27.15,27.15,0,0,0-13.58.13c-2.31.56-4.69,1.19-7.06,2s-4.75,1.62-7.11,2.48-4.7,1.73-7,2.52a69.6,69.6,0,0,1-6.82,1.82c-4.43.92-8.58,1.15-12.21,0-9.71,3.8-21.58,8.09-30.76,10.38.38-1.06-.32-1.54,1.49-1.63-6.66.08-8.1,2.76-9.81,5.43s-3.7,5.23-11.34,5.17c-8.43-3.35,7.2-4.28,2.18-5.17-2-4.8-6.3-3.51-11.46-1.5s-11.3,4.47-16.67,2.57l2.27-1c-4-.93-8.42.78-13.39,3s-10.56,4.58-16.78,5.24c0,0,.48-.93-.12-1.45-3.88,3.08-9.82,5.5-16.26,7.56-3.23,1-6.59,1.85-9.88,2.66L948.7,379l-4.64,1c3.39-3.93,5.27-2.47,2.62-5.82-5.33,1.11,2.19,5.63-8.5,7.74-3.69-1.52-11.62-2.46-13-6.05,3.37-.43,6.74-.8,10.1-1.28-5.61-4.26-13.07,1.56-18.48,1.27l.52-2.13a53.89,53.89,0,0,0-15.55,4.6,44.67,44.67,0,0,1-16.58,3.56l1.82,1.36c-4.46,2.72-6.43,2.13-8.39,1.43s-3.93-1.52-8.43.48l-3-4.58c-3,.75-8.25,2.26-14.13,3.62a159,159,0,0,1-17.81,3.3c3-1.73,7.73-3.18,12.63-4.56s10-2.6,13.88-3.92c-6,.4-20.37,1.66-23.44,4,2.41-.53,5.42-1.81,7.84-1.26a46.39,46.39,0,0,1-12.69,4.51,87.07,87.07,0,0,1-16.27,1.77c1-4.1-6.86-4.25-16-4.16s-19.72.38-24.11-2.23c-10.61,1.76-21.15,1.84-32.13,1.68s-22.4-.5-34.79,0c8.79,4.4-7.23.31-5.71,4.92-5.77.37-8,.31-8.49,0l-17.49-2.41c-4.14-1.18,5.49-1,5-2-12.63-.07-5.29-1.73-13.65-2.64,1.71,1.46-4.4,2.26-11.6,1.8l10.13,1.74c-8.84,1.25-12.65.37-16.48-.4s-7.67-1.53-16.58-.43l5.64-1.28c-9.14.85-33.7.37-42.7,3.18-1.61-.42-3.73-1.39.29-1.65-10.92-.21-23.08.5-34.64.93s-22.5.68-31-.27l1.67-.79c-4.08.18-7.12,1.41-12.21.5.27-.33,1.66-.78-.23-.86-2.16.23-10.85,1.23-16.24.63l4.63-.81c-21.28-1.53-32.74,1.44-50.62,1.52.05-1.23-4.11-2.18-9.33-2.92s-11.49-1.31-15.67-1.67l.3-.35c-12.4-.68-22.94-.61-33.25-.33l-15.51.51c-5.25.17-10.64.33-16.39.34-7.07-2-19.11-3.07-32.21-4.13-6.55-.55-13.37-1-20-1.74s-13-1.47-18.62-2.58c3.44,1-.71,3-4.79,3.05-2.65-.6-6.38-.23-9.32-.14s-5.08-.11-4.55-2l1.9.25c-1.91-2-5.61-3.1-9.89-3.77s-9.16-1-13.42-1.55l-1.78,5.18a69.66,69.66,0,0,0-18.52-5.06c-6.68-1-13.68-1.51-20.37-1.9s-13.07-.75-18.46-1.67-9.82-2.34-12.57-4.93c-5.52.79-12.09-.35-17.6.51l.78-3.6c-7.27-1.77-12.69-3.17-18.58-4.38s-12.23-2.44-21.23-3.82l4.12-2c-5-1.19-8.58,1-12.19,3.22s-7.17,4.63-11.76,3.64q-.67-3.35-1.28-6.71a78.45,78.45,0,0,1-12-4.36c-3.82-1.75-7.45-3.72-11-5.62s-6.91-3.83-10.39-5.47A60.68,60.68,0,0,0,65.6,327c.76-.62,2.25-1.93,4.32-.76-.68-.53-1.52-1.2-2.4-2s-1.84-1.76-2.79-2.77L59,315.3c-.46-.48-.93-.93-1.4-1.35a17.24,17.24,0,0,0-1.31-1.2,11.11,11.11,0,0,0-2.56-1.6c-1.64-.66-3.3-.37-4.72,1.56,1.15-1,1.15-2.21.53-3.65a13.65,13.65,0,0,0-1.44-2.26,27.61,27.61,0,0,0-2.13-2.52c-.75-.9-1.62-1.81-2.52-2.74s-1.75-1.92-2.64-2.89l-2.5-2.91L36.18,293q2.35-.09,4.67-.28c-1.92-1-3.31-1.89-4.56-2.7-.61-.4-1.2-.79-1.7-1.2a15.87,15.87,0,0,1-1.36-1.28A10.94,10.94,0,0,1,31,284.15a24.57,24.57,0,0,1-1.82-5.83c.47-2.44,3.52-2.19,2.5.92a9.1,9.1,0,0,0,.21-4.37,9.25,9.25,0,0,0-1.23-2.81,13.28,13.28,0,0,1-.73-1.45,6.16,6.16,0,0,1-.39-1.8,10,10,0,0,1,.11-2.36,11.19,11.19,0,0,1,.32-1.45c.18-.52.39-1.07.64-1.66l1.12,2,1.26,1.95c1.41-7.95,0-7.49-2.19-13a14.33,14.33,0,0,1,.91-4.88,23.78,23.78,0,0,1,2.74-5c2.33-3,5.11-5.13,7.27-4.82a8.66,8.66,0,0,1-1.59-5.25,11.46,11.46,0,0,1,.62-3.46,9,9,0,0,1,1.95-3.3c1.69.15,1.53,2.26,1.51,3.31,4.85-5.64,6.76-10.83,8.67-15.6a34.21,34.21,0,0,1,3.33-6.54,16.89,16.89,0,0,1,2.37-2.75,17.13,17.13,0,0,1,3.31-2.23,3.26,3.26,0,0,0,3.17.33c-4,4.53-7.2,8.71-9.45,11.69s-3.5,4.69-3.41,4.22c1.71,1.14,4-.12,5.92-.46a2.67,2.67,0,0,1,2.52.57c.66.67,1.08,2,1.29,4.24a84.8,84.8,0,0,1,3.56-14.6,48.56,48.56,0,0,1,3.63-7.56,27.46,27.46,0,0,1,2.27-3.23,18.78,18.78,0,0,1,1.26-1.39A16.69,16.69,0,0,1,74,196.55a5,5,0,0,1,1.88,0l-.33,1a10.75,10.75,0,0,0,3.56-4.75,37.74,37.74,0,0,0,6.16-4.78c1.57.8,3.85-.75,6.18-2.91s4.67-5,6.51-6.47c-3.19-3,2.11-6.59-4.78-5.45.8-.26-.4.95-2.58,3.34a8.4,8.4,0,0,0-1.19,1.76,4.54,4.54,0,0,1,0-.51c-1.11,1.15-2.4,2.45-3.84,3.88l-2.26,2.23c-.79.77-1.61,1.56-2.38,2.45.13-.55.27-1.09.42-1.63s.36-1,.56-1.54a14.56,14.56,0,0,1,1.54-2.89,11.47,11.47,0,0,1,5.86-4.3c0-1.9,0-3.88,0-5.63s.26-3.22.43-4.24c4.61.09,9.85-1.31,14.37-2.48,4.66-1,8.57-1.81,10.36-.87,1.27-1.36,2.64-2.73,4.06-4.11s3-2.62,4.61-3.95l4.75-4,2.35-2c.78-.67,1.6-1.28,2.38-1.93a73.2,73.2,0,0,0,8.48-7.94c1.19-1.4,2.36-2.64,3.31-4a21.51,21.51,0,0,0,2.35-4.15c3.34-2.94,5.38-.42,7.32-.12-1.81,1.87-4.43,3.18-5.07,4.8a57.67,57.67,0,0,1,6.14-4.57c2.38-1.49,5-3,7.3-4.46a39,39,0,0,0,6-4.48c1.56-1.41,2.53-2.81,2.48-4.21,5.48-1.09,4.52.62,3.91,1.76s-.93,1.71,5.71-1.66L179.39,120c1.87-.25,3.62-.62,5.33-1a49,49,0,0,0,5-1.31,56.2,56.2,0,0,0,8.94-3.78c2.86-1.35,5.6-2.87,8.3-4.48s5.35-3.37,8.12-4.88c5.51-3.1,11.2-6.3,17.76-8.21q2.45-.76,5-1.35a41.49,41.49,0,0,1,5.37-.92,71.12,71.12,0,0,1,11.87-.2c-2.32-.08-3.48-.1-4.08-.75,2.34-.22,4.66-.56,7-.83s4.69-.54,7-.87,4.69-.69,7-1.08,4.72-.65,7.09-1l7.1-1.14c2.37-.41,4.76-.68,7.14-1,4.77-.67,9.54-1.47,14.34-2,19.17-2.38,38.56-3.2,57.11-1,10.55.94,11.74-1.21,18.28-2.55l2.2,2.56q5.58-1.35,11.2-2.55c7.91-.61,14.64,1.09,21.87,2.57a84.16,84.16,0,0,0,25.08,1.67L441,84.53c7.12.68,22.68,1.12,21.37,2.21a9.19,9.19,0,0,1,5.19-.1l.14.76c5.9,0,11.78.13,17.67.33,6.77.85,6.18,1.34,6.37,1.87s1.17,1.1,11.11,1.73c3.71.11,9,.16,13,.19s6.76.06,5.39-.16c-3-.27-7.58-.9-7.76-1.3l6.75.57c.66-.37,2.31-.58,1.74-1s-3.35-1.3-11.49-3.24c-3.83-.48-7.68-.89-11.53-1.22q-1.8-.66-3.6-1.36L505,85.46a46.55,46.55,0,0,0-12.84-1.92,16.78,16.78,0,0,0-4.69-1.75c-3.81-.12-7.63-.12-11.45-.06-1.28-1,5.22-.7-2.29-2.44-2.69,0-1.47.71-.68,1.25s1.15,1-3.26.65c-5.4-1.78-3.7-2.46-10.25-2.51-.85-.75.56-1,3.15-.8-5.82-.18-15.26-2-18.36-1-2.8-1.15-7.69-1.69-11.77-2.26s-7.37-1.14-7-2.59a82.43,82.43,0,0,1-15.71.74c5-1.44,0-2-5.88-2.72-2.95-.35-6.11-.78-8.38-1.31s-3.62-1.26-2.92-2.34a22.57,22.57,0,0,1-7.44,1.24c-3,.09-6.47,0-10.11-.11s-7.45-.35-11.16-.36a72.38,72.38,0,0,0-10.56.65,5.67,5.67,0,0,1,3.28-.71,42.39,42.39,0,0,1-8-1.44c-2-.54-3.74-1.15-6.1-1.65-.44,1.89-3.5,3-7.18,4a85.62,85.62,0,0,0-11,3.24c-4.54-1.86-3.26-3.11-1.18-4.3s4.94-2.33,3.45-4.19c.29,1.62-3.58,2.44-7.12,3.23s-6.73,1.68-5.12,3c-7-2.21-6-1-9.78-4.36-.4,2.69-2,2.94-4.14,3.05s-4.91,0-7.59,1.88c-5.09-1-5.89-2.26-6.73-3s-1.77-.82-7.14.55c-2.72-.62-1.71-1.66,0-2.53A28.36,28.36,0,0,1,283.18,63ZM52,180.21l-.07-.06c1.45-1.77,2.78-3.19,3.58-4.14C54.79,176.89,53.72,178,52,180.21ZM37.73,197.4c1.84-2.06,3.93-4.79,6.26-7.46,1.7.38,2.38,2,.88,3.67,0-.77-1-.35-2.44.57S39.28,196.47,37.73,197.4Zm52.65-12.64c-1.85,2.63-3.21,2.73-4.16,2.39,1-1.09,2.2-2.4,3.66-4.21,0-.18,0-.45-.09-.65A5.68,5.68,0,0,1,90.38,184.77Z"/><path class="cls-2" d="M90.64,176.58a7,7,0,0,1,.75-1.16,15.63,15.63,0,0,0-2.06.6c0,.61,0,1.23.09,1.8Z"/><path class="cls-2" d="M1044.36,45.58l.42.2A2.57,2.57,0,0,1,1044,45C1044.24,45.23,1044.21,45.37,1044.36,45.58Z"/><polygon class="cls-2" points="187.81 391.35 187.88 390.47 185.91 391.09 187.81 391.35"/><path class="cls-2" d="M930.82,12a2.77,2.77,0,0,0-1.43-1.1C929.43,11.13,930.05,11.54,930.82,12Z"/><path class="cls-2" d="M880,6.54l-7.11-1.69A70.45,70.45,0,0,0,880,6.54Z"/><path class="cls-2" d="M840.9,2.92a3.22,3.22,0,0,0-.84,1.24l.08,0Z"/><path class="cls-2" d="M1344.39,249.76a8.22,8.22,0,0,0-1.12,1.29C1340.92,254.45,1342.72,252.36,1344.39,249.76Z"/><path class="cls-2" d="M1267,99.66a36,36,0,0,1,6.54,0C1270.61,98,1268.25,96.9,1267,99.66Z"/><path class="cls-2" d="M1161.46,359.81s0,0,0-.09c-.42.17-.81.3-1.24.45Z"/><path class="cls-2" d="M1281.57,103.18a14.11,14.11,0,0,0-8-3.54C1275.94,101,1278.69,102.8,1281.57,103.18Z"/><path class="cls-2" d="M671,8.32l-1.88.15c0,.07-.07.15-.21.21Z"/><path class="cls-2" d="M668.89,8.67,666.82,9A8.25,8.25,0,0,0,668.89,8.67Z"/><path class="cls-2" d="M662.45,9.76c1.45-.29,2.91-.49,4.36-.74A16.85,16.85,0,0,0,662.45,9.76Z"/><path class="cls-2" d="M722.74,4.55l.57-.69A.94.94,0,0,0,722.74,4.55Z"/><path class="cls-2" d="M738.49,3.38c-3.76,0-9.47-.87-14.71-.08l-.47.56c1.22-.57,4.13-.38,7.18-.18S736.72,4.09,738.49,3.38Z"/><path class="cls-2" d="M804.05,13.8,791,12.44c2.28,1.07,5.25,2.57-.71,2.48C806.68,18.77,786.89,12.56,804.05,13.8Z"/><path class="cls-2" d="M844.55,18c-7,0,0,1.68-.43,2.32C848.62,19.63,849.73,19.43,844.55,18Z"/><path class="cls-2" d="M1131.88,72.62,1130,76.67C1135.31,77.6,1130.49,75,1131.88,72.62Z"/><polygon class="cls-2" points="1192.75 67.32 1188.6 62.87 1184.84 66.06 1192.75 67.32"/><path class="cls-2" d="M1212.91,109.85c-.8-.09-1.62-.13-2.43-.19,3,.49,5.95,1.12,8.93,1.66Z"/><path class="cls-2" d="M1093.51,338.66l3,4.53C1099.74,341.26,1098.77,335.42,1093.51,338.66Z"/><path class="cls-2" d="M887,379.59c-2.43-1.81-8.44-2.57-12-.4C879.76,379.09,884.6,380.27,887,379.59Z"/><polygon class="cls-2" points="247.12 368.01 251.44 367.42 243.38 367.38 247.12 368.01"/></g></g></svg>