<svg xmlns="http://www.w3.org/2000/svg" viewBox="0 0 1337.51 461.47"><defs><style>.cls-1{fill:#9e5ddd;}</style></defs><title>Asset 14</title><g id="Layer_2" data-name="Layer 2"><g id="Layer_4" data-name="Layer 4"><path class="cls-1" d="M1337,250.28c.85,1.16.84.22-1.35-3q-1.06-1-2.17-1.93Z"/><path class="cls-1" d="M1323.47,227.62c-3.26-3.35-7.53-6.71-6.6-3.67a31.41,31.41,0,0,1,4.07,3.34c1.1,1,2.17,2.06,4.16,3.66a32.94,32.94,0,0,1,2.71,4c.54,1,.68,1.59.35,1.42,1,1,3.34,5.07,5,6.54a73.59,73.59,0,0,0-4.31-7.4,68.17,68.17,0,0,0-6.16-7.63C1322,226.57,1323.11,227.47,1323.47,227.62Z"/><path class="cls-1" d="M1000.08,31.43l2.42,1A6.66,6.66,0,0,0,1000.08,31.43Z"/><path class="cls-1" d="M761.31,18.76c1.82-.13,2.59-.81,2.69-1.45C762.3,17.74,760.91,18.15,761.31,18.76Z"/><path class="cls-1" d="M720.59,10.41c.87.23,1.61.34,2.4.51C722.08,10.25,721.16,9.88,720.59,10.41Z"/><path class="cls-1" d="M1000.08,31.43c-2.07-.87-4.15-1.67-6.23-2.52C993.22,30.77,997,30.65,1000.08,31.43Z"/><path class="cls-1" d="M1284.61,191.87a21,21,0,0,0,2.92,1.9c-.87-.66-1.7-1.31-2.54-2A1.68,1.68,0,0,1,1284.61,191.87Z"/><path class="cls-1" d="M1105.31,52.2l1.86.73a12.75,12.75,0,0,0,2.27-1.24Z"/><path class="cls-1" d="M1178.42,90.45c-1.48-1.15-3.86,1.47-5.26,2.4a5.71,5.71,0,0,1,4.65.14A4.47,4.47,0,0,0,1178.42,90.45Z"/><path class="cls-1" d="M1276.51,174.14l1.85,1.34C1277.88,175.14,1277.09,174.52,1276.51,174.14Z"/><path class="cls-1" d="M1048.62,33.77a3.72,3.72,0,0,0-.42-1.78A2.61,2.61,0,0,0,1048.62,33.77Z"/><path class="cls-1" d="M1100.21,398.05c0,.15.07.24.08.37C1100.71,398.15,1100.83,398,1100.21,398.05Z"/><path class="cls-1" d="M1193.22,387.22l-1.25.35c-.11.14-.21.29-.19.39Z"/><path class="cls-1" d="M645.67,2.78a2.38,2.38,0,0,0,.33.11C648,2.17,646.86,2.31,645.67,2.78Z"/><path class="cls-1" d="M8.83,213.38c2.49-3.38,1.83,0,1.45,2.85-.18,1.46-.31,2.79,0,3.08s1.07-.49,2.72-3.08c-.63.35-.43-2.56-.68-4.46S11.35,208.89,8.83,213.38Z"/><path class="cls-1" d="M1283.24,190.31c-.83-.69-1.67-1.4-2.48-2.13A25.31,25.31,0,0,0,1283.24,190.31Z"/><path class="cls-1" d="M13,216.23h0l.67-1.07Z"/><path class="cls-1" d="M472.65,15.82a6.7,6.7,0,0,0,2,2.28C474.51,17.53,474.06,16.86,472.65,15.82Z"/><path class="cls-1" d="M601.83,16l-3.2-.7A9.56,9.56,0,0,0,601.83,16Z"/><path class="cls-1" d="M406.77,31.36c-1.77-.17-2.45-.82-4.71.22a3.08,3.08,0,0,0,.8.55C403.61,31.28,404.7,30.78,406.77,31.36Z"/><path class="cls-1" d="M337.86,42.41a12.3,12.3,0,0,0,1.44.77c.66-.24,1.44-.46,2.13-.67C340.23,42.45,339,42.44,337.86,42.41Z"/><path class="cls-1" d="M892.85,415.8a12.84,12.84,0,0,1,3.39,3.6C895,416.49,905,415.1,892.85,415.8Z"/><path class="cls-1" d="M1285.28,191.12a3,3,0,0,1-2-.8l1.75,1.45C1285.33,191.71,1285.53,191.56,1285.28,191.12Z"/><path class="cls-1" d="M409.29,73.68l-10.82.39A67.92,67.92,0,0,0,409.29,73.68Z"/><path class="cls-1" d="M401.83,394.05l2.56-.19A4.19,4.19,0,0,0,401.83,394.05Z"/><path class="cls-1" d="M366.86,78.86a15.73,15.73,0,0,0-6.57-2.66,4.59,4.59,0,0,0-1,1.5Z"/><path class="cls-1" d="M896.26,419.44a.06.06,0,0,1,0,0A.06.06,0,0,0,896.26,419.44Z"/><path class="cls-1" d="M967,407c-10.34.37-4.39,4.88-6.31,7.72-12.23,2.18-6.06-3.18-10.49-5.43-7.57,1.73-13.1,6.54-18.87,6.67-.5-.81-1.64-1.07-.42-2.18-3.91,2.22-10,2.6-16.18,3.09s-12.59,1-17.18,3.89a3.32,3.32,0,0,1-1.33-1.3,11.78,11.78,0,0,1,1.93,7.38c-4.65.33-8.46,3.95-10.42.44,2.86,0,3-1.51,4.29-2.7l-4.79,1.8c-4.69-5,6.56-2.1,6.33-5.91-2.35.51-4.79,1.22-7.25,1.93s-4.93,1.43-7.34,2.08c-4.82,1.28-9.39,2.19-13.07,1.57-1.76-5.19,17-2.3,7-6.62l11.37,1.64c-9-7.83,6.87.4-1.5-8a52.18,52.18,0,0,0-15.62.86,48.63,48.63,0,0,1-15.6.8c-3.21,3,1.27,4.37-2,7.39-10.43,2.88-14.69-.43-18.21-3.59s-6.33-6.24-14-2.57c-3.91,3.67-5.36,10.8-16.43,7.09l3.67-6.36c-14.33-.77-8.1,9.15-23.17,4.72,2.67-2.53,11.27-2,9.1-2.83-9.75-5.21-6.86,3.59-14.36,3.56l-1.55-5.79c-7.63.29-15.65,1.39-23.9,2.54a248.19,248.19,0,0,1-25.2,2.51c1-1.75,3.92-3.52,0-5.47q-4,.43-8.14.56t-8.32-.07c-5.59-.21-11.24-.74-16.87-1.48-11.24-1.55-22.34-4-32.5-6.33l-8.12,4.8c-1.82-.16-3.26-2.58-1.22-3.49-7.89-2.47-.6,3.33-4.57,5.18-4.58.11-5.85-3.38-2.87-4.8-3.59.9-7.95,1.86-12.68,2.58a147.65,147.65,0,0,1-15,1.53c-10.26.56-20.53-.37-27.76-3.64l3-1.35c-5.72-1.44-9.2,1-12.56,3.1s-6.6,3.79-11.78,1l2.14-.75c-6.25-1-12.71-1.63-19.17-2.09s-12.92-.89-19.18-1.42c-3.13-.27-6.21-.56-9.21-.92s-5.93-.85-8.75-1.41a68.55,68.55,0,0,1-15.49-4.75c-2.2,3.25-8.36,2-14.29,1s-11.66-1.45-13,2.94a116.07,116.07,0,0,1-12.48-6.15c-3.15-1.57-7-3-17-5.19-5.37-.76-8.73,4.48-15.54,4.64l.38-4.2q-4.83,1.8-9.67,3.49l-4.19-5.29c-2.14.17-4.28.33-6.42.47,2.47.47,5.08,2.28,4.54,3.4-5,.44-10.91-.93-15.54-2.52s-8-3.49-8-4.45c-7.9.39-15.78.58-23.66.75.72-1.33,4.68-1.42,7.89-2-12.92,2.34-1.72-3.86-13.56-1.71,1.41.92-1.12,1.94-1.48,2.59-5.36-2.62-18.24-4-27.9-4.21l2.16-1.92c-17.12-2.34-36.49-2.95-55.66-5.59,6.75,1.72,4.64,4.61-1,4l-1.79-3c-3.91,1.09,5.7,1.87-2.1,2.74-7.11-1.4-4.29-3.63,0-3.93-3-.09-5.9-.22-8.85-.38-.37-.83,1.74-.92,2.44-1.82-1.92.52-5.56-.64-9.39-1.73s-7.89-2-10.69-1.2l-.34-.79c-9.48-1.58-16.34-2.76-22.76-3.89s-12.38-2.32-19.93-4.2c-.82,1.76-6.56-.3-11.47-.19-2.7-1-5.45-2.06-8.27-3.15s-5.64-2.38-8.56-3.58-5.85-2.57-8.9-3.82-6.08-2.69-9.26-4c-9.13-3.16-3.16.17-7.54-.71-.06-1.59-12.33-7.62-5.49-5.43-7.38-3.59-12-6.09-17.11-8.88s-10.7-5.84-19.75-11.23c1.53,1.8,3.51,3.48,2.12,3.17a24.9,24.9,0,0,1-4.55-3.48c-1.17-1.17-1.82-2.13-1.39-2.28l.92.45c-10.38-5.77-20.65-15-30.23-24-4.81-4.51-9.45-9-14-12.9a94.93,94.93,0,0,0-12.7-9.59l.88.55a122.27,122.27,0,0,1-14.32-11.9c-1.23-1.68-1.59-2.32-1.45-2.44s.68.31,1.32.76c1.28.9,2.74,1.9,1.35-.8A32.2,32.2,0,0,1,23,250.79a23,23,0,0,1-2.2-9.37c0-5.93,2.07-11.61,4.27-19.45a28,28,0,0,0,4.06-4.39,63.71,63.71,0,0,0,4.16-6.23c2.77-4.66,5.45-10,8.26-15.31a109.9,109.9,0,0,1,9.11-14.8c3.29-4.34,6.88-7.82,10.59-9.69l-2-.57a4.53,4.53,0,0,1,3.11-3.1c1.17-.39,2.5-.39,3.77-1.19-1.28-.81-4.51,1.67-3.25-.71A86.74,86.74,0,0,1,85.45,150.3a190.08,190.08,0,0,1,27.63-10.86l3.66-1.14,3.71-1.07,7.43-2.1,7.43-2.06,3.71-1,3.75-.92c10-2.42,19.87-4.92,29.71-7.16,14.28-3.49,3.58-15.25,23.49-14.51l-3.53,6.17a125.22,125.22,0,0,1,20.9-8.45C217,106,220.6,105,224.26,104c1.83-.49,3.65-1,5.5-1.43l5.55-1.27c14.76-3.47,29.53-6.36,43.16-12.2-1.41,1.63-1.08,3.25-3.86,3.83,3.48,1.35,9.07.34,13.71-1.5s8.35-4.47,8-6.15c4.54-.53,1.68,2.81,4.8,4,3.3.67,6.83-1.32,10.06-3.07s6.16-3.25,8.18-1.45c.68.58-1.44,1.68-2.48,2.2,3.54-2.85,18.59-2.6,13.86-6.88,5.63.27,10.7-1.13,15.52-2.43s9.42-2.31,14-1.46c2.37-3.22,7.13-3.28,11.37-3.45s8-.53,8.26-4.7c.23,4.23,5.25,5.3,11,4.71a44.52,44.52,0,0,0,8.69-1.86,24.48,24.48,0,0,0,6.78-3.24c-2,2.84,6.35,2,4.09,5.89,7.84-1,14.88-3.27,13-7.59,7.89,4.49,14.93,1.69,21.28-.63s12-4.17,16.72,2.33c5.75-1.7,11.44-3.13,17-4.56s11.12-2.79,16.6-3.92c11-2.34,21.65-4.38,32.25-5.92-.12,4.66-6,5.14-11.64,5.68s-11.07,1.25-10.28,6c9.91-2.46,17.69-5.69,25.51-8.24s15.69-4.33,25.77-3.56c5.25,1.1-2.77,4.2-4.44,5.86,20-4.63,39-.23,56.9-5.79,0,.9-1.95,1.91-3.76,2.68,3.54-.38,8.28,1.25,7.78-3.12l-3.43,1.26c-2.91-3.11.53-6.51,4.8-9.53s9.34-5.66,9.63-7.35c-5.82,12.67,17.91,2.88,8.56,18.94,2.32-.86,5.22-3,4.65-5.92,3.49.82,4.61,2.54,1.13,5.91,12.69-2.48,8.12-7.13,19.67-7.12,0,2.14-2.35,3-3.52,5.5,5.8-4.21,11.66-8.42,21.44-6.63-.58,1.29.56,3-2.36,2.94,8.38-.36,15.52-3.14,22.89-5.32s14.94-3.79,24.15-1.72C715.33,53,727.08,46.82,728,54.8l9.92-2.36L734,48.56c8.68.17,16.42-5.54,23.86-2.9l-6.49,3.23,16.3-1.4-9.18-3.07c8.85-4-.82-10,10.73-7.7-2.36.78,8.7.21,13.17,4.88,0,0,0,0,0,0,4.34-2.46,8.81-5,15.21-3,1.63,2.51-1.48,8.61-.42,10.27,4.35-6.47,20.4-1.63,25.89-8.42-1.82,1.58-2,5.62-1.41,6.46l3.65-5.18c4,1.72,4.58,2.52,3.87,5.73,12.11,1.05-3.69-9.74,10.63-5.41-1.14.4-.61,1.19-3,1.94,14.42,2.29,28-2.93,41.24-.31,3.8,7.48-11.64,1.75-7.26,8.09,19.21-1.34,39.8-8.7,58.2-6.61l-3.41-.86c1.41-5,4.82-3.68,9-1.69s9.23,4.67,14,2.48c-2.31.65-3.21,5.4-2.55,4.31,12.47,2,25.69-1.68,44.93-3.05l-2.56,2.22c3.57,1.4,8.38,2,13.23,2.71l7.21,1c2.32.36,4.51.79,6.44,1.28,2.64-2,7.11-1.09,4.85-4.78a40.57,40.57,0,0,0,8.45,4.75,37.89,37.89,0,0,0,4.27,1.44c1.43.4,2.84.77,4.27,1a65.26,65.26,0,0,0,8.61,1c2.86.24,5.74.35,8.61.45s5.71.26,8.51.54a57.89,57.89,0,0,1,8.25,1.3c5.33,1.37,10.43,3.49,14.74,7.53-2.46-.76-6.39-.08-4.45.54l9,1.8,9,2.13c-.15-3.7-1.53-2.74-4.26-6.6a14.4,14.4,0,0,1,5.86-.62,25.52,25.52,0,0,1,3.52.48,23.91,23.91,0,0,1,3.4,1.09c-4.33-.55-4.8.76-3.88,2.55s3.23,4.08,4.53,5.59c-.16-1.17,1.42-1.78,1.54-2.86,3.35,4.52,4.34,3.18,5.9,1.76s3.62-2.83,8.92,1.67l-1.37,1.27c2.45.64,4.94,1,7.42,1.48a20.4,20.4,0,0,1,7.22,2.68c.33,4.26-5.51-.9-7.19,1.74,3.46,1.46,7.51,1.66,11.35,2.2s7.29,1.7,9.46,4.85a36.14,36.14,0,0,1-5.34-1.76c-.92-.35-1.84-.71-2.74-1a20,20,0,0,0-2.62-.65c4.62,7.1,5.82,6.58,10.37,9.69l-.43-.33,10.15,7.72c-.74-.85-1.5-1.68-2.25-2.51a15.43,15.43,0,0,1,8.28.13,27.28,27.28,0,0,1,6.87,3.28c2.22,1.38,4.48,2.9,7,4.21a32.23,32.23,0,0,0,8.8,3.17c-6.59-1.36-7.43-1-7,0s2.24,2.52.85,3.74c2.19,2.55,5.72,6.08,4,6.14,6.59,1,7.16,7.11,16.44,8.69-.29,1,5.23,3.73,2.58,5.05,6.91,3.76-.46-2.48.86-3.18a29.92,29.92,0,0,1,8.54,4.92c2.74,2.18,5.48,4.71,8.37,7.31,5.75,5.25,12.22,10.63,20.4,14.31,3.25,1.94,5.9,3.42,8.25,4.63s4.4,2.18,6.39,3.17,4,2,6.12,3.21,4.52,2.81,7.35,4.89c1.38,2,.24,1.83-1.27,1.2a34.24,34.24,0,0,1-3.4-1.73,79.76,79.76,0,0,0,7.4,7.3c2.5,2.1,5,4.1,7.92,6.23-1.46-.57-.68.79.45,2.74,4.3,3.75,4.39,1,9.21,6.85a30.27,30.27,0,0,1-5.84-2.22c5.39,4.09,10.88,8,16,12.78.65,1.91-3.93-2.11-6.11-3.41,2.91,2.61,6.67,6,9.87,9.07s6,5.59,7.2,6.13l-2.94-4.11c1.89,2.16.17,1.77-1.4.35-5.34-4.25-6.25-7.39-6.15-8,1.25,1.11,2.41,2.3,3.61,3.46-.63-2.85-4.11-6.52-8.34-10.26-2.16-1.83-4.51-3.69-6.76-5.52a73.15,73.15,0,0,1-6.28-5.31q2.44.48,4.84,1l-4.46-2.82c-1.51-.91-3-1.79-4.57-2.67-1.13-2-1.13-4.22,2.77-1.09a16,16,0,0,0-4.72-4.76,11.91,11.91,0,0,1-4.14-4.27c-.33-.66,0-.56.54-.21-1.92-1.4-3.89-2.73-5.86-4.05,1.47.43.58-2.46,3.52.8a47.71,47.71,0,0,0-6.14-6.14,69.32,69.32,0,0,0-5.68-4.09c-3.47-2.3-6.23-3.89-7.19-6.49l.95.52c-7.11-5.25-7.9-4.93-8.37-4.15s-.65,2.07-6.85-.7c-.92-3.59-1.77-7.29-2.62-11l-3.14,1.21c-1.36-1.21-4-3.61-2.8-4.14-6.55-2.58.12,1.73-4.15.85-2.64-3.73-7.58-7.2-11.79-10.22s-7.56-5.77-6.82-8.5c-4,.2,5.63,6.5-2.95,2.43.58-3.08-1.71-4.54-4.84-6s-7-2.88-9.53-6.27c3.81-1.24,9,4.65,4.07-2.36-3.47.77-6.53-1.65-9.48-4.73s-5.89-6.69-9-8.13c-1.32,1.8-4.69.23-9-2.39-2.16-1.33-4.64-2.81-7.19-4.31-1.28-.74-2.59-1.48-3.91-2.17s-2.68-1.27-4-1.8c.35-.26-.56-1.2-2.26-2.57-.85-.68-1.9-1.48-3.08-2.35l-4-2.71c-2.84-1.92-6-4-9.05-6s-5.89-3.92-8.15-5.45l.65-.65c-2,1.92-5.44,1.51-9.3.34s-8.29-2.91-12.18-3.93c1.48-2.92,3.27-3.54,7.86-3.13-2.35-1-4.66-2.06-7-3-2.31,1-4.84,1-9.64-.21l3.18-3.19a41,41,0,0,0-7.51-1.91c-2.6-.45-5.25-.89-8-1.32a52.75,52.75,0,0,1-17.08-5.19c-.86,1.89.92,5.31,1.14,8.11s-1.08,5-7.85,4.74c.06-2.27.47-6.1,4.12-6.08-1.2,0-4.43.72-6.48-.73,2-.83,4.08-1.53,6.14-2.28-5.29-3.11-3.7,2.21-8.16.83.81-3.09-2.87-3-1.66-5.34,1.24,0,3.71,2.23,5.75,1.42-5-1.75-10.9-5.17-12.52-8,.09,1.91-.87,4.28-4.76,3.93-9.91-1.75-2.65-4.63-8.17-7.4-2.8,1.84-8.79-1.69-9.71,3.24-2.9-.54-3.1-2.89-4-4.43a23.38,23.38,0,0,1-6,.22l-3.78-.23c-1.27-.05-2.54-.1-3.72-.11-4.73,0-8.1.51-5.5,3.61l1.28.52c-.26.08-.55,0-.86.12h0a48.61,48.61,0,0,1-13,.37,122.84,122.84,0,0,1-12.95-2.17c-8.63-1.82-17.28-3.93-25.69-3.21l.11-1.83c-5,.74-10.59.86-15.8,1.16s-10,1-13.64,2.9c-2.93-.08-6.85-3.64-5.55-5.87-7.64,1.18-8.52,3.34-19.43-.12,7.69-3.16-2.58-3.06,7.87-2.24-9.85-1.94-12-5.13-22.68-.09,3.67-4.89-7.3-6.53-12-5.17l6.83,3.8c-5.27.59-9.86,0-14.52-.53l2.64-6.6c-10-4.37-19.13-1.24-27.66,1.35s-16.45,4.55-24-2.67c-5.41,4.68,10.89,3.68,6,9.17-9.25-1.13-18.76-11.3-21.66-11.42-12.65-4.23-12,9.89-25.28,7,1.67,2.54,3.18,9.23-6.78,11.44-9.26-1.06-11.28-10.74-5.39-12.66,2.23-.17,3.3.65,3.19,1.5,3-.85,7-1.85,3.32-4.65l-1.24,2.49c-4.57-2.68-17.37-2.61-14.32-6.7-7.06,2.28-3,4.09,2.14,5.48-11.89-3.85-18.63-.41-30.9-3,1.94,1.43,3.72,4.43,1.78,4.38-18-3.32-8,4.73-20.16,5.8-6.92-3.91,2.51-9.27-9.79-6.06-7.51-2.67-1.59-6.78,1.41-8.84C685,11,675.25,3,668.82,2.08L674.73,0a26.09,26.09,0,0,1-9.39,1.21l3.41,5.09c-3.48-.88-6.42-.88-6.37-3-3.56,3.38,2.79,8.46-4.27,13.11-4.65-2.53-14,3-15.72-3.79,14.58,2.11-1.69-6.77,10.64-8-2.37.84-5.28.85-8.78,0-.53-.75.48-1.41,1.42-1.81-14-5.84-6.32,7.73-20.77,7.87,1.77-3.84-3.48-7.12-5.83-6.25,5.84-.07,2.9,6.27-2.37,9.29-9.32-2.73-10,2.49-14.87,2.27l5.57,1.21C605.61,21,601,20.64,594.57,22c-.63-2.92,5.79-2.2,3.46-3.42-3.49,3.43-7.57,1.81-12,0s-9.3-3.83-14.21-1.41c-4.73-2.33-.71-7-4.85-8.53-11,5.36-12.39-4.41-24,.23,3.65,4.75,4.17,3.53-3.88,8.81l19.21-4.56-12.09,7.91c5.83-.23,12.17-3.78,15.71-3.12-5.74,4.39-5.18,3.11-2.22,7.11-4.14-3.54-8.06-2.24-12.09-.65s-8.21,3.45-12.94,1.26l-.37-12.23c-7.11-2.23-13.22-.22-19.8,2.08s-13.64,5.06-22.76,4.28l5.94,1.61c-1,2.47-3.8,2.85-7,2.91s-6.89-.11-9.73,1.09c.23-4-3.54-5.1-6.24-7.31.55,2.9-13.25,1-14.17,9l-8.52-4.25c-14.78-.49-15.45,12.79-29.47,13.12,3.72-4.63-2.93-6.52,6.09-10.64-4.67.55-8.94.38-8.71,3-3-2.06-12.29,6.75-17,3.8C401.1,34,401,38,395.73,38.42a1.9,1.9,0,0,1-.22-1.83c.22,1.84-7.81,3.59-2.71,7.07-7.89-4.77-17.84-2.95-27.5-1.08-9.64,2.08-19,4.24-26,.6-4.93,1.57-10.36,3.21-15.7,4.71-2.67.76-5.31,1.46-7.85,2.13s-5,1.34-7.23,1.89c.38-1.15-.31-1.72,1.48-1.73-6.59-.26-8,2.63-9.66,5.48a10.26,10.26,0,0,1-3.3,3.88c-1.6,1-3.93,1.64-7.66,1.61-8.43-3.74,6.89-4.7,1.93-5.71-2.18-5.33-6.4-3.9-11.43-1.68a60.32,60.32,0,0,1-8,3.17,17.27,17.27,0,0,1-4.19.67,11.61,11.61,0,0,1-4.17-.57l2.16-1.25c-4.08-.85-8.29,1.38-13,4.08-2.34,1.35-4.79,2.82-7.42,4.1a38.11,38.11,0,0,1-8.39,3.13s.33-1.08-.35-1.57c-3.34,3.8-8.69,7.21-14.56,10.22s-12.19,5.95-17.6,8.34c2.34-4.85,4.5-3.6,1.2-6.77-4.87,2.13,3.34,5.74-6.36,9.87-3.87-1-11.62-.29-13.86-3.88l9.36-3.5c-3.23-1.76-6.28-.61-9.16,1s-5.61,3.82-8.23,4.26l-.1-2.41a47.88,47.88,0,0,0-4.65,2.19,40.74,40.74,0,0,0-3.51,2.24c-2.06,1.47-3.66,2.9-5.29,4.3a40.17,40.17,0,0,1-5.55,4.11,38.07,38.07,0,0,1-3.84,2c-.73.33-1.51.67-2.35,1s-1.72.72-2.68,1.08l2.14.9c-3.2,4.19-5.2,4.15-7.26,4s-4.19-.45-7.61,3l-4.44-3.88c-2.52,1.67-6.78,5-11.59,8.4-2.4,1.71-4.94,3.46-7.47,5.09s-5,3.13-7.33,4.45c2-2.91,5.65-6,9.57-9.08s8.12-6.12,11.2-8.77c-5.39,2.4-18.08,8.66-19.9,12.11,2-1.4,4.21-3.74,6.64-4-5,6.54-12.91,12-23.38,17.21-1.05-4.5-8.23-1.53-16.26,3.12-4,2.32-8.22,5-12,7.35s-7.28,4.18-10,4.55c-7.51,8.69-14.8,17.17-21.21,26.54a166.28,166.28,0,0,0-16.6,30.65c4-2.82,3.37-1.18,2.34,1.24s-2.37,5.67.27,6.08c-2,5.26-2.88,7.29-3.37,7.64a63.74,63.74,0,0,0-7.7,16.87c-.92,2.26-1.07.68-1-1.44s.44-4.65-.17-4.5c-.85,3.48-1.21,5.75-1.58,7.16a6.91,6.91,0,0,1-1,2.54,5.78,5.78,0,0,0-1,1.65A13.94,13.94,0,0,0,0,243.58c1.51-2.35,2.54,5.54,5.61,13.59a30,30,0,0,1-.66-3c-.17-1-.41-2-.5-3a41.22,41.22,0,0,1-.3-6.17l.51,1.86c.15.6.39,1.14.56,1.68l1,3c.36.89.67,1.72.94,2.51s.51,1.53.78,2.19c.52,1.33.87,2.58,1.26,3.69S9.93,262,10.27,263s.77,2,1.25,3.12a20.54,20.54,0,0,0,1.87,3.34c.39.58.81,1.21,1.3,1.84s1.05,1.25,1.66,1.91a42,42,0,0,0,4.56,4.22c-.85-.55-1.69-1.14-2.55-1.71s-1.71-1.16-2.55-1.81c1.78,1.77,4.25,4.2,7.12,6.85s6.17,5.4,9.53,7.94a118.33,118.33,0,0,0,9.88,6.81,40.12,40.12,0,0,0,8.08,4c.95,1.31,1.92,3.41-1.34,1.28,8.21,6.58,18.08,13.08,27.5,19.21s18.42,11.8,24.89,17.06L99.61,337c3.51,1.94,6.73,2.35,10.51,5.72-.41.18-1.84-.08-.29.94,1,.44,3.47,1.45,6.24,2.75a57.15,57.15,0,0,1,8.06,4.35l-4.44-1.35a99.34,99.34,0,0,0,23.66,11.19c1.8.64,3.61,1.18,5.43,1.71l5.46,1.64c3.7,1.06,7.5,2.21,11.62,3.61-.5,1.27,3,3.54,7.65,5.9,2.32,1.13,4.92,2.28,7.41,3.34s4.91,1.94,6.83,2.69l-.39.3a201.69,201.69,0,0,0,31.58,7.79c9.93,1.66,19.68,2.88,30.68,4.52,6.41,3.25,17.8,6.14,30.22,8.86s25.88,5.4,36.51,8.94c-3.19-1.46,1.06-3.18,5-2.91,5,1.89,14.56-.46,13.12,3.54l-1.8-.43c3.21,4.81,13.83,6,22,7.65l2.22-5.62a58.35,58.35,0,0,0,17.5,6.67,168.07,168.07,0,0,0,19.69,2.87c13,1.38,24.78,1.89,30,7.67,5.42-.89,11.85.2,17.24-.87l-.78,4c7.13,1.74,12.49,3,18.29,4.17s12.09,2,21.08,2.8l-4,2.58c5,.95,8.56-1.74,12-4.59s6.81-5.9,11.47-5.46l2.07,7.2c8.8,1.15,17.5,3.81,26.29,5.62A85,85,0,0,0,541,446.63a44,44,0,0,0,13.42-1.37c-.38,1-1.09,3.11-4,3.09,8.29,1.13,31.82,8.43,29.62-2.19-.33,6.68,18.23,2.34,28,0L606.19,451c8.53-5.78,8.9-7.53,20.27-8.54,2.63.83,2.09,4.17-1.38,2.65,8.74,3.24,7.22-4.29,17.85-1l-4.21,3c9.14.89,8.52-.87,13.75-4.33,5.85-1.65,17.29,2.08,18.45,6.64,1.37-2.7,6.54-6.17,11.88-4.64.66,1.73-1.35,2.7-2.36,3.18,7.6,2,13.37.71,18.51-.4s9.67-2,14.88.52a3.56,3.56,0,0,0,1.7,3c-12.2-.44-22-1-21.08-1.3-.17,4.57,9.69,5.6,1.6,11.72,8.09-3.3,21.83-10.28,31.39-8.13a5.3,5.3,0,0,1,1.24,1.57l-1,.49a10.41,10.41,0,0,0,6.1-.67,33.93,33.93,0,0,0,8,1.42c1.08,3.75,11.31,2,16.24,2.12-.36-4.84,6.07-4.08.07-8.05.78.35-.93.58-4.21.79a7.87,7.87,0,0,0-2.1.51,5,5,0,0,1,.34-.43c-3.23.16-7.44.26-12.23.26a19.63,19.63,0,0,1,6.15-2.8,10.53,10.53,0,0,1,7.25,1,103.29,103.29,0,0,1,6.92-7.8c3.32,3.38,8.23,6,12.53,8.2s8,4,8.92,6.08c7.52-1.52,16.37-2.09,24.51-3.53s15.55-3.69,20.15-8.1c4.23-1.22,5,2.32,6.59,3.57-2.44,1-5.37.91-6.67,2.19,4.24-1.21,10.55-1.73,16-2.68s10.12-2.29,11-5.23c10.82,2.11-5.82,5.64,8.88,3.93l-1.92,1.88a46.35,46.35,0,0,0,20.21.37,81.09,81.09,0,0,0,9.17-2.34c3-1,6-2,9-3.07a97.36,97.36,0,0,1,18.68-4.92,59.23,59.23,0,0,1,22,.81c-2.27-.41-3.41-.6-3.93-1.41a176.16,176.16,0,0,0,27.81-1.65c9.31-1.09,18.61-2.81,27.91-4.37s18.56-3.18,27.78-4.35,18.4-2.08,27.51-2.38c5.15-.39,7.9-1.23,10.11-2.29s3.86-2.42,6.81-3.82l2.64,2.32q5-2.64,10-5.12a43.71,43.71,0,0,1,10.62-2c3.48-.3,6.95-.33,10.52-.49a62.39,62.39,0,0,0,23.76-5.1l-2.68-.74c6.77-1.37,21.15-5.64,20.31-4.1a8.1,8.1,0,0,1,4.69-1.79l.38.76q8-2.89,16.13-5.52c6.42-1.37,6.06-.67,6.43-.17s1.45.74,10.62-2.16c3.38-1.21,8.14-3.07,11.75-4.48s6.07-2.37,4.75-2.1c-2.77.79-7.12,1.79-7.44,1.44l6.25-1.84c.45-.62,1.83-1.43,1.14-1.71s-3.49-.15-11.49.75c-3.6.88-7.18,1.82-10.74,2.85q-1.85,0-3.72-.14l9.21-1.68c-5.41.21-8.58,1.39-12.17,2.55a14.69,14.69,0,0,0-4.84-.27c-3.46,1.14-6.89,2.41-10.31,3.75-1.5-.67,4.44-2.46-2.9-1.82-2.41.89-1.08,1.23-.19,1.54s1.37.64-2.71,1.75c-5.47-.13-4.15-1.35-10.09.61-1-.54.2-1.18,2.58-1.81-5.32,1.6-14.46,2.44-17,4.46-5.8-.8-18.42,3.29-18.5,0a64.06,64.06,0,0,1-14.19,4.79c4.21-2.77-.5-2.11-6.09-1.56s-12,1.12-11.25-1.51c-3.06,2.43-9.14,3.67-15.92,4.67s-14.28,1.67-20.13,3.7c.62-.46,1.83-1.39,2.94-1.25-6.87.32-9-1-13.57-1.6-.3,4.25-10.78,6.24-16.15,9.61-4.45-1.71-3.35-3.2-1.53-4.66s4.36-3,2.78-4.89c.88,3.54-14,4.84-10.83,7.68-6.73-2.24-5.67-.89-9.42-4.54-.44,6-5.83,1.41-10.72,5.54-4.79-1.12-5.53-2.52-6.33-3.32s-1.64-1-6.63.26c-2.51-.83-1.57-1.93,0-2.81A22.24,22.24,0,0,1,967,407ZM725.56,423v-.1l5-.14C729.53,422.81,728.08,422.86,725.56,423Zm-20.4-.62c2.48.29,5.57.44,8.84.53.67,1.74-.16,3.47-2.21,3.31C712.94,425.12,708.16,424,705.16,422.39Zm42.71,35c-3.29.71-4.37-.29-4.81-1.28a54.48,54.48,0,0,0,5.74-.57c.1-.18.3-.39.39-.6A6.4,6.4,0,0,1,747.87,457.42Z"/><path class="cls-1" d="M753.83,451a6.55,6.55,0,0,1,1.35-.36,15.89,15.89,0,0,0-1.94-1.09c-.4.52-.82,1-1.17,1.52Z"/><path class="cls-1" d="M1002.93,32.59l-.42-.17a2.53,2.53,0,0,1,.84.81C1003.08,33,1003.09,32.81,1002.93,32.59Z"/><polygon class="cls-1" points="424.77 394.22 424.67 395.19 426.56 394.49 424.77 394.22"/><path class="cls-1" d="M1108.52,73.79a2.57,2.57,0,0,0,.95,1.49C1109.51,75,1109.07,74.45,1108.52,73.79Z"/><path class="cls-1" d="M1151.44,94.86l5.28,4.41A56,56,0,0,0,1151.44,94.86Z"/><path class="cls-1" d="M1182.38,115a3.81,3.81,0,0,0,1.4-.79l-.05-.06Z"/><path class="cls-1" d="M605.42,55.91a5.4,5.4,0,0,0-1.43.3C600.65,57.44,602.93,56.94,605.42,55.91Z"/><path class="cls-1" d="M782.33,41.63a34.16,34.16,0,0,1-5.74,2.74C779.74,44.85,782.19,45,782.33,41.63Z"/><path class="cls-1" d="M410.47,73.64s0,0,0-.09c-.41.06-.78.09-1.2.13Z"/><path class="cls-1" d="M768.34,44.19a11.66,11.66,0,0,0,8.25.18C774,43.95,771,43.31,768.34,44.19Z"/><path class="cls-1" d="M1308.3,214.9c.4.44.81.87,1.19,1.33,0-.08.17,0,.3,0C1309.31,215.79,1308.8,215.35,1308.3,214.9Z"/><path class="cls-1" d="M1309.79,216.26l1.44,1.38A6.7,6.7,0,0,0,1309.79,216.26Z"/><path class="cls-1" d="M1314.26,220.55l-3-2.92A15.77,15.77,0,0,0,1314.26,220.55Z"/><path class="cls-1" d="M1272.93,180.87l-.92.18A1,1,0,0,0,1272.93,180.87Z"/><path class="cls-1" d="M1261.2,171.57c1.35,1.17,2.79,2.92,4.47,4.66a37.29,37.29,0,0,0,5.6,5l.75-.14c-1.26-.34-3.07-2.43-5-4.55S1263,172.11,1261.2,171.57Z"/><path class="cls-1" d="M1218.77,123.75c3.21,2.8,6.36,5.66,9.52,8.49-1.09-2.22-2.48-5.25,2.19-1.82-5.28-6.33-5-5.35-5-4.09S1225.25,129,1218.77,123.75Z"/><path class="cls-1" d="M1187.84,98.88c6,3.48,1-1.6,1.67-2C1185.25,95.35,1184.2,95,1187.84,98.88Z"/><path class="cls-1" d="M914,22.58l.79-4.9C909.52,18.19,914.72,19.58,914,22.58Z"/><polygon class="cls-1" points="859.33 47.69 864.38 50.91 866.89 46.24 859.33 47.69"/><polygon class="cls-1" points="827.95 10 830.25 9.32 821.48 10.97 827.95 10"/><path class="cls-1" d="M349.34,35.73l2.52,5.42C355.21,39.52,354.92,33,349.34,35.73Z"/><path class="cls-1" d="M150.2,96.6c-2.86-1.2-8.77-.19-11.35,3.16C143.29,98.22,148.2,98,150.2,96.6Z"/><polygon class="cls-1" points="366.39 418.54 362.14 418.94 369.97 419.45 366.39 418.54"/></g></g></svg>