<svg xmlns="http://www.w3.org/2000/svg" viewBox="0 0 1063.34 437.99"><defs><style>.cls-1{font-size:333px;font-family:IndieFlower, Indie Flower;}.cls-2{fill:#34e4bb;}</style></defs><title>fotosHover</title><g id="Layer_2" data-name="Layer 2"><g id="Element_2" data-name="Element 2"><text class="cls-1" transform="translate(176.04 275.39)">Fotos</text></g><g id="Layer_3" data-name="Layer 3"><path class="cls-2" d="M838.31,77.69c-1.13-.29-.69.35,2.33,1.42q1.2.07,2.43.09Z"/><path class="cls-2" d="M857.63,87.25a25.76,25.76,0,0,0,5.23.94c1.36,0,2.06-.36,1.17-1.35a23.37,23.37,0,0,1-4.33-.65,32.32,32.32,0,0,0-4.54-.69c-3-1.14-5-2.46-4.38-2.58-1.14-.22-4.57-2-6.38-2.11a57,57,0,0,0,13.78,5.81C859.15,87.32,858,87.16,857.63,87.25Z"/><path class="cls-2" d="M1027.31,283,1029,282A4.22,4.22,0,0,0,1027.31,283Z"/><path class="cls-2" d="M859.53,346.68c1.43-.25,2-1,2-1.63C860.25,345.61,859.17,346.09,859.53,346.68Z"/><path class="cls-2" d="M826.67,340.19c.71.21,1.3.29,1.94.44C827.85,340,827.1,339.65,826.67,340.19Z"/><path class="cls-2" d="M1027.31,283c-1.5.89-3,1.78-4.53,2.56.62.74,1.3.51,2.07-.11S1026.39,283.84,1027.31,283Z"/><path class="cls-2" d="M899,100.94a14.66,14.66,0,0,0-2.83-.65c.86.28,1.69.56,2.53.87A1.78,1.78,0,0,1,899,100.94Z"/><path class="cls-2" d="M1037.35,214.32l-.65-1.15a10.56,10.56,0,0,0-2.23.08Z"/><path class="cls-2" d="M993.89,173c1.11,1,3.46-1.64,4.77-2.59a4.46,4.46,0,0,1-4,.16A5.4,5.4,0,0,0,993.89,173Z"/><path class="cls-2" d="M908.69,114.28l-1.75-.62C907.4,113.8,908.15,114.11,908.69,114.28Z"/><path class="cls-2" d="M1039.22,250.78a5.24,5.24,0,0,0-1.74,0A3.39,3.39,0,0,0,1039.22,250.78Z"/><path class="cls-2" d="M656.88,29.86c-.08.13,0,.25-.06.37C657.24,30.11,657.38,30,656.88,29.86Z"/><path class="cls-2" d="M727.29,62.3l-1-.42c-.15.05-.3.1-.35.2Z"/><path class="cls-2" d="M766.92,333.35a1.65,1.65,0,0,0,.26.12C768.75,332.78,767.87,332.9,766.92,333.35Z"/><path class="cls-2" d="M219.15,284.38c2.81,1.64.16,1.78-2.11,2s-4.15.47.17,2.66c-.32-.53,2-.94,3.48-1.61S222.81,285.82,219.15,284.38Z"/><path class="cls-2" d="M900.42,101.84c.82.34,1.66.69,2.48,1.08A17.33,17.33,0,0,0,900.42,101.84Z"/><path class="cls-2" d="M217.2,289v0l.9.43Z"/><path class="cls-2" d="M629.3,333.62a6.74,6.74,0,0,0,1.23,2.52A4.41,4.41,0,0,0,629.3,333.62Z"/><path class="cls-2" d="M731.68,345.32l-2.53-.84A6.42,6.42,0,0,0,731.68,345.32Z"/><path class="cls-2" d="M575.31,337.7c-1.35-.52-1.74-1.29-3.7-.72a2.73,2.73,0,0,0,.51.69C572.87,337,573.81,336.72,575.31,337.7Z"/><path class="cls-2" d="M519.75,332.46a10.54,10.54,0,0,0,.9,1.13c.56,0,1.21-.06,1.79-.09Z"/><path class="cls-2" d="M486.16,5.83a12.63,12.63,0,0,1,2.44,3.94C487.86,6.75,496.22,6.41,486.16,5.83Z"/><path class="cls-2" d="M898.54,101.85a2.28,2.28,0,0,1,1.88,0c-.6-.24-1.19-.46-1.76-.67C898.39,101.34,898.25,101.55,898.54,101.85Z"/><path class="cls-2" d="M568.95,379.59c-3-.59-5.92-1.26-8.87-1.89A44.35,44.35,0,0,0,568.95,379.59Z"/><path class="cls-2" d="M84.94,70.53l1.69-1.37A3.06,3.06,0,0,0,84.94,70.53Z"/><path class="cls-2" d="M533.45,375a13.19,13.19,0,0,0-4.62-4.26,4.34,4.34,0,0,0-1.19,1.18Z"/><path class="cls-2" d="M488.61,9.81a.06.06,0,0,1,0,0A.06.06,0,0,0,488.61,9.81Z"/><path class="cls-2" d="M548.23,6.94c-8.51-1.29-4.36,4.1-6.38,6.6-10.26.2-4.43-4.11-7.71-7-6.46.5-11.64,4.55-16.37,3.9-.3-.87-1.2-1.27-.06-2.22-7,3.43-20-1.8-28.13,3a3.25,3.25,0,0,1-1-1.43,14,14,0,0,1,.86,7.54c-3.82-.17-7.23,3.06-8.52-.61,2.34.22,2.59-1.21,3.74-2.27l-4.07,1.34c-3.4-5.39,5.55-1.5,5.72-5.27-7.92,1.13-17.18,5-23.12,3.27-.55-2.65,3-2.93,5.65-3.15s4.51-.38.58-2.93l9.23,2.55c-6.8-8.53,5.64,1-.56-8.11C465.87-.29,464.28,3.83,452,1.59c-2.83,2.84.82,4.42-2,7.28-8.74,2.39-12.09-1.11-14.92-4.44S430-2,423.57,1.54C420.23,5.15,419,12.16,409.86,8.4l3.06-6.35c-12-.74-6.68,9.08-19.23,4.86,2.16-2.57,9.33-2.2,7.51-3-8.21-5.07-5.66,3.68-11.86,3.77L387.88,2c-6.36.47-13,2-19.8,3.44-3.4.76-6.83,1.6-10.28,2.32S350.85,9,347.36,9.54c.66-1.82,3-3.82-.46-5.45-17.59,3.86-38,2-55.7.36l-5.9,6c-1.53.13-3.14-2-1.62-3.24-7-1.1.1,3.36-2.83,5.86-3.73.9-5.43-2.31-3.24-4.22-2.79,1.52-6.19,3.18-9.92,4.77a118,118,0,0,1-11.86,4.47c-2,.64-4.12,1.19-6.16,1.66a56.3,56.3,0,0,1-6.05,1.15,32.11,32.11,0,0,1-11.07-.24l2.1-2c-5-.06-7.15,3.2-9.27,6s-4.2,5.28-9.09,3.95l1.48-1.29A139.93,139.93,0,0,0,202,30.54c-5.23,1.37-10.38,3-15.44,4.34a137.69,137.69,0,0,1-14.7,3.52c-1.19.2-2.36.37-3.53.5s-2.31.28-3.44.37a41.65,41.65,0,0,1-6.68,0c-.45,3.77-5.64,4.64-10.47,6.06s-9.37,3-8.54,7.48a112.84,112.84,0,0,1-11.84-.69c-3-.13-6.57,0-14.85,2.3-2.15.77-3.23,2.7-4.36,4.79s-2.35,4.32-4.71,5.92l-1.73-3.85-5.2,7.32q-2.79-1.41-5.59-2.74l-2.17,1.64-2.14,1.69c2-.78,4.71-.36,4.89.85-6.63,5.25-19,6.54-20,5-5.29,4.13-10.65,8.34-15.87,12.77-.31-1.47,2.34-3.69,4.21-5.88-3.77,4.4-4.61,3.86-5.41,3.24S52.94,83.8,49.56,88c1.52-.08.44,2.15.61,2.86-2.59.53-6.27,2.43-10,5.2a64.7,64.7,0,0,0-10.34,9.64L29.65,103c-1.5,1.31-2.93,2.79-4.38,4.26s-2.83,3.08-4.14,4.76-2.64,3.43-3.92,5.23c-.63.91-1.21,1.86-1.81,2.79l-.89,1.41-.83,1.45A100.22,100.22,0,0,0,3.49,148a7.58,7.58,0,0,1,1.85-3c.59-.53,1.11-.61,1.51-.35a2.29,2.29,0,0,1,.77,1.69,7,7,0,0,1,0,1.42,12.45,12.45,0,0,1-.22,1.75q-1.55.61-3.09,1.3c.41,1.86,1,.58,1.48-.23s.92-1.15,1.14,2.39a9.67,9.67,0,0,1-1.24,3.19c-.41.6-.81.76-1.2.59-.8-.34-1.4-2-1.46-4A80.51,80.51,0,0,0,2.78,161c-.4.2-.66-.2-1-.73a4.2,4.2,0,0,0-1-1.52,10.38,10.38,0,0,1,0,3.87c-.25,1.6-.5,3.49-.7,5.45a21.12,21.12,0,0,0-.14,3c0,1,0,2,.14,2.88A10.76,10.76,0,0,0,1.8,178.6l-.6.6a58.32,58.32,0,0,0,3.84,12A63.38,63.38,0,0,0,9.78,200a109.42,109.42,0,0,0,11.58,14.79c1.59-1,4.92,3.28,8.87,5q1.25,1.38,2.57,2.73l2.66,2.78c1.75,1.93,3.71,3.73,5.69,5.62s4.12,3.68,6.34,5.47a79.22,79.22,0,0,0,7.05,5.13,18.47,18.47,0,0,0,3.63,1.67c.68.2.91.13,1,0,.24-.3,0-.92,1.84-.36-.15.79,2.24,2.79,4,4.17s2.9,2.3,0,1.25c3.1,1.71,5.61,3.16,8,4.31s4.45,2.29,6.73,3.27c4.52,2,9.53,4.15,17.88,7.05-1.51-1.34-3.37-2.45-2.13-2.49,3,1,6.4,3.48,5.71,4l-.84-.17c9.55,2.74,19.77,7.74,29.71,12.3s19.46,8.7,27.38,9.39l-.88-.1c5.31,1,10.63,2,15.95,3,7,2.46-4.63,0,.32,2.7a87.89,87.89,0,0,1,11.7,2.27c3.5.92,6.69,1.94,9.77,3,6.16,2.12,11.94,4.22,19.12,5.1,2.3,2.25,5.82,4.09,10,5.66a125.2,125.2,0,0,0,14.14,4c5,1.22,10.21,2.33,15,3.7s9.11,2.89,12.48,5.11l-.46-2c4.12-.7,4.32,2.22,7,3.4-.09-1.51-3.73-2.7-1.19-3.05a391.23,391.23,0,0,1,48.77,13.14c8.16,2.68,16.33,5.56,24.48,8.37s16.28,5.65,24.41,8.08c11.91,3.51,9.06-11.69,23.21-2.33l-5.12,4A114.82,114.82,0,0,1,405,351.19c6.24.9,12.44,2.25,18.65,3.5,12.41,2.49,24.74,5.21,37.16,4.31-1.61,1.05-1.89,2.73-4.23,2.3,4.5,4.94,18.75,3.43,19.29,0,3.69,1,.45,3.21,2.53,5.32,2.39,1.63,5.77.81,8.83.12s5.78-1.23,6.87,1.09c.37.76-1.61,1.16-2.59,1.34,3.59-1.55,15.46,2.9,12.88-2.53,8.77,3.7,17.6.16,24.48,4.14,5.35-5,15.24,4.81,17.62-3.13-1.56,8.3,15.22,8.82,21.36,5.47-2.18,2.37,4.74,3.25,2.14,6.59,6.59.64,12.77-.28,12-4.87,5.58,5.85,11.86,4.53,17.44,3.29s10.44-2.18,13.33,5c5-.71,9.87-1.31,14.67-1.92s9.52-1.19,14.16-1.68,9.22-.9,13.73-1.24,9-.73,13.42-1c-.56,4.62-5.45,4.52-10.16,4.49s-9.26-.1-9.17,4.75c2.12-.29,4.14-.66,6.07-1.08s3.79-.93,5.58-1.43c3.59-1,7-2.06,10.3-2.94,6.69-1.77,13.29-2.76,21.55-1.28,4.25,1.5-2.6,4-4.13,5.5,8.46-1.51,16.54-.92,24.41-.5s15.53.47,23-1.94c-.06.89-1.68,1.83-3.22,2.52,2.95-.23,6.82,1.61,6.56-2.78l-2.88,1.11c-4.55-6.46,11.85-12.94,12.38-16.39-5.11,12.54,14.63,3.28,6.61,19.12,1.95-.81,4.38-2.87,4-5.81,2.86.88,3.77,2.61.84,5.93,10.56-2.31,6.81-7,16.33-6.88,0,2.13-1.95,3-2.93,5.48,4.83-4.17,9.63-8.42,17.69-6.69-.47,1.29.49,3-1.92,3a36.66,36.66,0,0,0,9.73-2c1.54-.52,3-1.1,4.55-1.69l4.49-1.84c6-2.37,12.14-4.15,19.76-2.37-4.16,9.38,5.25,2.89,6.35,10.83l8.11-2.76-3.45-3.71c7.19-.21,13.22-6.31,19.53-4.13l-5.16,3.6q6.71-1.15,13.42-2.45c-2.63-.8-5.24-1.59-7.84-2.43,7-4.57-1.42-9.92,8.2-8.41-1.85,1,7.08-.44,11.25,3.76,0,0,0,0,0,0,3.32-2.83,6.63-5.82,12.11-4.54,1.68,2.29-.07,8.71,1,10.23,1.39-3.49,5.55-4.46,9.81-5.65a29.38,29.38,0,0,0,6.11-2.16,8.33,8.33,0,0,0,4.11-4.11c-1.18,1.87-.58,5.84.06,6.58l2-5.71c3.61,1,4.27,1.69,4.34,4.94,5.14-.6,3.83-2.83,2.87-4.67s-1.63-3.35,4.68-2.62c-.83.63-.22,1.28-2,2.47a34.93,34.93,0,0,0,8.85-1.66c2.82-.94,5.54-2,8.21-3.24s5.29-2.33,7.94-3.37a38.89,38.89,0,0,1,4-1.3,31.63,31.63,0,0,1,4.16-.89c2.83,2.92.66,4.22-1.53,5.37s-4.43,2-1.59,4.4c7.72-3.42,15-8.76,21.88-14s13.49-10.5,20.65-14l-2.91.9c-1.65-4.94,1.4-5.33,5.5-5.7a29.94,29.94,0,0,0,6.33-1.15,7.46,7.46,0,0,0,4.66-4.12c-1.13,1.76,1.16,6,.95,4.78a35.5,35.5,0,0,0,3.56-2.27,40,40,0,0,0,3.28-2.83,43.09,43.09,0,0,0,3.13-3.25c1-1.18,2-2.42,3-3.72.49-.65,1-1.29,1.48-2l1.44-2.13c1-1.45,2-2.91,2.93-4.48,1.9-3.18,4-6.48,6-10.16l.51,3.16a25.24,25.24,0,0,0,4.4-3.54c1.41-1.48,2.82-3.14,4.21-4.84,2.74-3.48,5.26-7.26,7.53-10.14-.9-3.08,1.35-6.44-2.78-5.94a24.08,24.08,0,0,0,10.79-12.93,41.5,41.5,0,0,0,2.13-16.21c-.23-5.44-1.07-10.66-1.71-15.72-.16-1.27-.34-2.53-.42-3.81s-.26-2.53-.28-3.83a60.93,60.93,0,0,1,.28-8.12c.79,2.34,3.62,5.25,3,3.3l-1.89-4.21-2.19-4c-.69-1.34-1.59-2.54-2.39-3.79l-1.23-1.84c-.42-.6-.89-1.17-1.33-1.75-1.14,1.44-1.29,2.15-1.26,3.08a14.77,14.77,0,0,1-.22,4.2,14.52,14.52,0,0,1-4.4-2.83,23.81,23.81,0,0,1-4-4.39c1.48,1.1,2.43,1.54,3.14,1.44s1.11-.73,1.32-1.65c.43-1.83-.12-4.71-.32-6.62-.52,1.05-2.08.83-2.77,1.67-.12-2.54-.63-3.67-1.3-4s-1.54,0-2.52.31a4.36,4.36,0,0,1-3.15.21c-1.11-.43-2.15-1.68-3.42-4.31l1.65-.77a30.89,30.89,0,0,0-2.79-1.61l-2.9-1.38a18.06,18.06,0,0,1-5.24-3.61c1-4,4.47,1.57,6.73-.45-2.51-2.05-6.07-2.77-9.21-3.68a17.33,17.33,0,0,1-4.28-1.77,7.29,7.29,0,0,1-2.85-3.39,20.85,20.85,0,0,1,4.28,1.93,31.42,31.42,0,0,0,4.28,2c-1.11-3.62-2.13-5.22-3.17-6.44s-2.24-1.87-4-3.48l.32.34q-3.91-3.82-8-7.42l1.7,2.37c-5.83,1.51-9.31-.27-12.94-2.59s-7.41-5-13.24-5.57c5.64.6,6.43.17,6.08-.68s-1.8-2.17-.51-3.46c-1.75-2.24-4.72-5.19-3.19-5.43-2.91-.06-4.41-1.57-6.23-3.05a11.79,11.79,0,0,0-8.05-3c.27-1.05-4.58-2.7-2.26-4.37-6.1-2.43.42,2.26-.75,3.13-5.24-1-9.78-4.71-15-8.47a72.21,72.21,0,0,0-8.42-5.33,39.74,39.74,0,0,0-10.05-3.6,89.26,89.26,0,0,0-13.27-3.52,61.42,61.42,0,0,1-12.4-3.57c-1.44-1.39-.45-1.59.92-1.48a21,21,0,0,1,3.1.58,41.91,41.91,0,0,0-7.3-4.39,63.86,63.86,0,0,0-7.7-3c1.32,0,.44-.95-.87-2.33-4.36-1.79-3.83.66-9.06-2.73a18.63,18.63,0,0,1,5.33-.2c-2.66-.88-5.37-1.6-8.08-2.37s-5.41-1.61-8.14-2.54c-1-1.39,3.75.16,5.88.41-3.05-1.1-7-2.49-10.47-3.62s-6.45-2-7.6-1.82c1.21.67,2.42,1.33,3.61,2-2.17-.89-.67-1.43,1-1,5.51,1.23,7.14,3.53,7.19,4.14l-3.86-1.37c1.32,2.12,5,3.78,9.4,5.31s9.41,2.8,13.07,4.66q-2.14.46-4.24.85,4.22.93,8.54,1.72c1.28,1.43,1.64,3.41-2.14,1.94a11.29,11.29,0,0,0,4.72,2.7,7.89,7.89,0,0,1,4.09,2.56c.37.49.08.5-.43.36l5.47,1.9c-1.29,0-.2,2.42-3.06.31a35.23,35.23,0,0,0,11.11,6c3.16,1.17,5.63,2,6.66,4.1l-.85-.24c6.47,3,7.07,2.63,7.44,1.77s.42-2.1,5.93-.94c1,3.14,1.93,6.36,2.78,9.68l2.64-1.79c1.22.84,3.61,2.51,2.55,3.27,5.73,1-.16-1.59,3.56-1.65,4.67,6,17.5,8.86,16.11,14.2,3.48-.81-4.74-5.22,2.6-2.74-.57,3,1.39,4,4,4.88s6,1.76,7.94,4.68c-3.35,1.57-7.55-3.19-3.65,2.69,3-1.15,5.5.83,7.81,3.4,1.15,1.29,2.27,2.72,3.4,4a11,11,0,0,0,3.54,2.9c1.33-1.79,4-.52,7.45,1.7s7.37,5.43,11.41,7.53c-.36.24.23,1.12,1.32,2.45.55.66,1.23,1.43,2,2.27l2.49,2.78c3.55,3.93,7.48,8.83,9.35,12.38l-.79.42a4.47,4.47,0,0,1,3.57-.26A9.77,9.77,0,0,1,1035,202c2.28,2,4.34,4.89,6.31,7.17a6.72,6.72,0,0,1-3.66,1,8.33,8.33,0,0,1-3.64-1.38l1.41,2.16c.46.72.83,1.48,1.25,2.21a5.68,5.68,0,0,1,2.9,1,13.11,13.11,0,0,1,2.78,3c-1.44.16-2.88.36-4.29.57.18.36.39.72.59,1.07s.37.72.57,1.07c.41.71.87,1.41,1.36,2.11l1.32,2.21a16.15,16.15,0,0,1,1.28,2.36c.36.82.72,1.68,1,2.57a15,15,0,0,1,.59,2.78,12.46,12.46,0,0,1-.82,6.1c2,.32,4.93-1.39,7.6-2.21s5.26-.46,6.36,5.45c-2.26.29-6,.29-6.77-2.43a19.25,19.25,0,0,1,.76,2.2,3.34,3.34,0,0,1-.31,2.84c-1-1.54-2.23-3-3.32-4.37-2,4.06,3,2.49,2.1,6a3,3,0,0,0-2.82.76,1.93,1.93,0,0,1-2.32.44c-.07-.85,1.8-2.65.78-4.06a20.46,20.46,0,0,1-1.11,2.72,16.69,16.69,0,0,1-1.66,2.5,8.31,8.31,0,0,1-4.1,2.93c1.87.21,4.23,1.17,3.75,3.94-1.13,3.42-2.3,3.63-3.54,3.38s-2.57-.89-4.16.56c.75,1.21,0,2.55-.3,3.88s-.34,2.61,1.86,3.84c-1,1.87-3.34,1-4.91,1,.08,2.13-2.18,5.83-3.74,8.86a16.51,16.51,0,0,0-1,2.15,4.56,4.56,0,0,0-.39,1.75c0,1,.72,1.63,2.51,1.6l.92-.57c0,.21-.17.39-.22.64l0,0,0,0c-1.9,6.72-7.14,11.48-12.71,15.42s-11.75,7-16.13,11.79l-1.1-1.47a46.29,46.29,0,0,1-4.16,4.38c-1.52,1.38-3.15,2.67-4.67,4a51.64,51.64,0,0,0-4.29,4,18.06,18.06,0,0,0-3.05,4.35c-2,1.16-6.44-.39-6.65-2.85-2.27,1.94-3.32,3.48-4.93,4.65a10.26,10.26,0,0,1-3.11,1.39,22.25,22.25,0,0,1-5.27.74c4-5.4-3-1.85,4.44-4.68a37.91,37.91,0,0,1-4.87.71,21.46,21.46,0,0,0-3.78.51c-2.28.65-4.32,1.93-7.15,5.87.4-2.83-1.48-3.77-3.8-3.82A11.31,11.31,0,0,0,942.3,329l3.06.95,3.07.85a22,22,0,0,1-2.66,1.27c-.89.33-1.78.61-2.67.84a46,46,0,0,1-5.33,1.06c0-2.31,0-4.6-.09-6.9a15.57,15.57,0,0,0-5.8-.26,17.73,17.73,0,0,0-5,1.53,38.5,38.5,0,0,0-4.55,2.66c-1.47,1-2.89,2.09-4.33,3.07-5.7,4-11.54,7.19-18.44,1.13-3.34,5.37,8.88,2.08,6.18,8.16a14,14,0,0,1-5.68-1.23,37.13,37.13,0,0,1-5.46-3c-3.39-2.18-6.1-4.42-7.2-4.3-5.08-1.43-7,1.33-9.15,4.22s-4.28,6-9.63,5c1.52,2.38,3.42,9-4.41,11.9-7.56-.41-9.79-10-5.28-12.25,1.75-.3,2.65.43,2.63,1.29,2.32-1.06,5.33-2.33,2.24-4.86l-.77,2.56c-3.8-2.3-13.87-1.57-11.73-5.81-5.41,2.65-2.16,4.25,2,5.36-9.62-3.21-14.79.55-24.72-1.68,1.61,1.37,3.16,4.32,1.6,4.33-14.55-2.8-6.21,5-16,6.35-5.67-3.74,1.76-9.33-8-5.82-6.07-2.48-1.4-6.74.93-8.88-8.85,5.11-16.76-3-21.84-3.85l4.67-2.11a16.67,16.67,0,0,1-7.43,1.26l2.73,5.07c-2.77-.86-5.11-.85-5.07-3-2.83,3.38,2.24,8.47-3.41,13.11-3.71-2.52-11.3,2.77-12.56-4,11.63,2.32-1.27-6.79,8.55-7.88-1.89.81-4.2.77-7-.12-.41-.76.39-1.4,1.15-1.79-11-6-5.12,7.64-16.65,7.47,1.5-3.81-2.59-7.2-4.47-6.38,4.63,0,2.15,6.36-2.16,9.21-7.35-3.06-8.08,2.07-12,1.67l4.41,1.45c-1.57,3.76-5.28,3.2-10.49,4.3-.37-2.94,4.75-1.95,2.93-3.27-5.92,6.52-12.8-7-20.91-2.81-3.62-2.63-.12-7-3.31-8.82-9.12,4.6-9.47-5.26-19-1.55,2.48,5.05,3,3.88-3.83,8.43,5.22-.92,10.42-2,15.62-3l-10.24,7c4.68.21,10-2.85,12.77-1.93-4.9,3.95-4.37,2.71-2.28,6.92-3.07-3.84-6.28-2.84-9.65-1.55s-6.88,2.76-10.47.1l.82-12.2c-5.41-2.92-10.41-1.51-15.86.14s-11.34,3.42-18.46,1.57l4.51,2.31c-2.24,4.64-9,.18-13.77,1.84.71-3.93-2.11-5.52-3.93-8.07,0,3-10.52-.9-12.43,6.81l-6-5.54c-5.74-1.41-9.28,1.14-12.8,3.74s-7,5.2-12.54,4.08c3.75-3.85-1.09-6.94,6.67-9.32-3.73-.32-7-1.27-7.33,1.35-2-2.52-10.85,4.27-13.95.42-1.74,1.53-2.64,5.38-6.81,4.67a2.31,2.31,0,0,1,.2-1.83c-.2,1.84-6.83,1.86-3.58,6.33-5.18-6.37-13.25-6.89-21.17-7.24s-15.66-.7-20.1-6a217.72,217.72,0,0,1-25.69-.29c.61-1,.25-1.73,1.6-1.21-9.78-4.41-7.58,9.25-18.73,4.15-5.18-6.28,6.57-2.19,3.15-4.76,0-5.73-3.59-5.76-8-5.31s-9.67,1.33-13.12-2.31l2-.43c-2.72-2.21-6.51-1.54-10.82-.7s-9.15,2-14,1a1.88,1.88,0,0,0,.3-1.58c-3.74,2.26-8.83,3.41-14.19,4s-11,.49-15.78.49c3.54-3.46,4.59-1.45,3.44-5.67-4.29,0,.21,6.58-8.35,6.4-2.38-2.54-8.14-5.22-8.27-9.43l7.95.85c-1.59-3-4.16-3.22-6.83-3s-5.45,1-7.46.26l.91-2.2c-12.25-.86-13.37,4.68-26.33,2.28l1.06,1.83c-4,2.09-5.38,1.08-6.71-.06s-2.63-2.42-6.51-1.09l-1.21-5.53c-2.46.27-6.79.89-11.58,1.32a96.57,96.57,0,0,1-14.3.38c5.43-2.69,15.61-3,22.12-4.4-4.65-.69-15.87-1.92-18.74.06,2-.17,4.54-1,6.25,0-6.42,3-14.25,3.45-23.48,1.7,1.68-4.28-4.23-5.84-11.24-7.3s-15.08-3-17.78-6.61c-8.47.1-16.48-1.72-24.76-3.82-4.14-1.07-8.35-2.19-12.71-3.27s-8.86-2.12-13.61-3c5.48,6.39-5.54-1-5.61,4.25-4.47-.68-6.12-1.15-6.43-1.55-4.18-2-8.36-4-12.55-5.92-2.8-2.06,4.43-.08,4.3-1.23-9.5-2.46-3.51-2.86-9.53-5.46.87,1.91-3.94,1.57-9.23-.31l7.13,3.83c-7-.37-9.63-2.06-12.27-3.67s-5.32-3.14-12.31-3.81l4.6-.21c-7.1-.95-25.31-6.55-32.89-5.56-1.07-.8-2.33-2.29.75-1.69-8-2.59-17.23-4.61-25.82-7s-16.55-5.18-22.14-8.6l1.52-.31c-2.93-1-5.65-.67-8.78-3.16.34-.25,1.51-.26.25-.94-.8-.22-2.82-.78-5.07-1.57a27.35,27.35,0,0,1-6.36-3.13l3.56.77c-1.7-1.09-3.35-2-4.91-2.93s-3-1.74-4.5-2.49c-2.95-1.46-5.59-2.87-8.3-4.08s-5.24-2.55-7.9-3.94c-1.3-.74-2.61-1.51-3.95-2.34l-2-1.3c-.68-.46-1.33-1-2-1.49.44-.52.2-1.48-.46-2.67a42.49,42.49,0,0,0-3-4.2c-1.2-1.58-2.57-3.24-3.9-4.79S39,207.77,38,206.57l.43-.12C32.67,199.66,28.19,194,24.67,188a47.37,47.37,0,0,1-4.36-9.36,38.33,38.33,0,0,1-2-10.83c.26-.61.51-1.26.74-1.95s.54-1.42.79-2.19l.37-1.17.44-1.22c.3-.83.53-1.69.88-2.57a82,82,0,0,1,4.88-11.38,58.68,58.68,0,0,1,7.51-11.16,44.72,44.72,0,0,1,4.59-4.59,37,37,0,0,1,5-3.64c-1.16.49-1.69-.14-1.69-1.21a5.85,5.85,0,0,1,1.49-3.64,6.2,6.2,0,0,0,1.27-.89A13.21,13.21,0,0,0,45.79,121c.79-.86,1.55-1.79,2.3-2.55,1.45-1.55,2.79-2.39,3.79-.53l-1.19.69a7.17,7.17,0,0,0,3.8.16,17.2,17.2,0,0,0,4.06-1.43c2.79-1.3,5.73-3.15,8.54-4.46l-2-5.61a42.87,42.87,0,0,0,14.38-3c2.41-.89,4.8-1.94,7.19-3.06s4.76-2.28,7.06-3.46,4.53-2.35,6.69-3.41a60.29,60.29,0,0,1,6.29-2.56c4-1.32,7.63-1.77,10.74-.33,3.26-3,8.15-4.6,11.38-7.7L130,87.65c11.33-2.42,17-3.52,30.26-8.25l-1.79,3.78c3.87-.9,5.3-4.63,6.69-8.4s2.68-7.71,6.24-8.85l4.11,6a41.29,41.29,0,0,1,5.15-1.07c1.74-.28,3.5-.49,5.26-.68l10.58-1.06c7-.77,13.75-2.35,19.78-6.93,0,1.09.1,3.25-2,4,1.62-.28,4-.42,6.71-.63s5.54-.51,8.11-1c5.12-1,8.88-3.07,6.69-7.89,1.47,6.47,14.29-1.89,21.31-6.15l-.31,5.11c5.23-7.28,5.17-9.06,13.78-12.26,2.22.35,2.45,3.69-.53,2.86,7.4,1.57,4.78-5.49,13.71-4.09L281,45.78c7.27-.68,6.46-2.28,10-6.49,4.34-2.57,14-.52,15.54,3.9.66-2.85,4.27-6.94,8.71-6.11.75,1.63-.71,2.85-1.44,3.45,6.24,1,10.62-.84,14.57-2.48s7.46-3,11.85-.93a3.72,3.72,0,0,0,1.63,2.81l-12.29.79c-3.07.17-4.85.18-4.5,0,.43,4.56,8.23,4.58,2.63,11.47,2.94-2,6.91-5.21,11.16-7.57s8.74-4.06,12.61-3.32a5.11,5.11,0,0,1,1.1,1.47l-.75.57a6.77,6.77,0,0,0,4.76-1.06,21.79,21.79,0,0,0,6.37.91c.55,1.81,2.8,2.15,5.41,2s5.57-.65,7.52-.68c-.52-4.82,4.63-4.31-.33-8,.64.32-.72.62-3.31,1a5.23,5.23,0,0,0-1.65.59,4.9,4.9,0,0,1,.25-.44c-2.56.25-5.9.61-9.7.93,2.95-2.67,6.09-5,10.55-2.5a90.19,90.19,0,0,1,5.17-8.06c5.67,6.45,16.09,9.66,17.62,13.67,5.92-1.65,13-2.26,19.43-3.65s12.43-3.38,16.24-7.72c3.43-1.12,3.92,2.4,5.18,3.74-2,.85-4.32.78-5.39,2,3.41-1.18,8.47-1.38,12.89-2.07s8.21-1.83,9.09-4.7c8.57,2.73-5,5.27,6.9,4.45l-1.64,1.74c11.5,4.57,21,1,31-1.88,5-1.43,10-2.76,15.44-2.91a38.25,38.25,0,0,1,17.44,3.65c-1.75-.71-2.63-1.06-2.94-1.92,14.61,3,29.88,2.61,45.11,3,7.61.16,15.2.49,22.68,1.25a150.65,150.65,0,0,1,22,3.82c8.14,1.64,9.29-.59,14.53-1.74l1.44,2.93c3-.81,6-1.54,9-2.23,6.24-.36,11.28,1.94,16.71,3.86a48.34,48.34,0,0,0,19.19,3.31l-1.67-1.67c5.43,1.13,17.39,3,16.14,4.08a5.24,5.24,0,0,1,4,.38l-.07.84c2.28.27,4.52.69,6.79,1.07s4.5.87,6.74,1.38c9.94,3.65-2.43,1.91,12.23,6.52,1.37.41,3.06.85,4.79,1.3s3.45,1,5,1.42c3,.88,5.07,1.51,4.12,1-2.14-.92-5.36-2.55-5.35-3l4.88,2c.65-.24,2-.09,1.74-.7s-2-2.09-7.53-5.85q-2.1-.92-4.23-1.79c-1.42-.58-2.83-1.16-4.29-1.63q-1.2-1-2.39-2c2.34,1.11,4.69,2.2,7,3.46A29,29,0,0,0,714,51.62a21.07,21.07,0,0,0-2.37-1.11,46.3,46.3,0,0,0-4.47-1.41A9.59,9.59,0,0,0,704,46.54,81.68,81.68,0,0,0,695,45c-.76-1.27,4.31-.14-1.21-2.91-2.13-.31-1.33.59-.84,1.27s.67,1.18-2.72.32c-3.86-2.46-2.39-3-7.56-3.73-.52-.89.64-1,2.66-.56-2.28-.43-5.22-1.24-7.91-1.94s-5.15-1.12-6.47-.67c-4-3.09-15.14-3.44-14.11-6.52a29.61,29.61,0,0,1-5.28.37,42,42,0,0,1-7.23-.37c2.05-.66,2.12-1.19,1.1-1.73a28.23,28.23,0,0,0-5.4-1.58c-4.56-1.1-9.81-2.28-8.48-4.58-3.09,1.49-8.21,1-13.84.28s-11.75-1.78-16.84-1.17c.59-.31,1.76-.93,2.61-.54-5.53-1.28-7-3-10.47-4.61-1.14,4.07-9.92,3.79-14.87,6-3.21-2.59-2.05-3.82-.3-4.87s4.08-2,3.2-4.21c0,3.61-12.23,1.85-10.19,5.31-5-3.47-4.39-1.92-6.75-6.2-1.44,5.81-5,.31-9.64,3.47-7.35-4-1.48-6-10-5.19-1.91-1.22-1-2.16.46-2.77A16.19,16.19,0,0,1,548.23,6.94ZM347.44,11.18v-.1l4.13-.52C350.7,10.67,349.51,10.84,347.44,11.18Zm-16.86,1.2c2.07,0,4.63-.13,7.33-.33.72,1.67.21,3.47-1.48,3.49C337.26,14.35,333.22,13.61,330.59,12.39ZM367.88,44c-2.55.87-3.46,0-3.87-1a42.64,42.64,0,0,0,4.49-.9c.07-.19.21-.4.28-.61A7.17,7.17,0,0,1,367.88,44Z"/><path class="cls-2" d="M372.25,37.41a4.39,4.39,0,0,1,1.06-.41,12.19,12.19,0,0,0-1.6-1c-.29.53-.6,1.06-.85,1.57Z"/><path class="cls-2" d="M1029.34,281.79l-.3.19a2.17,2.17,0,0,1,1-.13A3.56,3.56,0,0,1,1029.34,281.79Z"/><polygon class="cls-2" points="101.32 60.36 101.72 61.25 102.74 59.8 101.32 60.36"/><path class="cls-2" d="M1048.52,196.84a2.24,2.24,0,0,0,0-1.67C1048.35,195.38,1048.44,196,1048.52,196.84Z"/><path class="cls-2" d="M1017.9,168.08c-1.34-1.45-2.7-2.85-4.07-4.27A45.61,45.61,0,0,0,1017.9,168.08Z"/><path class="cls-2" d="M992.62,150.18a4.13,4.13,0,0,0-1.28.88l0,0Z"/><path class="cls-2" d="M733,385.4a3.8,3.8,0,0,0-1.2.24C729,386.71,730.88,386.31,733,385.4Z"/><path class="cls-2" d="M878.54,367.81a24.6,24.6,0,0,1-4.46,3.23C876.73,371.28,878.79,371.16,878.54,367.81Z"/><path class="cls-2" d="M569.92,379.79s0,0,0-.09c-.35,0-.65-.08-1-.12Z"/><path class="cls-2" d="M867.25,371.53a8,8,0,0,0,6.83-.48C871.9,370.83,869.34,370.48,867.25,371.53Z"/><path class="cls-2" d="M873.75,90.28l-1.35-.6c0,.09-.12.12-.25.12Z"/><path class="cls-2" d="M872.15,89.81l-1.59-.46A4.84,4.84,0,0,0,872.15,89.81Z"/><path class="cls-2" d="M867.22,88.36l3.34,1A10.87,10.87,0,0,0,867.22,88.36Z"/><path class="cls-2" d="M910.75,107l.76-.45A1,1,0,0,0,910.75,107Z"/><path class="cls-2" d="M922,112.07c-2.56-1.45-5.92-4.63-9.91-5.87l-.62.36c1.13-.08,3,1.22,5,2.63S920.46,112.06,922,112.07Z"/><path class="cls-2" d="M961.18,147l-8.26-6.13c1,1.87,2.2,4.42-1.84,2.13C960.26,152.74,950.06,139.46,961.18,147Z"/><path class="cls-2" d="M986.71,165.94c-4.84-2.61-1,1.61-1.6,2.06C988.59,169,989.46,169.21,986.71,165.94Z"/><path class="cls-2" d="M974.44,320.74l-1.83-4.59C969.44,318.51,973.45,317.87,974.44,320.74Z"/><path class="cls-2" d="M943.1,361.08l5.11,1.78.6-5.14C946.92,358.9,945,359.95,943.1,361.08Z"/><path class="cls-2" d="M909.61,330.88l1.56-1c-2,1-4.08,2-6.16,3C906.55,332.19,908.08,331.52,909.61,330.88Z"/><path class="cls-2" d="M530.15,328.95l.61,5.87C533.73,334.09,535.06,327.67,530.15,328.95Z"/><path class="cls-2" d="M364.36,313.89c-1.42-2.43-5.82-4.42-9-2.75C359,312,362.38,314.17,364.36,313.89Z"/><path class="cls-2" d="M74.4,107.85c-.79.79-1.55,1.58-2.3,2.37,1.62-1.12,3.3-2.21,5-3.32Z"/></g></g></svg>