<svg xmlns="http://www.w3.org/2000/svg" viewBox="0 0 1415.94 451.43"><defs><style>.cls-1{fill:#42a1db;}</style></defs><title>Asset 13</title><g id="Layer_2" data-name="Layer 2"><g id="Layer_4" data-name="Layer 4"><path class="cls-1" d="M1047.87,47.74c-1.42-.28-.78.36,3.06,1.45q1.47.07,3,.08Z"/><path class="cls-1" d="M1072.84,57.5c4.58,1.07,10.13,1.65,7.65-.42a33.29,33.29,0,0,1-5.35-.66,48,48,0,0,0-5.59-.74c-3.79-1.22-6.5-2.49-5.73-2.64-1.43-.19-5.86-2-8.08-2.11a95.76,95.76,0,0,0,17.64,5.93C1074.68,57.58,1073.23,57.41,1072.84,57.5Z"/><path class="cls-1" d="M1383.09,274.66c-.13-.81-.31-1.61-.47-2.42A6.29,6.29,0,0,0,1383.09,274.66Z"/><path class="cls-1" d="M1239.94,376.17c1.78-.45,2.41-1.26,2.4-1.9C1240.74,375,1239.44,375.63,1239.94,376.17Z"/><path class="cls-1" d="M1198.35,374.71c.9.1,1.64.09,2.45.14C1199.79,374.33,1198.83,374.1,1198.35,374.71Z"/><path class="cls-1" d="M1383.09,274.66c.3,2.1.67,4.14.84,6.22,1-.2,1-1,.67-2.2S1383.54,276.08,1383.09,274.66Z"/><path class="cls-1" d="M1124.84,72.16a18.29,18.29,0,0,0-3.5-.74c1.08.3,2.12.6,3.18,1A1.66,1.66,0,0,1,1124.84,72.16Z"/><path class="cls-1" d="M1312.83,201.47l-1.51-1.2a12,12,0,0,0-2.47.57Z"/><path class="cls-1" d="M1247.87,153.95c1.43,1.15,3.84-1.44,5.26-2.34a5.69,5.69,0,0,1-4.62-.18A4.57,4.57,0,0,0,1247.87,153.95Z"/><path class="cls-1" d="M1138.61,86.35l-2.19-.7Z"/><path class="cls-1" d="M1353,240.89a3.94,3.94,0,0,0-.76,1.64A2.69,2.69,0,0,0,1353,240.89Z"/><path class="cls-1" d="M666.88,5.66c0,.15.06.24.06.37C667.38,5.78,667.51,5.62,666.88,5.66Z"/><path class="cls-1" d="M761.8,1.79,760.51,2c-.12.13-.25.26-.23.37Z"/><path class="cls-1" d="M1123.43,377a2.34,2.34,0,0,0,.34.07C1125.63,376.14,1124.55,376.41,1123.43,377Z"/><path class="cls-1" d="M439.46,389.91c3.7,1.53.46,1.79-2.3,2.1s-5,.68.6,2.67c-.47-.52,2.31-1,4-1.77S444.16,391.2,439.46,389.91Z"/><path class="cls-1" d="M1126.73,73.15c1,.38,2.09.78,3.14,1.21A26.74,26.74,0,0,0,1126.73,73.15Z"/><path class="cls-1" d="M437.75,394.67v0l1.17.39Z"/><path class="cls-1" d="M952.9,397.47a6.69,6.69,0,0,0,1.89,2.34C954.69,399.24,954.26,398.56,952.9,397.47Z"/><path class="cls-1" d="M1081.25,394.19l-3.24-.44A9.5,9.5,0,0,0,1081.25,394.19Z"/><path class="cls-1" d="M886.73,409c-1.74-.33-2.35-1-4.68-.22a3,3,0,0,0,.74.62C883.62,408.58,884.74,408.19,886.73,409Z"/><path class="cls-1" d="M817.32,411a12.42,12.42,0,0,0,1.29,1l2.2-.29Z"/><path class="cls-1" d="M455.8,28.9a12.9,12.9,0,0,1,3.74,3.3C458,29.41,468.08,27.18,455.8,28.9Z"/><path class="cls-1" d="M1124.48,73.1a3.06,3.06,0,0,1,2.25.05c-.76-.28-1.49-.52-2.21-.76C1124.22,72.56,1124.08,72.77,1124.48,73.1Z"/><path class="cls-1" d="M885.16,451.33l-11.22-.61A73.07,73.07,0,0,0,885.16,451.33Z"/><path class="cls-1" d="M1.72,225.56c-.32-1.13-.51-2.29-.75-3.45A6.72,6.72,0,0,0,1.72,225.56Z"/><path class="cls-1" d="M840.7,451.43a16.6,16.6,0,0,0-6.35-3.59,4.71,4.71,0,0,0-1.29,1.33Z"/><path class="cls-1" d="M459.57,32.25a.05.05,0,0,1,0,0A.05.05,0,0,0,459.57,32.25Z"/><path class="cls-1" d="M530.9,15c-10.55.92-4.27,5.1-6.1,8.05-12.34,2.82-6.32-2.86-11-4.88-7.66,2.08-13,7.32-18.86,7.84-.56-.78-1.74-1-.56-2.15-3.84,2.48-10,3.28-16.26,4.2s-12.72,2-17.14,5.32a3.36,3.36,0,0,1-1.45-1.18,11.6,11.6,0,0,1,2.56,7.19c-4.68.72-8.21,4.64-10.5,1.31,2.89-.29,2.92-1.76,4.11-3L451,39.91c-5.19-4.55,6.46-2.67,5.91-6.43-9.37,2.83-19.92,8.69-27.49,8.2-2.3-5,17-4,6.46-7.28l11.68.5c-9.88-6.9,7-.29-2.25-7.84-15.23.26-16.41,4.57-31.6,4.88-2.94,3.36,1.75,4.2-1.18,7.57-10.24,4.05-14.91,1.26-18.87-1.47s-7.19-5.37-14.48-.72c-3.51,4.19-4,11.39-15.72,9.27l2.83-6.83C351.65,41.15,359.45,50,343.53,48c2.3-2.94,11.11-3.78,8.78-4.22-10.69-3.64-6.42,4.62-14,5.77l-2.51-5.47C320.4,47.27,304,54.16,287.11,58.44c.61-1.91,3.21-4.27-1.16-5.34a181.05,181.05,0,0,1-33.82,7c-5.84.7-11.7,1.34-17.47,1.78s-11.44,1-16.89,1.32c-2.23,2.33-4.44,4.77-6.63,7.16-1.85.43-4-1.41-2.3-2.92-8.63.2.44,3.35-2.9,6.38-4.49,1.56-6.87-1.31-4.38-3.63a207.26,207.26,0,0,1-25.75,13.63,127.33,127.33,0,0,1-14.64,5.43,62.24,62.24,0,0,1-7,1.59,38.06,38.06,0,0,1-6.52.64L150,88.92c-6.1,1.07-8.43,4.86-10.72,8.2a17.06,17.06,0,0,1-3.89,4.45,10.91,10.91,0,0,1-6.75,1.83l1.66-1.68c-12.68,4-25.2,10.48-37,16.72S70.56,130.72,60,134c.15,2-1.28,3.76-3.35,5.62s-4.92,3.56-7.54,5.53c-5.34,3.76-10,8.11-7.69,12-7.13,3.64-10.14,4.61-13.64,6.45a37.51,37.51,0,0,0-6,4.1,67.61,67.61,0,0,0-9.57,9.7,10.34,10.34,0,0,0-1.84,4.22,21.93,21.93,0,0,0-.38,4.51l0,2.36c0,.81,0,1.65-.09,2.5a23.56,23.56,0,0,1-.33,2.62,21.07,21.07,0,0,1-.64,2.87L5,195c0,1,0,2.12,0,3.2l.1,3.16.28,3.17c.1,1,.21,2.06.4,3.11q-1.49,1.24-3,2.62c-.95.93-1.85,1.93-2.77,3a42.3,42.3,0,0,0,.31,4.47l.24,2.22L1,222.1a11.46,11.46,0,0,1,.26-2.64A12.9,12.9,0,0,1,2,217.19c.59-1.3,1.3-2.05,1.87-1.75.2,1.65.24,3.35.35,5.1q.11,1.31.19,2.65c0,.89.08,1.78.18,2.67.28,3.54.67,7.1,1.19,10.25,1,6.32,2.13,11.12,1.35,11.72a71.58,71.58,0,0,0,10,11.12A95.7,95.7,0,0,0,28,267.45c-1.39.67-5.15-1.91-8.45-4,1.67,1,2.9,1.79,3.82,2.42a12.16,12.16,0,0,1,1.89,1.55,1.75,1.75,0,0,1,.53,1.89,1.6,1.6,0,0,0,.36,1.76c.65.75,2.14,1.76,5.26,3.09-.89-1.65,2-1,2.69-1.38,1.89,2.71,5.87,6.06,10.56,9.1a100.57,100.57,0,0,0,14.77,7.77l-2.8.95c4,2.3,8.16,4.2,12.42,6.18s8.63,3.91,13.05,5.87,8.87,4,13.48,5.85,9.17,3.81,13.72,5.84c-6.19-3.63-3.29-5.78,2.11-3.61l1,3.38c4.14.07-5.1-3.44,2.79-2,6.59,3.38,3.28,4.75-1,3.81l8.65,2.86c.16.91-2,.44-2.87,1.1,4,.09,13.51,8.09,19.54,7.7l.18.85c4.62,1.87,8.63,3.41,12.28,4.82s7,2.39,10.23,3.46c6.44,2.13,12.41,4.16,20,6.93.93-1.56,6.78.83,11.83,1,5.5,2.21,11.25,4.71,17.31,7.25,1.52.63,3,1.28,4.62,1.88l4.79,1.72c3.23,1.14,6.56,2.25,10,3.29,9.83,2.22,3.24-.49,7.84-.09.23,1.69,13.86,5.92,6.49,4.72,2,.65,3.93,1.14,5.68,1.61l4.91,1.33,8.8,2.31c2.93.75,6,1.51,9.66,2.38l6,1.4,7.25,1.48c-2.11-1.21-4.59-2.15-3.13-2.31,3.86.75,8.47,2.9,7.73,3.48l-1-.11a140.76,140.76,0,0,1,18.75,4.64c3.19,1,6.46,1.93,9.69,3l9.67,3.14,9.46,3.08c3.1,1,6.13,1.94,9.09,2.65a81.25,81.25,0,0,0,16.34,2.72l-1.1-.06,10,1.27,5,.62,5,.5c9,2.12-5.69.25.8,2.71a149.43,149.43,0,0,1,27.13,4.37c7.9,1.71,15.3,3.57,24.25,4.06a40.07,40.07,0,0,0,13.15,5.17c5.41,1.3,11.61,2.28,18,3.2,12.72,2,26.14,3.1,35.07,7.11l-.85-2c5-1,5.64,2,9.1,3-.33-1.51-5-2.49-1.91-3,10.16,1,20.44,2.27,30.79,4,5.17.88,10.37,1.71,15.58,2.63s10.43,1.91,15.66,3l7.85,1.6,7.86,1.54L601,437.12l15.7,3.17c5.22,1,10.44,2.05,15.64,2.85,15.25,2.35,9.47-12.52,28.35-4.56L655,443a180.28,180.28,0,0,1,23.47-.46c7.85.23,15.72.84,23.57,1.47s15.68,1.29,23.46,1.53a143.7,143.7,0,0,0,23.09-1.28c-1.83,1.23-1.92,2.92-4.88,2.77,6.31,4.4,23.67,1.3,23.82-2.17,4.71.57,1.05,3.14,3.94,5,6.41,2.76,16.17-5,19.55-.7.58.7-1.81,1.35-3,1.65,4.2-2,19.52,1,15.51-4.1,5.69,1.29,11.13.84,16.28.45s10-.88,14.56.65c5.84-5.72,19.52,2.78,21.26-5.38-.67,8.42,20.11,6.93,27.18,2.61-2.34,2.64,6.33,2.59,3.62,6.24,8.22-.24,15.7-2,14.11-6.43,7.75,5.06,15.29,2.89,22,1s12.55-3.65,17.16,3.05q9.07-2.12,17.8-4l8.67-1.81,4.29-.86,4.25-.9c11.3-2.37,22.3-4.41,33.14-6.15-.1,9.3-24.11,2.35-22.52,11.91,20.59-4.91,31.92-13.45,52.63-13,5.43.87-2.67,4.32-4.34,6.05,10.21-2.73,20.24-3.32,30-4a141.18,141.18,0,0,0,14.35-1.65,68.83,68.83,0,0,0,13.74-3.73c0,.9-1.84,2.07-3.64,3,3.6-.68,8.59.56,7.71-3.76l-3.41,1.54c-6.44-5.71,12.94-14.67,13.18-18.09-4.72,13.16,18.45,1.21,10.54,18.07,2.29-1.07,5-3.53,4.15-6.38,3.63.41,5,2,1.76,5.75,12.69-4,7.51-8.05,19.24-9.4.23,2.13-2,3.24-2.94,5.87,5.44-4.85,10.85-9.75,21-9.2-.43,1.35.94,2.87-2,3.21,8.48-1.33,15.33-5.2,22.44-8.44s14.5-5.94,24.08-5.32c-4.11,10,6.77,2.09,9,9.83,3.22-1.28,6.42-2.68,9.63-4l-4.6-3.15c8.76-1.34,15.55-8.33,23.47-7l-6,4.31,16.11-4.25-9.75-1.4c8.15-5.5-2.58-9.73,9.36-9.47-1.11.59,1.07.26,4.19.25a29,29,0,0,1,5.1.39,11.61,11.61,0,0,1,4.74,1.74s0,0,0,0c3.87-3.26,7.82-6.65,14.57-5.93,2.11,2.14.19,8.74,1.57,10.16,3.08-7.21,20-5.65,24.12-13.39-1.49,1.91-.83,5.9-.08,6.6l2.58-5.8c4.33.84,5.06,1.48,5,4.77,12.24-1.61-5.68-8.73,9.42-7.6-1,.64-.35,1.29-2.54,2.55,7.39-.44,14.18-2.7,20.82-4.86,3.32-1.08,6.6-2.14,9.91-3a53.7,53.7,0,0,1,10.14-1.53c2.83,3.17-.09,4.32-2.87,5.26s-5.46,1.66-2.59,4.28a111.84,111.84,0,0,0,14.75-5.53c2.58-1.18,5.19-2.48,7.81-3.94a89.7,89.7,0,0,0,7.8-4.91,60.39,60.39,0,0,0,13.82-13.38,81.2,81.2,0,0,0,8.68-15.76c-.72,1.24-1.47,2.45-2.29,3.64-3.95-3.51-1.42-6.34,1.57-10.71a30.64,30.64,0,0,0,3.94-7.33,13.94,13.94,0,0,0,.74-4.06,11.58,11.58,0,0,0-.11-2,9.37,9.37,0,0,0-.6-2,4.93,4.93,0,0,0,2.77,2.75c1.11.52,2,.62,1.49.22,1.19-7.37.22-15.18-2.41-23.22a93.14,93.14,0,0,0-5.13-12.3c-1-2.11-2.2-4.2-3.37-6.37-.6-1.08-1.27-2.14-1.9-3.24l-1-1.65-1-1.64c1.08.46,2.21.92,3.27,1.43-.62-4.18-2.65-9.28-5.22-14.11s-5.44-9.54-7.52-13.41c-3.38-.87-6-5-7-.63a35.8,35.8,0,0,0-8.45-17.87,75.54,75.54,0,0,0-14-12.18c-5-3.55-10-6.79-14.38-10.53a44.81,44.81,0,0,1-11.14-13.45c2.14,1.69,6.25,2.72,4.57,1.32-5.48-3.61-11-7.15-16.54-10.49-.91,3.62.75,3.13,2.25,7.74-3.19.08-8.43-1.94-12.18-4.81,8.2,3.42,3.31-4.38,1.43-8.09-.13,1.2-1.84,1.34-2.22,2.36-4.43-10.74-5.33,4.28-13.94-6.92l1.6-1c-2.33-1.14-4.78-1.94-7.15-2.92a34.07,34.07,0,0,1-3.49-1.65,19.38,19.38,0,0,1-3.32-2.21c.23-4.27,5.47,1.67,7.5-.56-3.23-2.14-7.42-2.84-11.18-4s-7.12-2.59-9-6c3.29,1,7.16,3.69,10.46,4.71-3.91-7.74-5.26-7.4-9.69-11l.42.38-10.11-8.57,2.24,2.7a17.57,17.57,0,0,1-8.45-.56,31.18,31.18,0,0,1-7-3.44c-2.28-1.4-4.59-2.93-7.21-4.25a30.26,30.26,0,0,0-9.06-2.88c6.73,1.09,7.61.69,7.08-.24s-2.42-2.45-1.08-3.72c-2.38-2.51-6.26-5.93-4.5-6.06-3.43-.31-5.38-2.08-7.74-3.8a18.16,18.16,0,0,0-9.94-3.77c.18-1.1-5.78-3.22-3.28-4.82-7.53-3.06.81,2.45-.44,3.28a25.85,25.85,0,0,1-4.67-1.57,43,43,0,0,1-4.66-2.33c-3.12-1.77-6.28-3.92-9.63-6.09a94.1,94.1,0,0,0-10.8-6.09,54.36,54.36,0,0,0-12.48-4.35,136,136,0,0,0-16.34-4.33A91.32,91.32,0,0,1,1142.15,86c-1.93-1.53-.78-1.7.87-1.51a34.73,34.73,0,0,1,3.79.73c-6.59-4.17-12.12-6.07-19.12-8.22,1.58.05.37-1-1.41-2.46-5.49-2-4.49.59-11.32-3a26.91,26.91,0,0,1,6.38-.12c-3.35-.93-6.72-1.75-10.1-2.61S1104.49,67,1101,66c-1.46-1.45,4.55.19,7.13.52-3.83-1.23-8.85-2.67-13.2-3.88s-8.08-2.1-9.44-2l4.67,2.17c-2.75-1-1-1.48,1.07-1,6.84,1.33,9.18,3.71,9.35,4.34l-4.88-1.45c1.93,2.22,6.72,3.92,12.18,5.63,2.74.84,5.67,1.62,8.52,2.43a59.65,59.65,0,0,1,7.93,2.68l-4.94.77c3.49.68,7,1.42,10.49,2.05,1.77,1.52,2.51,3.61-2.25,2a16.88,16.88,0,0,0,6.08,2.94,11.83,11.83,0,0,1,5.31,2.77c.52.53.18.53-.45.36l6.81,2.22c-1.53,0,.14,2.53-3.6.21A54.52,54.52,0,0,0,1156,95.42c3.94,1.38,7,2.34,8.55,4.63l-1-.29c8.14,3.49,8.85,3.06,9.14,2.18s.2-2.23,6.9-.66q2.46,5.08,4.73,10.37l2.88-1.75c1.58.93,4.66,2.84,3.51,3.58,6.9,1.51-.41-1.7,4-1.5,3.22,3.32,8.67,6,13.29,8.44s8.24,4.92,7.77,7.72c4-.6-6.32-5.91,2.69-2.72-.26,3.14,2.19,4.32,5.44,5.47s7.24,2.4,10,5.68c-3.73,1.39-9.29-4.07-3.92,2.56,3.4-1,6.59,1.32,9.65,4.25s5.9,6.61,9,8c1.32-1.78,4.69-.22,8.94,2.53s9.38,6.64,14.52,9.18c-1.49.93,15.92,14.53,23,22.55l-.76.51c2.34-1.46,5.58-.42,9,1.58s7.16,4.9,10.62,6.9c-2.24,2.38-4.15,2.51-8.35,1l5.78,4.61a8.81,8.81,0,0,1,3.84.42,24.66,24.66,0,0,1,5.05,2.56l-4,2c3.79,3,8.29,5.27,12.76,8.11s9,6.26,12.4,11.68c1.67-1.23,1.82-5,2.95-7.62s3.3-4,9.23-.25c-1.17,1.95-3.49,5-6.62,3.2,1,.6,4.25,1.54,5.21,3.88-2.13-.4-4.3-.74-6.41-1.1,2.92,5.21,4.33-.13,7.33,3.41-2.32,2.17.73,4-1.56,5.35-1-.64-1.82-3.78-3.9-4.16,3.22,4.06,6,9.94,5.43,13.09,1.06-1.56,3.26-3,6-.42a10.29,10.29,0,0,1,2.59,3.91,2.16,2.16,0,0,1-.38,2c-.76,1-2,1.84-1,4.52,1.57.18,2.85,1.8,4.13,3.06s2.72,2.1,4.79.68c1.58,2.29-.06,4.08-.58,5.72a18.17,18.17,0,0,1,3.89,3.91c1.35,1.77,2.83,3.77,4.08,5.52a14.52,14.52,0,0,0,3.49,3.71c1,.54,1.9.2,2.47-1.66l-.26-1.29c.2.16.34.4.57.6l0,0,0,0a30.74,30.74,0,0,1,6.83,10.36,49.33,49.33,0,0,1,3,12.11c.17,1,.24,2.06.33,3.09s.2,2,.24,3.07c.07,2,.21,4.06.22,6a115.52,115.52,0,0,0,.74,11.63l-1.84,0c.21,1.11.38,2.27.53,3.45s.11,2.38.14,3.59a56.43,56.43,0,0,1-.38,7c-.49,4.54-1.23,8.52-1,12.21a4.76,4.76,0,0,1-3.73,2.07,3.68,3.68,0,0,1-3.54-1.48c-1.13,2.49-1.72,4.14-3.07,5.6s-3.56,2.61-8.4,3c2.18-2.79,1.22-3.23,1-3.36s-.2-.05.23-.21a21.33,21.33,0,0,0,3-1.32,20.84,20.84,0,0,1-4.63.89l-2,.19c-.62.08-1.25.16-1.86.29-2.48.52-4.73,1.8-8.9,5.52a2.56,2.56,0,0,0-.47-3,5.54,5.54,0,0,0-3.32-1.08,18,18,0,0,0-4.61.38,15.57,15.57,0,0,0-4.18,1.39l7.47,2.21a38.63,38.63,0,0,1-7.24,1.79c-2.38.38-4.71.61-7.07.84l1.14-7c-10.76-2.12-19,2.91-26.83,7.27-3.91,2.17-7.71,4.17-11.65,4.93a16.79,16.79,0,0,1-12.46-2.61c-4.39,5.65,11.45,1.46,7.78,7.8-9.37.73-20.72-7.4-23.58-6.95-6.61-.84-9.08,2.17-11.62,5.36s-5.11,6.62-11.94,6.31c2.1,2.2,4.84,8.52-4.66,12.45-9.41.59-13.07-8.61-7.59-11.51,2.17-.55,3.37.07,3.42.92,2.83-1.37,6.55-3,2.45-5.15l-.78,2.66c-5-1.82-17.59.42-15.29-4.12-6.55,3.46-2.31,4.56,3,5a44.41,44.41,0,0,0-15.43.68c-2.31.43-4.63.9-7.16,1.22a44.86,44.86,0,0,1-8.39.25c2.14,1.12,4.38,3.82,2.44,4.06-18.33-.59-7.15,5.89-19.12,8.73-7.44-2.86,1.15-9.54-10.58-4.58-7.8-1.55-2.5-6.49.15-9-5.19,3.2-10.48,3.18-15.26,2.28s-9.07-2.69-12.29-2.74l5.56-2.77a25.61,25.61,0,0,1-9.09,2.33l4,4.64c-3.54-.45-6.45-.1-6.65-2.22-3.11,3.76,3.79,8.08-2.67,13.51-4.9-2-13.64,4.54-16-2,14.68.43-2.4-6.54,9.63-9.2a15.17,15.17,0,0,1-8.65,1c-.61-.68.32-1.45,1.21-2-7.23-2.11-8.57,0-9.91,2.83s-2.65,6.39-9.82,7.11c1.39-4-4.12-6.78-6.35-5.71,5.76-.58,3.46,6-1.52,9.46-9.5-1.9-9.74,3.3-14.6,3.49l5.64.76c-1.46,4-6.12,4-12.42,5.87-.84-2.86,5.62-2.66,3.2-3.69-3.22,3.69-7.43,2.43-12,1s-9.5-3.33-14.26-.64c-4.83-2.08-1.09-6.95-5.28-8.26-10.68,5.91-12.45-3.86-23.76,1.28,3.76,4.6,4.27,3.35-3.57,9l18.92-5.37L1026,402.49c5.82-.48,12-4.29,15.54-3.78-5.53,4.63-5,3.32-1.89,7.2-8.6-6.72-15.43,5.84-25.07,1.6l-.68-12.21c-7.11-2.14-13.1-.06-19.62,2.33s-13.55,5.08-22.61,4.31l5.9,1.61c-2.11,4.93-11,1.57-16.76,3.78.31-4-3.41-5.2-6-7.49.46,2.89-13.14.6-14.38,8.51l-8.28-4.63c-7.3-.6-11.31,2.51-15.27,5.49s-7.87,6.09-14.9,5.71c4.06-4.32-2.38-6.73,6.86-10.13-4.66.18-8.87-.32-8.86,2.31-2.8-2.24-12.77,5.67-17.17,2.28-1.92,1.74-2.45,5.69-7.71,5.59a1.9,1.9,0,0,1,0-1.85c0,.92-2,1.64-3.48,2.61s-2.33,2.16,0,4.18c-7.36-5.67-17.4-5.2-27.24-4.57a110.4,110.4,0,0,1-14.19.37c-4.42-.3-8.4-1.26-11.54-3.68-10.19,1.28-22.49,2.49-31.76,2.8.6-1.05,0-1.75,1.79-1.4-6.38-1.59-8.36,1-10.57,3.41a10.39,10.39,0,0,1-4.06,3.13c-1.79.65-4.22.76-7.85-.2-7.35-5.66,7.77-2.91,3.17-5.08-.93-5.69-5.31-5.32-10.68-4.38s-11.74,2.41-16.55-.82l2.38-.65c-7.37-3.75-18.34,4.21-30.54,3,0,0,.63-.93.13-1.61-8.54,5.26-24.46,6.53-36.32,7.6,3.85-3.83,5.45-1.95,3.4-6-2.65.23-2.34,1.85-2.69,3.52s-1.36,3.41-6.66,3.68c-3.32-2.32-10.82-4.51-11.6-8.67l9.93.14c-4.8-5.59-12.84-.27-18-1.39l.8-2.28a46.86,46.86,0,0,0-15.66,3,36.94,36.94,0,0,1-16.48,1.75l1.58,1.74c-4.65,2.41-6.48,1.51-8.28.48s-3.59-2.21-8.19-.56l-2.3-5.41c-3,.48-8.25,1.46-14.1,2.31-2.92.43-6,.82-9,1.12s-5.94.42-8.6.43c6.3-3,18.83-4.32,26.65-6.24-5.83-.34-19.88-.46-23.12,1.65,2.39-.3,5.46-1.32,7.72-.46-7.49,3.54-17.08,4.51-28.71,3.5.73-2.2-.79-3.58-3.59-4.51a66.38,66.38,0,0,0-11.32-2c-8.84-1-19-1.94-22.89-5.33-10.43.67-20.55-.72-31.08-2.23s-21.38-3.64-33.33-4.72c7.71,6-7-.64-6.29,4.64-5.59-.49-7.69-.88-8.13-1.28q-8.16-2.72-16.32-5.3c-3.75-1.92,5.44-.32,5.11-1.47-12.06-2-4.75-2.68-12.56-4.93,1.36,1.9-4.6,1.72-11.37,0l9.32,3.6c-8.65-.13-12.13-1.7-15.62-3.19s-7-3-15.71-3.21l5.63-.48c-4.45-.22-12.44-1.72-20.49-2.9s-16.15-2-20.72-1.4c-1.43-.78-3.21-2.27.65-1.73-5.13-1.22-10.61-2.26-16.18-3.23s-11.27-1.78-16.76-2.83c-11-2.11-21.35-4.32-29.06-7.23l1.79-.47c-1.95-.34-3.71-.41-5.54-.66a18.07,18.07,0,0,1-6-1.78c.35-.29,1.77-.42,0-1-2.08-.28-10.49-1.37-15.35-3.35l4.57.28c-4.85-1.75-9.23-2.95-13.28-4s-7.8-2-11.48-2.74l-11-2.23a102.87,102.87,0,0,1-11.69-3c.47-1.29-3-3.54-7.55-5.89s-10.06-4.83-13.75-6.48l.4-.28-4.1-1.59c-1.34-.52-2.64-1.09-3.93-1.61-2.58-1-5.09-2-7.56-2.95-4.94-1.83-9.68-3.49-14.4-5l-3.54-1.15-1.77-.57-1.75-.63-7.06-2.55c-4.76-1.72-9.65-3.52-14.8-5.57-5.55-4.42-15.55-10.42-26.63-16.5-2.76-1.55-5.61-3-8.4-4.68s-5.52-3.38-8.22-5.08c-5.39-3.41-10.54-6.82-14.92-10.21,2.51,2.4-2.12,2.65-5.68,1.06-3.87-3.41-13.35-4.9-10.42-8l1.41,1.08c-.92-5.58-9.43-10.6-14.5-15.78-1.57,1.22-3.18,2.43-4.79,3.62a155.3,155.3,0,0,0-7.61-14.27c-2.53-4.51-4.7-8.78-5.77-13a24.18,24.18,0,0,1-.81-6.3c0-.52,0-1,0-1.53l.2-1.51a16.4,16.4,0,0,1,.68-2.86c1.2-3.66,3.64-6.49,6.86-7.31A12,12,0,0,1,38,202.6c.19-.54.38-1.09.6-1.63l.75-1.63a57.68,57.68,0,0,0,3-6.69l3,2.73c2.23-2.09,4.27-3.87,6.29-5.52,1-.83,2-1.64,3-2.43l1.48-1.2L57.71,185c2.09-1.66,4.16-3.46,6.62-5.39,1.22-1,2.45-2.07,3.84-3.16s2.87-2.29,4.46-3.6l-.76,4.44c3.76-2.56,4.32-6.65,4.78-11A29.07,29.07,0,0,1,77.81,160a9.17,9.17,0,0,1,3.59-5q3,2.18,6,4.42A80.52,80.52,0,0,1,98.74,154l6-2.23c2-.75,4-1.41,6-2.17,1-.37,2-.76,2.94-1.15s2-.77,2.94-1.18c1.95-.81,3.81-1.75,5.69-2.7a45.23,45.23,0,0,0,5.41-3.33,40.6,40.6,0,0,0,5.09-4.15c.16,1.09.54,3.24-1.88,4.54,1.88-.69,4.68-1.53,7.83-2.36s6.51-1.86,9.51-3,5.55-2.4,7-3.94,1.72-3.39.15-5.55c1.24,3.09,5.48,1.8,10.44-1s10.73-7,14.77-9.85l.13,5.2c2.8-4.22,4.18-6.74,6.1-8.85s4.38-3.85,9.52-6.24c2.74-.1,3.36,3.23-.38,3,4.61.06,5.93-1.55,7.49-3.23s3.34-3.47,8.89-3.56c-1,1.38-2,2.74-3,4.14,8.86-2,7.72-3.45,11.62-8.37,2.51-1.74,6.81-2.48,10.75-2.29s7.53,1.29,8.71,3.32c.53-3,4.58-7.68,10.12-7.65,1.08,1.49-.59,3-1.43,3.69a32,32,0,0,0,10-1.7,58.83,58.83,0,0,0,7.7-3.34c4.69-2.34,8.9-4.28,14.53-3a3.55,3.55,0,0,0,2.31,2.52c-11.91,2.29-21.45,4.24-20.65,3.66,1,4.47,10.63,3.12,4.41,11,6.81-5.13,18.5-15.15,28.28-14.93a5.29,5.29,0,0,1,1.53,1.28l-.87.69a10.22,10.22,0,0,0,5.78-1.89,35.7,35.7,0,0,0,8-.19c1.77,3.44,11.36-.18,16.2-.89-1.22-4.7,5.23-5.07-1.37-7.94.83.21-.82.73-4,1.52a7.81,7.81,0,0,0-2,.88,5,5,0,0,1,.25-.48c-3.13.74-7.24,1.61-11.91,2.56,3.35-3.16,7-5.93,12.78-4.28a93,93,0,0,1,5.43-8.9c3.89,2.75,9.16,4.42,13.77,5.9s8.55,2.75,9.76,4.6c14.32-5.24,34.53-7.79,42.62-17.76,4.07-1.75,5.22,1.65,7,2.72-2.31,1.24-5.23,1.58-6.37,3,8.12-3.54,24.91-5,26.09-11,11.05.89-5.22,6.23,9.3,2.94l-1.72,2.06a46.75,46.75,0,0,0,20.23-1.6c6.13-1.78,11.84-4.45,17.66-7a97.31,97.31,0,0,1,18.35-6.44,60,60,0,0,1,22.17-.66c-2.3-.26-3.46-.38-4-1.14,18.55-.71,37.15-5,55.76-8.68s37.23-7,55.57-7.49c10.35-.78,11.12-3.27,17.11-6l2.62,2.38q5.09-2.54,10.2-4.91c7.4-2.32,14.18-1.78,21.39-1.85a68,68,0,0,0,24.17-4L684.48,16c6.9-1,21.66-4.38,20.7-2.89A8,8,0,0,1,710,11.65l.33.79q8.32-2.24,16.67-4.23c6.58-.86,6.15-.19,6.47.34s1.39.87,10.88-1.1c3.51-.86,8.48-2.25,12.26-3.29s6.35-1.75,5-1.62c-2.86.51-7.34,1.07-7.62.69L760.51,2c.52-.58,2-1.24,1.34-1.59s-3.49-.5-11.64-.4c-3.72.52-7.42,1.1-11.12,1.78q-1.87-.23-3.74-.5l9.46-.76a39.56,39.56,0,0,0-12.53,1.35,14.94,14.94,0,0,0-4.86-.65c-3.6.87-7.17,1.87-10.74,2.94-1.47-.78,4.7-2.11-2.79-2-2.51.7-1.19,1.14-.31,1.52s1.33.75-2.88,1.54c-5.52-.55-4.11-1.71-10.26-.09-1-.6.28-1.17,2.74-1.66-5.5,1.29-14.82,1.59-17.48,3.47-2.92-.58-7.64,0-11.61.32s-7.2.45-7.16-1.21a66.24,66.24,0,0,1-14.62,4.25c4.39-2.59-.44-2.17-6.14-1.75s-12.28.89-11.4-1.73c-3.18,2.38-9.4,3.47-16.32,4.4s-14.55,1.67-20.51,3.69c.63-.46,1.87-1.39,3-1.25-7,.32-9.23-1-13.84-1.52-.28,4.26-10.92,6.44-16.33,9.89-4.56-1.63-3.47-3.14-1.64-4.64s4.4-3,2.76-4.94c.95,3.5-14.24,5.12-10.9,7.91-6.9-2-5.79-.69-9.71-4.21-.27,6-5.91,1.61-10.75,5.91-9.83-1.92-3.26-5.46-13.32-2.47-2.6-.69-1.68-1.85-.11-2.81A23.22,23.22,0,0,1,530.9,15Zm-243.51,45,0-.1,5-1.19C291.34,59,289.9,59.4,287.4,60.06Zm-20.55,4.06c2.54-.32,5.67-.88,9-1.57,1.06,1.54.63,3.42-1.45,3.74C275.24,65,270.2,64.92,266.84,64.12Zm49.44,25.17c-3.07,1.29-4.3.55-4.92-.35,1.49-.37,3.22-.87,5.48-1.63.06-.2.22-.44.27-.66A6.42,6.42,0,0,1,316.28,89.29Z"/><path class="cls-1" d="M320.92,81.92a6.12,6.12,0,0,1,1.26-.59,14.91,14.91,0,0,0-2.1-.72c-.3.58-.61,1.16-.87,1.71Z"/><path class="cls-1" d="M1382.53,271.82l.09.42a2.44,2.44,0,0,1,.21-1.1A3.46,3.46,0,0,1,1382.53,271.82Z"/><polygon class="cls-1" points="4.04 194.64 4.95 194.99 5.04 192.48 4.04 194.64"/><path class="cls-1" d="M1315.67,179.83a2.71,2.71,0,0,0-.58-1.74C1315,178.34,1315.28,179,1315.67,179.83Z"/><path class="cls-1" d="M1275.19,150.78l-5.23-4.86A60.74,60.74,0,0,0,1275.19,150.78Z"/><path class="cls-1" d="M1243.4,129.35a3.77,3.77,0,0,0-1.39.84l.05.05Z"/><path class="cls-1" d="M1088,433.73a5.7,5.7,0,0,0-1.44.42C1083.25,435.65,1085.55,435,1088,433.73Z"/><path class="cls-1" d="M1265,394.86a32.26,32.26,0,0,1-5.22,3.79C1263,398.56,1265.47,398.18,1265,394.86Z"/><path class="cls-1" d="M886.39,451.4s0,0,0-.09c-.43,0-.82,0-1.25,0Z"/><path class="cls-1" d="M1251.47,399.95a12,12,0,0,0,8.29-1.29C1257.09,398.7,1253.93,398.62,1251.47,399.95Z"/><path class="cls-1" d="M1092.78,60.71l-1.73-.63c0,.09-.13.12-.28.12Z"/><path class="cls-1" d="M1090.78,60.2l-2-.51A7.09,7.09,0,0,0,1090.78,60.2Z"/><path class="cls-1" d="M1084.61,58.62c1.4.33,2.78.71,4.18,1.07A15.08,15.08,0,0,0,1084.61,58.62Z"/><path class="cls-1" d="M1139.93,78.84l.84-.45A1,1,0,0,0,1139.93,78.84Z"/><path class="cls-1" d="M1154.21,84.57c-3.29-1.61-7.81-5-12.76-6.54l-.68.36c1.35-.07,3.78,1.43,6.33,3S1152.32,84.5,1154.21,84.57Z"/><path class="cls-1" d="M1205.92,123.46l-10.67-7c1.43,2,3.24,4.81-1.88,2.14C1205.65,129.5,1191.66,114.81,1205.92,123.46Z"/><path class="cls-1" d="M1238.56,145.65c-6-3.17-.9,1.62-1.61,2.06C1241.14,149.13,1242.19,149.44,1238.56,145.65Z"/><path class="cls-1" d="M1381.64,344.47q-1.65-1.84-3.37-3.61c-.63,1.15-.36,1.48.4,1.84A7,7,0,0,1,1381.64,344.47Z"/><polygon class="cls-1" points="1342.79 384.88 1348.51 386.93 1349.97 381.82 1342.79 384.88"/><path class="cls-1" d="M1303.86,354.85l2.11-1.16c-2.75,1.18-5.5,2.3-8.27,3.41C1299.76,356.34,1301.82,355.64,1303.86,354.85Z"/><path class="cls-1" d="M829.63,406.2l1.65,5.74C834.83,410.81,835.5,404.27,829.63,406.2Z"/><path class="cls-1" d="M622.78,409.17c-2.1-2.32-7.82-3.94-11.55-2C615.85,407.67,620.37,409.6,622.78,409.17Z"/><path class="cls-1" d="M40.83,242.76c1,.61,2,1.21,3.09,1.79-1.66-1.39-3.27-2.81-4.72-4.28C39.71,241.09,40.25,241.93,40.83,242.76Z"/></g></g></svg>