<svg xmlns="http://www.w3.org/2000/svg" viewBox="0 0 1282.35 457.5"><defs><style>.cls-1{font-size:333px;font-family:IndieFlower, Indie Flower;}.cls-2{fill:#6f6fff;}</style></defs><title>gruppenHover</title><g id="Layer_2" data-name="Layer 2"><g id="Element_2" data-name="Element 2"><text class="cls-1" transform="translate(78.29 294.9)">Gruppen</text></g><g id="Two_Stroke" data-name="Two Stroke"><path class="cls-2" d="M33.24,211.92c-1-1.06-.82-.16,1.82,2.85q1.17.88,2.38,1.73Z"/><path class="cls-2" d="M49.72,233.23a39.23,39.23,0,0,0,5.17,4c1.41.83,2.25.84,1.55-.58a35.85,35.85,0,0,1-4.31-3.17,54.05,54.05,0,0,0-4.51-3.39c-2.73-2.94-4.37-5.45-3.69-5.15-1.1-.92-4-4.72-5.75-6.1a65.59,65.59,0,0,0,5.27,7c1,1.21,2.11,2.43,3.26,3.64s2.42,2.36,3.72,3.52C51.28,234.21,50.09,233.35,49.72,233.23Z"/><path class="cls-2" d="M395.43,405.67l-2.42-1A7.32,7.32,0,0,0,395.43,405.67Z"/><path class="cls-2" d="M638.47,426.24c-1.85.11-2.64.72-2.74,1.29C637.45,427.16,638.87,426.8,638.47,426.24Z"/><path class="cls-2" d="M679.84,434c-.89-.22-1.63-.32-2.44-.47C678.33,434.13,679.26,434.47,679.84,434Z"/><path class="cls-2" d="M395.43,405.67l6.22,2.63C402.35,406.67,398.52,406.53,395.43,405.67Z"/><path class="cls-2" d="M91.44,267.31a32.57,32.57,0,0,0-3-1.81l2.68,1.9A1.52,1.52,0,0,1,91.44,267.31Z"/><path class="cls-2" d="M289.2,385.4l-1.91-.58A11.36,11.36,0,0,0,285.2,386C286.53,385.85,287.87,385.63,289.2,385.4Z"/><path class="cls-2" d="M211.19,356.28c1.66.91,3.5-1.71,4.7-2.69a6,6,0,0,1-4.59.32A3.73,3.73,0,0,0,211.19,356.28Z"/><path class="cls-2" d="M101.4,284.12l-2-1.27C100,283.17,100.79,283.76,101.4,284.12Z"/><path class="cls-2" d="M346.66,401.53a3.21,3.21,0,0,0,.44,1.62A2.24,2.24,0,0,0,346.66,401.53Z"/><path class="cls-2" d="M85.75,114.82c0-.14-.12-.19-.15-.3C85.24,114.86,85.16,115,85.75,114.82Z"/><path class="cls-2" d="M.51,155.69l1-.81c.05-.16.11-.33,0-.41Z"/><path class="cls-2" d="M755.43,442.32a2.62,2.62,0,0,0-.33-.11C753.08,442.8,754.22,442.71,755.43,442.32Z"/><path class="cls-2" d="M1242.35,149.15c2.11,3.67-.63,1.55-3-.07-1.18-.84-2.31-1.51-2.69-1.37s0,1.08,1.69,3.68c-.09-.69,2.42.79,4.17,1.5S1245.4,153.37,1242.35,149.15Z"/><path class="cls-2" d="M93,268.76c.88.66,1.77,1.33,2.64,2A29.16,29.16,0,0,0,93,268.76Z"/><path class="cls-2" d="M1238.34,151.38h0l.71,1.05Z"/><path class="cls-2" d="M931.64,437.47a6.09,6.09,0,0,0-1.9-2.11C929.82,435.88,930.26,436.49,931.64,437.47Z"/><path class="cls-2" d="M800.29,432l3.22.76A10.75,10.75,0,0,0,800.29,432Z"/><path class="cls-2" d="M999.57,425.11c1.8.19,2.47.82,4.82-.14a3,3,0,0,0-.79-.49C1002.8,425.25,1001.66,425.68,999.57,425.11Z"/><path class="cls-2" d="M1070.26,414.6a12.75,12.75,0,0,0-1.46-.67l-2.18.66Z"/><path class="cls-2" d="M289.87,64.93A12.15,12.15,0,0,1,286.13,62C287.62,64.52,277.63,66.82,289.87,64.93Z"/><path class="cls-2" d="M90.88,268a3.25,3.25,0,0,1,2.08.74l-1.88-1.36C90.76,267.46,90.58,267.6,90.88,268Z"/><path class="cls-2" d="M998.63,387l10.92-.36A76.62,76.62,0,0,0,998.63,387Z"/><path class="cls-2" d="M790.39,36.14l-2.56.38A4.7,4.7,0,0,0,790.39,36.14Z"/><path class="cls-2" d="M1041.56,382.26a16.63,16.63,0,0,0,6.58,2.41,4.1,4.1,0,0,0,1.06-1.36Z"/><path class="cls-2" d="M286.1,62a0,0,0,0,1,0,0A0,0,0,0,0,286.1,62Z"/><path class="cls-2" d="M215.92,81.71c10.32-1.73,3.92-5,5.57-7.78,6-1.8,7.63-1.32,8.3-.15s.41,2.89,2.75,3.65a50.82,50.82,0,0,0,9.81-4.74c2.94-1.68,5.66-3.19,8.58-3.55.57.67,1.75.77.61,1.91,3.76-2.43,9.83-3.49,16.06-4.62s12.64-2.31,17-5.44a3.18,3.18,0,0,1,1.45,1,9.6,9.6,0,0,1-2.56-6.42c4.69-.77,8.25-4.39,10.53-1.45-2.9.33-2.94,1.66-4.13,2.85l4.71-2.1c5.16,4-6.48,2.57-5.93,5.94,4.68-1.4,9.67-3.47,14.44-5.18s9.34-2.93,13.12-2.76c2.21,4.48-17,3.79-6.57,6.65-3.89-.14-7.77-.16-11.65-.21,9.8,6-7,.43,2.19,7A64.66,64.66,0,0,0,316,63.9c2-.54,4.09-1.08,6.57-1.52a54.7,54.7,0,0,1,9.18-.83c3-3-1.65-3.78,1.37-6.82,10.34-3.64,14.93-1.15,18.77,1.39s6.94,4.94,14.37.86c3.66-3.72,4.53-10.2,16.09-7.94l-3.19,6.06c14.61-.76,7.44-9.08,23.12-6.52-2.49,2.52-11.27,2.9-9,3.4,10.35,3.74,6.67-3.86,14.28-4.55l2.07,5c7.72-1.05,15.78-2.77,24.05-4.61s16.78-3.61,25.38-4.65c-.84,1.65-3.67,3.5.48,4.9,21.53-4.12,46.48-2,67.6.32l7.8-5.1c1.87,0,3.56,2,1.58,3,8.26,1.43.29-3,4.14-5.08,4.65-.52,6.28,2.49,3.39,4,14.26-4.65,40.9-10.32,56.31-5.83l-2.93,1.51c11.92,1.41,13.15-10.07,24.3-6.11l-2.1.89c12.93.55,26.49-.44,39.31-.82,6.4-.14,12.62-.15,18.47.25a73.26,73.26,0,0,1,16.24,2.65c1.85-3.11,8.23-2.58,14.35-2.37s12,.07,12.82-4c7.35,1.94,10,3.22,13.32,4.32s7.47,2,17.78,3c5.51.24,8.33-4.79,15.2-5.54l.06,3.8q4.69-2.05,9.4-4l4.79,4.38,6.44-.92c-2.54-.22-5.36-1.65-4.94-2.7,5-.77,11.12,0,16,1s8.43,2.48,8.51,3.34c7.93-.94,15.86-1.61,23.82-2.32-.61,1.25-4.6,1.6-7.78,2.37,12.83-3,2.08,3.35,13.84.6-1.5-.73,1-1.81,1.27-2.42,5.65,2,18.74,2.57,28.52,2.26l-2,1.84,13.45.75c4.59.23,9.28.4,14,.57,9.54.23,19.28,1,29.09,2-6.93-1.42-5-4.06.84-3.67l2,2.64c3.92-1.07-5.89-1.55,2-2.52,7.3,1.1,4.55,3.17.24,3.54,3,0,6,0,9,.19.42.75-1.71.84-2.38,1.65,1.92-.48,5.66.59,9.62,1.52s8.13,1.75,10.95.94l.39.7,6.85.86c2.14.27,4.14.59,6,.87L977.63,52c3.32.45,6.53.89,9.89,1.38,1.68.26,3.41.48,5.2.81l5.61,1.08c.66-1.57,6.72.07,11.69-.22,11.48,2.78,23.82,7.35,37.62,10.68,4.95.83,5.7.84,5.84.49s-.39-.85,1.89-.65c.33,1.54,14,5.47,6.62,4.33l19.22,5.4c5.73,1.78,12,3.62,22.42,6.62-2-1.3-4.43-2.4-3-2.4,3.79,1.06,8.23,3.46,7.47,3.91l-1-.2c11.75,3.11,24.4,9.21,36,15.63s22.23,13.13,31.16,16.55l-1-.41c2.93,1.47,5.9,2.89,8.81,4.4l4.35,2.32c1.45.77,2.91,1.54,4.32,2.37,7.23,5.42-5.1-2.09-.22,2.59a92.69,92.69,0,0,1,12.16,7.63,106.18,106.18,0,0,1,9.32,8c5.72,5.34,10.48,10.89,16.91,16.56,2.25,6.83,9.13,15.9,15.25,26.25a113.39,113.39,0,0,1,8,15.9c2.08,5.3,3.38,10.46,3.4,14.88l1.28-1.44a5.74,5.74,0,0,1,1.27,4.56,16.92,16.92,0,0,0-.53,4.11c1.21-.75.39-5,1.89-2.59a90.17,90.17,0,0,1,3.42,28,81.45,81.45,0,0,1-5.9,27.29,86,86,0,0,1-6.3,12.31l-1.85,2.9c-.64,1-1.33,1.87-2,2.8l-1,1.39-1.07,1.34c-.72.89-1.39,1.8-2.14,2.66a121,121,0,0,1-9.44,9.84c-3.39,3-6.83,6-10.45,8.73-5.25,4-4.91,7.36-5.29,10.74a8.23,8.23,0,0,1-2.14,4.88c-1.53,1.54-4.12,3.11-8.7,4.31.57-2.16,1.16-4.25,1.64-6.37a84.39,84.39,0,0,1-17.15,12.73,157.78,157.78,0,0,1-19.86,9.38c-13.72,5.49-27.85,9.73-41.1,16,1.33-1.59.95-3.05,3.66-3.78-3.48-.95-8.82.47-13.44,2.35s-8.33,4.44-8,5.95c-4.56.71-1.72-2.46-4.85-3.34-3.3-.4-6.79,1.68-10,3.44s-6.2,3.12-8.24,1.56c-.68-.5,1.45-1.55,2.5-2.06-3.58,2.59-18.63,3.14-13.93,6.78a36.06,36.06,0,0,0-4.13.27c-1.36.12-2.68.31-4,.54-2.6.47-5.11,1.11-7.55,1.73-4.88,1.22-9.5,2.41-14.09,1.72-2.46,2.9-7.29,2.92-11.57,3.12s-8,.6-8.45,4.37c-.21-7.44-20.14-4.11-26.78.26,1.05-1.28-.53-1.73-2.08-2.3s-3.06-1.33-1.84-3c-8,.67-15.19,2.65-13.45,6.57a19.64,19.64,0,0,0-11.25-2.17,49.58,49.58,0,0,0-10.34,2.26c-6.54,1.89-12.33,3.55-16.84-2.51-11.86,2.48-23.33,4.79-34.59,6.42-5.63.84-11.18,1.69-16.7,2.33s-11,1.21-16.42,1.72c.69-8.36,24-.85,22.91-9.61-10.21,1.78-18.3,4.34-26.38,6.36a73.63,73.63,0,0,1-26.45,2.08c-5.3-1.21,3-3.66,4.81-5.08a101.85,101.85,0,0,1-15.23,1.21c-5,.08-9.92-.06-14.77-.17-9.71-.24-19.14-.4-28.39,1.78.07-.8,2.07-1.64,4-2.26-3.63.21-8.42-1.47-8.09,2.48l3.56-1c5.71,5.83-14.67,11.6-15.39,14.63,6.4-11.18-18.19-3.23-8.09-17.34-2.41.69-5.46,2.49-5,5.15-3.54-.85-4.64-2.42-1-5.35-13.1,1.85-8.55,6.17-20.37,5.81.08-1.92,2.48-2.61,3.75-4.84-6.06,3.59-12.17,7.25-22.14,5.42.62-1.15-.51-2.68,2.48-2.59-8.6.12-16,2.47-23.54,4.35s-15.32,3.19-24.72,1.27c5.67-8.26-6.37-2.82-7.27-10L662.37,396l4,3.52c-8.86-.21-16.78,4.93-24.36,2.49l6.63-2.87L632,400.37l9.35,2.8c-9,3.56.83,9-10.94,6.88,2.41-.7-8.87-.21-13.41-4.46,0,0,0,0,0,0-4.42,2.18-9,4.45-15.5,2.6-1.65-2.27,1.53-7.74.46-9.24-4.45,5.8-20.73,1.26-26.37,7.31,1.86-1.4,2.06-5,1.48-5.79l-3.76,4.61c-4.05-1.62-4.62-2.35-3.87-5.22-12.28-1.17,3.63,8.83-10.86,4.68,1.16-.34.64-1.06,3.05-1.7-7.31-1.14-14.41-.67-21.37-.24-3.48.22-6.93.42-10.34.4a52.2,52.2,0,0,1-10.12-1.06c-3.6-6.88,11.83-1.11,7.58-7-9.69.19-19.83,1.84-29.87,2.82-5,.51-10,1-14.94,1.06a86.57,86.57,0,0,1-14.37-.92l3.43,1c-1.68,4.43-5.09,3-9.28,1s-9.15-4.85-14.08-3.19c2.38-.43,3.53-4.64,2.81-3.7-6.31-1.28-12.88-1.27-20.33-1.08-3.73.12-7.68.35-11.93.56l-3.25.16-3.36.08c-2.28,0-4.64.08-7.1.08l2.69-1.84c-3.61-1.46-8.49-2.38-13.47-3.19s-10-1.74-14-2.82c-2.74,1.71-7.3.64-5,4.08a41.07,41.07,0,0,0-4.31-2.59c-1.44-.76-2.88-1.47-4.34-2.05a47.56,47.56,0,0,0-8.78-2.6,74.43,74.43,0,0,0-8.89-1.16c-3-.25-5.91-.44-8.86-.58-11.74-.63-23.3-1.43-32.94-8.53,2.59.63,6.57-.06,4.52-.58-3.13-.48-6.28-.94-9.41-1.46L293,367.79c.59,3.37,1.88,2.44,5.08,5.84-2.83,1.15-8.44,1.07-13-.34,8.83.52,1.33-4.76-1.71-7.37.32,1.06-1.2,1.69-1.17,2.68-7.92-8-3.43,5.31-15.34-2.26l1.17-1.24c-5.08-.87-10.22-.41-15.26-2.72-1-3.87,5.63.39,6.88-2.13-3.68-1.13-7.78-.93-11.68-1.13s-7.52-.93-10.23-3.62c3.4.31,7.81,2,11.21,2.22-5.83-6.13-7-5.5-12-8l.49.27-11.5-6.15q1.34,1.07,2.71,2.09a16.58,16.58,0,0,1-8.2.64,31.25,31.25,0,0,1-7.4-2.36c-2.45-1.06-5-2.24-7.73-3.19a37.06,37.06,0,0,0-9.24-2.09c6.72.64,7.47.2,6.83-.62s-2.68-2.11-1.56-3.36c-2.64-2.15-6.79-5.05-5.1-5.27-3.31-.14-5.4-1.67-7.84-3.17a20.24,20.24,0,0,0-9.86-3.4c0-.5-1.41-1.24-2.58-2s-2-1.69-.88-2.4c-7.39-3,.9,2.26-.25,3a34.39,34.39,0,0,1-9.2-3.9c-3.07-1.79-6.14-4-9.4-6.21s-6.6-4.59-10.27-6.67a70.63,70.63,0,0,0-11.75-5.68c-3.41-1.74-6.19-3-8.66-4.1s-4.53-2-6.61-2.87a82.93,82.93,0,0,1-14.11-7.48c-1.58-1.9-.46-1.73,1.09-1.14s3.52,1.59,3.52,1.59c-2.85-2.64-5.4-4.85-8.06-6.86-1.33-1-2.67-2-4.08-2.91s-2.8-2-4.32-3c1.47.54.57-.75-.76-2.62-4.67-3.49-4.34-.94-9.69-6.52a28.89,28.89,0,0,1,5.87,2.14c-2.8-2-5.69-3.87-8.53-5.87s-5.64-4.1-8.42-6.35c-.86-1.82,4,2,6.31,3.22l-5.2-4.15-5.39-4.51c-3.52-2.83-6.41-5.32-7.67-5.83l3.34,3.93c-2.08-2.06-.4-1.71,1.29-.36,5.66,4,6.94,7,6.89,7.67l-3.87-3.31a15.18,15.18,0,0,0,3.27,4.61,68.29,68.29,0,0,0,6,5.18c2.24,1.81,4.75,3.54,7.16,5.27s4.69,3.46,6.66,5.08c-1.62-.28-3.23-.59-4.8-1,3,1.85,6.22,3.53,9.36,5.22,1.32,1.91,1.58,4-2.54,1,4.82,5.77,5.64,3.4,9.65,8.54.4.62.07.53-.5.2,2,1.33,4.11,2.56,6.19,3.79-1.48-.39-.25,2.33-3.52-.72a56.06,56.06,0,0,0,6.74,5.74,64.35,64.35,0,0,0,6.07,3.77c1.85,1,3.48,1.95,4.82,2.89a9.19,9.19,0,0,1,3.07,3.07l-1-.46c7.68,4.74,8.4,4.43,8.75,3.67s.34-2,6.79.38l4.31,10.19,2.86-1.28c1.53,1.06,4.54,3.17,3.42,3.73,6.87,2-.42-1.59,3.91-1.05a33.38,33.38,0,0,0,6.12,4.66c2.33,1.47,4.9,2.74,7.21,4,4.63,2.55,8.48,4.71,8.26,7.32,3.88-.51-6.73-5.54,2.42-2.49,0,2.89,2.53,4.07,5.87,5.08s7.39,2.06,10.54,4.91c-3.49,1.5-9.74-3.46-3.52,2.54,3.25-1,6.71.91,10.2,3.47s7.06,5.57,10.4,6.59c1-1.78,4.56-.66,9.32,1.32,2.37,1,5.08,2.14,7.87,3.27A64.81,64.81,0,0,0,237,361.4c-.3.27.76,1,2.68,2.14s4.67,2.53,7.81,4c6.23,3.05,13.89,6.46,18.74,9.07l-.55.64c1.73-1.88,5.16-1.75,9.15-.94s8.6,2.18,12.6,2.91c-1.13,2.71-2.85,3.38-7.43,3.27l7.3,2.33c2.17-1,4.68-1.1,9.58-.24l-2.85,3c4.9,1.43,10.15,1.72,15.62,2.47a55.27,55.27,0,0,1,17.3,4.58c.77-1.7-1.17-4.81-1.54-7.35s.8-4.56,7.72-4.25c0,2.06-.21,5.52-3.9,5.48,1.21,0,4.45-.63,6.57.71-2,.72-4.05,1.36-6.09,2,5.44,2.84,3.64-2,8.18-.67-.71,2.79,3,2.78,1.84,4.87-1.24,0-3.79-2.08-5.81-1.39,5.11,1.67,11.08,4.87,12.75,7.44-.12-1.73.79-3.85,4.71-3.44,10,1.84,2.71,4.19,8.24,6.92,2.8-1.53,8.77,2,9.74-2.51,2.92.55,3.09,2.73,4,4.15,2.76-.51,8.83.45,13.58.8,1.19.09,2.29.14,3.24.11a8,8,0,0,0,2.31-.37c1.13-.42,1.35-1.24.08-2.68L391.3,404c.26-.06.56,0,.88-.07h0a50.37,50.37,0,0,1,13.15.38c4.36.64,8.69,1.76,13,2.79s8.67,2.23,13,3.14c2.16.44,4.32.86,6.47,1.09a52.34,52.34,0,0,0,6.45.33l-.2,1.64c5.15-.38,10.8,0,16.11,0s10.28-.28,14-1.79c3,.26,6.81,3.73,5.37,5.64,7.85-.58,8.84-2.54,19.83,1.17-8,2.43,2.51,2.89-8.13,1.6,10,2.24,12.11,5.33,23.21,1.2-3.95,4.25,7.29,6.17,12.16,5.14l-6.9-3.7c5.42-.32,10.11.4,14.88,1l-2.87,5.86c10.17,4.21,19.66,1.7,28.43-.5s16.89-3.78,24.57,2.77c5.57-4.15-11.12-3.42-6.1-8.31,9.43,1.1,19.12,10.39,22.09,10.5,12.92,3.87,12.3-8.82,25.82-6.13-1.7-2.29-3.23-8.32,6.93-10.28,9.44,1,11.49,9.72,5.48,11.41-2.27.14-3.36-.6-3.25-1.36-3.07.76-7.1,1.64-3.39,4.17l1.26-2.23c4.66,2.42,17.69,2.44,14.58,6.1,7.18-2,3.11-3.67-2.17-4.94,12.08,3.51,19,.44,31.39,2.89-2-1.3-3.75-4-1.78-4,18.25,3.14,8.12-4.22,20.52-5,7,3.62-2.65,8.31,9.86,5.59,7.57,2.51,1.51,6.13-1.54,7.94,11.41-4.23,21.14,3.3,27.59,4.23L726,444a29.27,29.27,0,0,1,9.49-.88l-3.32-4.66c3.49.87,6.46.94,6.36,2.85,3.68-2.94-2.62-7.7,4.65-11.67,4.64,2.42,14.33-2.23,15.82,3.88-14.7-2.33,1.5,6.14-11,6.9a17.4,17.4,0,0,1,8.87.26c.51.69-.52,1.25-1.49,1.58,14,5.67,6.62-6.76,21.27-6.38-1.93,3.39,3.27,6.53,5.68,5.83-5.91-.15-2.71-5.74,2.75-8.27,9.34,2.8,10.25-1.83,15.17-1.46l-5.6-1.31c2-3.38,6.66-2.87,13.22-3.86.52,2.65-6,1.75-3.66,2.94,3.69-2.94,7.77-1.35,12.22.48s9.27,3.84,14.37,1.87c4.69,2.29.4,6.32,4.53,7.87,11.44-4.33,12.36,4.54,24.41.83-3.47-4.42-4.06-3.34,4.38-7.76l-19.74,3.3,12.68-6.6c-5.94,0-12.56,2.91-16.12,2.12,6-3.66,5.41-2.53,2.59-6.28,4,3.39,8.08,2.36,12.27,1.1s8.52-2.8,13.23-.56l-.24,11c7.11,2.35,13.43.73,20.24-1.07,3.41-.92,6.94-1.85,10.78-2.51a44.81,44.81,0,0,1,12.61-.43l-6-1.65c2.36-4.36,11.35-1,17.26-2.92-.43,3.6,3.35,4.69,6,6.76-.42-2.61,13.56-.53,14.88-7.65,2.82,1.39,5.64,2.81,8.48,4.11,7.52.37,11.63-2.44,15.61-5.29A37.46,37.46,0,0,1,975,422.6a20.61,20.61,0,0,1,8.7-1.92c-4,4.13,2.72,5.91-6.67,9.53,4.79-.44,9.15-.25,9-2.62,1.49.93,4.71-.55,8.12-1.9s7-2.54,9.39-1.22c1.86-1.73,2.14-5.33,7.5-5.69.66.61.16,1.65.16,1.65-.16-1.66,8.08-3.25,3-6.38,3.94,2.17,8.47,2.89,13.25,2.87a97.34,97.34,0,0,0,14.74-2c2.47-.47,4.93-.94,7.33-1.34,1.2-.2,2.39-.38,3.56-.53s2.31-.33,3.44-.44c4.5-.46,8.66-.25,12.21,1.29,10.16-2.81,22.25-6.71,31.48-9-.39,1.05.32,1.54-1.51,1.61,3.36,0,5.42-.65,6.84-1.66a12.13,12.13,0,0,0,3-3.76c1.66-2.71,3.51-5.4,11.08-5.68,8.61,2.93-7,4.62-1.92,5.26,2.25,4.7,6.57,3.18,11.68.91s11-5.54,16.76-4.39l-2.19,1.34c4.23.39,8.53-2,13.2-5.1s9.73-6.68,15.76-8.82c0,0-.26,1,.47,1.37,3.14-4,8.26-8,13.82-12s11.51-8,16.43-11.56c-1.51,5-3.92,4.38-.11,6.42,2.28-1.63,1.2-2.69.7-4.14a3.16,3.16,0,0,1,.14-2.59,12.39,12.39,0,0,1,3.78-3.91c4-.11,11.45-3.18,14.45-.8-2.82,2.13-5.71,4.13-8.61,6.12a7.67,7.67,0,0,0,4.87-.78,13.27,13.27,0,0,0,2.13-1.33,25.1,25.1,0,0,0,2-1.75c2.54-2.44,4.68-5.42,7.15-6.79l.69,2.1a43.88,43.88,0,0,0,6.81-7.26,54.49,54.49,0,0,0,3.82-6.07,73.48,73.48,0,0,1,10.36-14.26l-2.27.39c1.26-5.13,2.87-6.22,4.77-7.25a8.94,8.94,0,0,0,2.74-2.05,10.69,10.69,0,0,0,2.26-4.94q2.74.15,5.52.19c.63-1.5,1.32-3.68,2.19-6.14.41-1.24.79-2.61,1.22-4l.65-2.14.58-2.25c.37-1.52.85-3,1.17-4.6l1.08-4.65,1.81-8.81a23.49,23.49,0,0,1,.36,2.88c.06,1,0,2.16,0,3.34s-.13,2.42-.28,3.69-.38,2.55-.6,3.87c-.12.66-.22,1.32-.35,2l-.45,2-.91,3.89-1.94,7c.83-1.39,1.75-3.39,2.8-5.57.54-1.08,1-2.29,1.45-3.48s.95-2.41,1.34-3.63.73-2.44,1-3.59a25,25,0,0,0,.7-3.27,13,13,0,0,0,.13-4.62c-.41,2.53-.33,6.05-2,8.15-.07-1.08,0-2.17-.08-3.29s0-2.27,0-3.43c.13-2.3.23-4.75.5-7.25.45-5,1.13-10.51,1.82-16.54,1.94.78,3.31-.8,4.14-3.86s1.15-7.52,1.08-12.32-.55-9.94-.85-14.45-.46-8.44.37-11c-4-10.6-7.45-20.94-12.06-31.39a132.57,132.57,0,0,0-18.43-30.89c.51,2.46.39,3.35,0,3.33s-1.1-.93-2-2c-1.73-2.17-4.18-4.94-5.48-2.89-3.95-4.26-5.42-5.89-5.55-6.48-1.62-2.49-3.41-4.82-5.16-7.22s-3.64-4.67-5.53-7c-2.27-3.74,4.78,3,5.07,2-9.4-8.85-2.72-5-8.63-11.35.2,1.13-1,.82-3-.4a60.88,60.88,0,0,1-7.43-5.67l3.53,3.87,1.75,1.93,1.68,2c-7.69-4.74-10.25-7.65-13-10.54a31.62,31.62,0,0,0-4.76-4.48,43.71,43.71,0,0,0-3.69-2.48c-.73-.44-1.51-.9-2.38-1.36s-1.82-.9-2.85-1.37c1.84.64,3.69,1.27,5.51,2-4.09-2.23-11.43-6.59-19-10.41-3.81-1.84-7.62-3.67-11.13-5-1.74-.67-3.39-1.25-4.89-1.71a27.18,27.18,0,0,0-4-.89c-1.27-1.06-2.79-2.84,1-1.37-9.78-4.86-21.24-8.91-32.1-12.53l-8-2.66c-2.62-.84-5.16-1.7-7.6-2.56-4.9-1.65-9.41-3.25-13.25-5l1.82-.24c-3.9-1.06-7.12-.81-11.63-3.21.35-.23,1.79-.24,0-.89-1.05-.21-3.69-.74-6.68-1.48a58.29,58.29,0,0,1-8.87-2.47l4.63.45a169.61,169.61,0,0,0-25.34-6.84c-7.59-1.24-14.8-2.12-23.37-4.11.16-.6-.7-1.36-2.22-2.21a38.75,38.75,0,0,0-6.12-2.67c-4.89-1.74-10.86-3.49-14.84-4.66l.36-.29c-3-.75-5.84-1.45-8.63-2.09l-4.12-.92c-1.36-.27-2.71-.49-4-.73-5.33-.9-10.43-1.67-15.48-2.36l-7.56-1L964.67,33l-3.85-.38c-5.16-.51-10.45-1.06-16.07-1.77a58.08,58.08,0,0,0-5.88-2.11c-2.23-.69-4.71-1.38-7.4-1.95-5.37-1.2-11.5-2.32-17.9-3.47l-9.75-1.72c-3.29-.5-6.58-1-9.82-1.57-6.48-1.09-12.74-2.27-18.29-3.68,3.36,1.23-.84,2.86-4.87,2.84-5.2-1.44-14.81,1.18-13.66-2.49l1.87.29c-1.83-2.07-5.49-3.23-9.74-4-2.13-.39-4.4-.69-6.68-.94s-4.55-.41-6.67-.67l-1.75,5.19a66.54,66.54,0,0,0-18.44-4.8c-3.34-.47-6.75-.69-10.16-.83s-6.83-.19-10.16-.22-6.59,0-9.69-.11-6-.19-8.75-.4c-5.42-.44-9.93-1.47-12.91-3.81-5.41,1.32-12.07.83-17.41,2.32L747,5.1c-7.43-.85-13-1.48-19-1.92-3-.21-6.14-.38-9.66-.46s-7.43-.06-12,0L710.06,0c-10.4-.69-13.1,11.18-22.63,11.34l-2.92-6.21c-9-.08-18.15-1.53-27.24-2.32s-18.12-.69-27,2.35A3.74,3.74,0,0,1,634,2c-2.13,0-5.26-.34-8.7-.62S618.08.93,614.69,1c-6.78.09-12.07,1.39-10.39,6-.38-6-18.66-.26-28.3,2.79l1.36-4.55c-8,6-8.23,7.57-19.65,9.6-2.74-.48-2.53-3.52,1.13-2.51-9.16-2-6.89,4.55-18,2.62l4-3.06c-9.34,0-8.54,1.6-13.51,5.2-5.77,2.08-17.72-.25-19.32-4.2-1.13,2.55-6,6.14-11.6,5.29-.83-1.49,1.12-2.55,2.1-3.07-7.88-1.1-13.61.65-18.72,2.11s-9.62,2.71-15.12,1a3.18,3.18,0,0,0-2-2.5c6.2-.43,11.79-.73,15.73-.87s6.2-.16,5.75,0c-.25-4.11-10.33-4.12-2.7-10.35-7.88,3.65-21.17,11.36-31.05,10.23a5,5,0,0,1-1.39-1.3l1-.53a11.7,11.7,0,0,0-6.12,1.19,38.67,38.67,0,0,0-8.18-.49c-.71-1.61-3.62-1.79-7-1.54s-7.16,1-9.67,1.18c.79,4.3-5.8,4.24.63,7.22-.82-.24.9-.61,4.19-1.12a8.88,8.88,0,0,0,2.09-.66,4.6,4.6,0,0,1-.31.42c3.26-.45,7.52-.89,12.37-1.39-3.76,2.59-7.72,4.74-13.43,2.86a97.2,97.2,0,0,1-6.34,7.66c-3.66-2.7-8.86-4.56-13.41-6.13s-8.46-2.86-9.56-4.58c-15,4-35.69,5.91-44.29,14.84-4.18,1.53-5.22-1.55-7-2.53,2.39-1.09,5.37-1.36,6.58-2.64-8.39,3-25.42,4.4-26.77,9.83-5.57-.41-4.21-1.78-3.31-2.73s1.36-1.43-6,.16l1.79-1.88a52.39,52.39,0,0,0-20.51,1.76,160.69,160.69,0,0,0-17.93,6.79,111.32,111.32,0,0,1-18.51,6.53A70.31,70.31,0,0,1,241,49.45c2.33.06,3.5.1,4.1.76-4.68.44-9.35,1.17-14,2-2.33.43-4.67.86-7,1.37s-4.65,1.08-7,1.66l-7,1.79c-2.32.61-4.65,1.23-7,1.93L189.29,63.1l-13.78,4.28-6.88,2q-3.42,1.08-6.84,2.09t-6.85,2c-2.28.63-4.58,1.19-6.84,1.85q-6.81,1.89-13.64,3.4a34,34,0,0,0-6,2.07,22.78,22.78,0,0,0-3.73,2.11c-2,1.43-3.5,3-6.23,4.8l-3-1.52c-3.07,2.26-6.07,4.64-9.1,6.88a51.22,51.22,0,0,1-10.18,4.32c-3.37,1.15-6.79,2.07-10.29,3.12a67.79,67.79,0,0,0-22.29,11.07l2.8-.1c-3.23,1.44-8,4.46-11.93,6.71s-7.06,3.94-6.84,3.14c-.27.27-.64.77-1.27,1.35a8.51,8.51,0,0,1-2.8,1.76L43,123.9l-7,5.19-3.51,2.55-1.76,1.27L29,134.25c-5.64,3.63-5.5,2.89-6,2.6s-1.61-.12-9.46,5.8c-2.77,2.42-6.61,6-9.51,8.65S-.81,155.79.32,155c2.31-1.8,6-4.44,6.44-4.27l-5.21,4.12c-.22.7-1.23,2-.5,1.92s3.29-1.31,10.38-5.32c3-2.19,6-4.52,9.1-6.63q1.76-.64,3.55-1.23L20,146l-2.05,1.19c-.68.41-1.33.85-2,1.27l3.32-1.7c1-.54,1.91-1.08,2.74-1.62,1.67-1.09,3.09-2.21,4.61-3.37a16.1,16.1,0,0,0,4.58-1.59c2.85-2.35,5.84-4.5,8.73-6.83,1.6.08-3.57,3.62,3.23.61,2.05-1.58.71-1.43-.22-1.4s-1.47-.1,2.13-2.43c5.23-1.72,4.25-.23,9.49-3.77,1.1.16.09,1.09-2,2.38,4.73-3,13.23-6.64,15.21-9.1,2.92-.43,7.21-2.4,10.86-4s6.65-2.65,7-1.17a71.88,71.88,0,0,1,12.92-7.78c-1.8,1.76-1.58,2.19-.24,2s3.77-1.17,6.49-2c5.39-1.77,11.59-3.78,11.25-1.26a18.26,18.26,0,0,1,6-4c2.6-1.21,5.69-2.34,9-3.5,6.49-2.41,13.86-4.31,19.36-7.24a5.21,5.21,0,0,1-2.74,1.67,36.1,36.1,0,0,1,7.65-1c2,0,3.74.14,6,0-.13-1.93,2.35-3.78,5.48-5.66,1.57-.94,3.29-1.88,4.94-2.84A43.67,43.67,0,0,0,176.13,80c4.66.86,3.72,2.35,2.07,3.94s-4,3.29-2.21,4.78c-1.3-3,13.47-6.44,9.94-8.52,7,.89,5.75-.14,9.9,2.6-.2-5.43,5.69-2.08,10.16-6.48,4.91.31,5.8,1.51,6.68,2.1s1.74.65,6.62-1.13c2.6.4,1.76,1.52.27,2.52A24.76,24.76,0,0,1,215.92,81.71ZM459,41.71v.09c-2.12.24-3.93.43-5.08.58Zm20.77-1.39c-2.54,0-5.7.14-9,.39-.83-1.49-.15-3.12,1.94-3.18C471.63,38.63,476.59,39.18,479.78,40.32ZM433.34,13c3.27-.92,4.46-.16,5,.7-1.56.22-3.38.53-5.77,1-.08.17-.27.38-.35.57A5.51,5.51,0,0,1,433.34,13Z"/><path class="cls-2" d="M427.85,19.31a7.36,7.36,0,0,1-1.34.45,16.93,16.93,0,0,0,2.06.79c.36-.5.74-1,1.06-1.48Z"/><path class="cls-2" d="M392.58,404.51l.42.17a2.5,2.5,0,0,1-.83-.76C392.44,404.17,392.42,404.31,392.58,404.51Z"/><polygon class="cls-2" points="767.2 37.94 767.2 37.07 765.36 37.86 767.2 37.94"/><path class="cls-2" d="M283.41,365.93a2.65,2.65,0,0,0-1.16-1.31C282.24,364.86,282.76,365.36,283.41,365.93Z"/><path class="cls-2" d="M236.94,349.74l-6.07-3.55A64.81,64.81,0,0,0,236.94,349.74Z"/><path class="cls-2" d="M202.54,334.13a3.28,3.28,0,0,0-1.22.85l.06,0Z"/><path class="cls-2" d="M798.26,396a6.21,6.21,0,0,0,1.47-.21C803.2,394.79,800.85,395.16,798.26,396Z"/><path class="cls-2" d="M617.07,405.58a36.93,36.93,0,0,1,5.85-2.43C619.71,402.7,617.22,402.55,617.07,405.58Z"/><path class="cls-2" d="M997.42,387s0,0,0,.09c.42,0,.79-.06,1.22-.09Z"/><path class="cls-2" d="M631.32,403.34a13.35,13.35,0,0,0-8.4-.19C625.55,403.54,628.65,404.12,631.32,403.34Z"/><path class="cls-2" d="M65.87,245.26c-.44-.42-.89-.83-1.31-1.27,0,.07-.15,0-.29,0C64.78,244.41,65.33,244.83,65.87,245.26Z"/><path class="cls-2" d="M64.26,244l-1.56-1.32A7.75,7.75,0,0,0,64.26,244Z"/><path class="cls-2" d="M59.44,239.86l3.27,2.79A18.22,18.22,0,0,0,59.44,239.86Z"/><path class="cls-2" d="M104,277.72l.87-.17A.93.93,0,0,0,104,277.72Z"/><path class="cls-2" d="M116.54,286.41c-1.43-1.11-3.07-2.73-4.91-4.36-.92-.82-1.89-1.64-2.9-2.42a31.66,31.66,0,0,0-3.12-2.22l-.7.13C107.4,278.2,113,285.34,116.54,286.41Z"/><path class="cls-2" d="M165.31,329.21l-5.46-3.56L154.46,322c1.46,2,3.36,4.73-1.82,1.83,6.29,5.57,5.84,4.67,5.61,3.5S158,324.82,165.31,329.21Z"/><path class="cls-2" d="M200.34,349.45c-6.51-2.63-.63,1.56-1.24,2C203.57,352.43,204.65,352.62,200.34,349.45Z"/><path class="cls-2" d="M482.38,419.15l-1,4.35C486.77,423.34,481.52,421.81,482.38,419.15Z"/><polygon class="cls-2" points="538.91 398.98 533.88 395.94 531.22 400.07 538.91 398.98"/><polygon class="cls-2" points="570.33 433.6 567.96 434.17 576.98 432.83 570.33 433.6"/><path class="cls-2" d="M1058.41,421l-2.46-4.83a3.76,3.76,0,0,0-2.23,4C1054,421.51,1055.53,422.35,1058.41,421Z"/><path class="cls-2" d="M1252.2,330.47c3.06-.49,8.1-4.8,8.79-9.21C1257.87,325.33,1253.49,328.21,1252.2,330.47Z"/><polygon class="cls-2" points="823.93 11.49 828.23 10.84 820.2 10.92 823.93 11.49"/></g></g></svg>