<svg xmlns="http://www.w3.org/2000/svg" viewBox="0 0 1155.96 464.91"><defs><style>.cls-1{font-size:333px;font-family:IndieFlower, Indie Flower;}.cls-2{fill:#e4d040;}</style></defs><title>kontaktHover</title><g id="Layer_2" data-name="Layer 2"><g id="Element_2" data-name="Element 2"><text class="cls-1" transform="translate(87.8 302.31)">Kontakt</text></g><g id="Layer_3" data-name="Layer 3"><path class="cls-2" d="M475.13,382.2c1.25-.3.49-.63-3-.13q-1.2.51-2.4,1.08Z"/><path class="cls-2" d="M451.51,383.08c-4.07.83-8.74,2.47-6,3.41a26.37,26.37,0,0,1,4.54-1.5,38,38,0,0,0,4.76-1.52c3.49-.42,6.12-.3,5.57.14,1.21-.39,5.44-.47,7.27-1.22a65.37,65.37,0,0,0-7.65.24c-1.38.12-2.8.3-4.25.51s-2.93.45-4.43.77C450,383.73,451.23,383.31,451.51,383.08Z"/><path class="cls-2" d="M117.06,332.16l1.72,1.48A5.12,5.12,0,0,0,117.06,332.16Z"/><path class="cls-2" d="M39.59,183.76c-.68,1.24-.34,2.13.15,2.51C40,184.95,40.29,183.85,39.59,183.76Z"/><path class="cls-2" d="M66.64,165.39c-.67.29-1.17.61-1.75.91C65.87,166.3,66.66,166.09,66.64,165.39Z"/><path class="cls-2" d="M117.06,332.16c-1.46-1.29-2.92-2.54-4.32-3.89-.56.8-.06,1.42.86,2S115.9,331.44,117.06,332.16Z"/><path class="cls-2" d="M404.39,390.48a17.45,17.45,0,0,0,3.08-.76c-1,.15-1.92.3-2.9.42A1.73,1.73,0,0,1,404.39,390.48Z"/><path class="cls-2" d="M206.07,355.07l1.66.4a11.65,11.65,0,0,0,1.79-1.61Z"/><path class="cls-2" d="M275.81,368.33c-1.57-.41-2.58,3-3.39,4.4a4.91,4.91,0,0,1,3.79-1.85A5,5,0,0,0,275.81,368.33Z"/><path class="cls-2" d="M388.18,383.14l2-.25C389.67,383,388.79,383,388.18,383.14Z"/><path class="cls-2" d="M157.47,340.84a4.16,4.16,0,0,0-.15-1.78A2.87,2.87,0,0,0,157.47,340.84Z"/><path class="cls-2" d="M643.82,349.48c.06-.14,0-.25,0-.37C643.4,349.28,643.26,349.42,643.82,349.48Z"/><path class="cls-2" d="M560.8,337.21H562c.13-.11.26-.22.26-.33Z"/><path class="cls-2" d="M121.23,136a1.77,1.77,0,0,0-.3,0C119.88,137.42,120.62,136.85,121.23,136Z"/><path class="cls-2" d="M700.68,36.89c-3.37-1.13-.54-1.73,1.87-2.33s4.38-1.21-.73-2.59c.45.47-2,1.27-3.42,2.19S696.44,36.11,700.68,36.89Z"/><path class="cls-2" d="M402.51,390.37c-1,.09-2,.17-3,.21A20.86,20.86,0,0,0,402.51,390.37Z"/><path class="cls-2" d="M701.83,32v0l-1.06-.26Z"/><path class="cls-2" d="M253.4,76.65a6.62,6.62,0,0,0-2.07-2C251.52,75.23,252,75.81,253.4,76.65Z"/><path class="cls-2" d="M147.92,107.5c.92-.18,1.85-.34,2.79-.48A6.51,6.51,0,0,0,147.92,107.5Z"/><path class="cls-2" d="M307.86,56c1.55.1,2.18.76,4.08-.32a2.86,2.86,0,0,0-.73-.53C310.6,56,309.69,56.46,307.86,56Z"/><path class="cls-2" d="M367.72,46.5a11.18,11.18,0,0,0-1.23-.89l-1.88.52Q366.16,46.3,367.72,46.5Z"/><path class="cls-2" d="M831.66,357.6a12.58,12.58,0,0,1-3-3.72C829.73,356.82,820.6,357.85,831.66,357.6Z"/><path class="cls-2" d="M404.33,389.48a2.59,2.59,0,0,1-1.82.89c.71-.07,1.39-.15,2.06-.23C404.74,389.86,404.78,389.61,404.33,389.48Z"/><path class="cls-2" d="M302.94,13.88l10.1-.7A59.21,59.21,0,0,0,302.94,13.88Z"/><path class="cls-2" d="M1106.48,118c.75.35,1.49.73,2.24,1.1A3.81,3.81,0,0,0,1106.48,118Z"/><path class="cls-2" d="M342.5,8.62a15.08,15.08,0,0,0,6.07,2.92,4.44,4.44,0,0,0,1-1.44C347.21,9.57,344.86,9.1,342.5,8.62Z"/><path class="cls-2" d="M828.66,353.83a.06.06,0,0,1,0,0A.06.06,0,0,0,828.66,353.83Z"/><path class="cls-2" d="M763.91,361.45c9.38.6,4.38-4.45,6.36-7.1,11.17-1.08,5.2,3.71,9,6.35,7-1,12.29-5.49,17.5-5.21.4.85,1.42,1.18.25,2.21,3.66-1.93,9.15-2,14.78-2.06s11.43-.43,15.66-3.15a3.26,3.26,0,0,1,1.17,1.34,12.82,12.82,0,0,1-1.54-7.45c4.2-.16,7.67-3.62,9.37-.06-2.58,0-2.74,1.4-3.91,2.54l4.35-1.64c4.15,5.12-6,1.9-5.84,5.68,8.57-1.67,18.4-6.37,25.06-5.1,1.65,5.21-15.37,2.18-6.33,6.56l-10.32-1.78c8.13,8-6.25-.5,1.26,8,13.63,1.43,15-2.74,28.7-1.65,2.86-3.09-1.29-4.33,1.56-7.44,4.7-1.55,8-1.6,10.65-.85a16.37,16.37,0,0,1,6.2,3.79c1.72,1.48,3.29,2.93,5.29,3.49s4.41.25,7.79-1.91c3.33-4,3.88-11.1,14.39-8.56l-2.63,6.7c6.69-.37,8.27-3,10-5s3.49-3.69,10.73-2.62c-1,1.44-3.52,2.36-5.51,3s-3.46.86-2.41,1.11c4.88,1.94,6.36.74,7.43-1s1.77-4.05,5.19-4.62l2.46,5.44A143.62,143.62,0,0,0,962,343.24l5.45-2.24,5.48-2.32,5.52-2.23c1.84-.76,3.69-1.48,5.56-2.15-.32,1.94-2.45,4.48,1.69,5.2a206.87,206.87,0,0,1,29.92-10.42c10.37-3,20.89-5.62,30.62-8.33q2.22-4,4.32-8.09c1.56-.75,4,.58,2.78,2.39,7.72-1.88-1.23-3.15,1-6.72,3.61-2.37,6.51-.06,4.85,2.64,2.44-2.59,5.39-5.68,8.69-8.79s6.89-6.42,10.56-9.58a105.23,105.23,0,0,1,11.32-8.45,51.42,51.42,0,0,1,5.64-3.24q1.41-.68,2.8-1.22c.92-.37,1.83-.7,2.74-1l-1.24,2.95a10.91,10.91,0,0,0,4.89-4.75,21.46,21.46,0,0,0,1.78-5.59,14.35,14.35,0,0,1,1.88-5.1,7.23,7.23,0,0,1,2-2,11.08,11.08,0,0,1,3.28-1.47l-.89,2c9.75-7,18.83-16.81,26.23-27.81a135.26,135.26,0,0,0,9.78-17.17c2.81-5.88,5.13-11.85,7.32-17.5a5.65,5.65,0,0,1-1.69-2.7,19.57,19.57,0,0,1-.67-4c-.15-1.48-.15-3.11-.27-4.8,0-.84-.07-1.71-.13-2.57l-.24-2.59a39.37,39.37,0,0,0-.83-5,20.82,20.82,0,0,0-1.5-4.11c-1.27-2.31-2.92-3.66-5.22-3.3l-.2-2.74-.22-2.33c-.11-1.46-.24-2.68-.35-3.78-.18-2.23-.37-3.89-.67-5.76a31.62,31.62,0,0,0-2-6.54,62.45,62.45,0,0,0-5.74-10.64,7.76,7.76,0,0,0-3-2.45,18.36,18.36,0,0,0-3.71-1.23c-2.61-.67-5.39-1.26-8-3.24l2.91-3.05c-3.27-1.08-6.51-2-9.71-2.86-.06-2.24-.21-4.43-.39-6.66-1.86-1-3.71-2-5.57-3,1.83,1.63,3,4.55,1.9,5.19-4.29-2.26-8.42-6.17-11.57-9.64s-5.23-6.55-4.79-7.41c-1.77-.78-3.49-1.41-5.22-2.09l-5.16-2-5.12-2-2.54-1c-.85-.33-1.73-.61-2.58-.92.57-.49,1.73-.45,3.11-.19s3,.79,4.47,1.1c-6-1.3-6-2.25-5.89-3.27s.35-2-5.22-2.94c.89,1.31-1.7,1.43-2.24,1.92a21.74,21.74,0,0,0-3.94-3.3c-.83-.57-1.73-1.15-2.69-1.72s-2-1.06-3.08-1.58a119.78,119.78,0,0,0-13.32-5.46c.84-.44,1.66-.83,2.49-1.25-3.63-1.68-7.47-3.15-11.39-4.65L1030,75.65l-6.14-2-6.22-2c-2.08-.67-4.15-1.39-6.28-2-4.23-1.24-8.47-2.53-12.68-3.92,5.78,2.75,3.28,5.24-1.68,3.82-.35-1.06-.7-2.15-1.07-3.17-1.88.3-.66.92.11,1.47s1.1,1-2.5,1c-6.17-2.23-3.28-4.09.66-3.85l-8-1.42c-.21-.86,1.72-.71,2.51-1.51-1.84.3-5-1.31-8.33-2.77s-7-2.64-9.69-2l-.23-.81c-17.13-4.4-25.13-5.32-39.14-8.27-.69,1.71-6.07.21-10.55.79-2.53-.67-5.12-1.4-7.78-2.16s-5.4-1.46-8.21-2.19-5.69-1.44-8.64-2.1-6-1.21-9.11-1.71c-8.88-.66-2.8,1-6.89,1.31-.37-1.69-12.82-3.48-6.19-3.57-7.49-1-12.26-1.78-17.56-2.33s-11.1-1.15-20.63-1.8c2,.91,4.23,1.5,3,1.86-3.46-.21-7.71-1.71-7.12-2.39l.93,0a121.18,121.18,0,0,1-16.9-1.9c-2.91-.51-5.84-1.09-8.77-1.72l-8.77-1.85c-11.59-2.54-22.7-4.86-31.34-4.08l1-.07H750c-4-.58-2.79-.79-1.27-1.09s3.3-.62.35-1.52a120.68,120.68,0,0,1-24.16-1.32c-3.53-.47-7-1-10.49-1.32a66.87,66.87,0,0,0-11.11-.29c-2.93-1.82-7.09-3-11.93-3.83a151.47,151.47,0,0,0-16-1.49c-11.32-.67-23.18-.8-31.3-3.9l.88,1.87c-4.3,1.43-5.09-1.44-8.2-2.14.4,1.47,4.55,2,1.88,2.8A478.81,478.81,0,0,1,583.43,7.6c-4.67-.6-9.34-1.27-14-1.93l-14-2c-4.68-.69-9.35-1.31-14-1.93S532.05.54,527.43.08C513.87-1.19,520,13.16,502.8,6.62l4.75-4.86A140.8,140.8,0,0,1,486.91,4C480,4.22,473,4.2,466,4.12,452.07,4,438.14,4,424.89,7.38,426.41,6,426.34,4.32,429,4.25c-5.95-4-21.07.66-20.87,4.11-4.22-.14-1.21-3-3.93-4.62-3-1.07-6.44.47-9.59,1.81s-6,2.51-7.69.49c-.58-.65,1.48-1.5,2.49-1.91C385.85,6.47,372,4.91,376,9.6c-5.17-.72-10,.25-14.47,1.17s-8.77,1.84-13,.77c-2.27,3.09-6.66,3-10.58,3s-7.37.4-7.6,4.57c-.25-4.23-4.92-5.32-10.27-4.76s-11.32,3-14.15,5.41c1.69-2.89-6-1.82-4.14-5.75-7.3,1.31-13.69,4-11.56,8.21a15.15,15.15,0,0,0-10.61-1.42,35.44,35.44,0,0,0-9,3.7c-5.61,3-10.48,5.37-15.83-.43-20.48,9.41-39.14,18.05-57.21,26.22-1.16-4.51,4-6.47,9-8.22s9.77-3.59,8-8.05c-8.58,4.46-14.82,9.38-21.13,13.83C191.84,49,190.25,50,188.61,51s-3.3,2-5.07,2.89a50.83,50.83,0,0,1-5.61,2.45c-2,.72-4.11,1.35-6.38,2-5,.57,1.06-4.84,2.06-6.86a94.8,94.8,0,0,1-12.49,6.49l-6.28,2.71-6.22,2.58-3.07,1.29c-1,.45-2,.92-3,1.39-2,.95-3.94,1.93-5.84,3a52.37,52.37,0,0,0-5.52,3.45,50.82,50.82,0,0,0-5,4.19c-.36-.82.84-2.5,2.06-3.92-2.85,1.76-7.62,2.18-5.28,5.91l2.37-2.5c3.8,1.66,2.31,6.09.12,10.47s-5,8.93-4.5,10.52c-.56-6.84-4.51-5.61-8.36-4.91-1.93.33-3.79.59-5.19-.39S105,88.5,105,83.9c-1.52,1.83-2.87,5-1,7.31-3.22.88-5-.08-3.8-4.64C91,94.64,97.16,96.49,88,102.07c-1.11-1.83.3-3.67-.07-6.4a42.41,42.41,0,0,1-4.43,9.24,18.84,18.84,0,0,1-8.86,7.19c-.27-1.37-2.1-2.16.18-3.65a39,39,0,0,0-4.34,3.71c-1.29,1.35-2.48,2.76-3.61,4.19-2.25,2.88-4.25,5.82-6.32,8.74-4.15,5.9-8.57,11.43-16.37,15.72-1.15-5.18-2.75-4.77-4.88-3.67s-4.66,2.95-7.79.39c-1.84,2.91-3.63,5.82-5.32,8.85,1.86-.1,3.69-.21,5.53-.22A23.32,23.32,0,0,0,28,151.25c-1,1.87-1.83,3.77-2.65,5.62a38.42,38.42,0,0,1-2.64,5.25,14.48,14.48,0,0,1-3.8,4.2c.32-2.42.77-4.77,1.21-7.22a133.7,133.7,0,0,0-8,14.73l3.71-3.27c1.23-1.07,2.54-2,3.79-3-.76,4.77,1.54,5.88,2.92,6.91.7.51,1.18,1,1,1.82a4.33,4.33,0,0,1-.75,1.59c-.44.66-1.13,1.45-2,2.52.17-1.16-.82.6-2.61,2.89A26.52,26.52,0,0,1,15.08,187a12.33,12.33,0,0,1-4,2.9s0,0,0,0l.29,1.82c.11.61.22,1.23.32,1.84a29.74,29.74,0,0,1,.32,3.66,14.68,14.68,0,0,1-.42,3.75,15.79,15.79,0,0,1-1.58,4c-1.37.55-3.43-.16-5.36-1S.91,202.21,0,202.62c2.77,2.89,2.33,8.09,2.57,13.47s1.07,10.82,4.71,13.12c-1.78-1.58-5.76-1.48-6.57-.81,1.84,1.1,3.7,2.13,5.54,3.11-1.19,4.08-1.84,4.85-5.12,4.64.57,6.23,2.84,4.76,4.68,3.73.93-.52,1.78-.93,2.29-.33s.71,2.2.52,5.83c-.69-1-1.32-.26-2.59-2.35a36.15,36.15,0,0,0,2.36,10.25,68.59,68.59,0,0,0,4.46,9.15c3.31,5.82,6.86,11.08,9.14,17.13-1.08,1.76-2.09,2.13-3.06,1.76a8,8,0,0,1-2.71-2.63c-1.68-2.27-3.16-4.64-4.85-1.16,5.35,8.28,13,15.16,20.64,21.27s15.41,11.5,21.74,17.5l-2-2.67c2.1-1.54,3.55-1.58,4.71-.73A6.49,6.49,0,0,1,58,314.77a30,30,0,0,1,1.52,2.64,31,31,0,0,0,3.66,5.94,9.13,9.13,0,0,0,5.92,3.32c-2.18-.58-5.43,3-4.32,2.39,4.62,4,10.34,6.64,17,8.9s14.2,4,22.91,6.07l-3,1.35a28.72,28.72,0,0,0,5,3.32c1.91,1,4,1.95,6.12,2.87s4.3,1.72,6.34,2.58,4,1.67,5.66,2.5c2.88-1.5,6.74.21,5.41-3.81a30.65,30.65,0,0,0,14.49,9.25,68.9,68.9,0,0,0,15.91,2.41c10.63.69,20.82.86,29.42,7.86-2.33-.47-6,.57-4.12,1,2.84.32,5.69.53,8.54.77l8.53.72c-.59-3.63-1.75-2.47-4.64-5.83,2.54-1.58,7.5-2.12,11.57-1.23-7.85.6-1.08,5.45,1.81,7.78-.34-1.11,1-2,.93-3.1,7.52,7.42,2.76-6.32,13.78-.16l-.94,1.57a67.85,67.85,0,0,0,6.84-.65,18.53,18.53,0,0,1,6.9.37c1.36,3.93-5,.89-5.85,3.85,3.4.43,7-.75,10.45-1.43s6.7-.94,9.47,1.24c-3,.56-7.14,0-10.15.5,3,2.64,4.72,3.64,6.32,4.18s3.05.64,5.49,1.28l-.48-.15c3.74,1.1,7.49,2.21,11.26,3.23-.93-.44-1.86-.94-2.79-1.42,4.87-3.86,9.22-3.76,13.9-3.22,2.34.26,4.76.63,7.35.67a25.11,25.11,0,0,0,8.35-1.36c-5.81,1.94-6.38,2.68-5.61,3.28s2.84,1.15,2.21,2.88c2.83,1.22,7.19,2.63,5.81,3.5,2.87-1.2,5.09-.47,7.61.08a14.21,14.21,0,0,0,9.37-.87c.26,1.07,5.82.41,4.38,2.94,7.17-.49-1.54-1.85-.83-3.14a26.41,26.41,0,0,1,8.92-.42c3.15.27,6.47.85,10,1.38,7,1.14,14.59,1.65,22.51-.29a74,74,0,0,0,8.44-1.37c2.34-.51,4.32-1,6.27-1.53a84.53,84.53,0,0,1,13.88-2.49c2.1.57,1.24,1.21-.15,1.74a27.87,27.87,0,0,1-3.31.94,61,61,0,0,0,18.34-.33c-1.29.61.05,1,2,1.64,5.15-.46,3.4-2.4,10.2-1.82a22.23,22.23,0,0,1-5.08,2.66c3-.48,6-1.08,9.07-1.63s6.08-1.19,9.2-1.62c1.7.74-3.73,1.62-5.92,2.44,3.52-.52,8.08-1.12,12-1.76,2-.32,3.78-.64,5.24-1a11.86,11.86,0,0,0,3.07-1c-1.51,0-3,0-4.54-.07,2.56-.21,1.38.94-.5,1.32-6,1.5-8.73.23-9.09-.28l4.45-.6c-4.71-2.59-17.89,1.4-26.91,1.72q1.85-1.41,3.69-2.74c-3.05.76-6.11,1.63-9.18,2.47-2-.69-3.32-2.3,1.1-2.69-6.44-1.44-5.69,1-11.22-.64-.61-.26-.33-.41.23-.52l-6.28.85c1.23-.64-1-2.23,2.82-1.71a45.76,45.76,0,0,0-13.82-.23c-3.67.41-6.47.84-8.55-.58l.95-.18c-7.81.21-8.22.82-8.14,1.76s.64,2.07-5.31,3.51q-3.82-3.55-7.56-7.36L340.6,382c-1.6-.22-4.77-.68-4.11-1.82-6.1,1.59.95,1.36-2.65,3-7.56-3.25-21.5-.22-22.79-5.61-3,2.26,7.23,2.61-1.18,3.61-1.83-5.9-9.64.1-16.42-3.41,2.5-2.87,9-.36,2.23-4-2.39,2.34-5.79,1.66-9.31.37s-7.15-3.36-10.16-3.27c-.42,2.19-3.69,2.2-8.12,1.67s-10-1.83-15-1.84c.85-1.39-18.12-5.89-26.81-9.72l.43-.79c-2.71,4.7-11.95,1.89-19,1.4.94-3.14,2.42-4.05,6.38-4.65-2.13-.44-4.24-1-6.35-1.49-1.86,1.34-4,1.77-8.31,1.42l2.49-3.66c-4.24-.92-8.76-.74-13.48-1.13s-9.72-1.09-14.74-4c-.81,1.89.62,5.25.78,8s-1,5.06-7.19,4.91c.13-2.25.68-6,3.91-6.12-1.06,0-4,.85-5.74-.6l5.54-2.38c-4.51-2.94-3.38,2.34-7.24.9.91-3.06-2.31-3-1.07-5.33,1.08,0,3.06,2.26,4.89,1.48-4.27-1.81-9.07-5.21-10.09-8.14-.14,1.89-1.21,4.2-4.53,3.64-8.3-2.39-1.68-4.68-5.91-7.87-2.67,1.56-7-2.57-8.76,2.15-2.38-.84-2-3.25-2.49-4.87a16.76,16.76,0,0,1-5-.69c-2-.49-4.16-1.19-6.11-1.66a12,12,0,0,0-4.7-.51c-1.06.26-1.49,1.09-.85,2.86l.92.78c-.24,0-.47-.08-.75-.07h0c-7.72-.38-14.46-4.23-20.67-8.62l-9-6.81c-1.48-1.11-3-2.09-4.55-3.06a32.66,32.66,0,0,0-4.75-2.54l1-1.53a22.93,22.93,0,0,1-3-1.25c-1-.48-2-1-3-1.52-2-1-3.92-2.26-5.83-3.38-1-.56-1.9-1.1-2.85-1.59s-1.83-1-2.74-1.45a18.7,18.7,0,0,0-5.48-1.71,5.49,5.49,0,0,1-1.41-4c0-1.55.64-3,1.79-3.43-1.36-.82-2.51-1.4-3.51-1.95A15.78,15.78,0,0,1,52.46,290c-1.64-1.33-3.18-3.35-4.75-7.89,3.26,1.37,3.47.45,3.52.1s-.13-.17,2.41,3.2c-2-3.58-2.55-6.19-3.75-8.36a10.36,10.36,0,0,0-2.56-3,25.22,25.22,0,0,0-5-2.93c2.87-.16,3.36-2.28,2.88-4.58a12.2,12.2,0,0,0-3.43-6.11l-.35,3.22L41.18,267c-2.75-3.24-4-6.76-5.1-10.27,2.3-.33,4.55-.69,6.81-1.1a16.8,16.8,0,0,0-2.42-10.24,99.57,99.57,0,0,0-6-8.09c-2-2.67-3.64-5.49-3.95-8.4s.88-5.87,4.43-8.38c-2.29-1.85-3.3-.07-4.22,2S28.9,226.71,26,225c.34-3.61,3.15-7.15,6.08-9.58,1.41-1.24,2.92-2.22,4-3s1.89-1.36,2-1.81c1.38-1.75,1.59-3.12,1.25-4.47a15.46,15.46,0,0,0-2.24-4A11.46,11.46,0,0,1,35,197.61c-.33-1.66.17-3.45,1.83-5.33a9.63,9.63,0,0,1-5.56-1.92,6,6,0,0,1-2.07-3.08,8.1,8.1,0,0,1-.31-2.31,11.44,11.44,0,0,1,.09-1.38,13.66,13.66,0,0,1,.34-1.51A7.64,7.64,0,0,1,38,179.4c2.7,1,4.65,3.29,4.25,5.65-.8,1.47-1.84,1.74-2.54,1.23a8.59,8.59,0,0,0-.19,3.47c.33.94,1.1,1.41,3,1l-1.7-2c2-.78,4.18-3.08,6.29-4.61A7.5,7.5,0,0,1,50,182.63a1.82,1.82,0,0,1,2,1.28c.67-2.68.23-3.79-.83-3.92s-2.8.71-4.45,1.88c.52-.31,1-.61,1.45-.93s.93-.61,1.35-.92a26.23,26.23,0,0,0,2.27-1.9,49.73,49.73,0,0,0,3.77-4l1.82-2c.65-.67,1.33-1.35,2.06-2a21.34,21.34,0,0,1,2.43-2,24.93,24.93,0,0,1,3-1.84c-2.1,0-5.18-1.18-4-2.24,3.24-1.87,5-3.27,5.89-4.45a3.79,3.79,0,0,0,.77-3.19c-.29-2-1.44-4.05,2.3-7.73,3.53-.3,4.52,1.87,5.43,3s1.68,1.16,4.85-3.25c6.76-1.6,5.09,4.67,4.37,7.77,2.29-4.69,6.37-6.62,10.37-7.62s8.12-.89,10.54-2L102.51,151a17.79,17.79,0,0,1,5.73-5.27L103.12,143c2.88-.88,4.93-2.21,6-.37.74-4.4-6.58-5.9-3.92-13,2.36,0,4.53-2.14,6.72-3.72s4.45-2.42,6.73.14c-5.93,2.11-4.71,3.46-3.13,5s3.56,3.27-.47,6.47a10,10,0,0,1,6.26-3.7c.76.43.36,1.41-.12,2.14,6.5-.31,6.65-2.62,6.54-5.62a13.41,13.41,0,0,1,.35-4.84c.55-1.66,1.83-3.26,4.51-4.7.47,4.08,5.88,5,7.2,3.33-4.26,2.27-5.06-4.45-2.41-9.21,8.33-1,6.63-5.84,10.49-7.43l-4.83.91c-.24-4.09,3.5-5.54,8.07-8.94,1.68,2.45-3.71,4-1.36,4.3,1.36-4.31,5.29-4.26,9.52-4.07s8.87.68,11.91-3.11c4.6.74,3.07,6.3,6.89,6.52,3.45-4,6.32-3.86,9.24-3.58s5.92.68,9.86-3c-4.39-3.62-4.5-2.29.48-9.37-4.77,3.08-9.55,6.07-14.16,9.32l3.58-5.4,3.71-5.28C186,87.48,182.07,92.65,179,93c3.19-5.72,3.2-4.37-.59-7.3,4.6,2.17,7.34-.15,10.22-2.68s5.78-5.49,10.41-4.48l3.85,11.61a15.7,15.7,0,0,0,8.46-1.59A28.41,28.41,0,0,0,215,86.39c1.2-.78,2.4-1.65,3.61-2.54a67.23,67.23,0,0,1,7.87-5.22,28.27,28.27,0,0,1,10.15-3.08L231.26,75c.67-5.16,9-3.47,13.4-6.61.58,4,4,4.49,6.67,6.28-1-2.82,11-2.71,10.53-10.64,2.67,1.1,5.3,2.15,7.95,3.29,6.35-.44,9.22-4,12.1-7.55s5.74-7.12,11.87-7.75c-2.8,4.83,3.12,6.31-4.23,11,4-.84,7.64-.93,7.21-3.51,2.75,1.88,10.11-7.26,14.45-4.38,1.4-1.93,1.29-5.91,5.87-6.4a2.14,2.14,0,0,1,.29,1.82c-.29-1.83,6.69-3.73,2.06-7.11a20.49,20.49,0,0,0,11.66,3.09,45.66,45.66,0,0,0,6.26-.56c2.12-.3,4.25-.7,6.37-1.11,8.46-1.7,16.79-3.28,22.78.76,4.36-1.13,9.19-2.3,13.94-3.33s9.43-1.82,13.46-2.37c-.42,1.1.13,1.74-1.43,1.54,11.42,2.11,6-10.67,19.08-8.17,6.94,5-6.54,3.57-2.32,5.33,1.33,5.58,5.11,4.85,9.72,3.46s10.05-3.34,14.53-.48l-2,.82c6.73,3.14,15.71-5.43,26.49-5.3a1.73,1.73,0,0,0,0,1.61c7.08-5.92,21-8.35,31.32-10.13-3.12,4.06-4.65,2.28-2.57,6.22,4.63-.77-1.55-6.42,7.72-7.85,3.07,2,9.81,3.68,10.78,7.76l-8.73.6c4.59,5.21,11.29-.7,15.92,0l-.55,2.33c13.37-1.36,13.5-7,27.94-7l-1.5-1.61c3.93-2.78,5.59-2,7.25-1.14s3.31,1.9,7.24-.09l2.39,5.23c2.6-.7,7.15-2.07,12.23-3.35a110.47,110.47,0,0,1,15.36-2.89c-2.67,1.8-6.73,3.22-11,4.5s-8.66,2.48-12,3.72c2.58-.06,7-.3,11-.83s7.84-1.29,9.19-2.52c-2.08.5-4.71,1.77-6.75,1,6.35-4,14.71-5.95,25-5.77-1,4.51,5.7,5,13.55,5.23s16.87.31,20.49,3.42c9.13-1.53,18.13-1.19,27.49-.52s19.07,1.57,29.66,1.55c-7.22-5.32,6.18,0,5.19-5.17,5-.11,6.83.06,7.25.41l14.75,3.61c3.44,1.54-4.76.85-4.38,2,10.76.78,4.38,2.21,11.42,3.68-1.34-1.72,3.93-2.27,10-1.32l-8.49-2.53c7.63-.87,10.81.34,14,1.43s6.4,2.14,14.08,1.52l-4.91,1c3.92-.15,11.1.27,18.28.46s14.37.2,18.35-1c1.33.58,3,1.81-.42,1.8,4.63.52,9.54.85,14.54,1.08s10.07.4,15,.65c9.88.43,19.2,1.24,26.26,3.06l-1.52.71c3.48.16,6.23-.85,10.41.66-.28.34-1.51.69.07,1,1.86,0,9.38-.3,13.83,1l-4,.36a105.38,105.38,0,0,0,12.06,2.08c1.84.21,3.61.35,5.33.48s3.39.26,5.05.35l9.91.49c3.36.19,6.8.6,10.57,1.19-.28,1.34,3,3,7.24,4.49s9.3,3.22,12.69,4.28l-.33.34,3.75.94,3.61.94c2.37.6,4.68,1.14,6.94,1.64L949,71.05c8.59,1.61,17,3.32,26.4,5.75,5.1,3.85,14.54,7.67,24.6,12.28,5.09,2.16,10.24,4.71,15.19,7.24a100,100,0,0,1,13.52,8.11c-2.25-2.06,1.82-2.82,5.07-1.68,1.84,1.37,4.84,2.28,7.17,3.12s3.89,1.76,2.61,3.46l-1.35-.86c.54,2.67,2.88,4.92,5.85,7s6.42,4.16,9.37,6.14l4-4.5a33.71,33.71,0,0,0,2.4,3.13c.84,1,1.72,2.07,2.67,3.05a55,55,0,0,0,6.21,5.5c1.11.86,2.27,1.68,3.43,2.48s2.25,1.59,3.38,2.39l6.76,4.63c8.8,6.07,16.48,12.33,15.87,19.14a15.44,15.44,0,0,1,2.81,1.76c.91.67,1.75,1.44,2.6,2.2a35.62,35.62,0,0,0,5.16,4.2l-3.45,2.19a91.28,91.28,0,0,1,4.79,12l.87,2.72c.24.92.58,1.87.81,2.85a54.38,54.38,0,0,1,1.43,6.54c-1.12-.55-2.13-1-3.27-1.49a4,4,0,0,0,2,3.08c1.24.87,2.75,1.67,4.4,2.6.8.46,1.57,1,2.32,1.49a11.46,11.46,0,0,1,2,1.74,6.94,6.94,0,0,1,1.31,2,4.83,4.83,0,0,1,.21,2.31c-2.39.19-4.81.25-7.19.21l-.27.92-.39.91a14.51,14.51,0,0,1-.88,1.79l-1.05,1.74-1.25,1.69a86.33,86.33,0,0,1-5.93,6.46,74.65,74.65,0,0,0-6.3,6.89,36.25,36.25,0,0,0-5.24,9c-.56-.93-1.72-2.76-.31-4.45-2.38,2.1-8,5.26-12.25,8.65-2.14,1.69-3.84,3.47-4.5,5.23s-.3,3.49,1.79,5.13a2.91,2.91,0,0,0-3.84-.72,17.25,17.25,0,0,0-4.67,3.94c-1.65,1.79-3.29,4-4.9,6.2s-3.12,4.33-4.38,6.09l-1.75-4.86c-1,4.53-1.43,7.15-2.41,9.54s-2.61,4.43-6.3,7.71c-2.3.64-3.77-2.41-.53-2.88-3.91.87-4.6,2.58-5.47,4.45a8,8,0,0,1-1.88,2.77,9.81,9.81,0,0,1-4.77,2.16l1.47-4.46c-3.51,1.7-4.93,2.84-5.73,4.25s-1,3-2.06,5.69c-3.51,4.14-14.06,5.53-16.94,1.87.2,2.9-2.24,8.11-7.07,8.73-1.24-1.33-.09-2.95.49-3.75a22.82,22.82,0,0,0-8.25,2.81,44.83,44.83,0,0,0-6,4.07,25.59,25.59,0,0,1-5.49,3.43,11.1,11.1,0,0,1-6.54.78,3.68,3.68,0,0,0-2.36-2.31l3.59-1.15,3.31-1.13,5.55-1.85c3.1-1.08,4.92-1.62,4.62-1.31-.83-2.13-3.24-2.62-4.95-3.63s-2.68-2.52-.81-6.66a114.89,114.89,0,0,1-9.36,10.42c-3.77,3.39-8,6.24-12.22,6.37a5.13,5.13,0,0,1-1.46-1.18l.65-.73a7.78,7.78,0,0,0-4.68,2.17,24.27,24.27,0,0,0-6.79.5c-.91-1.64-3.32-1.53-6-.91s-5.65,1.8-7.69,2.15c1.38,4.65-4.15,5.1,1.72,7.87-.73-.2.66-.72,3.33-1.57a5.93,5.93,0,0,0,1.62-.93,4.92,4.92,0,0,1-.18.49c2.63-.84,6.12-1.71,10-2.92-2.53,3.33-5.49,6.12-10.62,4.64a75.79,75.79,0,0,1-4.11,8.94,29.74,29.74,0,0,0-6-3.32c-2.13-1-4.31-1.75-6.33-2.49-4-1.46-7.47-2.82-8.56-4.68-12.12,5-29.52,6.56-36.9,15.93-3.62,1.48-4.49-2-6-3.17,2.06-1.08,4.6-1.23,5.63-2.58-7.14,3.08-21.8,3-23.22,8.92-9.57-1.92,5-5.68-7.9-3.81l1.64-1.88c-12.89-3.58-23,.76-33.67,4.39s-21.78,6.61-36.07,1.84c2,.57,3,.83,3.38,1.67-16.25-1.75-32.95-.19-49.63.75-8.34.49-16.67.82-24.92.73a184.13,184.13,0,0,1-24.41-1.85c-9.1-.86-10.13,1.46-15.72,3.14l-1.92-2.77q-4.79,1.68-9.58,3.19c-6.77,1.08-12.59-.56-18.85-1.7a53.31,53.31,0,0,0-21.58-.1l2.17,1.33c-6.14-.2-19.47.66-18.41-.64a6.29,6.29,0,0,1-4.43.59l-.16-.83q-7.57.8-15.13,1.33c-5.84-.28-5.37-.86-5.56-1.44s-1.07-1.09-9.61-.77c-3.18.25-7.71.76-11.15,1.15s-5.78.64-4.59.74c2.56,0,6.54.2,6.72.62l-5.81.08c-.54.48-1.93.88-1.41,1.34s2.95,1.09,10,2.38c3.31.12,6.61.19,9.93.15q1.58.54,3.17,1.14l-8.33-.87a30.81,30.81,0,0,0,11.09.81,12,12,0,0,0,4.12,1.47c3.26-.24,6.52-.62,9.78-1.07,1.15,1-4.41,1.28,2.1,2.49,2.29-.27,1.21-.92.51-1.45s-1-1,2.74-1c4.71,1.48,3.3,2.38,8.89,1.83.76.76-.43,1.1-2.64,1.17,5-.34,13.12.94,15.72-.47,2.45,1.06,6.63,1.3,10.14,1.63s6.32.75,6,2.38a52.25,52.25,0,0,1,13.35-1.77c-4.21,1.84.05,2.21,5.08,2.74s10.82,1.14,9.67,3.57c3.12-1.84,8.7-1.91,14.87-1.71s12.93.67,18.42-.39c-.62.36-1.83,1.08-2.79.77,6.15.78,7.92,2.41,11.87,3.66.84-4.15,10.43-4.67,15.62-7.28,3.76,2.31,2.61,3.63.8,4.83s-4.25,2.33-3.08,4.47c-.18-1.82,3.11-2.52,6.12-3.2s5.75-1.36,4.47-3c5.77,3,5,1.54,7.94,5.6.51-2.94,1.86-3.14,3.68-3s4.11.54,6.5-1.26c8.37,3.31,2.17,5.87,11.36,4.35,2.19,1.05,1.25,2.07-.25,2.79A18.78,18.78,0,0,1,763.91,361.45ZM983.53,332.7l0,.09-4.4,1.55C980.07,334,981.34,333.55,983.53,332.7Zm18-5.9c-2.25.56-5,1.52-7.85,2.47-1.17-1.42-1-3.31.78-3.81C993.89,326.89,998.4,326.36,1001.57,326.8Zm-46.41-21.61c2.49-1.35,3.61-.63,4.22.23-1.23.42-2.67.94-4.52,1.75,0,.2-.15.44-.18.66A6.92,6.92,0,0,1,955.15,305.19Z"/><path class="cls-2" d="M951.79,312.62a4.38,4.38,0,0,1-1,.62,11.43,11.43,0,0,0,1.86.67c.22-.58.44-1.17.62-1.72Z"/><path class="cls-2" d="M119.09,333.89l-.31-.25a2.29,2.29,0,0,1,.47,1A3.52,3.52,0,0,1,119.09,333.89Z"/><polygon class="cls-2" points="1125.06 130.88 1124.38 131.58 1126.31 132.22 1125.06 130.88"/><path class="cls-2" d="M211.69,375.56a2.38,2.38,0,0,0,1.11,1.26C212.79,376.55,212.3,376.09,211.69,375.56Z"/><path class="cls-2" d="M254.94,383.2l6,2.06A47.8,47.8,0,0,0,254.94,383.2Z"/><path class="cls-2" d="M288.31,388.47a4,4,0,0,0,.82-1.36l-.06,0Z"/><path class="cls-2" d="M128.22,72.59a4.85,4.85,0,0,0,1.09-.84C131.66,69.3,129.91,70.67,128.22,72.59Z"/><path class="cls-2" d="M11.11,189.82a24,24,0,0,1-.35-6.37,8.34,8.34,0,0,0-1.64,3.73C9,188.28,9.56,189.17,11.11,189.82Z"/><path class="cls-2" d="M301.83,13.95s0,0,0,.09c.38-.08.73-.11,1.11-.16Z"/><path class="cls-2" d="M14.61,176.07a11.83,11.83,0,0,0-2.8,3.53,12.12,12.12,0,0,0-1.05,3.86c.75-1.1,1.54-2.3,2.28-3.52A10.85,10.85,0,0,0,14.61,176.07Z"/><path class="cls-2" d="M434.32,388.08l1.62-.11c0-.08.06-.16.18-.22Z"/><path class="cls-2" d="M436.11,387.75l1.78-.33A6.08,6.08,0,0,0,436.11,387.75Z"/><path class="cls-2" d="M441.64,386.68l-3.74.74A13,13,0,0,0,441.64,386.68Z"/><path class="cls-2" d="M389.84,390.54l-.51.75A1,1,0,0,0,389.84,390.54Z"/><path class="cls-2" d="M376.28,391.24c3.23.19,8.11,1.35,12.62.65l.42-.6C387.2,392.51,379.36,390,376.28,391.24Z"/><path class="cls-2" d="M320.63,377.62c3.69.72,7.41,1.22,11.12,1.82-1.89-1.23-4.35-3,.74-2.73C318.66,372.08,335.23,379.45,320.63,377.62Z"/><path class="cls-2" d="M286.32,371.72c6,.21.14-1.86.55-2.56C283,369.73,282,369.9,286.32,371.72Z"/><path class="cls-2" d="M58.36,290.67l3.84-3.13C58.88,285.1,60.81,288.87,58.36,290.67Z"/><path class="cls-2" d="M9.82,265.37c-.31,2-.51,4-.73,6,1.78.06,3.56.09,5.32.1-.79-1-1.58-2-2.33-3S10.53,266.43,9.82,265.37Z"/><path class="cls-2" d="M38,229.62,39,231c-.85-1.81-1.67-3.65-2.38-5.54.19.7.47,1.4.71,2.09S37.75,228.93,38,229.62Z"/><path class="cls-2" d="M357.57,52.45l-2.1-5.55C352.52,48.34,352.71,54.9,357.57,52.45Z"/><path class="cls-2" d="M538.13,33.25c2,2.14,7.14,3.3,10.29,1.08C544.32,34.19,540.21,32.62,538.13,33.25Z"/><polygon class="cls-2" points="1066.45 125.91 1062.93 124.9 1068.89 127.89 1066.45 125.91"/></g></g></svg>