<svg xmlns="http://www.w3.org/2000/svg" viewBox="0 0 1678.87 476.8"><defs><style>.cls-1{font-size:333px;font-family:IndieFlower, Indie Flower;}.cls-2{fill:#ff6f6f;}</style></defs><title>elementOneHover</title><g id="Layer_2" data-name="Layer 2"><g id="Element_1_copy" data-name="Element 1 copy"><text class="cls-1" transform="translate(132.75 314.2)">Startseite</text></g><g id="One_Stroke" data-name="One Stroke"><path class="cls-2" d="M1022.78,18.73c-1.54.48-.58.63,3.75-.32q1.48-.64,3-1.33Z"/><path class="cls-2" d="M1052.38,14.91a48.84,48.84,0,0,0,7-2.08c1.67-.67,2.28-1.27.54-1.62-5,1.93-6.29,1.71-11.64,3.69-4.38.73-7.71.8-7,.38-1.51.53-6.79,1.23-9,2.18,2.88-.27,6.12-.73,9.57-1.33a108.8,108.8,0,0,0,10.89-2C1054.26,14.16,1052.73,14.67,1052.38,14.91Z"/><path class="cls-2" d="M1472.72,97.19l-2.36-1.57A8.59,8.59,0,0,0,1472.72,97.19Z"/><path class="cls-2" d="M1652.07,246.75c.5-1.62.15-2.48-.35-2.75C1651.55,245.55,1651.42,246.89,1652.07,246.75Z"/><path class="cls-2" d="M1623.2,273.74c.76-.43,1.35-.84,2-1.28C1624.15,272.66,1623.27,273,1623.2,273.74Z"/><path class="cls-2" d="M1472.72,97.19l6,4.1C1479.83,99.85,1475.81,98.79,1472.72,97.19Z"/><path class="cls-2" d="M1112,6.93a30,30,0,0,0-3.93.61c1.24-.12,2.45-.22,3.69-.31A1.53,1.53,0,0,1,1112,6.93Z"/><path class="cls-2" d="M1359.87,65.25l-2.09-.57a11.76,11.76,0,0,0-2.18,1.26Z"/><path class="cls-2" d="M1272.28,42.84c1.95.63,3.34-2.27,4.41-3.43a6.75,6.75,0,0,1-4.81,1.05A3.59,3.59,0,0,0,1272.28,42.84Z"/><path class="cls-2" d="M1132.14,14.32l-2.55.12C1130.25,14.39,1131.37,14.38,1132.14,14.32Z"/><path class="cls-2" d="M1421.38,84.49a3.18,3.18,0,0,0,.34,1.67A2.2,2.2,0,0,0,1421.38,84.49Z"/><path class="cls-2" d="M370.55,4.35c-.08.13,0,.22,0,.34C371.08,4.55,371.25,4.43,370.55,4.35Z"/><path class="cls-2" d="M474,27.91l-1.43-.26c-.17.07-.35.13-.37.23Z"/><path class="cls-2" d="M1555.38,314.34a2.8,2.8,0,0,0,.35-.09C1557.21,312.68,1556.25,313.36,1555.38,314.34Z"/><path class="cls-2" d="M812.46,402.2c4.35.86.8,1.53-2.2,2.18s-5.44,1.28,1.1,2.29C810.15,405.91,823.3,403.25,812.46,402.2Z"/><path class="cls-2" d="M1114.35,7.07c1.24-.07,2.49-.07,3.75,0A23.31,23.31,0,0,0,1114.35,7.07Z"/><path class="cls-2" d="M811.36,406.67v0l1.35.19Z"/><path class="cls-2" d="M1384,379.57a6.22,6.22,0,0,0,2.26,1.84C1386.11,380.92,1385.57,380.37,1384,379.57Z"/><path class="cls-2" d="M1518.77,345.79l-3.45.73A12.15,12.15,0,0,0,1518.77,345.79Z"/><path class="cls-2" d="M1312.52,396.19c-1.93-.2-2.62-.81-5.17.07a3.23,3.23,0,0,0,.83.51C1309.08,396,1310.3,395.61,1312.52,396.19Z"/><path class="cls-2" d="M1235.8,400.34a13.47,13.47,0,0,0,1.44.88l2.44-.32Z"/><path class="cls-2" d="M131.94,27.17a12.55,12.55,0,0,1,4.63,2.06c-1-1.08,1.25-2.7,2.07-3.49.41-.4.45-.59-.47-.42A54.76,54.76,0,0,0,131.94,27.17Z"/><path class="cls-2" d="M1112,7.83a3.94,3.94,0,0,1,2.34-.76l-2.61.16C1111.51,7.48,1111.46,7.7,1112,7.83Z"/><path class="cls-2" d="M1312.31,434.39c-4.23.06-8.45,0-12.66,0A85.73,85.73,0,0,0,1312.31,434.39Z"/><path class="cls-2" d="M289.06,381.83l-2.9-.09A5.82,5.82,0,0,0,289.06,381.83Z"/><path class="cls-2" d="M1262.33,436.32a20.14,20.14,0,0,0-7.16-3.09,4.9,4.9,0,0,0-1.42,1.23Z"/><path class="cls-2" d="M136.6,29.27a0,0,0,0,1,0,0A0,0,0,0,0,136.6,29.27Z"/><path class="cls-2" d="M216.24,3.79c-12,1.66-4.86,5-6.93,7.77-6.94,1.75-8.73,1.22-9.45.1s-.35-2.91-3-3.57a64.69,64.69,0,0,0-11.31,5.21c-1.68.91-3.3,1.75-4.89,2.48a20.69,20.69,0,0,1-4.81,1.67c-.66-.63-2-.61-.73-1.87a31.48,31.48,0,0,1-8,3.48c-1.55.48-3.19.94-4.89,1.38l-5.17,1.4c-7,1.93-14.16,4.2-18.73,8.16a3.53,3.53,0,0,1-1.77-.74,8.57,8.57,0,0,1,3.7,5.89c-2.55.82-4.65,2.37-6.49,3.35s-3.39,1.53-4.9.33c3.14-1,3-2.34,4.11-3.76-1.64,1-3.26,2.11-4.88,3.16-6.43-2.72,6.77-4.06,5.69-7.23a173.8,173.8,0,0,0-15.25,8.65c-4.93,3-9.58,5.7-13.74,6.9-.91-.88-.27-1.93,1-3a33,33,0,0,1,5-3c1.69-.92,3.14-1.61,3.38-2.11s-.71-.76-3.8-.61c2.19-.59,4.4-1.11,6.58-1.66s4.39-1,6.57-1.5c-12.22-3.29,7.88-2.3-3.76-6.35A70.74,70.74,0,0,0,109.38,32c-2.76,1.28-5,2.51-7.19,3.79s-4.4,2.57-7.07,4.05c-1.34.73-2.81,1.48-4.47,2.27s-3.49,1.7-5.61,2.62c-1.16,2.13-.34,2.85.44,3.53s1.56,1.38.5,3.55a62.43,62.43,0,0,1-6.54,4.95,30.68,30.68,0,0,1-5.34,2.7,20.13,20.13,0,0,1-4.56,1.13c-1.43.18-2.75.28-4,.33-2.58.13-5,.12-7.5,1.34A14.2,14.2,0,0,0,54.2,65a25.14,25.14,0,0,0-3.8,5.24,15.69,15.69,0,0,0-.4,2.18c-.07.74-.11,1.49-.16,2.23a20.71,20.71,0,0,1-.63,4.52,12.34,12.34,0,0,1-.93,2.32,13.33,13.33,0,0,1-1.57,2.47A19.41,19.41,0,0,1,44.2,86.5a42.24,42.24,0,0,1-3.6,2.88c-.46-2.39-.92-4.85-1.26-7.27a33.44,33.44,0,0,0-3.62,4.42A15.33,15.33,0,0,0,33.85,90a18.61,18.61,0,0,0-1,5.24,12.55,12.55,0,0,1-1.38,5,19.31,19.31,0,0,1-2.27,3.27A55.45,55.45,0,0,1,25.29,108a10.06,10.06,0,0,1,.83-3.68c.27-.68.56-1.4.9-2.07s.71-1.32,1-1.93c1.37-2.43,2.49-4.13,1.41-3.22-2.7,1.85-4.27,3.34-5,4.7a5.81,5.81,0,0,0-.73,3.64A25.14,25.14,0,0,1,24,109a10.26,10.26,0,0,1-1.5,4.93q-2.75-.42-5.54-.78a111.87,111.87,0,0,0-9.39,29.21,179.49,179.49,0,0,0-2.7,31.89C3.4,173,2,169.11,0,174.18a300.89,300.89,0,0,0,4.51,42.9A216.08,216.08,0,0,0,16.22,257.9l4.58,3.22c1.51,1.05,3,2.09,4.62,3,1.2,2,.54,4.78-1.61,3.16,2.05,4.82,2.76,4.51,3.47,3.37s1.46-3,3.55-1.55c3.57,4.41,2.24,7.74-1.09,5.61,6.85,6.23,16.59,14.56,26.58,22.39,2.55,1.9,5,3.9,7.46,5.82s4.81,3.76,7.07,5.6,4.43,3.65,6.41,5.45a57.45,57.45,0,0,1,5.4,5.32l-3.76-.81a20.28,20.28,0,0,0,4,2.77,18.43,18.43,0,0,0,3.78,1.38,27.67,27.67,0,0,0,6.89.67,21.19,21.19,0,0,1,6.43.77,15.37,15.37,0,0,1,6.71,4.27l-2.58-.39c3.23,2,6.65,3.66,10.09,5.37,1.73.81,3.49,1.58,5.24,2.36l2.64,1.15,2.67,1.06,5.34,2.08,5.35,1.91c1.77.65,3.55,1.24,5.31,1.83l5.25,1.78c13.91,4.58,26.85,8.76,36.73,14.53,2.85-2.44,9.61-.12,16.19,1.84s12.95,3.53,14.84-.2c7.53,3.74,10.1,5.65,13.52,7.58a54.74,54.74,0,0,0,6.53,3.1c1.44.59,3.13,1.23,5.15,1.94s4.39,1.42,7.18,2.26c6,1.45,10.13-2.87,17.78-2.11l-.62,3.75,5.53-1,5.52-1q2.26,2.65,4.55,5.25l7.28.27c-2.78-.68-5.67-2.61-5-3.57,5.69.15,12.27,2,17.47,3.88s9,3.83,9,4.7c8.94.33,17.84.79,26.75,1.05-.8,1.16-5.27,1-8.9,1.37,14.6-1.35,2,3.6,15.37,2.35-1.61-.92,1.24-1.69,1.63-2.26,3.05,1.33,8.22,2.55,14,3.34s12.17,1.36,17.63,1.64l-2.36,1.66c9.73,1.41,20.09,2.12,30.72,2.94l8,.6,8.12.55c5.44.38,10.91.81,16.39,1.34-7.78-1.46-5.63-4.1.81-3.68l2.28,2.66c4.31-1.07-6.59-1.57,2.12-2.53,8.14,1,5.2,3.14.4,3.54l10.05,0c.51.74-1.87.9-2.57,1.73,4.24-1.07,17,3.65,23.12,1.67l.5.68c11,.75,19,1.21,26.44,1.52s14.45.57,23.38,1.12c.48-1.62,7.43-.82,12.85-1.8,6.54.67,13.42,1.59,20.65,2.38s14.81,1.45,22.72,1.85c11.15-.16,3.32-1.12,8.37-1.77.74,1.42,16.53,2.13,8.29,2.69,19,.78,24.25.94,48.29.91-2.58-.68-5.5-1-4-1.46,4.36-.06,9.88,1,9.23,1.63l-1.15.1a196.15,196.15,0,0,1,21.42.58c7.42.5,15,1.28,22.41,2.05s14.66,1.47,21.4,1.87a105.7,105.7,0,0,0,18.35-.17l-1.21.12,22.27-1c10.23.58-6.16,1,1.4,2.29a205,205,0,0,1,30.44-.11c8.94.47,17.36,1.15,27.25.4,7.62,3,21.2,3.52,35.43,3.59,7.12.07,14.4.06,21.2.33a92,92,0,0,1,18.25,2.12L884.18,423c5.34-1.4,6.45,1.16,10.38,1.7-.56-1.31-5.78-1.69-2.47-2.47a690.48,690.48,0,0,1,69.33,3.05c23.43,2,47,5,70.07,7.06,8.45.69,10.86-2.18,13.83-4.49s6.49-4,17.11-.8l-6.09,4.24c17.07-2,34.48-1.28,51.82-.41s34.63,1.9,51.45-.16c-2,1.11-2.1,2.63-5.37,2.5,7,4,26.25,1.05,26.39-2.07,5.23.48,1.19,2.82,4.41,4.46,3.56,1.2,8.06.1,12.12-.83s7.72-1.75,9.62.19c.65.63-2,1.22-3.32,1.5,2.33-.9,7.77-.71,12.06-.85s7.45-.69,5.19-2.93c6.36,1.07,12.42.64,18.17.14s11.17-.9,16.29.38c3.24-2.63,8.7-2.14,13.6-1.89s9.24.14,10.11-3.56c-.28,3.8,5.38,5.18,12.12,5s14.52-1.81,18.42-3.93c-2.54,2.52,7.21,2,4.29,5.4a48.6,48.6,0,0,0,12-2.13c3-1.14,4.58-2.65,3.59-4.59a24.94,24.94,0,0,0,13,1.87,64.32,64.32,0,0,0,11.82-3c1.86-.6,3.65-1.17,5.39-1.6a25.62,25.62,0,0,1,5-.88,11.58,11.58,0,0,1,9.13,3.42c26.93-7.95,51.44-15.9,75-24.08.67,4.17-6,6-12.42,7.81-1.6.45-3.19.91-4.65,1.4a23.63,23.63,0,0,0-3.88,1.5c-2.17,1.13-3.36,2.56-2.62,4.62,2.83-1,5.49-2.06,8-3.16s4.89-2.27,7.19-3.4c4.59-2.28,8.85-4.42,13.07-6.66a129.41,129.41,0,0,1,13.1-6,90.14,90.14,0,0,1,15.33-4.79c6.18-.73-2.12,4.53-3.68,6.51,2.71-1.32,5.45-2.43,8.14-3.61s5.4-2.26,8.1-3.28,5.39-2,8.06-2.94l7.91-3c2.62-1,5.21-2,7.78-3s5-2.25,7.48-3.45,4.84-2.5,7.17-3.87c1.16-.69,2.32-1.38,3.44-2.15s2.2-1.59,3.28-2.42c.29.75-1.41,2.54-3.09,4.07,3.67-2.05,9.38-3,7.24-6.39l-3.22,2.72c-4.23-1.15-1.73-5.64,1.61-10.17,1.68-2.27,3.57-4.55,5-6.46s2.32-3.55,2.14-4.31c-.48,6.65,4.37,4.9,9,3.68s9.05-1.9,7.48,7c2.11-1.94,4.25-5.21,2.39-7.24,3.89-1.36,5.81-.68,3.67,4,6-4.72,7.3-7.3,8.57-9.56a13.5,13.5,0,0,1,2.46-3.34,32.32,32.32,0,0,1,5.78-4.39c1,1.65-.93,3.75-.94,6.43a60,60,0,0,1,6.56-10,34.33,34.33,0,0,1,4.78-4.54,35.53,35.53,0,0,1,6.54-4.21c.1,1.34,2.05,1.82-.77,3.76A73,73,0,0,0,1615,325c3-3.4,5.63-6.87,8.41-10.26l2.11-2.52c.72-.82,1.44-1.66,2.15-2.53,1.43-1.71,2.94-3.38,4.57-5a59.77,59.77,0,0,1,5.31-4.71c1-.76,2-1.49,3-2.23s2.21-1.57,3.38-2.36c.39,5.32,2.23,4.55,4.79,2.9s5.59-4.24,8.63-2.24q3.64-5.41,6.83-11.12c-2,.63-4,1.18-5.91,1.7,3.6-4.13,5.75-9.07,7.68-13.76s3.66-9.17,6.78-13c-.29,3-.77,5.9-1.33,8.85a88.44,88.44,0,0,0,7.44-20.59,73.3,73.3,0,0,1-6.79,10.56c.33-3-.13-4.58-.83-5.54a5.19,5.19,0,0,0-2.29-1.59,1.55,1.55,0,0,1-1.09-1.75c.06-1.06.75-2.74,2.11-6,0,.73.17.47.5-.42s.79-2.4,1.35-4.19c.24-.9.53-1.87.84-2.87s.59-2,.92-3,.67-2,1-3a14.47,14.47,0,0,1,1.28-2.62s0,0,0,0c-1.32-2.81-2.79-5.45-4.15-8.3a49.4,49.4,0,0,1-3.52-10c.53-1.44,2.43-2,4.35-2.28s3.8-.39,4.12-1.46c-2-.81-4-2.71-6.08-5s-4.37-4.87-6.76-7.24c-4.81-4.76-9.87-8.61-14.21-8.37,2.5.3,5.06-2.29,5.06-3.29l-6.24.74c-2.44-4.19-2.48-5.19,0-6.85-2.47-2.51-3.94-3.08-4.78-2.87s-1.14,1.29-1.44,2.22c-.6,1.87-1.19,3.27-6.27-3.46,1.23.55,1.21-.39,3.73.81q-2.15-2.28-4.46-4.31c-1.57-1.32-3.17-2.56-4.8-3.76s-3.26-2.35-4.93-3.45l-5-3.17-5-3.12c-1.66-1-3.3-2-4.89-3.12s-3.15-2.2-4.67-3.35-3-2.34-4.44-3.64c0-4,3-2.51,5.9-.92s5.55,3.36,5.08-.48c-2.36-1.5-4.87-2.81-7.38-4.15s-5.07-2.61-7.7-3.78l-7.88-3.52-8-3.31c-10.61-4.36-20.94-8.69-30-14.15l3.18,2.44c-3.45,3.36-6.34.51-10-3.2a54,54,0,0,0-6-5.6,14.35,14.35,0,0,0-7.67-3.06c2.65.51,5.25-3,4.18-2.41-12.64-7.42-28.16-10.16-49.5-15.45l3.32-1.06c-3.62-2.46-8.82-4.59-14.12-6.68s-10.77-4-15-5.84c-3.28,1.13-8.14-.85-6.1,3-11.52-10.05-25.08-12.33-38.11-14.24s-25.7-3.41-36.66-10.78c2.9.72,7.34.16,5-.43L1363,47.49c.86,3.4,2.24,2.47,6,5.92-3.07,1.13-9.22,1-14.31-.28,9.74.38,1.15-4.82-2.46-7.39.44,1.06-1.18,1.73-1.07,2.72-9.47-7.79-3.27,5.4-17.09-1.67l1.15-1.31c-5.7-.55-11.23.17-17.06-1.69-1.68-3.78,6.22-.1,7.25-2.67-4.2-.88-8.69-.31-13-.19s-8.34-.18-11.75-2.59c3.75,0,8.85,1.15,12.61,1.1-7.35-5.59-8.53-4.85-14.54-6.78l.59.21-13.85-4.68,3.4,1.73c-6.15,2.73-11.57,1.92-17.37.67s-12-2.79-19.59-1.94c14.71-1.61,2.83-2.12,4.54-5-3.45-1.58-8.8-3.58-7-4.14-7.25,1.22-11-3.82-21.19-2-.26-1-7.25-1.23-5.3-3.29-9-.61,1.81,1.89.85,3a43.32,43.32,0,0,1-11.17-1c-3.9-.8-8.05-1.71-12.38-2.69A93.45,93.45,0,0,0,1172,10.82a186.29,186.29,0,0,0-18.69,1,124.73,124.73,0,0,1-17.62,1.09c-2.62-.7-1.51-1.2.27-1.55s4.22-.53,4.22-.53c-2.13-.37-4.14-.68-6.07-.87s-3.81-.24-5.67-.27c-3.71-.07-7.37.06-11.43.28,1.65-.44,0-1-2.49-1.57-6.54.29-4.38,2.08-13,1.4a33.51,33.51,0,0,1,6.51-2.27c-3.86.37-7.68.81-11.52,1.28s-7.71,1.14-11.67,1.57c-2.14-.65,4.73-1.49,7.53-2.25-4.47.53-10.25,1-15.24,1.75s-9.17,1.62-10.49,2.27l5.72-.17c-3.23.36-1.74-.76.64-1.23a45,45,0,0,1,4.92-.84,20.22,20.22,0,0,1,3.49,0,6.36,6.36,0,0,1,3.07.79l-5.63.58c3,1.1,8.61.84,14.94.1,3.17-.42,6.52-.7,9.79-1s6.46-.54,9.31-.52q-2.39,1.23-4.76,2.38c3.88-.62,7.77-1.36,11.67-1.88,2.46.72,4.09,2.24-1.5,2.36,8.06,1.63,7.22-.62,14.11,1.15.75.27.4.38-.32.45,2.65-.18,5.29-.15,7.95-.25-1.59.46,1.18,2.1-3.63,1.27a76.71,76.71,0,0,0,17.37,1.36c4.63,0,8.18,0,10.7,1.49l-1.2.05c9.83.6,10.37.14,10.34-.71s-.68-1.94,6.89-2.47q4.56,3.68,9,7.59l2.29-2.26c2,.42,5.94,1.28,5,2.21,7.75-.57-1.1-1.36,3.51-2.37a40.33,40.33,0,0,0,8.14,2.26c3,.62,6.07,1.1,8.94,1.59,5.73,1,10.48,2,11.11,4.62,1.93-.75-.28-1.67-1.66-2.29s-1.93-1,3.35-.76c1,2.81,4,3.23,7.78,3.41s8.44.11,12.55,2.32c-3.26,2.15-11.22-1.15-3,3.25,3.11-1.71,7.32-.53,11.66,1.24s8.82,4.19,12.58,4.6c.61-1.92,4.7-1.39,10.21-.18s12.42,3.23,18.75,4c-1.11,1.21,22.6,8.14,33.58,12.82l-.52.67c3.33-4,14.91-.08,23.7,1.24-1.06,2.75-2.89,3.45-7.82,3.44l8,2.18c2.28-1,5-1.13,10.33-.25l-3,3c10.66,2.82,22.59,1.7,35.48,8.27.89-1.65-1.11-4.91-1.47-7.51s.95-4.53,8.58-3.68c0,2.08-.44,5.51-4.45,5.2,1.31.1,4.89-.31,7.14,1.26l-6.71,1.51c5.79,3.27,4-1.73,8.92.06-.91,2.73,3.09,3.08,1.72,5.06-1.34-.12-4-2.46-6.19-2,5.44,2.17,11.65,6,13.2,8.79,0-1.74,1.16-3.77,5.33-2.84,10.53,3.23,2.51,4.57,8.12,8.05,3.15-1.11,9.08,3.24,10.69-1,3,1.06,2.91,3.29,3.68,4.86,6-.08,25,8.67,20.74,1.76l-1.25-.82c.29,0,.59.11.94.14l0,0,0,0c9.53,1.16,18.43,5.24,26.94,10,4.29,2.3,8.45,4.85,12.69,7.06a84.08,84.08,0,0,0,12.84,5.82l-.73,1.49c10.78,3,22.34,9.94,31,10.48,2.87,1.6,5.23,6.48,3,7.58,4,1.47,6.36,2,8.92,3.16a22.94,22.94,0,0,1,4.15,2.49,51.91,51.91,0,0,1,5.5,5c-8.71-1.84,1.08,3.78-8.47-2.61,4.26,3.42,6.46,6.15,9.2,8.18s5.85,3.6,12,4.8c-2.87.76-2,3.08.21,5.46a26.09,26.09,0,0,0,8.13,5.72c-1.37-2.39-2.83-4.68-4.28-7,5.15,2.69,8.92,6.1,12.83,9.4l-5.77,3.22a37.61,37.61,0,0,0,5.35,6.09,43.77,43.77,0,0,0,6.09,4.48c4.19,2.64,8.76,4.49,13,6.57,2.14,1,4.24,2,6.2,3.18a35.12,35.12,0,0,1,5.34,3.89c3.23,2.89,5.62,6.62,5.72,11.35,3.2.28,2.17-2,.78-4.63s-3.06-5.42.54-5.5a20.63,20.63,0,0,1,4.91,12.89,25.39,25.39,0,0,1-.42,5,5.87,5.87,0,0,0-.26,2.53,7.24,7.24,0,0,0,.31,2.39,3,3,0,0,0,.45.87,3.24,3.24,0,0,0,.58.72A22.23,22.23,0,0,0,1650,227a9.15,9.15,0,0,1,3.47,3.33,7,7,0,0,1-.06,6.14,7.19,7.19,0,0,1,5.33,0,5.06,5.06,0,0,1,2.51,2.63,11.54,11.54,0,0,1,.69,6,10.71,10.71,0,0,1-3.83,4.84,6.78,6.78,0,0,1-4.32,1.21,4.53,4.53,0,0,1-4.34-5c.6-1.88,1.58-2.5,2.29-2.17,0-.7.06-1.44,0-2.12a5.26,5.26,0,0,0-.35-1.74c-.4-.91-1.23-1.13-2.83-.09.63.52,1.27,1.06,1.86,1.61-1.66,1.48-3.56,4.68-5.59,7s-3.92,3.69-4.82,1.63c-.63,3.14-.33,4.25.76,4.09s2.8-1.57,4.46-3.35a67.59,67.59,0,0,0-5.17,5.57c-1.47,1.79-2.78,3.56-4.14,5.33a41.51,41.51,0,0,1-10.73,10.51c2.24-.38,5.41.21,4,1.58-1.86,1.32-3.32,2.41-4.46,3.34-.58.46-1,.89-1.49,1.3a14.33,14.33,0,0,0-1.17,1.17,5,5,0,0,0-1.53,3.55c0,2.07.86,4-3.94,8.68-4,1.08-4.79-1-5.64-2s-1.72-.85-6.1,4.32c-7.87,3-5-3.82-3.71-7.19a22.59,22.59,0,0,1-6,6.32,23.93,23.93,0,0,1-3.45,2.1,38.74,38.74,0,0,1-3.63,1.46c-4.83,1.69-9.45,2.44-12.42,4l4-5.08a26.31,26.31,0,0,1-7.51,6.38l5.53,1.91c-3.53,1.32-6.16,3-7.14,1.32-.77,2.28.86,3.5,2.19,5.08s2.35,3.53.21,7.33c-2.73.35-5.56,3-8.46,4.79s-5.61,3.09-7.87.89c7.28-3.06,6.12-4.15,4.51-5.43s-3.63-2.71,1.7-6.47c-1.75,1.94-4.45,3.43-8,4.6-.82-.31-.19-1.35.5-2.16-15.31,2.68-2.35,9.45-16.06,16.66.12-4-6.09-4-8-2.29,2.77-1.34,4-.48,4.18,1.44a8.21,8.21,0,0,1-.65,3.42,14.78,14.78,0,0,1-2.29,3.77c-5.07,1-7.28,2.61-8.85,4.25s-2.49,3.31-5,4.2l3-.65,3-.75c-.36,4-5.2,5.65-11.24,9.47-1.59-2.18,5.13-4.25,2.36-4.3a8.31,8.31,0,0,1-5.06,4,24.71,24.71,0,0,1-7.1.89c-5.14.12-10.6.19-14.95,4-5.51-.43-2.66-5.76-7.29-5.72-4.9,4.09-8.34,4.19-11.88,4.09s-7.16-.33-12.61,3.35c2.38,1.56,3.66,2,3.43,3a5.33,5.33,0,0,1-1.52,2c-.92.9-2.24,2.18-4.1,3.82,3.22-1.48,6.36-3.15,9.53-4.71l4.73-2.38c1.57-.79,3.15-1.57,4.69-2.44-1.73,1.83-3.54,3.5-5.33,5.25l-5.44,5.2a47.07,47.07,0,0,0,8.73-4.2c1.35-.75,2.62-1.5,3.78-2.11a10.93,10.93,0,0,1,3.19-1.17c-4.85,5.67-4.63,4.39-.53,6.88a11.42,11.42,0,0,0-3.67-.58,10.7,10.7,0,0,0-3.3.52,24.76,24.76,0,0,0-6,3.17A43.64,43.64,0,0,1,1459,376a14,14,0,0,1-7.38,1l-2.76-10.66a27.65,27.65,0,0,0-10.67,1.88,71.36,71.36,0,0,0-9.78,4.5c-1.65.87-3.33,1.76-5.09,2.62s-3.6,1.61-5.54,2.33a48,48,0,0,1-13.09,3c2.2.22,4.36.29,6.55.44-1.67,4.86-11.79,3.12-17.73,6.08-.08-3.64-4.21-4.07-7.26-5.81.39,1.27-3.16,1.83-6.87,3s-7.62,2.94-8,6.51l-9.4-3.25c-8,.33-12.19,3.26-16.35,6.4a40.3,40.3,0,0,1-6.68,4.34,23.34,23.34,0,0,1-9.4,2.1c4.26-4.2-2.93-5.87,7-9.64-5.1.52-9.74.4-9.6,2.77-1.6-.92-5,.67-8.71,2s-7.62,2.55-10.1,1.16c-2.05,1.67-2.51,5.29-8.34,5.39-.68-.64-.09-1.66-.09-1.66.09,1.66-9,2.87-3.64,6.24-4.16-2.35-9-3.25-14.18-3.57a132.62,132.62,0,0,0-16.12.56,138,138,0,0,1-15.74.62c-4.91-.23-9.34-1.07-12.85-3.13-5.65.69-11.89,1.3-18,1.83s-12.12.84-17.27,1c.66-1,0-1.57,2-1.26-14.21-2.84-8.78,9.07-25,5.76-8.24-5,8.64-2.67,3.49-4.59-1.08-5.12-6-4.76-11.94-3.87s-13.07,2.21-18.48-.69l2.65-.59c-8.28-3.33-20.43,3.71-34.08,2.93,0,0,.68-.84.1-1.45-9.43,4.87-27.16,6.27-40.32,7.5,4.14-3.53,6-1.87,3.55-5.49-5.9.51,1.65,5.84-10.13,6.75-3.8-2-12.27-3.64-13.36-7.34l11.11-.27c-2.82-2.45-6.42-2.36-10-1.78s-7.27,1.64-10.19,1.26l.77-2.08c-17,.93-17.3,6-35.58,5.75l1.88,1.46c-5,2.45-7.1,1.75-9.18.94s-4.17-1.76-9.16,0l-3-4.71c-6.6,1.27-23.1,4.78-34.92,5.63,6.7-3.27,20.53-5.22,29.1-7.44-6.54.08-22.21.82-25.61,3,2.63-.46,6-1.62,8.55-1-8,3.69-18.57,5.38-31.58,5.39,1.16-4.07-7.32-4.43-17.27-4.51s-21.36,0-26.07-2.63c-11.51,1.63-22.92,1.55-34.81,1.3s-24.24-.68-37.64-.27c9.48,4.47-7.82.26-6.21,4.88-6.25.33-8.63.26-9.18,0q-9.45-1.33-18.9-2.55c-4.47-1.21,5.95-1,5.38-2-13.66-.15-5.71-1.76-14.74-2.73,1.84,1.48-4.78,2.22-12.55,1.71L781.52,403c-9.56,1.16-13.68.27-17.81-.54s-8.28-1.58-17.92-.58l6.1-1.22c-4.94.37-14,.39-23.13.64s-18.15.69-23,2.06c-1.74-.44-4-1.44.33-1.64-5.9-.17-12.13-.11-18.45,0l-19,.41c-12.48.2-24.31.19-33.44-1l1.82-.74c-4.4.06-7.72,1.19-13.19.13.3-.32,1.81-.73-.23-.87-2.34.16-11.75.95-17.54.12l5-.64a204.83,204.83,0,0,0-28.68-.83c-8.39.2-16.33.64-26,.27.2-2.37-17.76-4.73-26.71-6l.34-.34c-26.59-2.91-45.38-2.46-70.11-4.29a108.34,108.34,0,0,0-14.7-3.63l-9.38-1.72-10.21-1.75L415,379.09c-3.58-.57-7.14-1.3-10.65-2-7-1.38-13.8-2.82-19.78-4.49,3.61,1.36-1,2.88-5.42,2.49-5.57-1.87-16.19-.05-14.7-3.63l2,.45c-1.86-2.23-5.74-3.67-10.28-4.82s-9.74-2.07-14.27-3.08l-2.4,5a62.13,62.13,0,0,0-9.18-4c-3.27-1.16-6.71-2.23-10.26-3.13-7.08-1.83-14.59-3-21.74-4.22-14.28-2.49-27.35-4.26-32.8-10.2-6,.14-13-1.69-19-1.45l1.14-3.51C240,339.85,234.29,337.86,228,336c-3.12-1-6.39-1.82-10.06-2.85s-7.76-2.11-12.6-3.3l4.62-1.59c-5.34-1.75-9.47,0-13.56,1.94s-8.12,4-13.14,2.61L182,325.92c-9.31-2.85-18.13-7.18-26.81-11.13s-17.23-7.45-26.76-8.63a3.86,3.86,0,0,1,4.77-1.26c-4-1.86-10.92-6.56-16.83-9.78a23.35,23.35,0,0,0-7.79-3.17c-2.11-.29-3.69.45-4.24,2.84.74-1.32.14-2.63-1.32-3.89A28.36,28.36,0,0,0,96.66,287c-1.35-.61-2.71-1.33-4.17-2s-3-1.25-4.43-1.93l-4.27-1.92-2-.88L80,279.46q2-1.19,4-2.42l-6-.56c-.83-.09-1.61-.18-2.34-.3a18.6,18.6,0,0,1-2.08-.53c-2.72-.88-5.51-2.34-10-6.28-1.45-2.48,1.09-4.19,2.68-.71-2.26-4.16-4.06-4.93-6.23-5.84a10.58,10.58,0,0,1-3.33-2.05,17.59,17.59,0,0,1-3.46-5.38l4.82,1.68a40.52,40.52,0,0,0-3.28-4.32,9.66,9.66,0,0,0-2.37-2.17c-1.53-1-3.22-1.21-6.05-2.62a21.19,21.19,0,0,1-5.3-10.4c-1-4-.64-7.85.93-9.27a9.09,9.09,0,0,1-5.14-2.63,12.58,12.58,0,0,1-3.56-6.94c1.2-1.19,2.78.43,3.58,1.22-.38-2-.67-3.78-1.1-5.45a42.46,42.46,0,0,0-1.52-4.65c-.48-1.46-1-2.82-1.6-4.13l-.87-1.92c-.3-.63-.59-1.25-.82-1.87a41.73,41.73,0,0,1-2.39-7.32,17.92,17.92,0,0,1,.55-7.78,3.37,3.37,0,0,0,2.6-1.92c0,.76,0,1.5.06,2.24l.19,2.17.34,4.1c.06,1.31.32,2.53.47,3.68l.45,3.17c.21,1.93.55,3.43.71,4.4s.19,1.43.06,1.22c2-.47,2.59-3.1,3.68-4.76a2.67,2.67,0,0,1,2.17-1.44c1,0,2.1.6,4,2.07l-1-1.27-.93-1.39-2-3.09A47.55,47.55,0,0,1,36,188.76c-2.3-5.17-3.47-11-2.21-15.56a4.52,4.52,0,0,1,1.45-1.11l.41,1a9,9,0,0,0,.22-1.53,10.54,10.54,0,0,0,.08-1.47,12.56,12.56,0,0,0-.41-2.85l.68-2c.25-.6.48-1.17.69-1.73a22.34,22.34,0,0,0,1-3.63c1.7-.2,2.79-2.67,3.51-5.67.46-1.48.86-3.1,1.23-4.63a29,29,0,0,1,1.25-4c-2.11-.56-2.48-2.26-3-3.3s-1.12-1.44-3.83.8c.28-.32.32-.05.18.69-.07.37-.19.86-.35,1.45s-.36,1.29-.54,2.09a8.63,8.63,0,0,0-.16,2.15,4.43,4.43,0,0,1-.27-.43c-.39,1.57-.93,3.36-1.3,5.37s-1,4.18-1.28,6.54a21.72,21.72,0,0,1-1-3.23,15.13,15.13,0,0,1-.27-3.34,9.59,9.59,0,0,1,.7-3.44A13.18,13.18,0,0,1,35,147.48c-.48-.83-1-1.69-1.41-2.53s-.83-1.68-1.19-2.49a43,43,0,0,1-1.66-4.11c1-.59,2.05-1.24,3.1-2s2.06-1.5,3.06-2.31l5.91-4.78c3.83-3,7.1-5.3,9.16-5.07,2.68-7,7.53-14.45,12.17-21.34s9-13.4,10.43-19.53a4.47,4.47,0,0,1,4.06-2.15c1.25.07,2.38.59,3.4.56a31.88,31.88,0,0,1-2.66,3,6.45,6.45,0,0,0-1.68,2.73,42,42,0,0,1,5.47-5.72c1.07-1,2.26-1.93,3.4-2.92s2.29-2,3.43-2.87,2.19-1.85,3.16-2.76a29.35,29.35,0,0,0,2.61-2.56,11.09,11.09,0,0,0,1.69-2.43,3.88,3.88,0,0,0,.49-2.2c5.64-1.83,4.75,0,4.21,1.26-.28.62-.48,1.08.21.85a11.76,11.76,0,0,0,1.81-.91c.91-.49,2.16-1.21,3.85-2.22l-1.15,2.4a77,77,0,0,0,19.92-7.73c5.93-3.2,11.48-6.9,17.34-10.4a97.77,97.77,0,0,1,19.08-9.11,66.68,66.68,0,0,1,11.26-2.71,76.75,76.75,0,0,1,12.83-.95c-2.53,0-3.77.11-4.44-.52,20.19-2.9,40.42-8.11,61-11.9s41.44-5.92,61.57-4.85c11.42.3,12.58-2,19.56-3.56l2.5,2.45c4-1.07,7.95-2.13,11.95-3.07a56.31,56.31,0,0,1,12.09.15c1.94.21,3.85.48,5.78.76s3.85.69,5.81,1a106.33,106.33,0,0,0,12.41,1.51,102,102,0,0,0,14.64,0l-2.66-1.38c7.7.53,24.44,1.52,23,2.53a10.65,10.65,0,0,1,5.59,0l.13.77q9.5.48,19,1.19C442.47,23,441.8,23.42,442,24s1.19,1.18,11.84,2.55c4,.48,9.64,1.1,14,1.55s7.26.78,5.8.41c-3.18-.58-8.07-1.7-8.23-2.11l7.21,1.28c.75-.3,2.54-.32,2-.85s-3.48-1.65-12.12-4.46l-6.16-1.28c-2.06-.4-4.14-.69-6.21-1q-1.91-.79-3.83-1.63c3.45.81,6.9,1.56,10.33,2.44a52.84,52.84,0,0,0-13.79-2.93,19.94,19.94,0,0,0-5-2.12c-4.12-.38-8.28-.51-12.43-.64-1.36-1.1,5.68-.44-2.42-2.56-2.92-.13-1.61.63-.77,1.22s1.22,1-3.54.48c-5.81-2-4-2.57-11.09-2.78-.91-.77.62-.94,3.43-.73-3.16-.16-7.3-.76-11.07-1.22a46.78,46.78,0,0,0-5.22-.41,12.61,12.61,0,0,0-3.65.31c-3.06-1.16-8.37-1.75-12.8-2.34s-8-1-7.63-2.44a58.52,58.52,0,0,1-7.11.77c-1.64.11-3.4.19-5.11.23s-3.37.12-4.83.07c5.37-1.6-.06-2-6.49-2.53-3.21-.25-6.67-.59-9.15-1s-4-1.09-3.28-2.19a26.41,26.41,0,0,1-8,1.59c-3.26.28-7,.22-11,.37-7.89.23-16.57,0-23.49,1.62a6.59,6.59,0,0,1,3.5-1c-7.89-.13-10.28-1.43-15.44-2.18C279.44,4.25,267.29,6,261,8.94c-5-1.48-3.69-2.82-1.53-4.2s5.18-2.63,3.47-4.4c.41,1.6-3.72,2.62-7.47,3.77s-7.14,2.15-5.33,3.38c-7.67-1.75-6.49-.58-10.77-3.7-.53,5.46-6.74,1.72-12.32,5.82C216,8.31,223.43,4.74,212,8.19c-2.94-.43-1.91-1.54-.12-2.53A32.29,32.29,0,0,1,216.24,3.79ZM6.4,174.37H6.31c.07-2.6.06-4.84.17-6.25C6.39,169.41,6.42,171.22,6.4,174.37Zm1.11,25.26c-.06-.77-.2-1.57-.24-2.42l-.18-2.67c-.14-1.84-.31-3.81-.49-5.82,1.46-1,3.13-.11,3.26,2.36-.57-.63-1,.52-1.31,2.33S7.81,197.68,7.51,199.62Zm32.78-45.18c-.09,3.17-1.17,4-2.15,4.19.28-1.45.5-3.17.76-5.47-.13-.13-.26-.36-.41-.5A6.22,6.22,0,0,1,40.29,154.45Z"/><path class="cls-2" d="M36.38,147.29a5.69,5.69,0,0,1,.1-1.39A12.83,12.83,0,0,0,35,147.48c.33.53.65,1.06,1,1.53Z"/><path class="cls-2" d="M1469.94,95.35l.42.27a2.81,2.81,0,0,1-.73-1C1469.85,95,1469.81,95.11,1469.94,95.35Z"/><polygon class="cls-2" points="263.12 379.07 263.28 378.21 261.11 378.59 263.12 379.07"/><path class="cls-2" d="M1352.21,45.74a3,3,0,0,0-1.4-1.3C1350.82,44.69,1351.44,45.18,1352.21,45.74Z"/><path class="cls-2" d="M1298.74,32.68l-7.35-2.79C1294.53,31.24,1296.86,32.08,1298.74,32.68Z"/><path class="cls-2" d="M1257.54,22.58a3.19,3.19,0,0,0-1.08,1.09l.08,0Z"/><path class="cls-2" d="M1536.37,377.42a8.15,8.15,0,0,0-1.46.89C1531.68,380.85,1534,379.4,1536.37,377.42Z"/><path class="cls-2" d="M1675.92,227.72a28.47,28.47,0,0,1,2.36,7.77C1679.08,231.19,1678.92,227.64,1675.92,227.72Z"/><path class="cls-2" d="M1313.7,434.39s0,0,0-.09c-.49,0-.92.06-1.41.09Z"/><path class="cls-2" d="M1676.24,246.44a17.2,17.2,0,0,0,2-10.95C1677.64,239,1676.36,242.89,1676.24,246.44Z"/><path class="cls-2" d="M1074,9.21l-2,.2c0,.07-.08.15-.23.21Z"/><path class="cls-2" d="M1071.75,9.62l-2.25.4A9.78,9.78,0,0,0,1071.75,9.62Z"/><path class="cls-2" d="M1064.77,10.86l4.74-.83A22.74,22.74,0,0,0,1064.77,10.86Z"/><path class="cls-2" d="M1130.39,7.58l.68-.65A1,1,0,0,0,1130.39,7.58Z"/><path class="cls-2" d="M1147.55,8c-2-.18-4.57-.67-7.32-1.08a38.36,38.36,0,0,0-8.59-.53l-.56.52C1133.84,5.81,1143.58,9,1147.55,8Z"/><path class="cls-2" d="M1216.6,27.24c-4.59-1.16-9.19-2.32-13.81-3.32,2.29,1.37,5.26,3.27-1.1,2.36,8.53,3,7.69,2.4,7,1.34S1207.51,25.27,1216.6,27.24Z"/><path class="cls-2" d="M1259.23,38.08c-7.53-1.21-.27,1.66-.8,2.22C1263.34,40.39,1264.55,40.37,1259.23,38.08Z"/><path class="cls-2" d="M1557.29,140.1l-2.83,3.49C1559.72,145.92,1555.37,142.11,1557.29,140.1Z"/><path class="cls-2" d="M1621.21,153.87c-1-1.95-2-3.9-3.07-5.8l-4.78,1.79C1616,151.16,1618.63,152.47,1621.21,153.87Z"/><polygon class="cls-2" points="1627.57 202.29 1625.33 201.14 1633.35 206.18 1627.57 202.29"/><path class="cls-2" d="M1249.39,395.83l1.9,5.15C1255.21,399.9,1255.87,394,1249.39,395.83Z"/><path class="cls-2" d="M1018.57,402.36c-2.51-1.95-9-3.06-13-1.1C1010.73,401.43,1015.92,402.9,1018.57,402.36Z"/><polygon class="cls-2" points="328.95 362.67 333.66 362.54 329.32 362.09 324.99 361.58 328.95 362.67"/></g></g></svg>