<svg xmlns="http://www.w3.org/2000/svg" viewBox="0 0 1354.5 426.6"><defs><style>.cls-1{fill:#55dbdb;}</style></defs><title>startseiteHover</title><g id="Layer_2" data-name="Layer 2"><g id="Layer_4" data-name="Layer 4"><path class="cls-1" d="M907,0c-1.32-.21-.72.41,2.85,1.25q1.36,0,2.75-.09Z"/><path class="cls-1" d="M930.41,8.1c4.3.69,9.45.83,7.08-1a28.46,28.46,0,0,1-5-.23,41.24,41.24,0,0,0-5.21-.29c-3.57-.88-6.09-2-5.39-2.21-1.32-.1-5.47-1.63-7.53-1.62A70.72,70.72,0,0,0,930.9,7.42C932.13,8,930.77,8,930.41,8.1Z"/><path class="cls-1" d="M1262.8,138.76l-1.61-1.73A5.67,5.67,0,0,0,1262.8,138.76Z"/><path class="cls-1" d="M1286.41,303.35c1-1.2,1-2.14.58-2.64C1286.29,302,1285.74,303.16,1286.41,303.35Z"/><path class="cls-1" d="M1254.6,318.43c.74-.2,1.31-.45,2-.67C1255.55,317.62,1254.71,317.73,1254.6,318.43Z"/><path class="cls-1" d="M1262.8,138.76c1.37,1.49,2.7,3,4,4.54C1268.13,141.87,1265,140.53,1262.8,138.76Z"/><path class="cls-1" d="M979.37,17.21a18.82,18.82,0,0,0-3.29-.28c1,.17,2,.34,3,.54A1.7,1.7,0,0,1,979.37,17.21Z"/><path class="cls-1" d="M1173.64,101l-1.65-.7a11.91,11.91,0,0,0-2.11,1.26Z"/><path class="cls-1" d="M1104.15,73.36c1.53.76,3.24-2.32,4.37-3.54a5.17,5.17,0,0,1-4.26,1A4.83,4.83,0,0,0,1104.15,73.36Z"/><path class="cls-1" d="M993.34,29.26l-2.09-.39C991.79,29,992.7,29.17,993.34,29.26Z"/><path class="cls-1" d="M1221.82,124a4,4,0,0,0-.08,1.8A2.78,2.78,0,0,0,1221.82,124Z"/><path class="cls-1" d="M438.5,1.45c0,.15,0,.24,0,.37C439,1.59,439.08,1.44,438.5,1.45Z"/><path class="cls-1" d="M526.38,3.5l-1.2.14c-.12.12-.24.25-.23.36Z"/><path class="cls-1" d="M1194.64,336.53a1.79,1.79,0,0,0,.3,0C1196.33,335.4,1195.46,335.8,1194.64,336.53Z"/><path class="cls-1" d="M569.14,380.37c3.49,1.26.5,1.75-2,2.25s-4.63,1,.67,2.61c-.46-.49,2.09-1.19,3.65-2.05S573.55,381.32,569.14,380.37Z"/><path class="cls-1" d="M981.19,17.92c1,.23,2,.48,3,.75A22.61,22.61,0,0,0,981.19,17.92Z"/><path class="cls-1" d="M567.76,385.24v0l1.1.31Z"/><path class="cls-1" d="M1042.63,366.63a6.67,6.67,0,0,0,1.86,2.25C1044.37,368.31,1043.94,367.66,1042.63,366.63Z"/><path class="cls-1" d="M1160.06,357.51l-3-.23A7.89,7.89,0,0,0,1160.06,357.51Z"/><path class="cls-1" d="M982.31,380.82c-1.62-.26-2.21-.95-4.32,0a2.89,2.89,0,0,0,.71.59C979.43,380.58,980.44,380.13,982.31,380.82Z"/><path class="cls-1" d="M918.47,385.61a11.34,11.34,0,0,0,1.23.95l2-.41Z"/><path class="cls-1" d="M242,27.63A12.55,12.55,0,0,1,246,30.5C244.2,27.9,253.35,24.6,242,27.63Z"/><path class="cls-1" d="M979.11,18.18a2.73,2.73,0,0,1,2.08-.26c-.72-.17-1.42-.31-2.11-.44C978.82,17.68,978.71,17.91,979.11,18.18Z"/><path class="cls-1" d="M982.89,423.21l-10.41-.15A62.67,62.67,0,0,0,982.89,423.21Z"/><path class="cls-1" d="M137.72,321.37l-2.44-.37A3.88,3.88,0,0,0,137.72,321.37Z"/><path class="cls-1" d="M941.79,425a15.17,15.17,0,0,0-6-3.35,4.55,4.55,0,0,0-1.13,1.38Z"/><path class="cls-1" d="M246,30.54a.06.06,0,0,1,0,0A.06.06,0,0,0,246,30.54Z"/><path class="cls-1" d="M311.52,8.76C301.62,10,307.78,14,306.22,17c-11.37,3.33-6.1-2.58-10.59-4.39-7.09,2.39-11.68,8-17.13,8.83-.59-.75-1.71-.83-.71-2.1-3.39,2.75-9.06,4-14.86,5.38s-11.71,3.11-15.42,6.86a3.29,3.29,0,0,1-1.51-1,12.2,12.2,0,0,1,3.29,6.86c-4.25,1.2-7,5.44-9.55,2.39,2.64-.59,2.47-2,3.4-3.44L239.07,39c-5.46-4,5.64-3.31,4.64-7-2.09,1-4.23,2.09-6.37,3.28L231,39c-4.15,2.32-8.14,4.18-11.67,4.5-1.48-2.27,2.28-3.93,5.16-5.07s4.84-2-.32-3l11-1c-10.22-5.6,6.53-1.15-3.21-7.48-14.34,2.18-14.76,6.6-28.95,9.24-2.13,3.78,2.4,3.84.29,7.63-4.37,2.83-7.76,3.71-10.59,3.73a16.8,16.8,0,0,1-7.24-1.91c-4.24-1.91-7.91-4-13.63,2.12-1.15,2.4-1.42,5.36-2.8,7.77s-3.85,4.29-9.48,4.56l.91-7.24c-6.61,2.31-7.56,5.16-8.73,7.64s-2.52,4.65-10.09,5.57c1.3-3.35,9.15-6.31,6.9-6.17-10.79-.87-4.66,5.95-11.22,8.95l-3.84-4.58c-3.28,1.78-6.56,3.78-9.85,5.92s-6.49,4.58-9.76,7L111.43,79,109,80.83q-2.44,1.87-4.92,3.7c-1.65,1.22-3.32,2.41-5,3.6s-3.34,2.41-5,3.56c-.13-2,1.4-5-2.89-4.64-2.07,1.63-4.24,3.18-6.46,4.69s-4.45,3.07-6.77,4.52-4.67,2.81-7.14,4.24l-7.55,4.4c-10.1,5.87-20.3,11.92-29.54,18.48-.4,1.6-.76,3.25-1.11,4.86s-.67,3.24-1,4.87c-1.35,1.39-4.24,1.1-3.56-1.17-3.67,2.62-3.09,3.29-1.77,3.81s3.38,1,2.83,3.22c-2.81,3.93-6.49,3.12-5.73-.35-3.22,7.43-7.65,17.84-11.46,28.63-1.9,5.41-3.66,10.92-5.29,16.18s-3.16,10.28-4.85,14.7q-.62-1.82-1.22-3.71A17.53,17.53,0,0,0,0,199.26a16.15,16.15,0,0,0,.74,4,17.18,17.18,0,0,0,1.56,3.3A30,30,0,0,0,4.2,209.4a26,26,0,0,1,3.37,5.48,12,12,0,0,1,.79,3.34,16.33,16.33,0,0,1-.08,4.29l-1.43-2.12a61.78,61.78,0,0,0,7.53,21.05,90.43,90.43,0,0,0,13,17.12c4.68,5,9.44,9.36,13.79,13.53a119.1,119.1,0,0,1,11.62,12.14c3.46-1.84,8.45,2,13.54,5.15a26.23,26.23,0,0,0,7.27,3.49c2.23.54,4.17.27,5.57-1.54,5.15,5.13,6.81,7.4,9.15,9.89s5.42,5.21,14.07,10.07c2.38,1.15,4.75.69,7.29.16s5.3-1.23,8.47-.46l-1.49,3.95,9.9-1q1.27,3.06,2.6,6.06l6.14,1c-2.21-1-4.21-3.34-3.43-4.31a28.62,28.62,0,0,1,7.26,2.21,48.63,48.63,0,0,1,6.69,3.45c4,2.46,6.78,5,6.58,5.89,7.55,1,15,2.13,22.46,3-.9,1.21-4.65.73-7.79.86,12.61-.44,1,4.06,12.54,3.65-1.19-1.11,1.36-1.75,1.79-2.34,2.32,1.65,6.5,3.17,11.22,4.46a116.46,116.46,0,0,0,14.55,2.84l-2.26,1.69c4,1,8.12,1.88,12.36,2.66s8.57,1.55,13,2.21c8.8,1.41,17.84,2.75,26.85,4.4-3.15-1-4.17-2.18-3.75-3s2.29-1.34,5-1l1.53,3c3.75-1-5.28-2,2.13-2.67,6.63,1.61,3.88,3.75-.17,3.92l8.37.6c.32.83-1.68.9-2.39,1.77,1.85-.48,5.24.75,8.87,1.86s7.47,2.08,10.15,1.2l.32.78c9,1.52,15.59,2.37,21.76,3.14s11.91,1.53,19.24,2.69c.63-1.78,6.27-.39,10.89-1.05,10.6,2.58,22.34,5.7,35.32,7.73,9.25.67,2.9-1,7.17-1.3.41,1.63,13.37,3.7,6.47,3.65,15.57,2.46,19.94,2.91,39.81,4.81-2-1-4.4-1.61-3.08-1.94,3.61.31,8,1.92,7.4,2.58h-1A119.29,119.29,0,0,1,448.73,381c3,.65,6.09,1.25,9.14,1.95L467,385c12.07,2.83,23.59,5.67,32.64,5.24l-1,0,4.63.23,4.64.14,9.28.26c8.39,1.44-5.22.67.89,2.64a126.48,126.48,0,0,1,25.2,2.33c3.67.65,7.23,1.31,10.9,1.85a79.82,79.82,0,0,0,11.61.68c6,3.88,17.22,5.39,29,6.54,11.79,1.35,24.21,1.74,32.56,5.26l-.85-1.91c4.55-1.23,5.27,1.67,8.49,2.51-.36-1.49-4.67-2.22-1.85-2.89q7,.4,14.18,1.11c4.75.44,9.53,1.09,14.33,1.6,9.61,1.1,19.29,2.55,29,4.2s19.46,3.59,29.21,5.15,19.47,3.34,29.14,4.72c7.07,1,9.16-2.22,11.69-4.72s5.49-4.46,14.34-.89l-5.15,4.71c14.35-2.23,28.94-1.51,43.48-.7,14.54.48,29,1.11,43-1.59-1.65,1.28-1.66,3-4.4,2.91,3,2.09,8.48,2.24,13.21,1.43s8.7-2.81,8.71-4.52c4.37.33,1.09,3.08,3.83,4.79,3,1.21,6.7-.16,10-1.34s6.34-2.17,8-.06c.56.68-1.62,1.41-2.7,1.75,3.8-2.12,18.08.3,14.17-4.63,10.63,2.32,20-2.84,28.54-.16,5.14-5.94,18.17,2,19.41-6.17-.11,4.23,4.6,5.75,10.15,5.68a34,34,0,0,0,4.25-.33,37.21,37.21,0,0,0,4.18-.93,22.84,22.84,0,0,0,6.64-2.9c-2,2.74,6,2.32,3.64,6.09,7.59-.58,14.42-2.62,12.73-7,7.41,4.75,14.28,2.23,20.37.07,1.52-.54,3-1.05,4.43-1.42a14.53,14.53,0,0,1,4.14-.63c2.67,0,5.15,1.18,7.45,4.43,11-3.36,21.63-6.39,32-9.07l7.7-1.95,7.6-2q7.56-2,15-3.67c.46,9.29-22.13,3.57-20.12,13,18.76-5.92,28.68-15.2,47.91-15.29,5.09.68-2.2,4.39-3.64,6.17,9.29-3,18.55-4.17,27.64-5.49s18-3,26.08-7.25c.13.88-1.54,2.22-3.17,3.28,3.35-1,8.25-.2,7-4.4l-3.08,1.83c-3.35-2.57-.62-6.47,2.81-10.2,1.72-1.88,3.63-3.71,5.08-5.28s2.46-2.93,2.42-3.78c-1.36,6.78,3,6.59,7,6.83s7.91.89,5.31,9.77c2.06-1.38,4.34-4.11,3.05-6.82,3.52-.09,5.07,1.26,2.56,5.43a24.74,24.74,0,0,0,6-3.87,19.3,19.3,0,0,0,2.67-3.22c1.39-1.94,2.71-3.5,8.15-5.26.64,2-1.3,3.54-1.67,6.3a52.24,52.24,0,0,1,7-8.18,22.07,22.07,0,0,1,4.72-3.15,23.24,23.24,0,0,1,6.28-2.09c-.06,1.41,1.62,2.55-1.11,3.58,7.71-3.41,13.24-8.87,18.75-14.15a82.49,82.49,0,0,1,8.77-7.46,45.69,45.69,0,0,1,11.11-6c.22,5.36,1.92,5.17,4.29,4.36s5.25-2.31,8,.69c1.18-1.33,2.37-2.61,3.51-4l3.38-4.07q-2.82-.28-5.58-.62a26.07,26.07,0,0,0,4.64-4.52c1.31-1.71,2.48-3.49,3.65-5.18a47,47,0,0,1,3.61-4.75,15.27,15.27,0,0,1,4.58-3.41l-.61,1.74-.66,1.7-1.35,3.42,2.84-3.07c.95-1,1.82-2.12,2.73-3.17l2.7-3.19c.89-1.06,1.72-2.2,2.58-3.29-2.82,1.66-5.77,3.1-8.66,4.53,1.72-4.56-.25-6.12-1.38-7.42s-1.45-2.19,3.11-5.5c-.49,1.09,1-.38,3.31-2.24a26.64,26.64,0,0,1,4-2.81,16.1,16.1,0,0,1,2.31-1.06,9.18,9.18,0,0,1,2.35-.6s0,0,0,0a36.58,36.58,0,0,1,1.41-7.26,13.42,13.42,0,0,1,1.66-3.45,17.73,17.73,0,0,1,3-3.24c1.47,0,3.12,1.41,4.63,2.87s2.88,3,3.87,2.92c-1.59-3.66.79-8.22,2.77-13.19s3.8-10.2,1.62-14c.82,2.25,4.48,4,5.47,3.73q-1.71-2.74-3.47-5.34c3-3.17,3.93-3.52,6.72-1.8,2.45-5.89-.21-5.64-2.33-5.6-1.07,0-2,0-2.17-.8s.45-2.35,2.37-5.58c.12,1.21,1,.89,1.13,3.41,3.08-6.81,3.6-14.22,3.42-21.28s-1-13.87-.68-20.86c1.69-1.26,2.76-1.18,3.51-.35a8.91,8.91,0,0,1,1.41,3.88c.35,1.53.49,3,1,3.85s1.37.95,2.87-.39a61.85,61.85,0,0,0-4.22-15.93,96.23,96.23,0,0,0-7.51-14.53c-5.78-9.09-12.22-16.79-17.49-24.61.53,1.08,1.06,2.14,1.53,3.25-2.41,1-3.86.63-4.89-.51a7.5,7.5,0,0,1-1.26-2.27c-.37-.9-.7-1.94-1-3.06-1.35-4.41-3.26-10-8.33-11.46,2.15,1,6-1.89,4.79-1.53-4.2-5-9.74-8.85-16.3-12.23s-14.18-6.35-22.89-9.78l3.23-.89c-5.12-5.62-16.05-10.39-22.56-14.67-3.13,1.07-6.92-1.14-6,3a32,32,0,0,0-6.44-6.84,37.44,37.44,0,0,0-7.33-4.44,77.09,77.09,0,0,0-15.91-5,105.53,105.53,0,0,1-15.61-4.28,34.56,34.56,0,0,1-13.34-8.72c2.31.9,6.22.49,4.38-.25l-8.61-2.36-4.3-1.19L1180.09,82c0,3.7,1.4,2.72,3.81,6.61-2.85,1.06-8.07.72-12.11-.9,8.2.81,2-5.12-.54-8.06.16,1.17-1.36,1.8-1.48,2.88-3.2-4.44-4.19-3-5.64-1.51s-3.36,3-8.52-1l1.24-1.37c-4.73-.82-9.56-.28-14.12-2.53-.68-4.16,5.28.16,6.67-2.57-6.79-2.24-15.59,1.57-20.41-4,3.18.1,7.28,1.55,10.48,1.63-5.15-6.29-6.32-5.52-11-7.85l.45.25c-3.6-1.88-7.2-3.79-10.84-5.57l2.56,2c-5.75,2.79-10.14,1.64-14.81.08-2.33-.79-4.72-1.69-7.36-2.31a27.72,27.72,0,0,0-8.79-.63c6.34-.52,7.06-1.11,6.41-1.89s-2.63-1.8-1.63-3.34c-2.6-1.86-6.72-4.25-5.14-4.78-3.17.5-5.26-.73-7.69-1.86a15.19,15.19,0,0,0-9.67-1.46c0-1.1-5.79-1.84-3.75-3.93-7.36-1.29,1.12,2.18.11,3.26-6,0-12-3-18.83-5.75s-14.23-5.55-22.72-5.79c-14.06-2.28-17.34-.47-30.17-3.16-1.94-1.2-.89-1.54.65-1.62a30.11,30.11,0,0,1,3.58.13c-6.52-3-11.76-4.19-18.42-5.33,1.47-.17.26-1-1.51-2.22-5.25-1.23-4.11,1.18-10.69-1.57a23.52,23.52,0,0,1,5.87-.88c-6.31-1-12.67-1.63-19.12-3-1.43-1.28,4.21-.26,6.63-.28-7.28-1.42-18.77-3.94-21.29-3.45l4.44,1.67c-2.6-.67-1-1.35.94-1.08,6.41.62,8.69,2.76,8.88,3.37l-4.59-1c1.91,2,6.42,3.28,11.63,4.27s11.1,1.66,15.6,3q-2.27.74-4.52,1.4,4.92.39,9.89.61c1.77,1.25,2.64,3.21-1.92,2.23a14.44,14.44,0,0,0,5.89,2.05,10.22,10.22,0,0,1,5.17,2c.53.44.22.49-.38.43l6.54,1.13c-1.42.23.39,2.46-3.32.76a46.11,46.11,0,0,0,13.86,4.32c3.82.67,6.74,1.09,8.46,3.07l-1-.11c7.95,2,8.54,1.49,8.7.58s-.1-2.17,6.28-1.93c2,3,3.87,6.07,5.75,9.23l2.41-2.24c1.57.63,4.68,1.9,3.73,2.84,6.6.05-.62-1.57,3.44-2.26,3.46,2.55,8.87,4,13.46,5.52s8.36,3,8.38,5.76c3.57-1.46-6.76-4.33,2-3.22.27,3.1,2.72,3.68,5.88,4.12s7.05.64,10.11,3.18c-3.17,2.21-9.24-1.78-3.15,3.39,3-1.72,6.28-.25,9.61,1.86s6.64,4.92,9.74,5.52c.88-2.05,4.23-1.32,8.66.21s9.88,4,15.07,5.06c-.59.64,3.8,3,9.38,5.92s12.28,6.47,16.45,9.18l-.58.7c3.65-4.19,12.6.6,19.79,2.36-1.48,2.91-3.18,3.59-7.36,3.38l6.33,2.67c2.14-1,4.49-1,8.81.17l-3.15,3.13c4.21,1.76,8.88,2.49,13.73,3.68a35.6,35.6,0,0,1,14.61,6.68c1.12-1.74.12-5.31.38-8.1s1.79-4.82,8.12-3.59c-.46,2.21-1.58,5.89-4.93,5.39,1.09.17,4.24-.14,5.83,1.6l-6.06,1.39c4.23,3.71,3.82-1.71,7.61.36-1.38,2.89,2,3.39.37,5.46-1.12-.17-2.87-2.75-4.87-2.29a31.62,31.62,0,0,1,6,4.68,12.47,12.47,0,0,1,3.37,5.16c.39-1.87,1.81-4,5.18-2.85,8.36,3.71,1.17,4.93,5.24,8.79,1.47-.56,3.29.33,5,.81s3.27.56,4.42-1.67c2.35,1.21,1.74,3.55,2,5.23,2.54.07,7.4,2.42,11.27,4s6.9,2.16,6-1.54l-.87-.9c.25,0,.48.14.77.18l0,0,0,0c7.91,1.5,14.44,6.33,20.25,11.75,2.91,2.71,5.64,5.58,8.4,8.25a60.79,60.79,0,0,0,8.61,7.24l-1.25,1.34c3.88,2.16,7.49,5.39,10.84,8.41s6.43,5.89,9.91,7.31a5.69,5.69,0,0,1,.45,4.35c-.43,1.51-1.37,2.74-2.6,2.88,1.11,1.16,2.09,2,2.89,2.83a14.67,14.67,0,0,1,2.17,2.41c1.19,1.76,2.13,4.19,2.12,9-2.63-2.34-3.11-1.52-3.28-1.21s.07.21-1.3-3.73c.78,4,.46,6.56.81,8.93a8.32,8.32,0,0,0,.46,1.76,10.64,10.64,0,0,0,.85,1.83,29,29,0,0,0,3.56,4.5c-2.74-.93-3.95.81-4.47,3a12.08,12.08,0,0,0,.52,6.72c.57-.87,1.17-1.78,1.71-2.69s1-1.85,1.57-2.81c1.17,4,.71,7.72.09,11.37-2.2-.76-4.35-1.47-6.57-2.1a17.3,17.3,0,0,0-2.63,10.19c.13,3.38.81,6.92,1.24,10.47a21.17,21.17,0,0,1-.74,10.07c-1.23,3-3.66,5.44-8.19,6.53,1.21,3,2.92,1.44,4.81-.2s3.79-3.41,5.52-.46a14.13,14.13,0,0,1-4.4,4.32,34.52,34.52,0,0,1-5.81,2.87c-1.88.78-3.77,1.3-5.2,1.78s-2.44.89-2.75,1.37a11.22,11.22,0,0,0-2.42,2.32,5.66,5.66,0,0,0-1,2.4,16.42,16.42,0,0,0,.37,5.15,15.78,15.78,0,0,1,.3,5.5,8.76,8.76,0,0,1-3.78,5.31,8.49,8.49,0,0,1,4.95,3.18c1.38,1.94,1.81,4.79-.44,8.9a8.64,8.64,0,0,1-5.06,2.12,7.82,7.82,0,0,1-4.45-1c-2.51-1.44-3.91-4.14-2.85-6.56,1.2-1.44,2.42-1.5,3-.85,1.14-2.46,2.56-5.56-1.5-5.23l1.13,2.46a17,17,0,0,0-3.8,1.63c-1.36.74-2.72,1.62-4,2.27-2.63,1.29-4.75,1.87-5.21-.49-1.31,2.78-1.16,3.95-.08,4.23s3-.42,5.06-1.36a36.4,36.4,0,0,0-6.17,3.18c-1.76,1.11-3.2,2.41-4.76,3.59s-3,2.5-4.81,3.65a29.49,29.49,0,0,1-6.28,3.12c2.16.33,5.06,1.88,3.69,2.81-3.68,1.4-5.66,2.6-6.8,3.65a3.86,3.86,0,0,0-1.39,3.05,11.16,11.16,0,0,1-.21,3.29,5.69,5.69,0,0,1-1,1.93,12.21,12.21,0,0,1-2.47,2.14c-3.62-.25-4.2-2.57-4.91-3.81-.35-.62-.73-1-1.49-.68s-2,1.16-4,3.07c-3.46.27-4.5-1.2-4.49-3a16.08,16.08,0,0,1,1.6-5.48,12.83,12.83,0,0,1-2.49,2.65,13.21,13.21,0,0,1-2.87,1.62,15.58,15.58,0,0,1-3,.89,23.23,23.23,0,0,1-3.15.27c-4.15.14-8.12-.82-10.73-.27l3.78-3.68a16.38,16.38,0,0,1-6.78,3.83c1.45,1.28,2.94,2.57,4.42,3.83-3.06.16-5.39,1-6-1-.85,2.08.37,3.9,1.32,6a6.78,6.78,0,0,1-.61,7.59c-2.34-.59-5,1.07-7.66,2s-5,1.36-6.66-1.72c6.44-.69,5.58-2.27,4.4-4.11s-2.68-4,2.14-6.13c-1.67,1.39-4.06,2.07-7.13,2.09-.64-.6,0-1.46.66-2.07-6.5-1.25-7.25,1-8,3.88s-1.28,6.62-7.47,8.05c.65-4.09-4.49-6.29-6.3-5,4.91-1.12,3.85,5.63-.17,9.51-4.32-.51-6.4.46-7.95,1.68s-2.55,2.66-4.73,2.9q2.58.21,5.15.36c-.9,4.07-5.12,4.4-10.68,6.65-1-2.78,4.87-3,2.58-3.86-2.59,3.86-6.54,2.86-10.81,1.59s-8.88-2.75-13,.18c-4.56-1.83-1.48-6.87-5.38-8-9.37,6.42-11.66-3.3-21.75,2.18,3.75,4.47,4.15,3.2-2.74,9.05,5.71-2,11.43-3.94,17.11-6-3.4,3-6.84,5.86-10.28,8.78,5.35-.66,10.8-4.65,14.09-4.34-4.78,4.87-4.42,3.54-1.27,7.26-8.34-6.33-13.89,6.3-23,2.48l-1.37-12.16c-6.67-1.78-12,.6-17.9,3.31s-12.15,5.82-20.57,5.22l5.53,1.44c-1.66,5-10.11,1.84-15.24,4.36.06-4-3.43-5-6-7.21.58,2.87-12.05,1.2-12.77,9.15l-7.86-4.24c-6.74-.19-10.29,2.84-13.79,6s-6.94,6.4-13.44,6.32c3.53-4.48-2.53-6.63,5.81-10.4-4.28.37-8.19,0-8,2.67-2.68-2.12-11.48,6.19-15.7,3-1.68,1.82-2,5.79-6.84,5.9a2,2,0,0,1-.11-1.84c.12,1.85-7.38,3.16-2.88,6.92-7-5.34-16.28-4.53-25.32-3.53s-17.86,2.15-23.86-2.27l-3.58.69-3.71.6c-2.5.39-5.06.76-7.59,1.11-5.06.69-10,1.25-14.28,1.56.51-1.07,0-1.75,1.59-1.45-11.87-2.71-6.93,10.33-20.48,7.24-7-5.27,7.05-3.31,2.72-5.24-1.08-5.64-5.1-5-10-3.83s-10.73,2.77-15.28-.32l2.17-.72c-3.47-1.77-7.65-.57-12.38,1s-10,3.44-15.66,3.21c0,0,.54-1,.06-1.61-7.68,5.8-22.32,7.44-33.22,8.85,3.42-3.94,5-2.1,2.93-6.11-4.87.59,1.37,6.48-8.38,7.55-3.14-2.16-10.13-4-11-8.12l9.16-.32c-4.61-5.36-11.85.33-16.67-.55l.66-2.32a43.45,43.45,0,0,0-4.68.58,35.65,35.65,0,0,0-3.73.81c-2.24.62-4.07,1.37-5.94,2.08-3.73,1.42-7.59,2.63-15.14,2.32l1.51,1.67c-4.22,2.62-5.93,1.8-7.63.85s-3.38-2-7.58-.19l-2.29-5.3c-2.75.6-7.57,1.87-12.93,2.9a126.87,126.87,0,0,1-16.18,2.13c2.86-1.68,7.17-2.9,11.66-4l6.71-1.54c2.18-.54,4.24-1.08,6-1.65-5.4,0-18.34.09-21.28,2.43,2.2-.4,5-1.55,7.11-.72-6.8,3.75-15.63,5.18-26.39,4.63,1.21-4.46-5.76-5.23-14-5.75s-17.63-1.2-21.3-4.42C621.53,386.72,603.13,382,581,381c7.36,5.62-6.48-.27-5.62,5-5.19-.08-7.15-.33-7.58-.69l-7.66-2.09-3.83-1-3.82-1.07c-3.55-1.72,5-.59,4.65-1.75-11.23-1.29-4.51-2.42-11.83-4.24,1.35,1.79-4.18,2.06-10.53.88l8.81,2.89c-8,.52-11.3-.79-14.61-2s-6.64-2.43-14.7-2l5.18-.9c-2.06,0-5-.14-8.3-.35l-5.27-.34-5.58-.43c-7.51-.52-15-.78-19.23.31-1.38-.63-3.13-1.92.48-1.79-4.84-.68-10-1.15-15.21-1.53s-10.55-.61-15.71-1.07c-10.32-.85-20.08-1.89-27.45-3.91l1.61-.67c-3.65-.27-6.54.72-10.92-.86.29-.33,1.59-.67-.07-1-1,0-3.44,0-6.24-.1a36.88,36.88,0,0,1-8.28-1.12c1.41-.1,2.82-.18,4.23-.3-18.59-4.41-29.23-2.63-45.11-4.81.26-1.35-3.26-2.89-7.75-4.4s-9.91-3.06-13.53-4.06l.33-.34c-21.62-5-37.34-5.48-57.63-8.86-11.64-6.54-41.54-12-60.27-20.67,2.77,1.66-1.34,3.11-4.91,2.48-4.3-2.33-13.45-.92-11.59-4.74l1.6.6c-1.17-2.5-4.1-4.37-7.64-5.89s-7.72-2.7-11.24-4.13l-2.94,5.24a40.9,40.9,0,0,0-6.81-5,67.63,67.63,0,0,0-7.85-4c-5.52-2.35-11.37-4.36-17-6.14-2.84-.86-5.56-1.82-8.16-2.75s-5-1.89-7.22-2.92c-4.34-2.15-7.64-4.67-9.12-8a24.8,24.8,0,0,1-3.79-.62c-1.26-.33-2.53-.72-3.81-1.11a36.06,36.06,0,0,0-7.6-1.75l2-3.59c-2.81-1.7-5.16-3.36-7.44-4.81s-4.42-2.82-6.68-4.16S94.71,263.51,92,262c-1.33-.75-2.75-1.52-4.28-2.33L83,257.1,87.22,256a8.07,8.07,0,0,0-5.53-1.32,27.21,27.21,0,0,0-5.83,1.52c-3.93,1.35-8,2.75-11.39.47q1-3.54,2.08-7a43.65,43.65,0,0,1-4.07-3.57c-1.24-1.28-2.44-2.6-3.55-3.95l-1.59-2.06-.78-1-.71-1L54.43,236c-.47-.68-.86-1.37-1.31-2-1.81-2.66-3.27-5.24-5.1-7.5-.42-.58-.84-1.14-1.32-1.69s-1-1.06-1.48-1.6A39,39,0,0,0,41.84,220a8.28,8.28,0,0,1,2.07-.26,2.42,2.42,0,0,1,2,1,7.68,7.68,0,0,1-.35-1l-.24-1.21a19.5,19.5,0,0,1-.42-2.77l-.61-5.91c-.05-.46-.16-.91-.24-1.33a7.35,7.35,0,0,0-.29-1.22,6.25,6.25,0,0,0-1.09-2,4.12,4.12,0,0,0-2-1.21,7,7,0,0,0-3.19,0,2.86,2.86,0,0,0,3-1.89,7.38,7.38,0,0,0,.31-2c0-.39,0-.8-.06-1.23s0-.89-.09-1.36c-.13-.95-.23-2-.36-3.05s-.25-2.21-.4-3.35-.18-2.29-.29-3.4-.07-2.18-.1-3.15q2.11,1.46,4.26,2.84c-1-1.87-1.72-3.42-2.3-4.78A15.9,15.9,0,0,1,40.21,179,12.14,12.14,0,0,1,40,177.1a14.51,14.51,0,0,1,.19-2.06,25.55,25.55,0,0,1,1.62-5.46c1.8-1.52,4.41.58,1.78,2.3a6.75,6.75,0,0,0,2.57-3.19,8.17,8.17,0,0,0,.31-3,7,7,0,0,1,.59-3.24,9.57,9.57,0,0,1,3.55-3.78q.16,2.36.37,4.65c2.51-2.84,3.43-4.36,3.67-5.95s-.14-3.15,0-6.05c1-2.51,3.92-5.07,7.14-6.51s6.6-1.86,8.52-.53c-1-2.74,0-8.5,4.58-10.42,1.54.95.84,2.85.49,3.79,6.24-2.79,9.37-6.8,12.41-10.35s6.07-6.66,11.34-7.19a3.56,3.56,0,0,0,2.89,1.63c-4.63,2.92-8.88,5.52-11.83,7.29s-4.49,2.75-4.27,2.38c1.31,1.87,3.79,1.76,5.69,2.36s3.18,1.86,2.31,6.28a97.94,97.94,0,0,1,7.27-12.52,32.14,32.14,0,0,1,5.12-5.93,16.76,16.76,0,0,1,6-3.61,5.11,5.11,0,0,1,1.75.75l-.5.9a8.86,8.86,0,0,0,4.29-3.41,27.28,27.28,0,0,0,6.83-2.34c1.34,1.38,3.73.53,6.32-.83s5.38-3.27,7.34-4.23c-2.54-4.13,2.93-6.17-3.67-7.17.78,0-.48.91-3,2.48a6.48,6.48,0,0,0-1.43,1.33,4.83,4.83,0,0,1,.07-.52l-4.3,2.52-5.17,3.1a17,17,0,0,1,3.42-5.24,8.5,8.5,0,0,1,6.27-2.22,85.67,85.67,0,0,1,2-9.86,24.3,24.3,0,0,0,3.33.94c1.16.27,2.35.47,3.54.63,2.39.32,4.79.48,7,.63s4.29.28,6,.57a7.73,7.73,0,0,1,3.85,1.53c11-8.41,28.16-14.65,33.14-25.83,3.27-2.41,5.05.7,6.86,1.44-1.8,1.6-4.33,2.44-5,4,3.23-2.4,8.5-4.71,13-7.08s8.17-4.85,8.14-7.91c10.14-.7-3.57,6.78,8.93,1.59L220,66.09a36.8,36.8,0,0,0,9.59-1.15,43,43,0,0,0,8.33-3,149.58,149.58,0,0,0,15-8.75,76.28,76.28,0,0,1,16-8,48.13,48.13,0,0,1,20.22-2c-2.13-.14-3.2-.19-3.79-.92C302.22,40.52,319,35.73,336,31.82s34.13-7,51-7c9.53-.51,10.25-3,15.81-5.43l2.38,2.46c3.15-1.57,6.31-3.09,9.48-4.52,6.88-2,13.13-1.19,19.77-.89a71.2,71.2,0,0,0,10.44-.17,58.43,58.43,0,0,0,12-2.54l-2.42-1c3.2-.26,8.24-1.07,12.36-1.59s7.33-.77,6.85-.07a6.85,6.85,0,0,1,4.54-1.13l.27.81C483.61,9.54,488.8,8.51,494,7.55c6.11-.43,5.68.22,6,.77s1.24,1,10.09-.37c3.28-.63,7.94-1.66,11.47-2.44s5.94-1.31,4.69-1.27c-2.66.31-6.83.56-7.06.16l6-.76c.51-.54,1.91-1.1,1.32-1.5s-3.19-.74-10.71-1.2c-3.46.26-6.91.59-10.35,1q-1.71-.35-3.43-.75l8.77-.12a33.8,33.8,0,0,0-11.63.51,12.89,12.89,0,0,0-4.46-1C491.32,1.26,488,2,484.63,2.86c-1.32-.88,4.44-1.8-2.48-2.22-2.35.55-1.16,1.06-.36,1.5S483,3,479.06,3.5c-5.08-.89-3.72-2-9.47-.73-.89-.66.31-1.14,2.61-1.49-5.14.93-13.77.72-16.3,2.43-2.68-.75-7.07-.44-10.76-.31s-6.68.07-6.59-1.58a57.28,57.28,0,0,1-13.67,3.55c4.14-2.37-.35-2.2-5.65-2s-11.42.38-10.56-2.19c-6,4.6-23.24,3.31-34.36,7.07.59-.45,1.74-1.36,2.79-1.2-6.51.21-8.61-1.14-12.92-1.74-.23,4.26-10.13,6.33-15.08,9.8-4.27-1.61-3.3-3.12-1.62-4.62s4-3,2.48-5c.95,3.49-13.21,5.18-10,7.95-6.5-2-5.42-.62-9.21-4.1,0,3-1.39,3.43-3.3,3.66s-4.37.21-6.53,2.43c-9.28-1.63-3.31-5.35-12.59-2.07-2.48-.61-1.69-1.79-.26-2.79A20.72,20.72,0,0,1,311.52,8.76ZM94.86,93.12,94.81,93l4-2.67C98,90.93,96.85,91.72,94.86,93.12ZM78.09,103.41c2.14-1.11,4.68-2.66,7.34-4.36,1.49,1.09,1.78,3,.08,4C85.8,101.46,81.37,103.07,78.09,103.41ZM130,112.3c-2.21,2-3.5,1.69-4.33,1,1.16-.74,2.45-1.73,4.17-3,0-.2,0-.47,0-.69A6.63,6.63,0,0,1,130,112.3Z"/><path class="cls-1" d="M131.64,104.18a5.43,5.43,0,0,1,.91-.89,13.87,13.87,0,0,0-2.06-.14c-.08.62-.17,1.25-.22,1.84Z"/><path class="cls-1" d="M1260.9,136.74l.29.29a2.32,2.32,0,0,1-.38-1A3.46,3.46,0,0,1,1260.9,136.74Z"/><polygon class="cls-1" points="116.28 315.86 116.63 314.95 114.68 315.14 116.28 315.86"/><path class="cls-1" d="M1171.25,79.65a2.5,2.5,0,0,0-.92-1.46C1170.29,78.46,1170.71,79,1171.25,79.65Z"/><path class="cls-1" d="M1128.45,63.36,1122.76,60A51.64,51.64,0,0,0,1128.45,63.36Z"/><path class="cls-1" d="M1095.57,50.78a3.89,3.89,0,0,0-1.12,1.13l.06,0Z"/><path class="cls-1" d="M1170.13,396.34a5.17,5.17,0,0,0-1.33.52C1165.77,398.6,1167.9,397.75,1170.13,396.34Z"/><path class="cls-1" d="M1316.28,303.84a25.07,25.07,0,0,1-1.43,6.18,9.16,9.16,0,0,0,2.61-3.07C1317.82,305.93,1317.58,304.92,1316.28,303.84Z"/><path class="cls-1" d="M984,423.23s0,0,0-.09c-.4,0-.75,0-1.16.07Z"/><path class="cls-1" d="M1309.3,316.16a11.17,11.17,0,0,0,3.58-2.71,12.71,12.71,0,0,0,2-3.43c-1,.87-2.09,1.78-3.07,2.8A11,11,0,0,0,1309.3,316.16Z"/><path class="cls-1" d="M949,9.53l-1.63-.45c0,.09-.11.13-.25.15Z"/><path class="cls-1" d="M947.15,9.24l-1.87-.3A6,6,0,0,0,947.15,9.24Z"/><path class="cls-1" d="M941.36,8.28l3.92.66A14.1,14.1,0,0,0,941.36,8.28Z"/><path class="cls-1" d="M993.85,21.68l.73-.56A1,1,0,0,0,993.85,21.68Z"/><path class="cls-1" d="M1007.56,25.1c-3.19-1.07-7.7-3.72-12.39-4.43l-.59.45c1.23-.24,3.62.82,6.12,1.94S1005.82,25.33,1007.56,25.1Z"/><path class="cls-1" d="M1060.27,53.53c-3.61-1.59-7.24-3.16-10.88-4.67,1.62,1.69,3.71,4-1.42,2.46C1060.95,59.43,1045.84,47.94,1060.27,53.53Z"/><path class="cls-1" d="M1094,67.65c-6.12-1.64-.54,1.79-1.1,2.37C1097.07,70.35,1098.09,70.39,1094,67.65Z"/><path class="cls-1" d="M1315,190.54l-4.53,2C1312.93,195.72,1312.13,191.65,1315,190.54Z"/><path class="cls-1" d="M1350.41,233.95c1.2-1.73,2.28-3.55,3.42-5.4q-2.35-1.4-4.72-2.69C1349.67,228.53,1350.06,231.22,1350.41,233.95Z"/><path class="cls-1" d="M1308.19,253.72l-.07-1.85-.31,3.37-.43,3.41C1307.66,257,1308,255.37,1308.19,253.72Z"/><path class="cls-1" d="M929.6,380.27l1.76,5.67C934.59,384.69,934.92,378.12,929.6,380.27Z"/><path class="cls-1" d="M739.09,391.1c-2-2.22-7.33-3.58-10.72-1.5C732.66,389.91,736.89,391.64,739.09,391.1Z"/><path class="cls-1" d="M175.29,303.61l3.92.17c-2.33-.5-4.65-1-7-1.6Z"/></g></g></svg>