<svg xmlns="http://www.w3.org/2000/svg" viewBox="0 0 1390.44 478.91"><defs><style>.cls-1{font-size:333px;font-family:IndieFlower, Indie Flower;}.cls-2{fill:#e68a5c;}</style></defs><title>zeltlagerHover</title><g id="Layer_2" data-name="Layer 2"><g id="Element_2" data-name="Element 2"><text class="cls-1" transform="translate(122 316.32)">Zeltlager</text></g><g id="Layer_3" data-name="Layer 3"><path class="cls-2" d="M0,173.94c0,1.49.49.71.82-3.43-.14-1-.34-2-.47-3.06C.2,169.62.13,171.79,0,173.94Z"/><path class="cls-2" d="M7.8,147.3c.57-2.38,1.36-4.89,1.55-6.61s-.08-2.57-1.26-1.35a47.74,47.74,0,0,1-1.25,5.52,46.17,46.17,0,0,0-1,5.79,36.86,36.86,0,0,1-1.7,4.79c-.52,1.1-.78,1.65-.9,1.25a35.73,35.73,0,0,1-.88,4L2,161.91c-.07.42-.12.84-.17,1.24a12.81,12.81,0,0,0-.11,2.11l.58-2c.18-.69.37-1.4.62-2.12.46-1.44.9-2.95,1.32-4.52,1-3.1,1.89-6.46,2.9-9.9C8,145.39,7.73,146.9,7.8,147.3Z"/><path class="cls-2" d="M369.79,24.57c-.86-.21-1.73-.39-2.59-.59A7.13,7.13,0,0,0,369.79,24.57Z"/><path class="cls-2" d="M616.45,39.51c-1.89,0-2.74.6-2.89,1.23C615.34,40.45,616.81,40.16,616.45,39.51Z"/><path class="cls-2" d="M657.76,51.49c-.88-.32-1.63-.49-2.43-.73C656.21,51.51,657.13,52,657.76,51.49Z"/><path class="cls-2" d="M369.79,24.57l6.66,1.74C376.85,24.39,373,24.94,369.79,24.57Z"/><path class="cls-2" d="M36.41,98.87a21.84,21.84,0,0,0-2.27,3c.76-.91,1.53-1.75,2.33-2.63A1.65,1.65,0,0,1,36.41,98.87Z"/><path class="cls-2" d="M261.93,36.92l-2,.26a12.06,12.06,0,0,0-1.35,2.18Z"/><path class="cls-2" d="M180.12,51.26c1.88-.21,1.7-3.74,2-5.38A5.74,5.74,0,0,1,178.71,49,4.57,4.57,0,0,0,180.12,51.26Z"/><path class="cls-2" d="M55.92,92.7l-1.76,1.56C54.61,93.85,55.4,93.2,55.92,92.7Z"/><path class="cls-2" d="M321.25,32.47a3.79,3.79,0,0,0,.89,1.6A2.62,2.62,0,0,0,321.25,32.47Z"/><path class="cls-2" d="M183.58,362.95c.08-.14,0-.25,0-.37C183.1,362.73,182.94,362.86,183.58,362.95Z"/><path class="cls-2" d="M86.95,346.69l1.35,0c.15-.1.31-.21.31-.32Z"/><path class="cls-2" d="M733.78,67.52a2.5,2.5,0,0,0-.33-.15C731.35,67.82,732.51,67.83,733.78,67.52Z"/><path class="cls-2" d="M1369.37,276.79a4.1,4.1,0,0,1,.84-1.25c.22-.15.42,0,.61.24a10.28,10.28,0,0,1,.69,3l.15.86c0,.27.06.53.1.75a1.43,1.43,0,0,0,.38.91c.18.12.43,0,.78-.43a6.52,6.52,0,0,0,.6-.93c.19-.41.4-.93.64-1.56-.26.21-.52-.33-.82-1.08-.16-.38-.28-.8-.49-1.22a12.58,12.58,0,0,0-.69-1.19c-.47-.7-1-1.14-1.43-.93a1.55,1.55,0,0,0-.67.83C1369.85,275.22,1369.7,275.89,1369.37,276.79Z"/><path class="cls-2" d="M38.17,97.46c.81-.86,1.72-1.63,2.61-2.43A21.34,21.34,0,0,0,38.17,97.46Z"/><path class="cls-2" d="M1374.15,278.34h0l.38-1.06Z"/><path class="cls-2" d="M910.17,87.12a6.63,6.63,0,0,0-1.36-2.7C908.77,85,909,85.75,910.17,87.12Z"/><path class="cls-2" d="M780.31,60.7l3.16,1.19A10.1,10.1,0,0,0,780.31,60.7Z"/><path class="cls-2" d="M979.16,91.52c1.66.74,2.1,1.6,4.63,1.39a3.16,3.16,0,0,0-.59-.79C982.18,92.65,981,92.74,979.16,91.52Z"/><path class="cls-2" d="M1049,106.78a12.66,12.66,0,0,0-1-1.31l-2.26-.28Z"/><path class="cls-2" d="M401.89,383.52a13,13,0,0,1-3.13-4C399.72,382.57,389.09,382.78,401.89,383.52Z"/><path class="cls-2" d="M37.11,99.58a3.37,3.37,0,0,1,1.06-2.12c-.6.62-1.16,1.22-1.71,1.81C36.49,99.62,36.63,99.83,37.11,99.58Z"/><path class="cls-2" d="M990.71,50.73l11.13,3.44A78.54,78.54,0,0,0,990.71,50.73Z"/><path class="cls-2" d="M919.87,390.14l-2.62.62A4.59,4.59,0,0,0,919.87,390.14Z"/><path class="cls-2" d="M1035.49,61.63a17.43,17.43,0,0,0,5.5,5.1,4.8,4.8,0,0,0,1.62-1Z"/><path class="cls-2" d="M398.74,379.5a.05.05,0,0,1,0,0A.05.05,0,0,0,398.74,379.5Z"/><path class="cls-2" d="M323,382c10.87,1.24,5.38-4.13,7.84-6.65,13.07-.26,5.81,4.08,10.09,7,8.18-.48,14.66-4.53,20.7-3.86.41.88,1.56,1.29.13,2.22,8.8-3.34,25.48,2,35.76-2.67a3.4,3.4,0,0,1,1.24,1.44,11.29,11.29,0,0,1-1.15-7.56c4.89.22,9.24-2.92,10.89.79-3-.29-3.31,1.14-4.77,2.17l5.2-1.23c4.34,5.49-7.08,1.33-7.27,5.13,10.06-.92,21.91-4.57,29.49-2.59,1.34,5.35-18,.54-8,5.86l-11.73-2.8c8.63,8.72-7.16-1.11.71,8.13,15.5,2.77,17.55-1.2,33,1.4,3.64-2.72-.95-4.46,2.7-7.2,11.17-2,15.36,1.64,18.83,5.09s6.22,6.66,14.51,3.53c4.37-3.41,6.31-10.36,17.72-6l-4.22,6.15c15.08,1.52,9-8.73,24.64-3.56-2.91,2.4-12,1.49-9.7,2.39,10,5.67,7.4-3.25,15.27-2.86l1.4,5.86a252,252,0,0,0,25.27-1.73c8.72-.93,17.65-1.91,26.58-2.08-1,1.73-4.16,3.46-.05,5.47a139.45,139.45,0,0,1,17.36-.36q4.42.17,8.88.56t8.92.89c11.88,1.4,23.64,3.6,34.46,5.76l8.41-5c1.93.11,3.53,2.49,1.42,3.45,8.42,2.24.51-3.34,4.62-5.31,4.82-.28,6.3,3.16,3.21,4.69,15-4.24,42.69-8.94,58.35-3.31l-3.09,1.56c12.24,2.06,13.93-10.69,25.25-5.89l-2.18.92c6.64.54,13.46.61,20.27.55s13.61-.23,20.21-.36c13.21-.22,25.62.24,35.79,3.47,1.91-3.46,8.49-2.89,14.8-2.68s12.36-.08,13.16-4.6a141,141,0,0,1,13.84,4.42c3.5,1.12,7.78,2,18.5,2.79,5.72,0,8.41-5.66,15.44-6.87l.26,4.21q4.74-2.55,9.48-5,2.61,2.31,5.22,4.56l6.59-1.51c-2.64,0-5.65-1.42-5.28-2.62,5.14-1.23,11.45-.89,16.52-.08s8.89,2.11,9.05,3.06l24.33-4.95c-.49,1.45-4.56,2.27-7.77,3.48,12.91-4.72,2.5,3.47,14.33-.86-1.63-.64.79-2.11,1-2.82,6,1.59,19.59.37,29.57-1.25l-1.83,2.3c4.53-.29,9.18-.64,13.92-1.17s9.58-1.13,14.48-1.74c9.8-1.29,19.88-2.51,30-3.54-7.34-.09-5.85-3.39.08-4.18l2.55,2.46c3.74-2-6.28-.45,1.48-3.17,7.6-.34,5.3,2.5,1,3.81l9.16-1.81c.59.71-1.54,1.34-2,2.38,1.84-1,5.86-.78,10.09-.75s8.66-.11,11.28-1.74l.58.66c10.15-1.19,17.52-2.16,24.4-3.24,3.44-.53,6.76-1,10.26-1.52l11.28-1.62c.12-1.9,6.62-2.26,11.37-4.34,6.08-.53,12.53-.88,19.28-1.39,3.37-.3,6.82-.63,10.33-1s7.1-.81,10.73-1.46c10.1-2.49,2.77-1.91,7.21-3.65,1,1.41,15.5-1,8.14,1.26,8.71-1.6,14.25-2.72,20.36-4,3-.67,6.23-1.44,10-2.35l6.17-1.52,3.53-.87,3.87-1.05c-2.51-.11-5.23.18-4-.63,3.91-1.1,9.15-1.29,8.75-.44l-1,.38c3-.94,6.16-1.77,9.42-2.5s6.59-1.5,10-2.14,6.86-1.27,10.34-1.82l10.36-1.83,10.14-1.81c3.29-.69,6.5-1.41,9.57-2.17s6-1.58,8.73-2.48a51.33,51.33,0,0,0,7.64-3.22l-1,.52a178.39,178.39,0,0,0,19.37-9.37c2.3-1,3.14-1.25,3.23-1.12s-.57.69-1.3,1.26c-1.46,1.16-3.23,2.56.43,1.51,5.07-3.18,9.6-6.06,13.77-9a107.33,107.33,0,0,0,11.52-9,51.63,51.63,0,0,0,9.34-11.18,35.73,35.73,0,0,0,5.06-15,28.21,28.21,0,0,0,1.67-3.42,38.09,38.09,0,0,0,1.1-4.22l.23-1.16c0-.39.08-.79.11-1.19q.1-1.21.16-2.49a31.73,31.73,0,0,0-.21-5.27c-.75-7.26-3.62-14.87-7.49-21.53a129.17,129.17,0,0,0-13-18c-4.45-5.34-8.64-10.08-11.55-14.6l-.34,2.17a7.68,7.68,0,0,1-4.13-3.71,16.85,16.85,0,0,0-2.32-4.26c-.52,1.47,3.06,5,.06,3.64-8.34-7-17-13.73-25.76-20.68l-6.64-5.09-3.32-2.59-3.38-2.5-6.75-5.08-6.85-5a543.51,543.51,0,0,0-56.94-36.79c-3.58-2-6.24-2.35-8.43-2.13a22.28,22.28,0,0,0-5.71,1.75c-3.57,1.29-7.34,1.91-15.49-5q3.53-1.2,7.08-2.34-3-.71-6-1.53c-2-.53-4-1.07-5.92-1.67-3.93-1.17-7.81-2.5-11.69-3.82-7.74-2.72-15.4-5.72-23.06-8.61s-15.32-5.7-23-8.19c-1.93-.61-3.85-1.23-5.79-1.75s-3.89-1-5.84-1.45c-3.9-.89-7.82-1.64-11.77-2.15,2.16-.67,2.7-2.28,5.62-1.3-2.57-3-8.41-5-13.73-5.79a36.47,36.47,0,0,0-3.84-.38,22.35,22.35,0,0,0-3.31.13c-1.94.24-3.28.77-3.54,1.58-4.58-1.77-.24-3.3-2.66-5.85-2.86-2.16-7.24-2.08-11.18-2.07s-7.44,0-8.59-2.61c-.4-.84,2.16-.8,3.42-.77a14.92,14.92,0,0,1-5-.58l-6.14-1.43c-3.91-.85-6.89-1.05-5.51,1.91-5.39-2.71-11-3.66-16.25-4.59s-10.26-1.73-14.46-4.36c-7.26,4.07-18.95-7.65-22.66-.17,2.71-8-18.63-11.42-26.72-9.13,3-2-5.75-4.12-2.16-7-8.34-1.75-16.28-1.81-15.72,2.9-6.62-6.74-14.73-6.47-21.92-6.1s-13.47.55-16.55-7.07c-25.62-.26-49.09-.9-71.71-2.43,2.22-9,24.79,3.23,25.37-6.44-10.91,0-19.71,1.5-28.36,2.26s-17.17,1-27.51-1.73c-5.26-2.12,3.66-3.58,5.74-4.87-10.87.21-21.09-1.43-31-2.91-5-.73-9.88-1.45-14.77-1.77a72.77,72.77,0,0,0-14.63.43c.16-.88,2.32-1.59,4.34-2.06-3.76-.18-8.48-2.54-8.6,1.86l3.77-.71c5.14,7.05-16.39,11.26-17.45,14.53,7.82-11.74-18.24-5.36-6.34-20-2.55.53-5.87,2.23-5.65,5.21-3.53-1.28-4.49-3.13-.41-6-13.62.78-9.41,6-21.47,4.48.28-2.12,2.81-2.67,4.34-5-6.59,3.42-13.19,6.92-23.19,4,.75-1.21-.25-3,2.79-2.64-8.8-.66-16.57,1.28-24.47,2.7s-15.95,2.15-25.36-.79c6.61-8.66-6.24-3.66-6.47-11.7L643.58,8l3.78,4.24c-9.06-1-17.62,4-25.18.76l7.05-2.67-17.16,0,9.36,3.81c-9.55,3.26.07,10.06-11.79,6.8,2.52-.57-9-.94-13.38-5.91,0,0,0,0,0,0-4.71,2.14-9.53,4.38-16.08,1.93-1.55-2.62,2.09-8.49,1.09-10.22C578.82,9.83,573.46,9.87,568,10s-11.18.34-14.23,3.56c2-1.48,2.37-5.5,1.81-6.37l-4.1,5c-4.1-1.94-4.66-2.77-3.76-5.93-12.63-1.72,3.38,9.93-11.39,4.82,1.21-.34.69-1.15,3.2-1.78a53.1,53.1,0,0,0-11.14-1.06c-3.68,0-7.32.21-10.92.42s-7.16.4-10.68.35a56.58,56.58,0,0,1-10.45-1.07c-1.89-3.78,1.17-4.15,4.16-4.38s5.89-.22,3.69-3.48c-10.11.32-20.64,2.35-31,3.84-5.19.72-10.36,1.51-15.44,1.93a83.78,83.78,0,0,1-14.93,0l3.61.83c-1.43,5-5,3.72-9.5,1.77S427,4,422.06,6.4c2.41-.75,3.17-5.53,2.52-4.42-6.68-.69-13.52,0-21.19,1.32s-16.18,3.5-26.21,5.3L379.6,6.1a39.3,39.3,0,0,0-6.72-.86c-1.23-.07-2.49-.11-3.78-.13s-2.6,0-3.92.08c-5.26.17-10.6.48-14.88.23-2.4,2.5-7.26,2.43-4.12,5.62a40.65,40.65,0,0,0-9.9-2.87A45.61,45.61,0,0,0,326.71,8a104.84,104.84,0,0,0-18.29,3.54L304,12.65l-4.4,1.19a82.69,82.69,0,0,1-8.76,1.84A41.89,41.89,0,0,1,273,14.81c2.75-.38,6.36-2.68,4.16-2.4-6.5,1.42-12.94,3.24-19.37,4.91,2,3.16,2.86,1.64,7.33,3.67-2.19,2.43-7.46,4.82-12.27,5.53,8.42-3.55-.87-5.43-5-6.63.8.92-.33,2.25.15,3.24-5.56-2.15-5.73-.39-6.31,1.63a4.28,4.28,0,0,1-1.92,2.82c-1.22.77-3.27,1.18-6.89.87l.44-1.83c-5,1.87-9.37,4.95-15,5.52-3-3.15,5.18-2.72,5-5.79-3.9.89-7.45,3.35-11,5.28a26.62,26.62,0,0,1-5.32,2.3,10.68,10.68,0,0,1-5.57.24,39.91,39.91,0,0,1,5.46-2.29,42.88,42.88,0,0,0,5.51-2.12,41.8,41.8,0,0,0-5.15-1.3,15.1,15.1,0,0,0-3.4-.16c-2,.13-3.59.63-6.52,1l.58,0-13.6,1.49L188,31a17.61,17.61,0,0,1-6.48,5.75,23.86,23.86,0,0,1-3.68,1.51c-.63.21-1.28.39-1.93.57l-2,.58c-5.31,1.49-11.13,2.83-16.89,7.17,5.62-4.15,6-5.06,4.88-5.32s-3.55.08-3.54-1.77c-3.57,0-8.9.49-7.73-.88-2.69,2.28-5.4,2.49-8.37,3a18.9,18.9,0,0,0-9.92,4.76c-.7-.9-6.52,2.17-6-.78-7.64,3.63,2.42,1,2.15,2.52-5.53,3.78-13,5.32-20.93,7.72s-16.53,5.63-24,11.74c-1.71,1.08-3.18,2.18-4.53,3.15s-2.54,1.9-3.62,2.82c-2.17,1.79-3.94,3.39-5.64,5l-2.58,2.4c-.87.83-1.76,1.67-2.74,2.54-2,1.71-4.17,3.69-7,5.95-2.33,1-1.89-.15-.85-1.53A36.75,36.75,0,0,1,59.37,85,57.06,57.06,0,0,0,42.19,98.18c.81-1.42-.73-.79-2.91.28-4.32,4.42-1.5,4.4-7.7,9.56a27.5,27.5,0,0,1,2.56-6.13c-4.7,5.67-8.58,11.83-12.64,18.09-.93.53-.53-.57.23-2.15s2-3.53,2.59-4.79c-1.23,1.75-2.67,3.71-4,5.85l-2,3.18-1.81,3.21A53.62,53.62,0,0,0,13.69,131c-.35.81-.64,1.53-.85,2.14a6.48,6.48,0,0,0-.33,1.47c.46-.77,1-1.5,1.49-2.23l1.55-2.18c-1.51,2.63-1.68.82-.74-1.27A24.2,24.2,0,0,1,17,124.72a17.07,17.07,0,0,1,2-2.61,5.34,5.34,0,0,1,2.53-1.66l-1.44,2.22c-.48.74-.9,1.52-1.35,2.28a10.06,10.06,0,0,0,2-1.59A23.18,23.18,0,0,0,23,121c1.48-1.88,3.18-4.08,4.87-6.52.84-1.23,1.79-2.42,2.69-3.67s1.82-2.51,2.81-3.69,1.93-2.37,2.89-3.48,2-2.07,3-3l-1.44,4.92,3.23-4.45c1.07-1.52,2.24-2.93,3.36-4.43,2.22-1,4.41-.69.71,2.92a21.05,21.05,0,0,0,5.55-4.15,11.3,11.3,0,0,1,5.16-3.33c.73-.2.55.11.08.58.91-.81,1.81-1.65,2.74-2.45l2.8-2.38c-.84,1.33,2.24,1.19-1.77,3.22,1.5-.69,2.87-1.41,4.15-2.15s2.49-1.42,3.6-2.15c2.21-1.46,4.14-2.84,5.86-4.11A40.13,40.13,0,0,1,78,79.53a7.86,7.86,0,0,1,4.22-1.2l-.88.67c2-1.11,3.45-2,4.55-2.72a20.56,20.56,0,0,0,2.34-1.65c1-.84.86-1.23.61-1.62a1.42,1.42,0,0,1-.32-1.6c.35-.83,1.44-2.14,4.26-4.31,3.75.77,7.52,1.77,11.24,2.85l.57-3.33c1.79-.58,5.34-1.71,5.13-.36,5.84-4.3-1.59-.79,1.54-4,4.73-.35,10.53-2.63,15.62-4.4a36.65,36.65,0,0,1,6.86-1.8c2-.21,3.48.07,4.36,1.19,2.37-3.36-8.88.67-.13-3.83,2.16,2.31,4.77,1.34,7.94-.26s7-3.62,11.34-3.34c-1.63,3.66-9.66,4-.89,4.61,1.71-3.13,5.69-3.89,10-4.11s9.07.06,12.32-1.28c-.75-4.42,14.39-4.94,25.49-8.92-.1.43,1.23.52,3.46.41l1.83-.12,2.13-.1,4.9-.31c7-.49,15.39-1.16,20.89-1.12l-.17.91c.6-2.72,3.69-4.41,7.66-5.45s8.77-1.78,12.74-2.89c.15,3.26-1.12,4.73-5.27,6.71l7.58-1c1.54-2,3.78-3.18,8.62-4.47l-1.35,4.35a65.85,65.85,0,0,0,7.53-1.74c2.54-.67,5.12-1.44,7.8-2.13,5.37-1.38,11.16-2.46,17.84-1.64.16-2.07-2.73-4.63-4-7.17s-.84-5.07,6-7.26c.74,2.14,1.61,5.88-1.93,7.17,1.16-.41,4.06-2.33,6.56-1.53l-2.6,2.08L301.87,27c3.06.49,3.77-.33,4.31-1.31s.92-2.13,3.34-2.14c.2,3.19,3.75,2,3.29,4.6-1.19.39-4.29-1-6,.35,5.44.19,12.11,1.66,14.45,4-.62-1.81-.36-4.36,3.55-5.06,10.17-.94,3.78,3.7,9.82,5,2.29-2.52,8.95-.27,8.81-5.3,3-.09,3.68,2.23,4.91,3.55,5.14-2.41,24.57-1.54,18.4-6.8l-1.37-.3c.25-.12.55-.14.86-.26h0c1.07-.37,2.15-.69,3.24-1s2.18-.44,3.28-.6a53.94,53.94,0,0,1,6.66-.53,107.42,107.42,0,0,1,13.51.76c9,.86,18,2.6,26.63,1.45l0,1.84a159,159,0,0,1,16.22-1.78c5.36-.4,10.36-1.07,14.08-3,3.05.07,7.12,3.63,5.77,5.86,7.88-1.17,8.84-3.43,20.09.3-8,3,2.62,3.11-8.16,2.07,10.15,2.14,12.31,5.4,23.46.6-3.92,4.83,7.38,6.63,12.28,5.51-2.32-1.37-4.64-2.73-7-4,5.48-.48,10.22.35,15,1.06l-3,6.49a28.5,28.5,0,0,0,14.77,2.5c4.77-.39,9.39-1.65,13.86-2.68,8.93-2.09,17.26-3.65,24.66,4,5.86-4.38-11.05-4.26-5.72-9.48,9.54,1.57,18.74,12.47,21.72,12.76,6.39,2.53,9.64.28,13-2.14s6.82-5,13.58-3c-1.53-2.66-2.62-9.46,7.89-10.86,9.55,1.81,10.84,11.63,4.6,13.05-2.32,0-3.36-.92-3.18-1.75-3.18.61-7.34,1.28-3.79,4.37l1.47-2.38c4.52,3,17.73,4,14.24,7.86,7.46-1.68,3.49-3.83-1.76-5.64,11.94,4.83,19.2,2.07,31.61,5.82-1.87-1.6-3.43-4.76-1.43-4.53,18.26,5,8.67-4,21.39-3.75,6.76,4.62-3.52,9,9.49,7.06,7.46,3.44.92,6.91-2.36,8.65,12.06-3.68,21.18,5.55,27.65,7.16l-6.28,1.38a27.56,27.56,0,0,1,9.74-.11l-2.9-5.45c3.46,1.28,6.48,1.62,6.17,3.73,4-2.92-1.87-8.75,5.94-12.49,4.46,3.08,14.79-1.11,15.66,5.79-14.67-4,.86,6.94-11.88,6.58,2.52-.53,5.49-.16,9,1.14.45.81-.67,1.33-1.68,1.61,13.55,7.61,7.44-6.85,22.23-5-2.33,3.56,2.56,7.54,5.06,7-5.94-.78-2.09-6.63,3.74-8.85,9.12,4.07,10.58-.93,15.51,0l-5.5-2.06c2.39-3.52,7.08-2.45,13.86-2.82.19,3-6.27,1.28-4.07,2.84,4.1-2.86,8-.62,12.28,1.93s8.81,5.39,14.22,3.85c4.39,3.11-.49,7,3.43,9.24,6.05-1.7,9,0,11.94,1.78s6,3.67,12.27,2.51c-2.74-5.37-3.53-4.27,5.64-7.89l-20.25.77,13.71-5.43c-6-.9-13,1.35-16.49,0,6.61-3.21,5.82-2.05,3.54-6.56,7.12,8.55,16.84-2,25.57,4.3l-2.1,12.05c6.68,3.62,13.17,3,20.27,2.18s14.8-1.91,23.7,1.08l-5.55-3c3.23-4.29,11.43,1.18,17.69.25-1.22,3.82,2.24,5.83,4.35,8.65.1-1.47,3.44-.87,7.13-.84s7.72-.41,9.25-4.11l7.24,6.47c7.18,2.3,11.9.3,16.58-1.74s9.3-4.06,16.27-2c-5.08,3.24.82,7.11-9.23,8.24,4.71.93,8.82,2.4,9.41-.16,2.27,2.86,14.14-2.56,17.73,1.89,2.33-1.2,3.79-4.91,9-3.49.42.86-.41,1.8-.41,1.8.41-1.81,8.82-.7,5.07-5.71,3,3.62,7.07,5.9,11.62,7.5a103.71,103.71,0,0,0,14.56,3.53A117.08,117.08,0,0,1,1037.32,99a30.42,30.42,0,0,1,6,2.59,17.77,17.77,0,0,1,4.62,3.91c5.24.67,11,1.49,16.62,2.41,2.81.46,5.58.93,8.24,1.43s5.16,1.09,7.48,1.64c-.87.85-.49,1.68-2.13.86,11.82,6.52,10.48-7.56,24-.11,5.86,7.34-8.51.82-4.48,4.09-.28,2.87.7,4.49,2.44,5.46a10.47,10.47,0,0,0,3.13,1c1.19.25,2.51.41,3.9.55,5.56.57,12.25.93,16.14,5.37l-2.53,0c3.14,2.84,7.95,3.07,13.45,3.2s11.65.3,17.53,2.53c0,0-.88.71-.57,1.51,4.94-1.3,11.48-1.22,18.21-.33,3.37.45,6.81,1,10.14,1.7s6.56,1.42,9.55,2.09c-4.91,2.46-5.91.17-5.1,4.7,2.66.6,2.83-1,3.67-2.53s2.35-2.86,7.63-1.48c2.57,3.23,9.27,7.61,8.72,11.85-3.19-1.12-6.43-2.14-9.64-3.2,1.49,3.43,4.62,4.4,7.92,5s6.84.65,9.18,2l-1.49,1.91c14.75,4.7,17.19-.43,32.41,6.56l-.91-2.19c5.31-.6,6.76.91,8.12,2.51s2.62,3.41,7.61,3.6l.17,5.89c3,.63,8.27,1.89,14.11,3.42,2.9.8,5.89,1.77,8.81,2.76,1.46.5,2.89,1,4.28,1.55s2.68,1.14,3.91,1.72c-7.11,0-19.23-4.06-27.28-5.31,1.33.65,3.13,1.5,5.16,2.39s4.28,1.82,6.44,2.73c4.34,1.78,8.55,3.11,10.49,2.83-2.33-.75-5.62-1-7.33-2.8a38,38,0,0,1,6.47.5,44.44,44.44,0,0,1,6.81,1.78,59.08,59.08,0,0,1,7.17,3q3.62,1.84,7.43,4.22c-1.67,1.63-.89,3.52,1.17,5.7s5.46,4.61,9.15,7.19l5.53,4.1a62.34,62.34,0,0,1,5.19,4.21c3.12,2.88,5.54,5.68,6.27,8.13,2.27,1.28,4.43,2.71,6.56,4.18a73.18,73.18,0,0,1,6.12,4.66,87.79,87.79,0,0,1,10.56,10.8,85.56,85.56,0,0,1,8.56,12.35,56.85,56.85,0,0,1,5.63,13.44c.83-1.91,1.24-2.65,1.64-2.53.19.05.36.31.53.68a6.24,6.24,0,0,1,.44,1.43c.12.55.24,1.14.41,1.71a16.56,16.56,0,0,0,.58,1.57,1.78,1.78,0,0,0,2.39,1.09l.25,1.77,0,1.49c0,.91,0,1.65,0,2.24a4.49,4.49,0,0,1-.58,1.95,29,29,0,0,1-3.34,6.88,36.41,36.41,0,0,1-4.69,5.82c-1.52,1-1.08-.08-.47-1.44a21.87,21.87,0,0,0,.78-2.06c.14-.61.15-1-.13-1.08a14.77,14.77,0,0,1-2.9,4,2.9,2.9,0,0,1-1.63.87c-.89.09-1.47-.16-4.08,1.83,1,.09.92,1.16-.17,2.68a20.31,20.31,0,0,1-5.92,5.07,64.88,64.88,0,0,0,8-4.09,22.57,22.57,0,0,1-6.51,6.16,23.1,23.1,0,0,1-5.42,2.29c-3.49,1-6.77,2.08-13.92,6.64,1.44-1.15,2.84-2.32,4.19-3.51-3.57,2.3-10.83,5.56-18.38,8.52l-5.64,2.23c-1.89.73-3.71,1.47-5.41,2.2a43.46,43.46,0,0,0-8.2,4.36c-1.66,0-4-.38-.25-1.84l-8,2.36c-2.72.81-5.47,1.69-8.23,2.59-5.51,1.87-11.15,3.61-16.65,5.3-2.75.84-5.47,1.68-8.13,2.44s-5.3,1.39-7.84,2-5,1.13-7.35,1.57q-1.76.33-3.44.59t-3.28.37l1.44-1.21c-3.92,1.06-6.6,3-11.76,3.12.19-.42,1.43-1.2-.42-.89-1,.35-3.59,1.3-6.59,2.12a51.73,51.73,0,0,1-9.12,1.81l4.35-1.78c-5.28.6-9.89,1.43-14.13,2.31s-8.11,1.8-11.86,2.78l-5.58,1.51c-1.86.49-3.73,1-5.63,1.42-3.81.94-7.79,1.8-12.19,2.55-.31-2.66-17-1.69-25.39-1.4l.24-.43c-6.17.47-11.85,1.05-17.26,1.73s-10.57,1.35-15.66,2.13l-15.32,2.31c-5.19.8-10.54,1.52-16.25,2.13-7.25-1.44-19.34-1.44-32.5-1.31s-27.41.31-38.94-1c3.54.79-.41,3.34-4.47,3.83-5.42-.89-14.75,3.27-14.08-.94l1.92.08c-4.23-4.1-15.25-3.15-23.88-3.31l-1.2,5.93c-11.45-4.16-26.22-3.84-39.71-2.92s-25.69,2.12-32-2.75c-5.41,1.69-12.16,1.5-17.53,3.3l.22-4.08c-15.11-1.46-22.64-2.24-41.27-1.66l3.77-3c-5.25-.32-8.55,2.75-11.74,6S818.39,366,813.53,366l-3-6.93c-9.18-.17-18.41-1.86-27.61-2.82a100.55,100.55,0,0,0-13.77-.59,48.46,48.46,0,0,0-13.68,2.48,4,4,0,0,1,3.83-3.4c-8.64-.44-33.34-5.88-30.31,4.49-.07-3.36-4.8-3.58-10.76-2.68s-13.15,3-18.13,4.39l1.62-5c-8.46,6.2-8.76,8-20.49,9.53-2.76-.7-2.35-4.06,1.3-2.71-9.18-2.8-7.29,4.62-18.44,1.77l4.24-3.14c-9.49-.52-8.77,1.15-14.09,4.78-6,1.87-18-1.68-19.29-6.22-1.35,2.73-6.65,6.28-12.22,4.86-.71-1.72,1.36-2.73,2.4-3.22-7.9-1.87-13.84-.53-19.17.61s-10,2-15.42-.54a3.54,3.54,0,0,0-1.75-3c6.31.23,12,.48,16,.72s6.29.41,5.81.58c.13-4.58-10-5.54-1.75-11.71-8.27,3.33-22.49,10.32-32.36,8a5.34,5.34,0,0,1-1.26-1.59l1-.48a11.06,11.06,0,0,0-6.3.58,36,36,0,0,0-8.18-1.54c-1-3.73-11.61-2.21-16.69-2.52.24,4.85-6.39,3.87-.3,8-.79-.38,1-.54,4.37-.66a8.36,8.36,0,0,0,2.19-.45,5,5,0,0,1-.36.42c3.34-.07,7.7-.06,12.65,0-4.1,2.39-8.38,4.33-13.9,1.5a96.18,96.18,0,0,1-7.39,7.58c-6.71-7-20-11-21.68-15.11-15.63,2.26-36.64.9-46.79,9.07-4.47.93-5-2.64-6.56-4,2.59-.77,5.61-.53,7-1.72-8.93,1.88-26.2,0-28.58,5.74-11-3,6.51-5.11-8.83-4.68l2.15-1.69c-14.82-5-27.23-1.73-40,1a103.11,103.11,0,0,1-19.85,2.68,63,63,0,0,1-22.54-3.83c2.28.72,3.42,1.07,3.84,1.94-18.89-3.09-38.56-2.62-58.13-2.84s-39.07-.81-57.68-4.16c-10.61-1.4-11.91.88-18.53,2.25l-2.14-2.87q-5.67,1.42-11.34,2.68c-8,.73-14.7-1.22-22-2.68a72.32,72.32,0,0,0-25.24-1.19l2.49,1.43c-7.17-.51-22.8-.28-21.51-1.53a8.42,8.42,0,0,1-5.2.38l-.16-.84q-8.87.44-17.73.61c-6.82-.55-6.25-1.12-6.46-1.7s-1.22-1.14-11.22-1.22c-3.73.1-9,.4-13.08.62s-6.78.37-5.39.52c3,.11,7.64.51,7.84.94l-6.79-.19c-.65.45-2.28.79-1.69,1.27s3.41,1.22,11.66,2.85c3.86.27,7.73.5,11.6.62q1.83.62,3.67,1.28l-9.72-1.26a42.1,42.1,0,0,0,12.94,1.33,15.78,15.78,0,0,0,4.77,1.66c3.82-.09,7.64-.31,11.47-.6,1.31,1.08-5.19,1.07,2.38,2.58,2.69-.16,1.45-.86.64-1.42s-1.19-1,3.24-.89c5.46,1.7,3.78,2.54,10.33,2.26.87.79-.54,1.08-3.12,1,5.83-.1,15.3,1.56,18.38.29,2.83,1.18,7.71,1.63,11.79,2.13s7.36,1.08,7,2.69a70.39,70.39,0,0,1,15.66-1.07c-5,1.61,0,2.22,5.83,3s12.59,1.7,11.15,4.07c3.72-1.66,10.23-1.43,17.42-.89s15.06,1.41,21.5.67c-.74.32-2.18,1-3.29.6,7.13,1.15,9.12,2.88,13.66,4.36,1.18-4.11,12.39-4,18.58-6.32,4.26,2.54,2.85,3.78.68,4.87s-5.08,2.06-3.82,4.27c-.23-3.62,15.47-2.07,12.67-5.5,6.55,3.39,5.71,1.87,8.94,6.12,1.53-5.83,6.31-.36,12.1-3.57,9.55,3.88,2.17,6,13,5.12,2.49,1.21,1.32,2.15-.46,2.77A24.63,24.63,0,0,1,323,382Zm255.22,4.69v.1l-5.27.07C574,386.84,575.56,386.8,578.21,386.7Zm21.43.76c-2.6-.3-5.85-.45-9.29-.55-.7-1.74.17-3.47,2.32-3.3C591.47,384.71,596.49,385.89,599.64,387.46Zm-44.11-35.52c3.4-.62,4.5.37,4.93,1.38-1.6,0-3.47.17-5.93.45-.1.18-.31.38-.42.59A6.33,6.33,0,0,1,555.53,351.94Z"/><path class="cls-2" d="M549.22,358.18a6.94,6.94,0,0,1-1.41.32,16.53,16.53,0,0,0,2,1.14c.43-.5.87-1,1.25-1.49Z"/><path class="cls-2" d="M366.75,23.88l.45.09a2.54,2.54,0,0,1-1-.66C366.54,23.54,366.55,23.7,366.75,23.88Z"/><polygon class="cls-2" points="896.02 393.66 895.96 392.69 894.11 393.67 896.02 393.66"/><path class="cls-2" d="M247.91,19.89a2.81,2.81,0,0,0-1.7-.78C246.31,19.37,247,19.62,247.91,19.89Z"/><path class="cls-2" d="M197.38,29.29l-7.35.48A64.57,64.57,0,0,0,197.38,29.29Z"/><path class="cls-2" d="M158.73,37.86a3.69,3.69,0,0,0-.37,1.59h.08Z"/><path class="cls-2" d="M782.67,20.64a6,6,0,0,0,1.54-.07C787.9,19.89,785.44,20,782.67,20.64Z"/><path class="cls-2" d="M596.29,15a34,34,0,0,1,6.2-2.29C599.23,12,596.67,11.7,596.29,15Z"/><path class="cls-2" d="M989.49,50.35s0,0,0,.09c.44.08.82.19,1.26.3Z"/><path class="cls-2" d="M611.09,13.59a12.76,12.76,0,0,0-8.6-.85C605.16,13.37,608.28,14.26,611.09,13.59Z"/><path class="cls-2" d="M14,127.1l-1,1.68c.09,0,.09.15.06.31Z"/><path class="cls-2" d="M13.06,129.1l-.93,2A8,8,0,0,0,13.06,129.1Z"/><path class="cls-2" d="M10.31,135.25c.59-1.4,1.15-2.83,1.82-4.18A14.52,14.52,0,0,0,10.31,135.25Z"/><path class="cls-2" d="M50,87.84l.06-1A1,1,0,0,0,50,87.84Z"/><path class="cls-2" d="M63.06,78.2c-1.66,1-3.93,2-6.22,3.25-1.16.64-2.34,1.32-3.49,2.07a30.62,30.62,0,0,0-3.23,2.58l-.06.78c.7-1.2,3.29-2.77,6.1-4.19,1.4-.72,2.8-1.5,4-2.22A9.69,9.69,0,0,0,63.06,78.2Z"/><path class="cls-2" d="M127.72,61.39q-6.36,1.55-12.67,3.32c2.53.25,5.85.72.35,2.83,8.31-1,7.31-1.3,6.26-2S119.49,63.77,127.72,61.39Z"/><path class="cls-2" d="M167.37,52.56c-6.67,2.24.56,1.78.39,2.59C171.78,53,172.75,52.41,167.37,52.56Z"/><path class="cls-2" d="M458.49,28.35l-.82,4.9C463.09,32.73,457.77,31.34,458.49,28.35Z"/><polygon class="cls-2" points="516.02 4.58 510.84 1.15 508.05 5.72 516.02 4.58"/><polygon class="cls-2" points="547.02 43.7 544.61 44.26 553.75 43.09 547.02 43.7"/><path class="cls-2" d="M1035.51,108.28l-.23-6C1031.46,102.5,1029.19,108.68,1035.51,108.28Z"/><path class="cls-2" d="M1239.57,165.09a10.3,10.3,0,0,0,4,4.26,10.61,10.61,0,0,0,6.27,1.76c-2.07-1.13-4.06-2.48-5.8-3.66A14.15,14.15,0,0,0,1239.57,165.09Z"/><path class="cls-2" d="M952,360l4.26-1.19-8.07.94C949.45,359.86,950.72,359.94,952,360Z"/></g></g></svg>