<svg xmlns="http://www.w3.org/2000/svg" viewBox="0 0 1282.21 463.26"><defs><style>.cls-1{fill:#dd7141;}</style></defs><title>Asset 12</title><g id="Layer_2" data-name="Layer 2"><g id="Layer_4" data-name="Layer 4"><path class="cls-1" d="M26,368.88c-1.18-.88-.88,0,2.23,2.5.86.43,1.81.75,2.72,1.1C29.25,371.38,27.65,370.12,26,368.88Z"/><path class="cls-1" d="M47.57,384.67A28.06,28.06,0,0,0,54,386.19c1.64.11,2.42-.28,1.24-1.33a27.33,27.33,0,0,1-5.22-1c-1.42-.45-2.94-.78-5.44-1.39-.9-.43-1.74-.86-2.45-1.29s-1.31-.85-1.77-1.19c-.93-.69-1.33-1.14-.94-1.14a26.57,26.57,0,0,1-3.35-2,25.69,25.69,0,0,0-3.85-2.23,45.17,45.17,0,0,0,16,9.43C49.41,384.95,48,384.62,47.57,384.67Z"/><path class="cls-1" d="M437.12,425.52l-2.5-.82A6.73,6.73,0,0,0,437.12,425.52Z"/><path class="cls-1" d="M680.12,441.08c-1.86.08-2.66.74-2.78,1.37C679.08,442.07,680.51,441.71,680.12,441.08Z"/><path class="cls-1" d="M721.32,450.75c-.88-.26-1.63-.4-2.43-.59C719.8,450.86,720.72,451.26,721.32,450.75Z"/><path class="cls-1" d="M437.12,425.52l6.42,2.18C444.07,425.81,440.27,426.1,437.12,425.52Z"/><path class="cls-1" d="M100.18,394.72a21.67,21.67,0,0,0-3.54.08c1.11.06,2.18.12,3.28.21A1.68,1.68,0,0,1,100.18,394.72Z"/><path class="cls-1" d="M329.79,423.85l-2-.12a12.13,12.13,0,0,0-1.72,1.89Z"/><path class="cls-1" d="M247.55,419.21c1.85.28,2.64-3.16,3.42-4.66a5.76,5.76,0,0,1-4.15,2.15A4.51,4.51,0,0,0,247.55,419.21Z"/><path class="cls-1" d="M117.33,404.67l-2.34,0C115.6,404.64,116.62,404.69,117.33,404.67Z"/><path class="cls-1" d="M388.59,428.42a3.8,3.8,0,0,0,.68,1.7A2.64,2.64,0,0,0,388.59,428.42Z"/><path class="cls-1" d="M67.86,158.75c0-.15-.17-.17-.24-.29C67.38,158.9,67.35,159.1,67.86,158.75Z"/><path class="cls-1" d="M.76,223.61l.57-1.2c0-.18-.07-.36-.17-.4Z"/><path class="cls-1" d="M797.2,461.55a2.47,2.47,0,0,0-.34-.13C794.83,462,796,462,797.2,461.55Z"/><path class="cls-1" d="M1223.41,107.63c2.46,3.44-.57,1.76-3.15.45-1.28-.67-2.5-1.2-2.89-1s.09,1.14,2,3.58c-.13-.71,2.56.43,4.48.8S1226.9,111.46,1223.41,107.63Z"/><path class="cls-1" d="M102.23,395.21c1.09.11,2.2.22,3.3.37A26.13,26.13,0,0,0,102.23,395.21Z"/><path class="cls-1" d="M1219.36,110.68h0l.8,1Z"/><path class="cls-1" d="M975.47,453.65a6.75,6.75,0,0,0-2-2.27C973.54,451.94,974,452.61,975.47,453.65Z"/><path class="cls-1" d="M842.59,450.39l3.24.84A10.05,10.05,0,0,0,842.59,450.39Z"/><path class="cls-1" d="M1043.36,435.69c1.84.05,2.59.65,4.87-.54a3.21,3.21,0,0,0-.86-.49C1046.64,435.55,1045.54,436.13,1043.36,435.69Z"/><path class="cls-1" d="M1113.47,416.45a13.2,13.2,0,0,0-1.61-.53l-2.09,1Z"/><path class="cls-1" d="M259.58,79.89a13.11,13.11,0,0,1-4-2.93C257.31,79.59,247.65,82.75,259.58,79.89Z"/><path class="cls-1" d="M100,395.72a3.12,3.12,0,0,1,2.18-.51L99.92,395C99.67,395.25,99.59,395.49,100,395.72Z"/><path class="cls-1" d="M1038.15,393.63c3.57-.31,7.09-.79,10.65-1.18A75.66,75.66,0,0,0,1038.15,393.63Z"/><path class="cls-1" d="M758.46,39.29l-2.57.49A4.35,4.35,0,0,0,758.46,39.29Z"/><path class="cls-1" d="M1079.3,384.6a14.51,14.51,0,0,0,6.77,1.85,4.56,4.56,0,0,0,.79-1.62l-3.78-.07Z"/><path class="cls-1" d="M255.52,76.92a.06.06,0,0,1,0,0A.06.06,0,0,0,255.52,76.92Z"/><path class="cls-1" d="M188.74,104.44c9.89-2.94,3-5.83,4.2-9.07,11.43-5.06,6.66,1.62,11.51,2.78a46,46,0,0,0,9-6.07c2.67-2.09,5.15-4,8-4.66.67.69,1.85.7.87,2,3.39-3,9.27-4.68,15.33-6.36s12.24-3.54,16.28-7.22a3.38,3.38,0,0,1,1.56,1,11.72,11.72,0,0,1-3.29-6.9c4.6-1.17,7.76-5.41,10.35-2.32-2.86.57-2.75,2-3.81,3.42l4.47-2.64c5.57,4-6.18,3.27-5.26,7,2.25-.93,4.56-2,6.88-3.21l3.48-1.76,3.48-1.64c4.6-2.1,9-3.79,12.82-3.82,2.61,4.82-16.57,5.22-5.91,7.75-3.87.12-7.76.19-11.62.4,2.59,1.47,3.46,2.32,3.45,2.78s-.89.59-1.78.75c-1.79.33-3.64.72,1.24,4.07,15-1.36,15.79-5.81,30.8-6.89,2.73-3.51-2-4.1.79-7.63,10-4.49,14.82-1.81,18.8.77s7.24,5.23,14.36.46c1.7-2.11,2.66-5,4.66-7.06s5.06-3.33,10.89-2.24L347.5,65c14.49-1.27,6.92-10.26,22.71-7.84-2.36,2.86-11.1,3.5-8.8,4,10.51,3.88,6.45-4.46,14-5.41l2.3,5.56c7.66-1.26,15.6-3.48,23.81-5.55,4.1-1.05,8.25-2.18,12.46-3.12s8.46-1.81,12.74-2.47c-.78,1.85-3.54,4,.65,5.43,21.39-4.83,46.42-2.9,67.63-.47l7.68-5.75c1.87-.06,3.61,2.17,1.66,3.32,8.31,1.5.22-3.38,4-5.69,4.64-.66,6.34,2.65,3.48,4.42,14.15-5.33,40.73-11.93,56.22-7.05l-2.91,1.71c11.94,1.48,13-11.37,24.21-7l-2.08,1c25.85,1,54.34-4.49,74.11,2,3.7-6.89,25.55,2,27.2-7.13A132.42,132.42,0,0,1,702,39.63c3.38,1.16,7.51,2.21,17.87,3.24,5.53.17,8.33-5.46,15.22-6.42l.1,4.22c3.13-1.59,6.26-3.05,9.4-4.53l4.86,4.81,6.46-1.18c-2.56-.18-5.41-1.7-5-2.88,10.11-1.9,24.46,2.43,24.65,4.31q11.94-1.78,23.91-3.32c-.58,1.41-4.59,1.93-7.77,2.9,6.42-1.9,7-1,7.37,0s.68,1.9,6.56.26c-1.53-.78.93-2,1.22-2.72,5.72,2.11,18.93,2,28.76,1.27l-2,2.12c8.81.33,18.13.15,27.73-.05,4.8-.12,9.66-.11,14.57-.11s9.85.07,14.81.23c-7.05-1-5.21-4.11.63-4.13l2.14,2.77c3.87-1.5-6-1.26,1.85-2.95,7.38.71,4.76,3.21.45,3.9l9.07-.5c.47.79-1.67,1.09-2.29,2.06,1.91-.72,5.74.1,9.79.75s8.31,1.14,11.08,0l.45.74c9.9.47,17.1.76,23.85,1s13,.42,21.1,1c.49-1.83,6.75-.89,11.7-1.93,2.94.4,6,.87,9.06,1.34l9.51,1.55c3.24.52,6.56,1,10,1.5s6.86.94,10.41,1.3c10.05.35,3.08-1.08,7.69-1.54.55,1.59,14.66,3.37,7.19,3.48,8.48,1,13.88,1.75,19.84,2.52s12.49,1.54,23.18,3.06c-2.16-1.11-4.71-1.85-3.26-2.12,3.91.48,8.6,2.45,7.9,3.05l-1-.06c12.07,1.35,25.4,5.84,37.66,10.89,3.09,1.21,6.06,2.59,9,3.8s5.74,2.55,8.5,3.66,5.35,2.27,7.9,3.17a58.83,58.83,0,0,0,7.28,2.32l-1-.27c1.56.51,3.09,1.08,4.62,1.66l4.61,1.72,4.56,1.85c1.52.62,3.05,1.22,4.55,1.9,7.7,4.73-5.34-1.47-.08,2.82a88.24,88.24,0,0,1,23,13.42c6.15,4.88,11.52,9.83,18.6,14.77,2.87,6.81,10.86,15.08,18.49,24.42a117.36,117.36,0,0,1,10.33,14.55l1.06,1.83c.34.61.63,1.24.94,1.85.6,1.23,1.16,2.43,1.66,3.62a33.37,33.37,0,0,1,2,6.93l1.2-1.72c3.34,3.27,1.3,5.34,2,8.51.57-.5.53-1.78.56-2.67s.14-1.39,1.12-.32a94.57,94.57,0,0,1,8.32,27,88.27,88.27,0,0,1-.53,28.05,101.61,101.61,0,0,1-8.82,26.38l-1.53,3.1-1.67,3-.82,1.51-.89,1.49-1.78,3c-1.25,1.94-2.49,3.86-3.77,5.76s-2.57,3.77-4,5.59a14.55,14.55,0,0,0-2,3.67,8.4,8.4,0,0,0-.54,3.08,26.14,26.14,0,0,0,1,5.35,8,8,0,0,1-.34,5.45,11.64,11.64,0,0,1-2.39,3.12,22.84,22.84,0,0,1-4.75,3.45c-.22-2.32-.41-4.57-.73-6.83a79.35,79.35,0,0,1-12.29,17.23q-1.85,2-3.75,3.86c-1.3,1.25-2.64,2.46-4,3.68s-2.73,2.37-4.1,3.55L1198,329.4l-2.14,1.68c-2.82,2.26-5.77,4.38-8.65,6.56l-8.79,6.32c-2.88,2.15-5.82,4.21-8.63,6.44s-5.62,4.45-8.36,6.79c.79-2,0-3.41,2.34-4.77-3.65-.25-8.38,2.37-12.16,5.32a28.07,28.07,0,0,0-4.6,4.49c-1.07,1.42-1.58,2.68-1.21,3.45-4.17,1.58-2.34-2.3-5.57-2.71a8.71,8.71,0,0,0-4.55,1.82,38.7,38.7,0,0,0-4.12,3.46c-2.62,2.42-5.13,4.4-7.43,3.07-.77-.43,1-1.92,1.87-2.63a11.93,11.93,0,0,1-3.73,2.47c-1.67.77-3.57,1.52-5.22,2.27-3.27,1.51-5.57,3-2.89,4.65-5.52.67-10.13,3-14.66,4.87a55,55,0,0,1-6.66,2.59,20.85,20.85,0,0,1-6.75.89c-1.85,3.57-6.61,4.05-10.73,4.77s-7.77,1.39-7.64,5.59a4.56,4.56,0,0,0-3.81-3.78,18.45,18.45,0,0,0-7.54.1,36.13,36.13,0,0,0-4.27,1.09,42.72,42.72,0,0,0-4.17,1.48,24.76,24.76,0,0,0-6.48,3.76c1.77-2.94-6.46-1.63-4.47-5.63-7.68,1.48-14.57,4.06-12.47,8.29a18.45,18.45,0,0,0-11.29-1.73,28.86,28.86,0,0,0-5.12,1.36c-1.66.56-3.28,1.21-4.85,1.83-6.27,2.54-11.94,4.48-16.79-1.92-11.49,3.42-22.73,6.31-33.8,8.62s-21.95,4.13-32.74,5.44c.23-4.67,6.19-5,11.9-5.48a29.06,29.06,0,0,0,7.66-1.29c2-.81,3.18-2.16,2.82-4.55-10,2.29-17.95,5.41-25.93,7.78a82.62,82.62,0,0,1-12.29,2.7,59.65,59.65,0,0,1-14,.1c-5.3-1.31,3-4.08,4.71-5.71-10.21,2-20.15,1.68-29.8,1.48-4.83-.11-9.58-.17-14.29.05a71.2,71.2,0,0,0-14,2c.07-.89,2.07-1.82,4-2.5-3.62.22-8.38-1.64-8.07,2.75l3.55-1.1c2.82,3.24-.83,6.46-5.32,9.3s-9.79,5.25-10.16,6.92c6.51-12.37-18.15-3.73-7.87-19.32-2.41.75-5.47,2.73-5,5.69-3.52-1-4.59-2.74-.89-6-13.07,1.91-8.62,6.78-20.42,6.21.12-2.14,2.53-2.86,3.84-5.32-6.12,3.92-12.3,7.87-22.22,5.66.65-1.26-.44-3,2.54-2.83-17.18-.06-29.75,9.89-48.44,5.13,5.95-9-6.29-3.3-7-11.31l-10.24,2,3.91,4c-8.88-.46-17,5-24.51,2.14l6.74-3-16.72.91,9.3,3.34c-9.16,3.74.55,10-11.19,7.38,2.44-.71-8.88-.46-13.33-5.25,0,0,0,0,0,0-4.5,2.33-9.13,4.76-15.62,2.58-1.6-2.55,1.73-8.56.69-10.26-4.61,6.35-20.89,1.1-26.67,7.75,1.9-1.54,2.16-5.57,1.59-6.42l-3.86,5.09c-4-1.82-4.62-2.64-3.82-5.82-12.35-1.36,3.53,9.83-11,5.14,1.17-.38.65-1.17,3.09-1.87-14.68-2.64-28.65,2.24-42.12-.72-3.7-7.57,11.93-1.45,7.61-7.9-19.62.86-40.87,7.6-59.73,5.26l3.49.9c-1.52,5-5,3.61-9.31,1.57s-9.47-4.74-14.35-2.56c2.37-.65,3.3-5.39,2.62-4.31-12.9-1.94-26.61,1.73-46.37,4l2.53-2.34c-7.55-2.38-20.07-1.8-28.28-3.09-2.55,2.27-7.25,1.75-4.52,5.21-12.45-7-24.66-5.42-36.52-3.82s-23.36,3.3-34.44-1.94c2.7,0,6.51-1.68,4.36-1.74l-19.31,1.46c1.38,3.48,2.44,2.14,6.36,5-2.52,2-8,3.35-12.77,3.16,8.74-1.93.15-5.49-3.51-7.44.58,1-.74,2.15-.47,3.21-9.8-6.25-2,6.66-15.51,2.17l.8-1.69c-5.17.71-10,2.75-15.5,2.05-2.14-3.73,5.53-1.51,6-4.54-3.89,0-7.8,1.62-11.59,2.72s-7.47,1.68-10.92-.19c3.34-.86,8.09-.72,11.43-1.62-7.49-4.44-8.42-3.35-14.09-4.14l.56.1-13.09-2.08,3.31,1.14c-5,4.34-10,4.52-15.39,4.39s-11.16-.63-17.82,1.78c6.47-2.28,7-3,6.11-3.61s-3.32-1-2.76-2.75c-3.31-1.05-8.35-2.19-6.86-3.15-3.16,1.37-5.72.78-8.61.37a18.16,18.16,0,0,0-10.56,1.24c-.35-1.06-6.63-.2-5.12-2.77-8.1.76,1.83,1.8,1.1,3.11-6.28,1.66-13.54.43-21.48-.5s-16.53-1.58-25.52.2c-7.7.6-12.31,1.43-16.78,2.16a78.4,78.4,0,0,1-16,1.17c-2.34-.84-1.28-1.35.35-1.71a35.5,35.5,0,0,1,3.85-.54c-7.61-1.74-13.4-2.05-20.73-2.31,1.55-.35.11-1-2-2-5.79-.63-4.25,1.7-11.68-.47a28.68,28.68,0,0,1,6.18-1.42c-6.86-.39-13.74-.57-20.77-1.85-1.6-1.27,4.5-.3,7.09-.47-3.94-.54-9-1.45-13.4-2.34s-8.11-1.7-9.47-1.57c1.56.7,3.13,1.39,4.73,2-2.8-.84-1.09-1.42,1-1a44,44,0,0,1,4.35.87,21,21,0,0,1,2.93,1,5,5,0,0,1,2.34,1.7c-1.66-.33-3.34-.62-5-1,2.11,2.05,7.1,3.41,12.83,4.14s12.17.91,17.2,1.74c-1.55.67-3.1,1.29-4.66,1.89q5.39-.12,10.77-.58c2.11,1,3.43,2.82-1.68,2.48,7.13,2.49,6.61-.08,12.72,2.33.67.34.34.45-.32.48,2.43,0,4.86,0,7.28-.06-1.48.49,1,2.35-3.4,1.36a50.52,50.52,0,0,0,15.91,1.51c4.25-.15,7.48-.44,9.84,1.1l-1.1.13c9,.12,9.49-.59,9.42-1.5s-.7-2.07,6.1-3.42q4.36,3.6,8.75,7.44l1.89-2.8c1.85.19,5.5.6,4.77,1.76,7-1.68-1.12-1.35,3-3.09,4.4,1.56,10.55,1.55,15.83,1.72s9.69.58,10.58,3.28c3.3-2.37-8.44-2.34,1.14-3.65,1.24,2.91,4,2.83,7.45,2.35s7.6-1.36,11.61.22c-2.63,3-10.26.89-2.24,4.13,2.56-2.47,6.51-2,10.68-.91s8.56,2.78,12,2.46c.51-4.46,15-1,26.58-2-.79,1.56,21.56,3.82,32.19,6.35l-.35.85c2.29-5.07,13.3-3.53,21.39-4.22-.45,3.23-2,4.44-6.37,5.61l7.56.45c1.86-1.64,4.25-2.42,9.18-2.79l-2.07,4c10.07.45,20.47-3.77,33.3-.16.45-2-2-5-2.86-7.69s-.08-5.14,6.83-6.27c.42,2.23.77,6.06-2.86,6.8,1.19-.23,4.26-1.65,6.59-.6l-5.63,3.48c5.83,1.94,3.21-3,7.92-2.4-.23,3.19,3.4,2.45,2.62,5-1.22.24-4.06-1.54-5.92-.39,5.29.85,11.64,3.12,13.67,5.71-.39-1.87.18-4.37,4.09-4.59,10.08.3,3.28,4.13,9.08,6.18,2.53-2.16,8.85.63,9.23-4.38,2.95.18,3.39,2.56,4.47,4,5.3-1.92,24.36.75,18.71-5.07l-1.32-.43c.25-.09.55-.08.86-.18h0c8.65-2.15,17.49-1,26.29.53s17.58,3.55,26.1,2.8l-.1,1.83c10.2-1.59,22.56-.1,30-3.82,3,.14,6.92,3.78,5.55,6,7.79-1,8.75-3.16,19.79.56-7.91,3,2.56,3.12-8.07,2.05,10,2.17,12.12,5.43,23.13.66-3.88,4.79,7.3,6.71,12.14,5.47l-6.89-4c5.4-.46,10.08.23,14.83.9l-2.85,6.53c10.11,4.63,19.52,1.71,28.29-.65s16.9-4.14,24.44,3.28c5.64-4.54-11-4-5.93-9.32,9.42,1.35,18.86,11.78,21.82,12,12.79,4.56,12.51-9.57,26-6.28-1.63-2.58-3-9.32,7.24-11.25,9.43,1.33,11.2,11.08,5.14,12.81-2.28.1-3.34-.75-3.21-1.59-3.1.77-7.15,1.65-3.52,4.55l1.33-2.45c4.59,2.79,17.62,3.15,14.39,7.13,7.25-2.06,3.23-4-2-5.55,12,4.22,19,1,31.36,4-1.93-1.49-3.64-4.56-1.66-4.44,18.2,4,8.27-4.47,20.74-5.05,6.9,4.18-2.91,9.16,9.73,6.45,7.53,3,1.34,6.84-1.78,8.78,11.59-4.41,21.17,4.12,27.68,5.28L767.49,463a27.13,27.13,0,0,1,9.61-.8L773.86,457c3.5,1,6.5,1.16,6.35,3.28,3.77-3.2-2.47-8.59,4.94-12.89,4.62,2.76,14.45-2.29,15.86,4.51-14.78-2.76,1.41,6.85-11.22,7.54a16.15,16.15,0,0,1,8.95.4c.51.77-.55,1.38-1.54,1.74,14.06,6.46,6.81-7.44,21.56-6.89-2,3.76,3.24,7.27,5.68,6.5-6-.19-2.68-6.39,2.85-9.18,9.41,3.13,10.35-2,15.3-1.59L837,448.92c2-3.75,6.71-3.16,13.32-4.29.52,2.94-6,2-3.69,3.28,7.4-6.53,16.5,7,26.8,2.47,4.75,2.5.46,7,4.65,8.7,11.52-5,12.57,4.9,24.72.57-3.6-4.87-4.17-3.63,4.27-8.71-3.31.71-6.62,1.34-9.93,2s-6.63,1.33-9.95,2l12.68-7.5c-6,.08-12.61,3.38-16.21,2.58,6-4.16,5.42-2.9,2.53-7,4.11,3.71,8.17,2.54,12.36,1.06s8.51-3.26,13.3-.9l0,12.23a22,22,0,0,0,10.38.92,55.5,55.5,0,0,0,10.06-2.58c6.84-2.23,14.14-4.8,23.54-4-2-.52-4.08-1.07-6.11-1.63,2.19-4.88,11.42-1.52,17.29-3.95-.25,4,3.63,5.08,6.43,7.28-.28-1.46,3.14-1.67,6.75-2.65s7.41-2.56,7.83-6.53c2.94,1.41,5.89,2.73,8.86,4.08a21.38,21.38,0,0,0,5.1-.52,18,18,0,0,0,4-1.54,31,31,0,0,0,6.25-4.66,39.57,39.57,0,0,1,6-4.85,19.38,19.38,0,0,1,8.6-2.65c-1.81,2.42-1,4-.86,5.58s-.4,3.11-5,5.36c4.83-.71,9.27-.86,8.91-3.46,1.6.91,4.72-.93,8-2.7s6.83-3.48,9.37-2.17c1.7-2,1.56-6,6.92-6.88.74.61.36,1.81.36,1.81-.35-1.81,7.75-4.27,2.25-7.28,4.22,2,8.88,2.32,13.7,1.8a60.52,60.52,0,0,0,7.28-1.48c1.22-.32,2.45-.66,3.67-1l3.64-1.19c2.42-.81,4.82-1.63,7.18-2.35s4.65-1.47,6.89-2c4.5-1,8.7-1.36,12.59-.16l3.72-1.78,3.82-1.92c2.57-1.3,5.22-2.53,7.8-3.85s5.13-2.6,7.59-3.8,4.8-2.42,7-3.45c-.14,1.21.68,1.61-1.15,2a15.45,15.45,0,0,0,4.08-1.27,8,8,0,0,0,2.4-1.87,12.1,12.1,0,0,0,2.13-4.56,11.39,11.39,0,0,1,2.38-4.65,9.72,9.72,0,0,1,2.72-2,24.22,24.22,0,0,1,4.51-1.64c4.68.63,3.29,2.23,1.33,3.66s-4.47,2.55-1.82,2.4c1.77,2.3,3.63,2.78,5.63,2.24a18.37,18.37,0,0,0,6.35-3.94,89.66,89.66,0,0,1,7.13-5.65,16.13,16.13,0,0,1,8.31-3l-1.77,2a12.69,12.69,0,0,0,6-2.89,46.39,46.39,0,0,0,5.54-5.72c1.85-2.17,3.71-4.58,5.81-6.83a42.94,42.94,0,0,1,7-6.4s.1,1.14.94,1.31a40.49,40.49,0,0,1,3.92-7.78c1.63-2.72,3.64-5.42,5.66-8.24,4.15-5.51,8.58-11.23,12.2-16.19.3,5.49-2.32,5.52,2.22,6.59,1.71-2.24.25-3-.79-4.41s-1.67-3.28,1.53-7.67c1.94-.64,4.53-2.18,7.13-3.37s5.1-2.12,7.06-1.28l-3.14,4.3-3.27,4.19a7.67,7.67,0,0,0,4.62-2.07,15.35,15.35,0,0,0,3-4.23c.83-1.58,1.53-3.24,2.23-4.8a14.16,14.16,0,0,1,2.48-4l1.46,1.93a42.45,42.45,0,0,0,5.95-16.14c.21-1.13.43-2.25.71-3.42s.63-2.38,1-3.72a43.84,43.84,0,0,1,1.58-4.33c.65-1.58,1.37-3.35,2.32-5.31l-2.23.93a17.39,17.39,0,0,1,0-3.37,8.32,8.32,0,0,1,.48-2.27,7,7,0,0,1,2-2.7,8.23,8.23,0,0,0,2.19-2.67,10.46,10.46,0,0,0,.78-5.39q2.92-.5,5.85-1.1l.25-2.88.15-3.65c0-1.32.15-2.71.14-4.19l0-4.58c.05-1.55-.06-3.18-.07-4.77s0-3.2-.12-4.79-.11-3.14-.13-4.65-.15-3-.18-4.36c1.63,3.24,2.63,8.28,3,13.61l.27,4c.05,1.35.05,2.68.08,4s.07,2.61.05,3.83,0,2.4,0,3.5c.38-1.57.95-3.68,1.3-6.08.2-1.19.39-2.45.57-3.72s.25-2.58.36-3.86.15-2.53.17-3.72-.08-2.33-.16-3.36a10.79,10.79,0,0,0-1.07-4.55c.2,1.3.42,2.78.55,4.26a8.46,8.46,0,0,1-.45,4.15,53.77,53.77,0,0,1-1.85-6.58,72.55,72.55,0,0,1-1.31-7.2c-.84-5-1.22-10.53-1.83-16.59a2.54,2.54,0,0,0,2.6-1,6.92,6.92,0,0,0,1.11-3.65,31.27,31.27,0,0,0-.12-5.6c-.28-2.09-.6-4.4-1.11-6.76-1-4.72-2.36-9.7-3.47-14.11s-1.88-8.29-1.34-11l-2.23-3.64c-.74-1.21-1.39-2.45-2.13-3.64-1.48-2.39-2.77-4.86-4.23-7.24l-2.09-3.64-2.17-3.61c-1.41-2.44-2.94-4.82-4.47-7.24-.74-1.22-1.56-2.41-2.37-3.6l-2.46-3.6c-1.74-2.34-3.46-4.75-5.36-7.08s-3.82-4.69-5.95-6.93c-1.06-1.13-2.11-2.28-3.22-3.4s-2.27-2.2-3.44-3.29c1.41,4.95,0,3.67-2,1.76-.5-.48-1-1-1.6-1.46a10,10,0,0,0-1.7-1.13c-1.11-.54-2.09-.56-2.7.63-1.12-.93-2.05-1.72-2.83-2.4s-1.43-1.19-1.93-1.64a5.67,5.67,0,0,1-1.53-1.71c-3.75-4.6-7.8-9-12-13.22-1.3-1.76,0-1.2,1.63-.26s3.62,2.16,3.74,1.57c-5.08-4-5.95-5.12-6.25-6.09s-.08-1.71-3.34-4.61c.27,1.16-1,1-3.12.08a32.85,32.85,0,0,1-3.64-2c-1.36-.84-2.85-1.79-4.35-2.87,1.3,1.19,2.61,2.35,3.88,3.56l3.76,3.68c-2.07-1-3.77-1.87-5.23-2.72a36.82,36.82,0,0,1-3.74-2.34,31.66,31.66,0,0,1-2.72-2.19c-.81-.69-1.54-1.36-2.27-2-2.92-2.71-6-5.45-14.63-8.41,1.93.42,3.87.84,5.78,1.33-2.16-.93-5.23-2.21-8.69-3.78-1.73-.79-3.62-1.51-5.54-2.33s-3.9-1.61-5.92-2.33c-8-3-16.28-5.2-21-5.15-1.38-1-3.07-2.68.86-1.64-2.58-1-5.29-1.76-8-2.58s-5.59-1.54-8.44-2.22l-4.3-1-4.33-.89-4.31-.88-4.28-.8c-11.35-2.11-22.05-3.87-30.17-6.26l1.79-.59c-2-.24-3.83-.15-5.73-.22a19,19,0,0,1-6.33-1.14c.32-.32,1.76-.61-.08-1-1.08,0-3.8-.1-6.89-.28a56.67,56.67,0,0,1-9.16-1.21l4.67-.31c-20.73-4.34-32.37-2.06-49.89-3.49.34-2.72-16-5.53-24.11-6.94l.33-.37c-6.06-.79-11.68-1.41-17.06-1.81s-10.52-.59-15.6-.73l-15.29-.35c-5.18-.07-10.49-.14-16.15-.38-13.69-5.23-47.24-6.38-69.63-11,3.4,1.12-.74,3.28-4.76,3.39-5.24-1.44-14.76,2-13.72-2.18l1.88.24c-3.79-4.45-14.72-4.42-23.21-5.32l-1.64,5.81c-10.93-5.05-25.54-5.66-38.87-5.42s-25.4.76-31.41-4.27c-5.4,1.54-12.06,1.17-17.41,2.82l.33-4.07c-7.45-1-13-1.59-19.08-2S683.11,2.86,673.89,3l3.75-3C667.21-.72,664.57,12.55,655,12.79l-3-6.91C643,5.72,633.82,4.21,624.69,3.4A88.81,88.81,0,0,0,611,3.13a47,47,0,0,0-13.45,3,3.94,3.94,0,0,1,3.67-3.54c-4.28-.06-12.59-1.21-19.41-1.07S569.73,3.2,571.49,8.28c-.47-6.68-18.77-.12-28.39,3.34l1.28-5.07c-8,6.77-8.12,8.55-19.53,10.91-2.76-.51-2.61-3.89,1.08-2.79-9.24-2.14-6.82,5-18,3.11l3.91-3.47c-9.38.22-8.53,1.89-13.44,6-5.74,2.39-17.79-.11-19.5-4.46-1.07,2.84-5.91,6.9-11.51,6-.87-1.64,1.05-2.84,2-3.43-7.94-1.12-13.65.9-18.74,2.57s-9.58,3.18-15.17,1.28a3.54,3.54,0,0,0-2.08-2.75c12.44-1.1,22.47-1.66,21.56-1.22-.36-4.56-10.5-4.45-3-11.46-3.91,2.07-9.16,5.29-14.67,7.87s-11.27,4.43-16.27,3.94a5.33,5.33,0,0,1-1.45-1.41l1-.61a10.89,10.89,0,0,0-6.12,1.4,34,34,0,0,0-8.26-.43c-1.55-3.54-11.76-.56-16.79-.1,1,4.75-5.66,4.84.93,8-.83-.25.88-.69,4.18-1.29a8.19,8.19,0,0,0,2.08-.76,5,5,0,0,1-.29.47c3.27-.54,7.54-1.15,12.4-1.8-3.7,2.94-7.58,5.47-13.4,3.45-2.21,3.41-4.66,6.89-6.06,8.59-7.58-5.84-21.23-7.66-23.61-11.36-14.92,4.79-35.75,7.62-43.81,17.81-4.11,1.83-5.36-1.53-7.2-2.53,2.33-1.35,5.32-1.72,6.46-3.19-4.13,1.82-10.46,3.34-15.89,5.1s-9.92,3.88-10.37,6.94c-11.29-.24,5-6.54-9.62-2.39l1.65-2.16c-15.55-1.19-26.66,5.51-38,11.79-2.85,1.53-5.68,3.19-8.63,4.65A77,77,0,0,1,231,62.73a66.42,66.42,0,0,1-10.33,2.83c-1.84.34-3.76.6-5.75.78-1,.09-2,.16-3.05.21s-2.09.12-3.16.15c2.36-.15,3.53-.23,4.24.45a171.61,171.61,0,0,0-27.47,8.23c-9,3.49-17.86,7.6-26.61,11.81-17.52,8.44-34.58,17.28-51.93,24.59a41.05,41.05,0,0,0-5.59,3.18,20.16,20.16,0,0,0-3.26,2.87c-1.71,1.87-2.82,3.71-5.07,6.2L89.6,123q-1.89,2.21-3.72,4.45l-3.69,4.42c-5.75,5.42-12.11,8.08-18.51,11.8a58.31,58.31,0,0,0-19,16.48c.91-.28,1.84-.52,2.76-.77-1.36,1.15-3,2.78-4.68,4.51-.85.87-1.74,1.74-2.58,2.64l-2.46,2.62c-.79.83-1.54,1.61-2.23,2.3s-1.26,1.32-1.77,1.8c-1,1-1.64,1.38-1.68.94a8.86,8.86,0,0,1-2.95,4.24l-.76-.39-2.54,3.6c-.84,1.2-1.64,2.43-2.47,3.64-1.67,2.4-3.23,4.88-4.81,7.32a29.23,29.23,0,0,1-3.75,4.29,1,1,0,0,1-1.13.17c-.57-.11-1.75.35-6.65,9-1.7,3.31-3.77,8.19-5.19,11.92s-2.3,6.29-1.62,5.1c1.26-2.67,3.42-6.72,3.95-6.68-1,2-1.89,4-2.85,6,.16.75-.14,2.36.53,2a10.4,10.4,0,0,0,2-2.26c.55-.72,1.22-1.63,2-2.77l3.11-4.08c.9-1.63,1.89-3.2,2.85-4.8l1.42-2.4,1.48-2.37q1.42-1.22,2.86-2.4c-1.89,2.48-3.84,4.94-5.63,7.51.93-1,1.71-1.92,2.42-2.8s1.35-1.7,1.9-2.51c1.11-1.64,2-3.21,3-4.8a15,15,0,0,0,3.82-3c1-1.53,1.93-3.09,2.87-4.66s1.95-3.11,2.89-4.7c1.6-.37-2,4.64,3.4-.29,1.43-2.12.16-1.62-.76-1.35s-1.51.29,1.2-3c4.54-3.1,4.22-1.25,8-6.28,1.13-.12.49,1.1-1.1,3a81.35,81.35,0,0,1,6.78-7c2.4-2.3,4.55-4.39,5.09-5.93,5.42-2.26,14.46-12,16.12-9.07A52.85,52.85,0,0,1,78.14,147.8c-2.62,4.3,1.39,1.69,6.18-1.21a53.85,53.85,0,0,1,7.09-3.75c2.07-.79,3.56-.88,3.73.48a16.93,16.93,0,0,1,4.88-5.21c1.13-.87,2.38-1.74,3.71-2.62s2.79-1.71,4.27-2.57c2.94-1.76,6.15-3.41,9.16-5.2a64.71,64.71,0,0,0,8.37-5.47c-.43.64-1.27,1.91-2.35,2.17,6.38-2.61,8.88-2.12,13.34-3-1.12-4.13,8.21-9.44,12.43-14.21,4.8.3,4.16,2.05,2.86,4s-3.29,4.11-1.19,5.49c-1-1.55,2-3.74,4.79-5.77s5.29-3.84,3.34-4.74c3.54,0,5-.1,6.1,0s1.93.44,4.23,1.68c-.61-2.92.69-3.72,2.61-4.36s4.44-1.21,6.27-3.86c5-.13,6,1,7,1.6s1.82.49,6.35-2c2.64.17,2,1.48.69,2.72A22.24,22.24,0,0,1,188.74,104.44ZM426.6,48.5v.1l-5.06.74C422.6,49.18,424.06,48.94,426.6,48.5Zm20.75-1.84c-2.54,0-5.69.25-9,.56-.88-1.64-.25-3.47,1.85-3.56C439.14,44.91,444.13,45.47,447.35,46.66ZM399.82,17.09c3.26-1.09,4.48-.28,5,.66-1.57.28-3.39.66-5.77,1.29-.08.19-.25.42-.33.64A6.31,6.31,0,0,1,399.82,17.09Z"/><path class="cls-1" d="M394.54,24.16a6.8,6.8,0,0,1-1.33.52,16.54,16.54,0,0,0,2.11.85c.35-.56.7-1.12,1-1.65Z"/><path class="cls-1" d="M434.18,424.56l.44.13a2.54,2.54,0,0,1-.9-.75C434,424.2,434,424.36,434.18,424.56Z"/><polygon class="cls-1" points="735.18 41.65 735.17 40.67 733.33 41.59 735.18 41.65"/><path class="cls-1" d="M319.44,404.52a2.7,2.7,0,0,0-1.47-1.08C318,403.71,318.66,404.09,319.44,404.52Z"/><path class="cls-1" d="M269.6,402.48l-7-1.44A60.61,60.61,0,0,0,269.6,402.48Z"/><path class="cls-1" d="M231.31,400.05a3.75,3.75,0,0,0-.81,1.4l.07,0Z"/><path class="cls-1" d="M840.69,410.31a5.59,5.59,0,0,0,1.47-.23C845.61,409,843.27,409.4,840.69,410.31Z"/><path class="cls-1" d="M659.28,417.63a35.2,35.2,0,0,1,5.95-2.58C662,414.48,659.51,414.27,659.28,417.63Z"/><path class="cls-1" d="M1037,393.73s0,0,0,.1c.4-.09.77-.13,1.18-.2Z"/><path class="cls-1" d="M673.65,415.46a12.18,12.18,0,0,0-8.43-.41C667.85,415.54,670.95,416.27,673.65,415.46Z"/><path class="cls-1" d="M67.29,388.35l-1.72-.54c0,.09-.12.13-.27.14Z"/><path class="cls-1" d="M65.3,387.94l-2-.41A6.71,6.71,0,0,0,65.3,387.94Z"/><path class="cls-1" d="M59.19,386.53l4.13,1A16.11,16.11,0,0,0,59.19,386.53Z"/><path class="cls-1" d="M116.33,397.1l.66-.68A1,1,0,0,0,116.33,397.1Z"/><path class="cls-1" d="M131.58,397.92c-3.62-.41-9-2.13-14-2l-.54.54C119.47,395.51,128,399,131.58,397.92Z"/><path class="cls-1" d="M195.14,412.44l-12.87-1.59c2.21,1.2,5.12,2.89-.76,2.75C197.64,418,178.25,410.95,195.14,412.44Z"/><path class="cls-1" d="M235.09,416.67c-7,.14,0,1.87-.39,2.59C239.14,418.4,240.22,418.14,235.09,416.67Z"/><path class="cls-1" d="M524.35,433.34l-.9,4.88C528.82,437.81,523.58,436.31,524.35,433.34Z"/><polygon class="cls-1" points="580.75 409.6 575.68 406.25 573.01 410.86 580.75 409.6"/><polygon class="cls-1" points="611.91 448.06 609.54 448.68 618.54 447.25 611.91 448.06"/><path class="cls-1" d="M1102.54,425l-3.32-5C1096,422.13,1097.09,428.62,1102.54,425Z"/><path class="cls-1" d="M1268.6,287.28c3-1.23,6.74-6.72,6-11.21C1272.68,280.8,1269.17,284.73,1268.6,287.28Z"/><polygon class="cls-1" points="791.68 11.07 795.96 10.2 787.94 10.56 791.68 11.07"/></g></g></svg>