<svg xmlns="http://www.w3.org/2000/svg" viewBox="0 0 558.42 637.12"><defs><style>.cls-1,.cls-2{fill:#231f20;}.cls-1,.cls-3{fill-rule:evenodd;}.cls-3{fill:#fff;}</style></defs><title>Asset 8</title><g id="Layer_2" data-name="Layer 2"><g id="Ebene_1" data-name="Ebene 1"><path class="cls-1" d="M558.42,166.17c-8.57-.07-11-12.89-16.42-18.86C491.31,84,424.5,28.22,327.87,11.08c-96.19-17-204.19,19.58-265,74.66-6.7,6-12.74,13.54-21.38,17.21C41.82,93,52,86.25,58.74,80.85,109.43,39.81,177.61,5.39,263.87.42,352.93-4.76,439,38.3,497.65,89.06c12.17,10.44,23.69,23.83,33.7,36.07,10.51,12.89,22.1,25.7,27.07,41Z"/><path class="cls-1" d="M299.56,23.72c9.12,19.54,20,54.34,11.18,73.24-14.68,2.38-33.42,10.79-48.72,7.92-4.83-9.67-5.65-23.67-7.39-35.32,5.45-2,15.92-4,22.55-4.43,4.52-.61,3.26,8,8.9,5.55,2.79-2.94-1.69-6.63-2.41-10.38C275,57.36,262,65.2,252.18,62.52c-.26-11.62-4.74-17.53-.7-28.44,12.71-1.92,32.11-8.79,48.08-10.36Z"/><path class="cls-1" d="M229.39,375.39c-10.12,15.19-20.4,31.78-28.89,45,2.49-.19,4.35-5.28,6.64-7.35,3.33.25,7,2.57,10.61,4.95-.47,5.15,0,11.92-4.78,15.88-5.85-.27-11-6.79-12.14-11.16-6.37,1.5-13.75-3.53-20.8-6.51-2.46-5.11,5.31-9.89,1-13.56-3.86-3.37-7.25.75-11.86,7.46-5.36-2-10.73-4.32-16-6,8.77-19,11.35-36.64,26.93-54.64,5.35,1.88,14.16,6.1,17.68,9.21,2.55,3.91-4.32,9.19-.51,13,4.6,1,8.21-5.25,12.17-9.3,6.66,5.39,16.77,6.71,20,13Z"/><path class="cls-1" d="M152.39,325.48c5.71-7.38,11.85-13.19,17.53-20.67,6.69,3.53,13.25,11.88,18.76,11.94,5.38-9.15-6.75-12.38-10-18.64,1.86-6.07,8.91-10.46,13.49-14.39,15.73,11.74,26.9,25.09,42.09,37.12-1.55,13.6-18.39,26.66-28.4,37.23-22.43,1.25-35.61-22.55-53.46-32.6Z"/><path class="cls-1" d="M151,320.17c9.36,6.7,11.38,20.88,13.9,34.42a27.58,27.58,0,0,0-9.79,5.76c-.65,6.48,7.63,14.26,5.69,22.18-5.76-.36-15.26,9.43-20.45,9-7.49-.58-8.28-12.46-12.31-19.66-10,9.72-13.25-.72-17.28-9.07-3.46-7.13-11-15-1.58-21.31,11.3-7.63,34.27-15.84,41.83-21.31Z"/><path class="cls-1" d="M396.41,142.8c3.51-7.07,5.84-15.33,10.16-21.63-2.71-5.2-12.27-10.52-19-6.11,1.42,5.3,10.08,2.93,11.71,7.94-2.35,7.4-4.85,14.66-10.29,19.11-7.73-3.93-15.38-7.93-24.79-10.08-6.94-7.4-1.24-10,2-18.91,3.85-10.89,9.71-28.31,21.43-29.23,1.22-.1,10.5,2.49,14.06,3.78,9.3,3.38,20.13,7.6,26.52,10,5.09,2,11.94,8.51,11.81,15.35,0,4.68-8.3,20.72-11.72,25.69-2.09,3.07-6.44,4.83-8.81,8.42a36.33,36.33,0,0,1-23.07-4.36Z"/><path class="cls-1" d="M113.7,376.79c10.06,1.46,15.56,10.8,23.65,15.83,1.53,3.84-1,5.25-1.34,7.94,2.83,4.25,7.2-1.22,12.33-1.52,10.23,12.87,27.25,13.92,39.25,23.64,1.25,1.38,1.23,6.67,2.7,10.31,4.82-.37,2.81-4.61,6.13-5.85,9,1.8,16.64,6.13,24.58,9.7-5.79,23-17.39,42.67-28.52,62.64-10.11-3.08-21.47-3.82-28.62-12.07-2.81-2.47,3.11-4.61,3.14-7.6-4.22-1.05-6.8,2.16-10.09,3.54-6.82-.44-12.06-5.1-17.4-8.16s-12.7-4.71-15.66-11.15c9.73-8.88,31-7.77,40.8-15.84-1.57-7.7-1.47-18.08-3.52-26.17-14.7,7.5-26.33,16.81-39.08,25.51-10.35-1.15-20.22-8.39-28.06-13-.88-.51-1.15-5.8-.48-8.36,1.51-5.61,6.23-13.69,9.69-21.23,5-10.85,8.43-18.07,10.48-28.13Zm9.58,36.49c-4.49,1.62-5.88,5.12-5.09,9.82,5.15,1.18,10.82-6.71,5.09-9.82Z"/><path class="cls-1" d="M494.41,140.1c-1.73,10-5.62,17.86-14,21.31-5.4-3.31-6.62-10.87-13.1-13.1-.65.14-.86.79-1.66.79-1.8,2.45,1.58,5.11,2.45,7.42-2.16,4.9-4.1,10.08-9,12.31-3.1-1.58-2.52-6.84-7.42-6.55-3.89,5.83,5.9,9.22,5.76,15.55-.14,7-7,8.78-13.1,12.31-6.26-6.84-16.2-15.77-21.38-23.76-1.3-2.09-4.1-7.78-4.1-9.86.22-5.76,11.88-14.9,17.28-20.52,9.94-10.22,14.47-17.78,21.31-27.94,14.76,8.28,27.22,18.79,36.94,32Z"/><path class="cls-1" d="M473.89,270.35c-7.2-2.38-6.91-11.74-9-17.21-6.84-17.93-17.93-34.7-27.07-50.9-16.42-20.16-35.42-38.59-58.32-54.14-21.89-14.83-48.74-29.16-79.56-32.83-47.16-5.54-91.58,3.17-126.36,20.52-15.62,7.85-32,21.31-47.59,35.28-9.5,8.57-19.66,20.81-28.73,33.7-2.45,3.46-6.19,10.66-10.66,9.79-4.82-.94,3-8.5,3.31-9,15.7-24.34,36.5-46,59-61.56,25-17.21,66.82-34.34,98.5-36.94,64.66-5.18,112.68,17.64,148.46,46,28.22,22.25,50.54,46.58,66.46,81.22,5,10.73,11.16,22.82,11.52,36.07Z"/><path class="cls-1" d="M525.93,213.77c7.31-2.22,6.15-9.43,12.14-12.44.94,7.79,16.57,13.18,17.15,21.05.44,5.24-11.15,12.86-16,16.77-7.16,5.75-13.72,10.61-17.06,16.21-6.18,1.71-6.4,7-13.1,8.38-12.2-3.59-4.31-19.63-8.87-28.21-4.94-.45-5.2,6.45-10.73,7.77-5.22-3.88-15.13-5.75-16.81-12.67-1.65-7.08,10.5-16.85,16.09-23.54,8.26-9.9,11.74-19.32,15.2-26.74,8.12.09,17.56,3.34,20.33,10.14,3,7.32-3.47,17.07,1.67,23.27Z"/><path class="cls-1" d="M314.74,332.85c2.23-7.85.79-20.66,0-32-66.46-3.31-50-105.12,16.42-96,21.67,3,35.06,28.37,32.83,56.66-1.66,20.59-21.17,41.33-43.49,39.38a269.79,269.79,0,0,1,.79,27.86m-1.58,10.66c3.67,17.35-4.9,35.86-1.66,50.9.94,4.32,6.12,10.3,9,14,11.52,14.54,27.07,29.66,37.73,42.62,4.82-4.9,13.68-3.38,19.73-3.24,13.54,9.29,34.27,17.93,42.7,32.76,5.69,10.15,11,28.08-2.52,33.7-14.18,5.83-48.53-3.46-59.9-9.07-9.94-4.9-13.25-10-11.45-23-5.69-8.14-8.57-21.24-3.31-32,3.24-.22,4.25,1.73,6.55,2.45-12.17-17.86-29.45-30.74-40.18-50h0c-14.47,13.68-28.87,27.43-40.18,44.28,14.47-1.37,12.67,15.91,16.42,32,1.73,7.49,6.48,12.74,1.58,20.45-19.3,5.11-45.58,15.26-68.11,13.18-26.42-2.45-14.33-34.27-2.45-45.94,5-4.9,13.1-11.3,16.42-13.18,5.76-3.17,19.15-8.57,23.83-2.45,14.26-20.74,33.48-36.5,48.38-56.59,1.22-19.8,2.81-34.27,3.31-55-1.15-2.09-.5,4.39-4.1,2.45M289.32,224.56c-12,13-17.71,45.65-.79,60.7,11.74,10.51,35.71,11.16,47.59,5.76,12.82-5.83,22.32-19.94,22.1-36.14-.29-27.86-13-43.49-38.52-42.62-14.4.43-24.19,5.54-30.38,12.31Zm64.8,229.75c-4.54,9.14,1.94,18.65,5.76,24.62,19.15,6.19,44.06,21.6,66.46,10.66-2.59-13-11.52-19.66-20.52-26.28-3.31,2.66-6,6-6.55,11.52-4.61-.86-7.85-3.17-7.42-9.07,4.68.07,6.55-2.81,7.42-6.55-3-1.66-5-4.32-8.21-5.76-1.73,1.87-4.75,2.38-6.55,4.1-1.66,2.81,3.17,6.7-1.66,8.21-3.1-1.51-7.49-1.8-7.34-6.55,3-2.74,6-5.47,7.34-9.86-9.94-4.75-16.85,11.38-28.73,5Zm-72.21-4.1c-12.24,10.37-27.07-6.55-36.07,7.34,2.59,1.73,9.36-2,10.66,2.45.29,5-2.59,6.7-5.76,8.21-4.39-6.7-19.08-12-18.86,0,2.16,3.24,4.39-1.73,8.21.86-.07,2.52,2.59,2.3,1.66,5.76-2.16,1.08-2.81,3.74-5.76,4.1a63.16,63.16,0,0,0-8.21-8.21c-6,3-9.07,8.93-9,18,23.33,2.52,50.54-3.67,68.9-11.45-1.37-9.58-4.46-17.42-5.76-27.07ZM218,495.28c1.51,8.86,12.31,6.77,23,5.76,10.08-.94,26.57-3.31,34.42-5.76,1.94-.58,4.32-3.24,6.55-4,4.54-1.73,10.73-.79,8.21-7.42-20.45,6.91-48.53,15.41-72.14,11.45Zm155.88,5c11.09.29,43.06,12.67,51.7-1.66-25.27,4.25-49.39-8.06-67.32-14-1.3,11.66,11.38,9.43,15.62,15.62Z"/><path class="cls-1" d="M516,304.38c.65-.34.86.12,1,.6-2,3.84-7.22,10.22-11.82,14.69-7.87,7.56-15.91,18.33-29.49,13.17-11-4.19-28.71-19.17-30.58-27.63-2.25-10.22,7.46-20.67,13.53-29,2.94-4,6.81-11.08,11.77-12.12,7.74-1.5,15.34,10.72,22.82,18.84,9.38,10.18,17.34,13.88,22.77,21.41Zm-39.85-4.24c-3.17,4.71,1.22,13,8.59,8.54,2.44-4.87-.73-13.17-8.59-8.54Z"/><path class="cls-1" d="M297.53,237.66c2.52,1,4.61,2.52,4.9,5.76-1.58.79-1.3,3.6-4.1,3.24-.14-.94-1.44-.65-2.45-.79-.14-3.38-.29-6.84,1.66-8.21Z"/><path class="cls-1" d="M325.4,238.53c3.82-1.08,4,1.44,5.76,2.45a5.76,5.76,0,0,1-3.24,4.9c-3.67.5-4.1-5.11-2.52-7.34Z"/><path class="cls-1" d="M89,431.2c1.73.36,2.16-.58,3.31-.86.72-.14.79.36.79.86,12.17,8.86,18.72,19.8,29.59,28.73,32,26.28,83.52,52.06,139.46,54.94,73.44,3.89,119.45-18.72,160.78-58.25,2.23-2.09,11.3-16,15.62-13.1,3.82,2.52-.22,4.39-3.31,8.21-7.49,9.29-17.21,17.71-25.42,23.76-13.25,9.79-25.85,20.23-38.52,26.28-70.2,33.41-170.35,17.86-230.62-22.18C121.81,467,101.43,452.37,89,431.2Z"/><path class="cls-1" d="M68.53,477.14c-4.1,0-6.55,1.58-8.21,4.1,7,15.41,24,12.67,20.52,30.38-1.37,7.13-16.78,23.26-27.86,22.1-9.5-.94-17.71-10.22-24.62-17.21-12.1-12.24-31.54-28.44-14.76-46.8,6.84-7.49,28.8-23.18,42.62-31.18C71,430,83.36,447.11,91.5,455c4.9,4.68,20.09,15.7,16.42,27.07C106,487.86,94.3,499.1,88.26,499.31c-6.84.22-21-12.82-19.73-22.18ZM35.77,492.76c-1.44,6.12,5.62,9.07,13.1,7.34,7.49-10.73-11.16-16.13-13.1-7.34Z"/><path class="cls-1" d="M485.41,459.93c-3.67,6.77-9.79,11-12.31,18.86,8.06-.5,9.86-14.11,16.42-18.86,8.42,4,18.07,8.71,26.21,13.9,3,1.87,8.71,7,9.07,9.86.58,5.54-9.36,15.84-11.52,18.86-7.85,11.09-21.38,32.76-38.59,20.52-5.47-3.89-11.52-11.38-18.86-18.07-8.28-7.49-24.91-14.9-23-27.86.5-3.17,6.26-8.28,9.07-12.31,5-7.13,9.43-19.37,18.86-20.52,11.09-1.37,16.63,7.7,24.62,15.62Zm-.86,29.52c1.66,5.47,5.54,8.71,13.1,8.21,10-6.7-8.21-16.63-13.1-8.21Z"/><path class="cls-1" d="M423,482.9c9.86,6.91,13.18,18.5,21.38,29.52,2.81,3.74,7.27,9.07,11.45,14,6,7,12,10.08,12.31,20.52-6.34,3.46-10.22,11.16-18,11.45-6.26.29-12.46-8.21-18.07-2.45.65,4.54,5.54,4.82,6.55,9-5.54,5-12.74,15.62-20.52,14.83-4.32-.5-5.4-5-8.21-9.07-10.44-15.55-27.43-38.09-34.49-54.14a112.09,112.09,0,0,0,13.18-9.86c6.26.43,14.4,5.54,19.66,1.66-1.08-4.1-5.33-5-6.55-9,4.25-8.42,14.18-11,21.31-16.42Z"/><path class="cls-1" d="M159.61,509.1c-4.46,25.42-19.08,47.66-24.62,74.66-13.25.29-20.66-9-30.31-14.76-.86-5.47,1.3-8,3.24-10.66-.94-2-3.24-2.74-4.9-4.1-6.41,1-6.12,8-11.52,8.21-4.1.22-9.43-6.7-13.9-9.86-5.54-3.82-11.81-5.54-13.18-9.79,16.85-22,41.62-36.14,63.22-53.35,9.79,7.42,21.31,13.18,32,19.66Zm-45.07,24.62c1.94,4.32,6.26,6.34,11.45,7.42a18.84,18.84,0,0,0,2.45-14.76,12,12,0,0,0-13.9,7.34Z"/><path class="cls-1" d="M197.41,524.73c.14,8.06-1.87,23.83,4.1,28.73,3.89-7.27,8.57-13.82,9-24.62,8,3.24,18.22,4.18,25.42,8.21-.5,24.7-4.82,52.56-14.76,70.56-23.69,3.17-64.87-2.23-66.46-25.42-1.3-19.22,12.46-43.34,16.42-60.77,1.66.22,3.53-3.46,4.1-1.58,7.2,1.8,16.06,1.94,22.18,4.9Z"/><path class="cls-1" d="M395.91,588.74c-11.09,3.1-19.44,9-29.52,13.1-6.41-3.53-6-11.16-8.21-17.21-6.12-16.92-17.35-34.63-23.76-52.49C346.16,530.2,356,522,365.6,520.62c11.45,13.75,13.61,33.55,22.1,51.7,2.66,5.62,8.06,9.79,8.21,16.42Z"/><path class="cls-1" d="M316.35,533.73c3.67,11.38,4.75,25.34,8.21,36.94-4.46,3.1-10.58,1.51-15.62,2.45.07,15,3.24,24.19,5.76,37.8-15.12,1.8-27.29.72-41,3.24-2.16-9.94-.22-28.51-4.1-41-1.94,4.61-12,1.08-15.55,4.1-7.13-7.85-6-24.91-6.55-39.38,16.13-3,30.1.79,45.94-.79,7.27-.72,14.26-5,23-3.31Z"/><path class="cls-1" d="M119.43,597.74c1.51-.07.5-2.74,1.66-3.24,27.58,10.94,53.35,22.32,85.32,27.07,10.73,5.18,29.74,4,44.28,7.34,1.3.36,3.6-.58,3.31,2.45,1.66-1.51,1.3-3,4.1-1.58,15.84,1.66,31,2.16,48.38,0,1.8-.14,2.59.65,2.45,2.45a6.64,6.64,0,0,1,5-2.45c28.58-.72,62.71-6.19,88.63-18.07,30-7.78,56.09-22.1,79.56-38.59a365,365,0,0,0,33.62-26.21c10.58-9.5,18.94-21.38,31.18-28.73.07,12.1-9.72,14.33-14.76,21.31-17.64,17.86-38,33.12-59.9,46.8-49.68,30.38-114.12,51-186.26,50.83-13.46,0-29.88-.22-44.28-3.24-1.94-.43-2.74-.29-4.1-2.52-37.73-1.73-76.61-14.54-110.81-28.66C78.32,582.62,40.16,558.21,7,522.28c-3.31-3.6-9.79-8.35-5.76-14,9.72,5.62,15.41,15.19,23,23C43,547,62,562.53,83.36,575.63c1.58-.58,1.44,1.15.79.79,6.91,3.74,23.62,11.16,33.62,17.21,2.74-.79,1.3,2.59,1.66,4.1Z"/><path class="cls-2" d="M300.32,274.78c3.69-7.11,11.41-3.62,17.57-2.27s12.31,1.74,17.91-1.53c2.7-1.58-.91-4.49-3-3.25-11.3,6.6-29.44-9.34-37,5.25-1.25,2.4,3.46,4,4.59,1.8Z"/><path class="cls-2" d="M282.11,206.57c-.19.39-.37.79-.55,1.19l-.2.4-.09.14q.19-.17.06-.07l.78-.47,0,0,2.38-.84h0l.91-.12c.29,0,.18,0,0-.18A5.81,5.81,0,0,1,285,206c-.11-.22-.68-.12-.81-.11a8,8,0,0,0-1.72.44c-.24.09-2.42.86-2.18,1.32s.38.88.76,1.05a1.88,1.88,0,0,0,1.06,0,10.07,10.07,0,0,0,2.68-.89,2.7,2.7,0,0,0,1.29-1.06c.26-.49.46-1,.7-1.51s-1.71-.07-1.86,0a10.29,10.29,0,0,0-1.8.69c-.3.16-.82.36-1,.68Z"/><path class="cls-2" d="M310.06,153.22a38.28,38.28,0,0,1,10.91-.63c1.28.16.27-.32.26.1a7.91,7.91,0,0,1-.44,2.24c-1.41,4.25-4.72,7.9-6.84,11.8-1.74,3.2-3.54,7.12-1.66,10.66,2.63,4.95,9.15,6,14.14,6.38,2,.15-1.25-3.43-2.73-3.55-2.1-.16-6.57-.17-7.78-2.36-.84-1.53.13-4,.71-5.47,1.76-4.35,4.86-8,7-12.13,1.58-3,2.74-6.08,0-8.78-4.09-4.1-11.4-2.61-16.4-1.81-2.14.35,1.25,3.78,2.73,3.55Z"/><path class="cls-2" d="M325.23,194.68v-.91c0-.2-.6-.38-.67-.41a10.26,10.26,0,0,0-1.72-.43c-.21,0-2.53-.43-2.53-.05v.91c0,.2.6.38.67.41a10.26,10.26,0,0,0,1.72.43c.21,0,2.53.43,2.53.05Z"/><path class="cls-2" d="M363.76,174c11.31,1.5-1.09,10.6-4.58,13.87-1.38,1.29-4.91,4.05-3.36,6.21,1.93,2.69,9.59,1.92,12.27,1.86,3.08-.08-1.59-.76-2.48-.74-3,.08-6.74-.32-4.33-3.89,1.88-2.78,5-4.88,7.42-7.12,1.65-1.52,5.27-4.28,5-6.89-.28-3-5.23-3.37-7.4-3.66-.9-.12-5.58,0-2.56.37Z"/><path class="cls-2" d="M354.93,203.92c.14.07.28.16.43.23s.17.15,0,0-.2-.06-.25-.36l.18-.71h0l1.32-.92h0l1.29-.3q.86,0,.52,0,.7.12.4.06l-.18,0-.49-.14-.61-.19a3.73,3.73,0,0,0-1.81,0,3.8,3.8,0,0,0-1.64.77,1.17,1.17,0,0,0-.51,1.05c.1.43.56.6.92.72a8.46,8.46,0,0,0,1.92.47,4.46,4.46,0,0,0,1.72-.21c.67-.21,1.65-.61,1.83-1.39s-.59-1-1.09-1.3a3.82,3.82,0,0,0-3.44.33c-.64.4-1.53,1.39-.47,1.92Z"/><path class="cls-2" d="M265.43,182.14a5.72,5.72,0,0,1,4.38-6.72,4.83,4.83,0,0,1,2.06.05c-.94-.2-.43-.77-.41.09a9.37,9.37,0,0,0,.46,1.4,11.27,11.27,0,0,1-1.17,7.81c-2.36,4.35-3.87,7.88.56,11.49,3.81,3.1,8.75,3,11.88-1,.61-.79-3.37-3.81-4-3-1.67,2.15-7.58,5.49-6.69.41.48-2.74,2.7-4.75,3.42-7.4,1-3.89.21-8-2.87-10.66-4.69-4-12.8-2.43-11.7,5,.2,1.33,4.2,3.15,4.11,2.55Z"/><polygon class="cls-3" points="269.96 271.96 276.86 262.08 282.82 259.73 286.43 260.82 286.43 265.69 286.43 272.59 284.86 276.83 283.14 284.36 288.47 280.75 291.92 278.71 297.41 278.71 300.24 281.53 301.81 284.98 301.02 287.96 298.82 291.88 294.72 295.99 288 298.63 280.78 293.92 274.2 282.47 269.96 271.96"/><polygon class="cls-3" points="346.83 298 340.55 295.18 337.73 291.26 335.53 285.14 337.89 280.28 341.18 279.18 344.63 279.18 343.06 274.32 343.06 269.77 343.06 266 346.91 262.16 352.95 262.16 356.4 263.49 359.69 263.49 360.71 262.47 360.71 260.98 359.38 257.84 358.75 255.18 358.75 252.82 360.48 249.06 362.67 246.86 364.63 244.9 369.73 244.9 372.05 247.22 375.57 250.75 377.54 252.71 378.83 257.06 381.57 259.81 346.83 298"/><path class="cls-1" d="M245.16,322.61a29.07,29.07,0,0,1-6.49-23.42c-5.79-4.68-15.36-24.86-9.19-30.13,4.27-3.72,10.53-1,14.58,4.6,5.46-8.68,5.66-29.39,22.11-26.12,4.64,7,2.25,11.73,3.54,17.62,4.64-8.33,16-13.8,20.54-2.56,2.27,5.45-1.91,8.12-1.67,13.91,15.53-5.09,23.6,9.88,11.91,19.74-3.57,3-9.55,4.11-13.73,8-8.67,7.86-19.4,29.69-35.76,21.81m149.13-3.86c-4.31-.08-6.77,4.16-11.26,3.66-5.45-.55-9.19-6.46-14.22-4-7.54-2.71-9.89-10.61-17.13-15-4.72-2.89-11-2.26-15.58-5.25A20.72,20.72,0,0,1,333.8,279c1.7-2.59,5.17-1.92,7.1-4-6.15-9.57,4.2-24.39,16.17-15.07.49-4.42-2.13-19.66,7.26-20.1,9.2,3.47,16,8.28,18.72,15.4,2.73-3.35,5.35-7.92,9.78-7.44,11.86,1.15,7.15,15.08,7.61,27.62.5,14.79,14.51,23.79,3.07,40.93M250,278.71c.5,3,4,7,1.42,9-9.72,1.85-7.32-15.58-16.32-14.24-3.46,7.86,2.85,17.26,8.42,25.62.79,3.29-1.52,5.57.8,9.35,8.6-1.27,16.45-.15,21.42,9.95,8-3.47,12.53-15.5,21.25-21.61,5.76-4,16.16-6.34,12.66-14.71-8-2.84-15.24,6.86-20.47,10.65-.58-.84-1.56-.54-2.23-1.26-2.34-11.61,12.15-17.87,6.92-30.4-12.12,4.1-11,16.78-17.36,24.43-7.57-1.12-2.91-8.75-2.43-12.49.87-7.37.2-15.64-2.3-21.54-8.36,7.63-9.24,17.71-11.78,27.22Zm130.43-14c-1.72-8.55-11.39-22.1-17.87-15.24-3.91,12.66,16.51,24.13,7,32.69-6.3-5.8-12.23-20.16-23.42-16.79-3.52,11.28,8.9,13.63,14,20.06-.52,1.87.73,2.75-.5,5-7.32.79-11.05-9.14-20.15-7.35-4.13,11.85,9.28,12.54,16.13,15.57,10.37,4.62,16.87,15.33,23,18.38,4.13-12.9,11.77-19.36,21.5-22.1-7.3-10.79-.68-29.42-7.46-40.44-8.38,3.79-2,19-8.15,23.29-6.25-.92-3.09-8.19-4-13.09Zm15.43,39.22a6.31,6.31,0,0,0,3.45,6.12c.79-2.55,2.77-3,3.36-5.87-1.88-2.92-5-.94-6.81-.26ZM247.37,317.41c1.22-1.35,3.35-2.46,2.47-4.56-1.7,1.53-2.68.61-4.13,1.37.71,1.63-.21,2.61,1.66,3.2Zm138.33,1.65c8,2.91,9.85-6.89,3.42-9.29-1.8,2.41-4.24,5.54-3.42,9.29Zm-133.47,1.52c2,3.25,5.3,2.37,8.73,1.16.14-3.57-3.57-7.41-6.25-7.36,1.29,2.75-.52,4.48-2.47,6.21Z"/><path class="cls-1" d="M385.27,283.95c-2.77,8.57-12.16,5.27-14.36,14.75-9.76-6.54,6.92-20.49,14.36-14.75Z"/><path class="cls-1" d="M258.79,289.51c5.78-1.22,15.56,3.88,13.72,10.75-2.11.46-3.9,0-4.86-3.18-2.71-3-8.44-2.52-8.86-7.57Z"/><path class="cls-1" d="M273.64,308.58c-6.41,5.76-7.34-8.22-13-9.4-2.91.16-6.06.95-7.84-2.48,6.66-7.88,16.4,1.8,20.86,11.88Z"/><path class="cls-2" d="M245.16,317.43c-3.53,4.73-7.35,11.07-5.26,17.19,1.76,5.15,7.26,7.54,12.21,8.55,14.42,2.95,30.6-.16,44.66-3.63,6.2-1.53,12.86-3.21,18.43-6.45,3.89-2.27.37-8.32-3.53-6-5.39,3.14-12,4.61-18,6A144.6,144.6,0,0,1,268.4,337c-6,.34-14.25,1-19.65-2.32s-.26-10.09,2.45-13.71-3.37-7.1-6-3.53Z"/><path class="cls-2" d="M318,331.45c13.45,2.43,26.49,6.57,39.82,9.54a197.63,197.63,0,0,0,33.26,4c7.29.36,17.3-1.85,19-10.35,1.57-7.65-6.1-14.2-8.06-21.08-1.23-4.32-8-2.49-6.75,1.86a39.61,39.61,0,0,0,4.25,9.25c1.25,2.12,4.08,5.53,3.76,8.2-.42,3.51-5.51,5.09-8.46,5.2a108.55,108.55,0,0,1-11.38-.66c-21.89-1.52-42.15-8.83-63.61-12.7-4.4-.79-6.29,6-1.86,6.75Z"/><path class="cls-2" d="M315.26,321v18.13c0,3.6,5.6,3.61,5.6,0V321c0-3.6-5.6-3.61-5.6,0Z"/><polygon class="cls-3" points="364.69 494.82 374.44 500.27 389.84 495.61 371.53 489.44 364.69 494.82"/><polyline class="cls-3" points="379.49 486.44 392.53 490.87 416.93 472.4 409.86 466.33"/><path class="cls-3" d="M404.53,493.18l17.3-14.78s7.94,10.83,0,13S404.53,493.18,404.53,493.18Z"/><path class="cls-3" d="M399.75,498h24.54s-1.28,7.47-17.62,7.47-5.6-2.28-5.6-2.28Z"/></g></g></svg>