<svg xmlns="http://www.w3.org/2000/svg" viewBox="889.667 327 1918.333 246">
  <defs>
    <style>
      .cls-1 {
        fill: none;
      }

      .cls-2 {
        fill-rule: evenodd;
      }

      .cls-3 {
        font-size: 89px;
        font-family: IndieFlower, Indie Flower;
      }

      .cls-4 {
        fill: #231f20;
      }
    </style>
  </defs>
  <g id="Header" transform="translate(554.667 277)">
    <rect id="Spacer" class="cls-1" width="1918.333" height="246" transform="translate(335 50)"/>
    <g id="KJG_Logo" data-name="KJG Logo" transform="matrix(0.985, -0.174, 0.174, 0.985, 372.072, 87.228)">
      <path id="Path_1" data-name="Path 1" class="cls-2" d="M152.908,49.153c-2.544-.03-3.254-3.813-4.852-5.587C133.056,24.855,113.294,8.36,84.719,3.3,56.262-1.728,24.316,9.085,6.334,25.368,4.352,27.141,2.578,29.358,0,30.451.093,27.5,3.11,25.486,5.091,23.89,20.087,11.774,40.259,1.58,65.757.136,92.113-1.4,117.584,11.345,134.92,26.362a82.947,82.947,0,0,1,9.97,10.671c3.136,3.784,6.538,7.567,8.018,12.119Z" transform="translate(12.294 0.002)"/>
      <path id="Path_2" data-name="Path 2" class="cls-2" d="M16.566.275c1.332,6.237,2.132,17-1.683,21.842-4.378-.3-10.353.885-14.554-.978-.74-3.1-.031-7.182.235-10.67a29.586,29.586,0,0,1,6.8.237c1.331.118.415,2.512,2.189,2.187,1.006-.65-.03-2.01,0-3.163C7.25,8.313,2.99,9.7.328,8.253,1.037,4.884.15,2.9,2.042.007c3.786.326,9.821-.353,14.524.268Z" transform="translate(77.252 5.687)"/>
      <path id="Path_3" data-name="Path 3" class="cls-2" d="M16.269.286c.326,5.379.859,11.143,1.215,15.783.562-.5.088-2.01.266-2.926a7.209,7.209,0,0,1,3.372-.709c.8,1.3,2.13,2.808,1.716,4.611-1.42.975-3.816.354-4.851-.474-1.242,1.478-3.875,1.625-6.064,2.157-1.479-.769-.5-3.281-2.16-3.37-1.509-.118-1.568,1.478-1.478,3.872-1.627.5-3.313.886-4.851,1.448C2.1,14.649-.413,10.008.059,3a20.208,20.208,0,0,1,5.827-.974c1.3.473.622,2.926,2.189,3.163C9.318,4.6,9.081,2.5,9.288.817,11.772.877,14.4-.6,16.269.286Z" transform="translate(52.318 9.781)"/>
      <path id="Path_4" data-name="Path 4" class="cls-2" d="M2.842,0C5.534.562,7.9,1.42,10.622,1.952,10.563,4.2,9.2,7.006,9.913,8.484c3.106.237,2.4-3.4,3.608-5.083,1.864-.3,3.934,1.006,5.591,1.715-1.064,5.7-3.164,10.4-4.376,15.989-3.816,1.359-9.466-1.42-13.578-2.692C-2.1,12.65,2.518,6.03,2.842,0Z" transform="translate(95.355 10.81)"/>
      <path id="Path_5" data-name="Path 5" class="cls-2" d="M13.713,0c2.781,1.981,3.373,6.178,4.113,10.168a7.862,7.862,0,0,0-2.9,1.714c-.177,1.921,2.249,4.227,1.687,6.562-1.716-.118-4.525,2.778-6.034,2.659-2.219-.178-2.456-3.695-3.639-5.823-2.958,2.867-3.9-.207-5.118-2.69-1.036-2.1-3.255-4.434-.474-6.3C4.661,4.02,11.465,1.6,13.713,0Z" transform="translate(34.997 13.491)"/>
      <path id="Path_6" data-name="Path 6" class="cls-2" d="M17.514,13.069c-2.071-1.094-4.5-1.833-6.331-3.163-1.568.768-3.194,3.546-1.951,5.586,1.568-.384.946-2.955,2.425-3.4,2.159.739,4.289,1.538,5.591,3.163a31.222,31.222,0,0,0-3.164,7.27c-2.248,2.01-2.958.3-5.591-.71C5.3,20.6.181,18.742,0,15.283a26.893,26.893,0,0,1,1.212-4.138C2.28,8.427,3.61,5.264,4.379,3.373,5,1.9,6.982-.085,8.993,0c1.39.03,6.064,2.6,7.514,3.637.887.65,1.391,1.951,2.426,2.66a10.563,10.563,0,0,1-1.419,6.768Z" transform="translate(110.799 17.164)"/>
      <path id="Path_7" data-name="Path 7" class="cls-2" d="M41.03,10.031c-1.183,2.778-4.259,3.635-6.3,5.585-1.213.148-1.42-.68-2.16-.976-1.42.5-.177,2.158-.5,3.635-4.437,1.95-6.033,6.738-9.7,9.457-.5.266-2.011-.148-3.165,0-.266,1.419,1.095,1.153,1.213,2.187C19.232,32.372,17.4,34.2,15.8,36.214,9.648,32.844,4.885,28.055,0,23.355c1.627-2.66,2.691-5.852,5.59-7.27.917-.621,1.095,1.242,1.953,1.478.621-1.123-.119-2.1-.267-3.163.65-1.921,2.366-3.074,3.638-4.374,1.242-1.271,2.307-3.28,4.377-3.635,1.8,3.458-.117,9.458,1.481,12.857,2.307.119,5.3.947,7.75.947-1.036-4.759-2.841-8.779-4.38-13.094,1.094-2.867,3.9-5.142,5.826-7.034a4.2,4.2,0,0,1,2.426.5,55.154,55.154,0,0,1,5.355,4.375,38.376,38.376,0,0,0,7.278,5.085Zm-11.152,0a2.3,2.3,0,0,0-2.426-2.188c-.739,1.359,1.1,3.576,2.426,2.188Z" transform="translate(2.566 24.801)"/>
      <path id="Path_8" data-name="Path 8" class="cls-2" d="M22.364,9.491c-.5,2.956-1.656,5.29-4.14,6.295-1.6-.976-1.953-3.222-3.876-3.872-.177.03-.266.236-.5.236-.532.709.474,1.507.71,2.187-.651,1.448-1.212,2.985-2.662,3.635-.917-.473-.74-2.01-2.189-1.951-1.153,1.714,1.746,2.719,1.716,4.611-.029,2.069-2.07,2.6-3.875,3.635-1.864-2.01-4.793-4.671-6.331-7.035A9.473,9.473,0,0,1,0,14.305c.059-1.714,3.519-4.4,5.117-6.058A50.54,50.54,0,0,0,11.418,0,33.632,33.632,0,0,1,22.364,9.491Z" transform="translate(123.905 28.016)"/>
      <path id="Path_9" data-name="Path 9" class="cls-2" d="M115.062,48.473c-2.13-.71-2.042-3.458-2.663-5.084-2.012-5.291-5.3-10.257-8.019-15.045A79.717,79.717,0,0,0,87.133,12.351c-6.479-4.375-14.407-8.633-23.547-9.7A67.252,67.252,0,0,0,26.2,8.706c-4.614,2.3-9.465,6.294-14.079,10.431A60.934,60.934,0,0,0,3.63,29.1c-.71,1.034-1.834,3.162-3.165,2.9-1.42-.266.887-2.512.976-2.66a66.176,66.176,0,0,1,17.45-18.2C26.285,6.046,38.649.994,48.026.227c19.138-1.534,33.338,5.207,43.929,13.6,8.343,6.563,14.94,13.775,19.675,24,1.479,3.133,3.314,6.71,3.433,10.641Z" transform="translate(25.149 31.476)"/>
      <path id="Path_10" data-name="Path 10" class="cls-2" d="M1.751,0C2.7,2.926,1.309,7.921,1.28,10.67-1.146,8.837.539,2.719,1.012,0Z" transform="translate(79.234 36.994)"/>
      <path id="Path_11" data-name="Path 11" class="cls-2" d="M.239,0H1.451A31.9,31.9,0,0,1,6.541,9.223c-2.4.768-2.6-2.247-3.373-3.636C2.132,3.813.712,2.483,0,.975-.028.532.3.473.239,0Z" transform="translate(64.478 39.416)"/>
      <path id="Path_12" data-name="Path 12" class="cls-2" d="M10.711,1.45A40.737,40.737,0,0,0,.773,9.222c-2.4-2.1,1.419-3.9,2.9-5.083C5.593,2.6,7.782,1.065,9.261,0h.947c.148.532.592.709.5,1.448Z" transform="translate(86.545 40.631)"/>
      <path id="Path_13" data-name="Path 13" class="cls-2" d="M16.567,11.2c2.248-.118,2.455-2.246,4.377-2.689-.3,2.305,3.787,4.966,3.373,7.271-.266,1.537-4.141,2.866-5.827,3.635-2.485,1.123-4.7,2.039-6.063,3.4-1.893.029-2.337,1.537-4.378,1.448-3.225-1.922.177-5.941-.5-8.719-1.39-.5-1.952,1.478-3.638,1.448C2.694,15.517,0,14.246,0,12.148.031,9.99,4.231,8.069,6.331,6.562A31.707,31.707,0,0,0,12.631,0c2.307.621,4.792,2.247,5.088,4.375.385,2.365-2.188,4.7-1.153,6.827Z" transform="translate(134.32 42.057)"/>
      <path id="Path_14" data-name="Path 14" class="cls-2" d="M40.327,57.427c-4.289,4.049-8.548,8.1-11.889,13.092,4.289-.413,3.757,4.7,4.853,9.459.5,2.217,1.923,3.754.474,6.03-5.709,1.507-13.488,4.52-20.144,3.9-7.809-.711-4.231-10.138-.712-13.566a33.985,33.985,0,0,1,4.851-3.9c1.716-.946,5.679-2.541,7.04-.708C29.028,65.612,34.707,60.943,39.113,55c.354-5.852.827-10.138.974-16.256-.355-.621-.148,1.3-1.213.709-4.881-4.346-11.212-7.213-16.508-11.145-1.242.325-1.6,1.714-2.928,1.95-1.6.266-3.136-1.094-4.378,0-2.366-.178-3.668-2.247-6.064-2.9-1.568-.444-3.313.236-4.851-.267A6.192,6.192,0,0,1,0,21.273c.266-.887,1.331-.946,1.715-1.714-2.515-2.247-.741-7.271,3.4-5.586-.207-1.3-2.16-5.439.472-6.3,2.9.266,5.206,1.094,6.567,2.9.5-1.182.887-2.69,2.189-2.9,3.461-.62,3.225,3.725,4.379,7.271,1.332,4.168,6.035,5.617,4.143,11.409,5.059,4.464,11.8,7.3,16.981,11.648.65-2.305.236-6.118,0-9.458C20.178,27.572,25.054-2.516,44.7.177c6.419.888,10.384,8.4,9.7,16.76-.5,6.089-6.269,12.206-12.866,11.643a74.805,74.805,0,0,1,.238,8.246c5.857-2.9,11.151-6.353,17.007-9.219A9.767,9.767,0,0,1,60.495,19.6c-1.006-2.306-.711-9.813,1.951-10.433,1.864-.443,3.313,1.331,3.639,3.636,2.987-1.743,6.27-7.891,10.678-4.373.3,2.808-1.153,3.842-1.685,5.822,2.692-1.773,6.922-1.625,6.538,2.425-.177,1.98-1.834,2.128-2.662,3.9,5.443.888,5.5,6.621.5,7.744-1.538.354-3.491-.267-5.354.265-3.816,1-10.411,5.851-14.08.944-1.864-.355-2.78,1.98-4.614,1.477-4.229,3.457-9.938,5.437-14.079,8.953,1.1,5.143-1.448,10.61-.5,15.044.266,1.271,1.8,3.045,2.663,4.138,3.4,4.286,8.018,8.779,11.154,12.593,1.42-1.448,4.052-1,5.827-.945,3.994,2.749,10.147,5.292,12.632,9.7,1.687,3.015,3.255,8.306-.738,9.96-4.2,1.714-14.347-1.037-17.719-2.692-2.929-1.449-3.905-2.956-3.373-6.8A9.693,9.693,0,0,1,50.3,71.5c.947-.059,1.242.5,1.952.71-3.639-5.262-8.757-9.075-11.923-14.78ZM32.3,6.027c-3.549,3.842-5.234,13.477-.234,17.941,3.461,3.1,10.561,3.312,14.081,1.716a11.585,11.585,0,0,0,6.536-10.669c-.09-8.246-3.847-12.858-11.39-12.593-4.26.088-7.158,1.595-8.992,3.6ZM67,15.254c-.325.975.119,2.69-.976,2.926-3.195-.946.236-5.793-2.663-6.8-2.248,1.8-1.833,5.586-1.478,8.955-.266,1.094-1.331,1.419-1.212,2.926,2.781.946,4.94,2.513,4.852,6.3,2.929.207,6.152-2.689,9.7-3.161,2.337-.3,5.827.622,6.064-2.423-1.953-2.1-5.62-.326-7.78,0-.03-.355-.385-.414-.473-.709,1.094-3.842,6.418-3.457,6.8-8.009-4.26-.651-5.886,3.309-8.992,4.609-2.1-1.508.5-3.074,1.212-4.108a15.138,15.138,0,0,0,2.661-6.8C71.083,9.934,69.25,12.8,67,15.254ZM12.16,13.531c-1.184-2.306-5-5.38-6.3-2.927-.118,3.9,6.627,5.558,4.616,8.749C8.226,18.2,5.386,14.594,2.458,16.426c-.118,3.488,3.609,3.163,5.591,4.612,0,.562.414.709.266,1.478-2.011.8-3.875-1.715-6.33-.5-.236,3.695,3.639,2.838,5.828,3.163,3.313.5,6.035,3.016,8.017,3.4.147-3.99,1.8-6.443,4.377-8.009-2.929-2.483-2.545-8.335-5.356-10.907-2.1,1.744.947,5.557-.472,7.271-1.893.236-1.568-2.069-2.219-3.4Zm7.515,9.932a1.861,1.861,0,0,0,1.479,1.478c.029-.8.562-1.064.5-1.951-.8-.68-1.509.148-1.982.473ZM60.23,26.4c.562-.207,1.39-.207,1.449-.975-.739.177-.887-.237-1.449-.237-.059.591-.473.739,0,1.212Zm-42.24,2.181c2.514.178,2.248-2.748.236-2.926a3.475,3.475,0,0,0-.236,2.926Zm43.187-.466c.089,1.271,1.213,1.537,2.426,1.715a2.607,2.607,0,0,0-.71-3.163c-.059.975-.858,1.212-1.715,1.448Zm-9.7,45.811c-1.331,2.689.563,5.5,1.717,7.271,5.68,1.833,13.046,6.386,19.671,3.165-.77-3.842-3.4-5.823-6.065-7.774a4.825,4.825,0,0,0-1.952,3.4,2.315,2.315,0,0,1-2.189-2.69c1.39.03,1.952-.827,2.189-1.95-.888-.5-1.479-1.271-2.426-1.715-.5.561-1.42.709-1.952,1.212-.5.827.947,1.98-.5,2.424-.917-.443-2.219-.532-2.16-1.951a6.4,6.4,0,0,0,2.159-2.926c-2.929-1.33-4.969,3.457-8.489,1.536ZM30.124,72.706c-3.608,3.073-8.017-1.952-10.678,2.156.769.5,2.78-.591,3.165.71.089,1.478-.769,1.98-1.715,2.423-1.3-1.98-5.65-3.548-5.591,0,.651.946,1.3-.5,2.426.266-.029.739.769.68.5,1.714-.651.325-.828,1.093-1.715,1.212a18.792,18.792,0,0,0-2.426-2.424c-1.775.886-2.691,2.63-2.661,5.32,6.892.74,14.938-1.091,20.38-3.366-.385-2.837-1.3-5.143-1.687-8.01ZM11.194,86.033c.444,2.631,3.639,2.01,6.8,1.715a61.251,61.251,0,0,0,10.175-1.713c.562-.177,1.272-.946,1.952-1.182,1.331-.5,3.165-.236,2.425-2.187-6.064,2.038-14.375,4.55-21.357,3.366ZM57.31,87.517c3.283.089,12.75,3.756,15.293-.5-7.484,1.24-14.613-2.4-19.908-4.141-.384,3.458,3.373,2.808,4.615,4.641Z" transform="translate(36.794 50.384)"/>
      <path id="Path_15" data-name="Path 15" class="cls-2" d="M15.27.239C15.24.032,15.388,0,15.536,0A21.843,21.843,0,0,1,18.7,4.614c1.479,2.867,3.846,6.06,1.214,9.458-2.129,2.778-7.867,6.5-10.441,6.294-3.076-.237-5.207-3.873-7.041-6.3C1.546,12.887-.111,11.2.007,9.694.244,7.389,4.355,6.267,7.284,4.848c3.668-1.773,5.383-3.723,7.986-4.61ZM10.657,11.144a1.819,1.819,0,0,0,3.165-1.714c-1.183-1.094-3.786-.887-3.165,1.714Z" transform="translate(144.107 58.846)"/>
      <path id="Path_16" data-name="Path 16" class="cls-2" d="M.509,0a1.97,1.97,0,0,1,1.45,1.714c-.473.236-.384,1.064-1.213.946-.03-.266-.414-.177-.71-.237C-.023,1.419-.083.414.509,0Z" transform="translate(71.014 60.284)"/>
      <path id="Path_17" data-name="Path 17" class="cls-2" d="M.262.081c1.124-.325,1.183.414,1.716.71a1.735,1.735,0,0,1-.946,1.448C-.093,2.386-.211.731.262.081Z" transform="translate(79.514 60.47)"/>
      <path id="Path_18" data-name="Path 18" class="cls-2" d="M.733,0C2.005.769,1.917,2.838,2.686,4.138,6.414,8.75,15.909,6.534,16.293.268c2.307.651.415,3.222.237,4.847C12.537,11-.626,9.428.023.5.2.266.674.355.733,0Z" transform="translate(67.862 65.367)"/>
      <path id="Path_19" data-name="Path 19" class="cls-2" d="M4.234.134c-.118,2.66-3.046,2.482-2.928,5.349C-1.977,4.389,1.66-.9,4.234.134Z" transform="translate(47.619 68.866)"/>
      <path id="Path_20" data-name="Path 20" class="cls-2" d="M.152,0C2.075.532,4.2,3.577,2.578,5.35c-.71-.177-1.183-.591-.947-1.714C1.276,2.335-.528,1.566.152,0Z" transform="translate(104.621 70.219)"/>
      <path id="Path_21" data-name="Path 21" class="cls-2" d="M4.379,7.012c-2.81.709-.918-3.606-2.426-4.818C1.065,1.78,0,1.543,0,.243c3.224-1.33,4.615,3.075,4.379,6.769Z" transform="translate(101.845 71.218)"/>
      <path id="Path_22" data-name="Path 22" class="cls-2" d="M0,.27C.5.388.651.093.976,0c.207-.03.237.118.237.266C4.822,2.9,6.745,6.123,9.97,8.754c9.467,7.775,24.7,15.4,41.267,16.233C72.949,26.142,86.555,19.465,98.8,7.792c.651-.621,3.342-4.728,4.614-3.871,1.124.739-.059,1.3-.976,2.423a42.525,42.525,0,0,1-7.512,7.033c-3.9,2.9-7.631,5.969-11.387,7.772-20.764,9.869-50.4,5.283-68.213-6.572C9.7,10.852,3.669,6.536,0,.27Z" transform="translate(26.364 127.189)"/>
      <path id="Path_23" data-name="Path 23" class="cls-2" d="M18.191,12.095a2.639,2.639,0,0,0-2.425,1.211c2.071,4.552,7.1,3.755,6.065,8.986-.414,2.1-4.968,6.886-8.252,6.531-2.81-.266-5.236-3.015-7.278-5.085-3.58-3.606-9.319-8.4-4.38-13.833,2.011-2.216,8.518-6.856,12.6-9.22C18.928-1.826,22.6,3.228,24.993,5.564c1.45,1.389,5.946,4.641,4.852,8.01-.562,1.714-4.022,5.054-5.827,5.112-2.011.029-6.183-3.814-5.828-6.592ZM8.519,16.733c-.414,1.8,1.657,2.69,3.875,2.158,2.218-3.162-3.314-4.759-3.875-2.158Z" transform="translate(2.111 128.929)"/>
      <path id="Path_24" data-name="Path 24" class="cls-2" d="M15.6,4.656c-1.094,2.01-2.9,3.251-3.638,5.586,2.4-.147,2.928-4.167,4.85-5.585a72.367,72.367,0,0,1,7.751,4.11c.887.562,2.574,2.069,2.692,2.926.178,1.626-2.78,4.669-3.4,5.586-2.307,3.28-6.329,9.693-11.417,6.057-1.627-1.153-3.4-3.37-5.591-5.35C4.4,15.767-.516,13.579.046,9.737.194,8.791,1.909,7.284,2.737,6.1,4.216,4,5.517.368,8.327.044,11.61-.37,13.238,2.32,15.6,4.656Zm-.265,8.719c.5,1.626,1.627,2.572,3.875,2.424,2.987-1.95-2.426-4.907-3.875-2.424Z" transform="translate(128.017 131.303)"/>
      <path id="Path_25" data-name="Path 25" class="cls-2" d="M14.08,0c2.929,2.04,3.905,5.468,6.331,8.72.828,1.094,2.16,2.69,3.373,4.138,1.775,2.069,3.55,2.986,3.639,6.06-1.863,1.034-3.017,3.31-5.324,3.369-1.864.088-3.7-2.424-5.354-.71.178,1.33,1.627,1.419,1.953,2.66-1.627,1.478-3.756,4.61-6.063,4.373-1.272-.148-1.6-1.478-2.426-2.69C7.132,21.311,2.1,14.66,0,9.931a31.987,31.987,0,0,0,3.9-2.926c1.864.119,4.26,1.626,5.827.5C9.408,6.3,8.165,6.031,7.78,4.848,9.022,2.366,11.98,1.6,14.08,0Z" transform="translate(111.084 142.752)"/>
      <path id="Path_26" data-name="Path 26" class="cls-2" d="M28.161,5.856c-1.33,7.507-5.648,14.1-7.273,22.077-3.9.088-6.124-2.661-8.964-4.376a3.666,3.666,0,0,1,.946-3.162c-.266-.591-.947-.8-1.45-1.212-1.893.3-1.8,2.364-3.4,2.423-1.213.059-2.781-1.981-4.112-2.927C2.28,17.557.417,17.054,0,15.783,4.971,9.281,12.306,5.115,18.695,0c2.9,2.247,6.331,3.932,9.467,5.854Zm-13.34,7.269c.562,1.271,1.864,1.862,3.372,2.188a5.571,5.571,0,0,0,.709-4.374,3.563,3.563,0,0,0-4.082,2.187Z" transform="translate(19.089 144.629)"/>
      <path id="Path_27" data-name="Path 27" class="cls-2" d="M12.686,1.611c.03,2.394-.561,7.034,1.214,8.483,1.153-2.157,2.543-4.078,2.661-7.27,2.367.946,5.384,1.242,7.514,2.425-.147,7.3-1.418,15.546-4.375,20.866C12.69,27.059.5,25.461.028,18.6c-.385-5.675,3.7-12.8,4.849-17.969C5.38.694,5.912-.4,6.089.162c2.159.532,4.792.592,6.6,1.449Z" transform="translate(45.747 153.487)"/>
      <path id="Path_28" data-name="Path 28" class="cls-2" d="M18.195,20.13c-3.283.916-5.738,2.659-8.726,3.871-1.893-1.035-1.775-3.311-2.426-5.084C5.238,13.922,1.894,8.69,0,3.4,3.461,2.838,6.389.385,9.229,0c3.373,4.079,4.024,9.931,6.54,15.282.8,1.655,2.4,2.9,2.426,4.848Z" transform="translate(98.958 153.892)"/>
      <path id="Path_29" data-name="Path 29" class="cls-2" d="M20.381.11c1.095,3.37,1.421,7.478,2.427,10.907-1.331.916-3.136.443-4.614.709.03,4.433.948,7.153,1.717,11.173-4.467.531-8.075.206-12.128.944-.651-2.926-.06-8.424-1.215-12.118-.562,1.36-3.55.325-4.614,1.211C-.146,10.629.178,5.575,0,1.289,4.763.4,8.9,1.527,13.578,1.054c2.159-.177,4.2-1.418,6.8-.945Z" transform="translate(73.253 157.654)"/>
      <path id="Path_30" data-name="Path 30" class="cls-2" d="M35.341,26.429c.444-.029.148-.8.5-.946,8.165,3.223,15.8,6.593,25.233,8.013,3.165,1.537,8.786,1.184,13.1,2.16.385.118,1.065-.177.976.71.5-.443.384-.887,1.213-.473a59.461,59.461,0,0,0,14.317,0c.532-.03.769.177.71.709a1.973,1.973,0,0,1,1.479-.709c8.46-.206,18.547-1.83,26.207-5.346a72.931,72.931,0,0,0,23.544-11.405,102.578,102.578,0,0,0,9.938-7.742c3.135-2.807,5.59-6.324,9.228-8.481.03,3.576-2.869,4.226-4.377,6.295A95.911,95.911,0,0,1,139.7,23.045,105.466,105.466,0,0,1,84.594,38.051a66.647,66.647,0,0,1-13.1-.948c-.562-.118-.8-.089-1.213-.739-11.152-.5-22.659-4.289-32.776-8.488C23.183,21.964,11.912,14.75,2.089,4.138,1.113,3.074-.81,1.655.373,0c2.87,1.656,4.556,4.493,6.8,6.8A148.374,148.374,0,0,0,24.691,19.9c.473-.177.414.355.237.237,2.041,1.094,6.981,3.311,9.94,5.085.8-.236.385.768.473,1.212Z" transform="translate(0.022 150.242)"/>
    </g>
    <text id="Katholische_Jugend_Gauting" data-name="Katholische Jugend Gauting" class="cls-3" transform="translate(1163.333 240)"><tspan x="0" y="0">Katholische Jugend Gauting</tspan></text>
    <g id="rainy_Cloud" data-name="rainy Cloud" transform="translate(1859.007 62.963)">
      <g id="Ebene_1" data-name="Ebene 1" transform="translate(0)">
        <path id="Path_46" data-name="Path 46" class="cls-4" d="M17.026,52.984C5.47,53.824-.118,41.614,1.679,31.517c.98-5.526,3.677-9.21,9.208-10.733,5.816-1.6,12.608-1.093,18.416,0,.367.071.521.1,0,0-6.4-1.188-13.653-2.357-19.951,0A14.393,14.393,0,0,0,.145,31.517c-2.236,10.658,4.776,23.884,16.881,23C17.453,54.485,17.548,52.944,17.026,52.984Z" transform="translate(0.268 -11.48)"/>
        <path id="Path_47" data-name="Path 47" class="cls-4" d="M48.873,7.715c-.036-3.071,2.155-3.83,4.6-4.6a59.209,59.209,0,0,1,6.139-1.533C64.278.624,70.223-.386,74.962.049a37.257,37.257,0,0,1,21.485,9.2c.225.205.241.217,0,0C89.625,3.059,81.035.325,71.893.049A55.772,55.772,0,0,0,56.546,1.582c-3.216.841-9.259,1.8-9.208,6.133C47.338,8.075,48.9,8.007,48.873,7.715Z" transform="translate(-28.509 0.055)"/>
        <path id="Path_48" data-name="Path 48" class="cls-4" d="M160.9,9.126c6.017-6.11,15.751-4.245,23.02-1.533a9.287,9.287,0,0,1,6.139,7.667c.585,3.489.19,8.606-3.069,10.733-.427.28-.221.142,0,0,3.2-2.088,3.46-5.639,3.069-9.2a10.074,10.074,0,0,0-7.673-9.2c-7.672-2.309-16.821-4.778-23.02,1.533C159.165,9.331,160.747,9.272,160.9,9.126Z" transform="translate(-96.032 -2.889)"/>
        <path id="Path_49" data-name="Path 49" class="cls-4" d="M222.857,55.392c3.619-1.887,8.473-1.3,12.277,0,4.018,1.37,8.3,4.882,6.139,9.2-1.742,3.482-6.982,6.731-10.743,7.667-3.9.967-7.147.022-10.743-1.533-.3-.126-.439,1.344,0,1.533,4.148,1.8,7.884,1.567,12.277,0,1.953-.76,4.693-1.55,6.139-3.067,1.659-1.634,2.354-3.848,3.069-6.133,1.323-4.239-2.433-7.953-6.139-9.2-4.065-1.374-8.41-.492-12.277,1.533C222.395,55.633,222.485,55.6,222.857,55.392Z" transform="translate(-131.898 -32.288)"/>
        <path id="Path_50" data-name="Path 50" class="cls-4" d="M225.36,91.58c-1.762,2.341-3.227,5.233-6.139,6.133-2.39.68-5.2.231-7.673,0-4.689-.395-9.557-2.843-10.743-7.667-.075-.3-.075-.308,0,0,1.363,5.562,6.983,9.125,12.277,9.2a18.331,18.331,0,0,0,7.673-1.533c2.5-1.133,2.988-3.986,4.6-6.133C225.585,91.284,225.53,91.355,225.36,91.58Z" transform="translate(-120.589 -54.676)"/>
        <path id="Path_51" data-name="Path 51" class="cls-4" d="M158.521,98.055c-1.185,5.053-7.675,9.4-12.277,10.733a20.266,20.266,0,0,1-15.347-1.533c-.281-.146-1.9-.189-1.535,0a25.939,25.939,0,0,0,18.416,1.533c4.741-1.492,11.049-5.515,12.277-10.733C160.138,97.7,158.616,97.736,158.521,98.055Z" transform="translate(-78.305 -59.618)"/>
        <path id="Path_52" data-name="Path 52" class="cls-4" d="M83.268,84.16a43.628,43.628,0,0,1-4.6,12.267c-1.525,2.554-3.539,2.384-6.139,3.067-2.829.746-6.257,1.861-9.208,1.533A43.618,43.618,0,0,1,51.04,97.96a20.112,20.112,0,0,1-9.208-7.667c-.142-.221-.095-.15,0,0,2.365,3.733,5.1,7.56,9.208,9.2a17.652,17.652,0,0,0,6.139,1.533,31.583,31.583,0,0,1,4.6,0,27.505,27.505,0,0,0,4.6,0c2.667-.17,5.062-1.008,7.673-1.533,1.782-.359,3.265-.2,4.6-1.533s2.528-4.333,3.069-6.133c.881-2.933.863-6.216,1.535-9.2A7.274,7.274,0,0,1,83.268,84.16Z" transform="translate(-24.537 -50.323)"/>
        <path id="Path_53" data-name="Path 53" class="cls-4" d="M51.614,94.072a11.578,11.578,0,0,0-1.535,4.6c0,.395-.02.347,0,0a12,12,0,0,1,1.535-4.6C51.831,93.705,51.788,93.768,51.614,94.072Z" transform="translate(-29.716 -57.168)"/>
        <path id="Path_54" data-name="Path 54" class="cls-4" d="M56.43,96.277l-1.535,4.6c-.059.2,1.467.217,1.535,0l1.535-4.6C58.024,96.079,56.5,96.06,56.43,96.277Z" transform="translate(-32.996 -57.84)"/>
        <path id="Path_55" data-name="Path 55" class="cls-4" d="M60.618,96.945c-.527,2.426-.892,5.275-1.535,7.667-.083.3,1.46.284,1.535,0,.651-2.395,1.016-5.243,1.535-7.667C62.22,96.629,60.677,96.657,60.618,96.945Z" transform="translate(-35.65 -58.508)"/>
        <path id="Path_56" data-name="Path 56" class="cls-4" d="M68.523,99.834l-1.535,6.133c-.075.395,1.452.339,1.535,0l1.535-6.133C70.133,99.439,68.606,99.495,68.523,99.834Z" transform="translate(-40.486 -59.864)"/>
        <path id="Path_57" data-name="Path 57" class="cls-4" d="M75.6,100.617c-.263,2.345-1.05,5.356-1.535,7.667-.071.339,1.471.3,1.535,0,.477-2.313-.271-5.325,0-7.667C75.635,100.266,75.631,100.309,75.6,100.617Z" transform="translate(-44.489 -60.647)"/>
        <path id="Path_58" data-name="Path 58" class="cls-4" d="M80.734,104.071c-.214,2.037.462,4.138,0,6.133-.079.347-.071.316,0,0a53.048,53.048,0,0,0,1.535-6.133C82.308,103.7,80.765,103.751,80.734,104.071Z" transform="translate(-48.092 -62.567)"/>
        <path id="Path_59" data-name="Path 59" class="cls-4" d="M87.747,105.205a43.4,43.4,0,0,1-1.535,7.667c-.055.17,1.468.209,1.535,0a43.4,43.4,0,0,0,1.535-7.667C89.305,104.992,87.77,105.008,87.747,105.205Z" transform="translate(-52.036 -63.701)"/>
        <path id="Path_60" data-name="Path 60" class="cls-4" d="M95.035,105.878c-.232,2.124-1.161,5.567-1.535,7.667-.051.276,1.491.253,1.535,0,.374-2.105-.232-5.548,0-7.667C95.066,105.59,95.062,105.629,95.035,105.878Z" transform="translate(-56.255 -64.374)"/>
        <path id="Path_61" data-name="Path 61" class="cls-4" d="M100.617,105.065c-.49,2.587-2.072,5.23-3.069,7.667-.162.395,1.412.316,1.535,0,1.016-2.483,1.035-5.031,1.535-7.667C100.688,104.694,100.7,104.729,100.617,105.065Z" transform="translate(-58.768 -63.561)"/>
        <path id="Path_62" data-name="Path 62" class="cls-4" d="M108.071,104.275c-.735,2.405-2.113,5.335-3.069,7.667a11.583,11.583,0,0,0,1.535-1.533c.959-2.326.8-3.723,1.535-6.133C108.115,104.125,108.135,104.082,108.071,104.275Z" transform="translate(-63.153 -62.771)"/>
        <path id="Path_63" data-name="Path 63" class="cls-4" d="M113.5,103.92c-.957,2.122-.8,3.924-1.535,6.133-.091.276-.091.268,0,0,.72-2.169,2.131-4.049,3.069-6.133C115.193,103.576,113.614,103.679,113.5,103.92Z" transform="translate(-67.051 -62.416)"/>
        <path id="Path_64" data-name="Path 64" class="cls-4" d="M121.566,104.3a34.285,34.285,0,0,1-1.535,4.6c-.182.395-.138.312,0,0,.777-1.681,2.507-2.837,3.069-4.6C123.235,103.884,121.665,103.986,121.566,104.3Z" transform="translate(-72.043 -62.794)"/>
        <path id="Path_65" data-name="Path 65" class="cls-4" d="M128.664,104.652l-1.535,4.6c-.1.284-.1.276,0,0l1.535-4.6C128.766,104.368,128.762,104.376,128.664,104.652Z" transform="translate(-76.072 -63.148)"/>
        <path id="Path_66" data-name="Path 66" class="cls-4" d="M141.233,105.739l-1.535,4.6c-.063.13-.1.205,0,0l3.069-4.6C142.831,105.608,141.332,105.533,141.233,105.739Z" transform="translate(-84.037 -64.235)"/>
        <path id="Path_67" data-name="Path 67" class="cls-4" d="M148.792,107.774a45.268,45.268,0,0,1-1.535,4.6c-.162.395-.126.3,0,0a43.669,43.669,0,0,0,1.535-4.6C148.89,107.407,148.9,107.435,148.792,107.774Z" transform="translate(-88.526 -64.737)"/>
        <path id="Path_68" data-name="Path 68" class="cls-4" d="M156.916,111.117c-.686,1.348-1.2,1.591-1.535,3.067-.079.343-.071.312,0,0,.319-1.429.87-1.762,1.535-3.067C157.1,110.75,157.054,110.841,156.916,111.117Z" transform="translate(-93.582 -66.547)"/>
        <path id="Path_69" data-name="Path 69" class="cls-4" d="M163.822,109.829l-1.535,6.133c-.174.351-.126.253,0,0l3.069-6.133C165.53,109.477,163.948,109.576,163.822,109.829Z" transform="translate(-97.418 -66.791)"/>
        <path id="Path_70" data-name="Path 70" class="cls-4" d="M171.659,108.015l-1.535,4.6c-.178.395-.146.328,0,0l1.535-4.6C171.837,107.62,171.805,107.687,171.659,108.015Z" transform="translate(-102.186 -64.978)"/>
        <path id="Path_71" data-name="Path 71" class="cls-4" d="M179.639,104.46l-1.535,4.6c-.1.229-.111.249,0,0l3.069-4.6C181.277,104.231,179.75,104.211,179.639,104.46Z" transform="translate(-107.097 -62.956)"/>
        <path id="Path_72" data-name="Path 72" class="cls-4" d="M186.984,100.6l-1.535,4.6c-.174.395-.138.308,0,0l1.535-4.6C187.158,100.209,187.122,100.3,186.984,100.6Z" transform="translate(-111.372 -60.634)"/>
        <path id="Path_73" data-name="Path 73" class="cls-4" d="M192.465,97.862l-1.535,4.6c-.043.1,1.452.189,1.535,0l1.535-4.6C194.043,97.763,192.548,97.672,192.465,97.862Z" transform="translate(-115.319 -59.425)"/>
        <path id="Path_74" data-name="Path 74" class="cls-4" d="M223.97,89.99l-1.535,3.067c-.209.347,1.377.264,1.535,0L225.5,89.99C225.714,89.643,224.128,89.726,223.97,89.99Z" transform="translate(-134.546 -54.62)"/>
        <path id="Path_75" data-name="Path 75" class="cls-4" d="M227.892,90.348v3.067c-.071.2-.079.225,0,0V90.348C227.963,90.147,227.971,90.123,227.892,90.348Z" transform="translate(-136.934 -54.978)"/>
        <path id="Path_76" data-name="Path 76" class="cls-4" d="M232.136,92.861,230.6,95.927c-.055.154,1.46.205,1.535,0l1.535-3.067C233.726,92.707,232.211,92.655,232.136,92.861Z" transform="translate(-139.643 -55.957)"/>
        <path id="Path_77" data-name="Path 77" class="cls-4" d="M235.815,93.45v3.067c-.111.3-.107.292,0,0l1.535-3.067C237.461,93.146,235.922,93.158,235.815,93.45Z" transform="translate(-141.788 -56.546)"/>
        <path id="Path_78" data-name="Path 78" class="cls-4" d="M240.73,93.238V96.3c-.087.264-.087.261,0,0l1.535-3.067C242.352,92.973,240.817,92.977,240.73,93.238Z" transform="translate(-145.168 -56.334)"/>
        <path id="Path_79" data-name="Path 79" class="cls-4" d="M247.031,93.917,245.5,96.984c-.17.395,1.4.3,1.535,0V93.917C247.2,93.522,247.165,93.613,247.031,93.917Z" transform="translate(-148.399 -57.013)"/>
        <path id="Path_80" data-name="Path 80" class="cls-4" d="M207.534,94.328,206,97.395c-.154.209,1.416.154,1.535,0V94.328C207.688,94.119,207.652,94.174,207.534,94.328Z" transform="translate(-124.249 -57.424)"/>
        <path id="Path_81" data-name="Path 81" class="cls-4" d="M212.5,98.125a20.1,20.1,0,0,0-1.535,3.067c-.162.359,1.42.257,1.535,0,.261-.592,1.12-1.036,1.535-1.533C214.336,99.3,212.69,97.892,212.5,98.125Z" transform="translate(-127.685 -59.688)"/>
        <path id="Path_82" data-name="Path 82" class="cls-4" d="M219.487,103.9h-1.535a3.764,3.764,0,0,0,0,1.533c.19.008,1.4-1.4,1.535-1.533h0a3.764,3.764,0,0,0,0-1.533C219.3,102.36,219.62,103.765,219.487,103.9Z" transform="translate(-131.598 -62.397)"/>
        <path id="Path_83" data-name="Path 83" class="cls-4" d="M224.218,104.156v1.533c-.158.324-.111.241,0,0l1.535-1.533C225.911,103.832,224.329,103.915,224.218,104.156Z" transform="translate(-134.794 -62.652)"/>
        <path id="Path_84" data-name="Path 84" class="cls-4" d="M230.893,105.156c-.2.45-1.233,1.141-1.535,1.533-.107.138-.1,0,0,0a5.912,5.912,0,0,0,1.535,0c.324-.421-.22-1.05,0-1.533.067-.146.059-.008,0,0C230.747,105.176,230.964,105.006,230.893,105.156Z" transform="translate(-138.4 -63.652)"/>
        <path id="Path_85" data-name="Path 85" class="cls-4" d="M235.831,105.112c0,.34-1.314,1.274-1.535,1.533-.107.118,1.369-.043,1.535,0,.193.039-.147.131,0,0,.3-.314-.019-1.1,0-1.533C235.831,104.788,235.839,104.847,235.831,105.112Z" transform="translate(-141.803 -63.608)"/>
        <path id="Path_86" data-name="Path 86" class="cls-4" d="M240.782,105.594v1.533c-.067.162-.083.012,0,0,.18-.006-.09.156,0,0l1.535-1.533c.067-.162.083-.012,0,0C242.137,105.6,240.872,105.438,240.782,105.594Z" transform="translate(-145.22 -64.09)"/>
        <path id="Path_87" data-name="Path 87" class="cls-4" d="M247.231,105.22v1.533c-.063.189-.071.217,0,0V105.22C247.294,105.031,247.3,105,247.231,105.22Z" transform="translate(-148.599 -63.716)"/>
        <path id="Path_88" data-name="Path 88" class="cls-4" d="M43.525,92.19c-1.058.74-.953,1.915-1.535,3.067-.19.371-.146.284,0,0a11.033,11.033,0,0,1,3.069-3.067C45.482,91.894,43.817,91.981,43.525,92.19Z" transform="translate(-24.696 -55.286)"/>
        <path id="Path_89" data-name="Path 89" class="cls-4" d="M56.351,127.6v1.533a13.751,13.751,0,0,1-1.535,3.067c-.312.343,1.337.229,1.535,0,.379-.49-.142-.931,0-1.533l1.535-3.067C57.984,127.3,56.446,127.318,56.351,127.6Z" transform="translate(-32.918 -76.899)"/>
        <path id="Path_90" data-name="Path 90" class="cls-4" d="M49.506,152.271c-.03,1.064-1.187,2.061-1.535,3.067-.059.17,1.464.209,1.535,0,.354-1.032-.028-1.976,0-3.067C49.506,152.129,49.514,152.031,49.506,152.271Z" transform="translate(-29.142 -92.368)"/>
        <path id="Path_91" data-name="Path 91" class="cls-4" d="M43.115,174.051l-3.069,4.6c-.063.209,1.464.221,1.535,0l1.535-4.6C43.178,173.842,43.186,173.83,43.115,174.051Z" transform="translate(-24.285 -104.947)"/>
        <path id="Path_92" data-name="Path 92" class="cls-4" d="M35.1,201.909c-.579,1.339-2.382,3.308-3.069,4.6-.2.367,1.385.284,1.535,0,.687-1.287.955-3.255,1.535-4.6C35.266,201.514,35.227,201.612,35.1,201.909Z" transform="translate(-19.337 -122.071)"/>
        <path id="Path_93" data-name="Path 93" class="cls-4" d="M25.463,228.108a26.224,26.224,0,0,1-1.535,3.067c-.17.312,1.416.229,1.535,0A25.406,25.406,0,0,0,27,228.108C27.093,227.871,25.562,227.855,25.463,228.108Z" transform="translate(-14.307 -137.537)"/>
        <path id="Path_94" data-name="Path 94" class="cls-4" d="M99.419,134.445v1.533c-.217.651-1.065,1.008-1.535,1.533-.316.347,1.325.233,1.535,0,.379-.491-.142-.929,0-1.533l1.535-1.533C101.06,134.129,99.518,134.149,99.419,134.445Z" transform="translate(-59.104 -80.674)"/>
        <path id="Path_95" data-name="Path 95" class="cls-4" d="M92.071,158.925c-.026,1.051.34,2.072,0,3.067-.146.43-.119.347,0,0,.361-1.044-.032-1.963,0-3.067C92.071,158.506,92.095,158.554,92.071,158.925Z" transform="translate(-54.826 -95.954)"/>
        <path id="Path_96" data-name="Path 96" class="cls-4" d="M85.675,181.432l-1.535,4.6c-.051.162-.063.2,0,0l1.535-6.133A6.647,6.647,0,0,1,85.675,181.432Z" transform="translate(-49.965 -109.262)"/>
        <path id="Path_97" data-name="Path 97" class="cls-4" d="M78.191,208.918c-.579,1.339-2.382,1.775-3.069,3.067-.075.142,1.424.209,1.535,0a32.024,32.024,0,0,0,1.535-3.067C78.262,208.756,78.281,208.705,78.191,208.918Z" transform="translate(-45.549 -126.015)"/>
        <path id="Path_98" data-name="Path 98" class="cls-4" d="M68.528,234.025c-.5,1.243-.9,3.421-1.535,4.6-.083.154,1.42.213,1.535,0,.639-1.179,1.034-3.357,1.535-4.6C70.138,233.839,68.619,233.8,68.528,234.025Z" transform="translate(-40.491 -141.921)"/>
        <path id="Path_99" data-name="Path 99" class="cls-4" d="M134.559,138.222v1.533c-.209.628-1.088,1.032-1.535,1.533-.32.355,1.29.253,1.535,0,.383-.519-.137-.9,0-1.533l1.535-1.533C136.232,137.8,134.666,137.915,134.559,138.222Z" transform="translate(-80.433 -82.919)"/>
        <path id="Path_100" data-name="Path 100" class="cls-4" d="M127.2,162.825c-.03,1.076.35,2.049,0,3.067-.1.3-.1.288,0,0,.35-1.017,1.505-1.991,1.535-3.067C128.73,162.466,127.2,162.525,127.2,162.825Z" transform="translate(-76.138 -98.322)"/>
        <path id="Path_101" data-name="Path 101" class="cls-4" d="M120.807,185.083l-1.535,4.6c-.107.343-.119.32,0,0l1.535-6.133C120.913,183.206,120.925,184.763,120.807,185.083Z" transform="translate(-71.284 -111.379)"/>
        <path id="Path_102" data-name="Path 102" class="cls-4" d="M112.828,212.595a33.307,33.307,0,0,1-1.535,3.067c-.19.355-.142.264,0,0a32.024,32.024,0,0,0,1.535-3.067C112.99,212.2,112.951,212.319,112.828,212.595Z" transform="translate(-66.375 -128.158)"/>
        <path id="Path_103" data-name="Path 103" class="cls-4" d="M105.208,237.859c-.5,1.243-2.431,3.421-3.069,4.6-.083.158,1.42.213,1.535,0,.639-1.179,1.034-3.357,1.535-4.6C105.283,237.673,105.3,237.638,105.208,237.859Z" transform="translate(-61.824 -144.222)"/>
        <path id="Path_104" data-name="Path 104" class="cls-4" d="M184.662,129.127v3.067c-.209.636-1.072,1.024-1.535,1.533-.154.17,1.408.138,1.535,0,.382-.509-.139-.913,0-1.533l1.535-3.067C186.244,128.985,184.729,128.934,184.662,129.127Z" transform="translate(-110.585 -78.423)"/>
        <path id="Path_105" data-name="Path 105" class="cls-4" d="M177.274,154.656c-.03,1.065.348,2.06,0,3.067-.055.166-.071.205,0,0,.354-1.032-.028-1.976,0-3.067C177.274,154.518,177.278,154.419,177.274,154.656Z" transform="translate(-106.266 -93.219)"/>
        <path id="Path_106" data-name="Path 106" class="cls-4" d="M171.382,175.4l-3.069,6.133c-.079.249,1.456.253,1.535,0l1.535-6.133C171.461,175.151,171.461,175.147,171.382,175.4Z" transform="translate(-101.909 -106.296)"/>
        <path id="Path_107" data-name="Path 107" class="cls-4" d="M163.387,204.434c-.579,1.339-2.382,1.775-3.069,3.067-.087.162,1.42.217,1.535,0a32.026,32.026,0,0,0,1.535-3.067C163.466,204.248,163.482,204.213,163.387,204.434Z" transform="translate(-96.984 -123.063)"/>
        <path id="Path_108" data-name="Path 108" class="cls-4" d="M153.748,229.606c-.5,1.243-.9,3.421-1.535,4.6-.055.1,1.428.193,1.535,0,.639-1.179,1.034-3.357,1.535-4.6C155.334,229.476,153.831,229.409,153.748,229.606Z" transform="translate(-91.948 -139.036)"/>
        <path id="Path_109" data-name="Path 109" class="cls-4" d="M229.549,120.69l-1.535,3.067c-.217.651.47,1.016,0,1.533-.312.343-.2.221,0,0,.379-.49,1.393-.931,1.535-1.533V120.69C229.648,120.386,229.644,120.4,229.549,120.69Z" transform="translate(-137.056 -73.053)"/>
        <path id="Path_110" data-name="Path 110" class="cls-4" d="M221.151,146.189c-.025,1.052.339,2.07,0,3.067-.142.418-.111.328,0,0,.361-1.043,1.5-1.964,1.535-3.067C222.686,145.794,221.179,145.834,221.151,146.189Z" transform="translate(-133.262 -87.819)"/>
        <path id="Path_111" data-name="Path 111" class="cls-4" d="M214.711,167.134l-1.535,6.133h0l1.535-6.133C214.778,166.917,214.782,166.905,214.711,167.134Z" transform="translate(-128.357 -101.097)"/>
        <path id="Path_112" data-name="Path 112" class="cls-4" d="M206.737,194.97c-.579,1.339-.847,3.308-1.535,4.6-.205.395-.17.292,0,0,.687-1.287.955-3.255,1.535-4.6C206.915,194.575,206.879,194.642,206.737,194.97Z" transform="translate(-123.452 -118.2)"/>
        <path id="Path_113" data-name="Path 113" class="cls-4" d="M198.628,221.305a25.829,25.829,0,0,1-1.535,3.067c-.059.107-.107.2,0,0a25.832,25.832,0,0,0,1.535-3.067Z" transform="translate(-118.412 -133.801)"/>
      </g>
    </g>
    <g id="Cloud" transform="translate(667.431 119.8)">
      <g id="Ebene_1-2" data-name="Ebene 1" transform="translate(0 0)">
        <path id="Path_1-2" data-name="Path 1" class="cls-4" d="M38.208,95.841C12.722,97.7-2.254,70.61,1.376,48.308c1.977-12.293,9.279-22.449,21.485-26.067,13.015-3.863,26.912-.925,39.9,1.533C63.4,23.9,65.29,22.4,64.3,22.241c-13.877-2.625-29.138-4.619-42.971,0C10.174,25.92,3.942,33.9,1.376,45.241c-5.4,23.883,9.668,52.584,36.832,50.6C39.087,95.771,39.368,95.753,38.208,95.841Z" transform="translate(-0.289 -2.308)"/>
        <path id="Path_2-2" data-name="Path 2" class="cls-4" d="M48.879,16.987c-.088-7.13,8.073-8.968,13.812-10.733,5.151-1.6,10.033-2.141,15.347-3.067C88.626,1.3,99.6.256,110.266,1.653c16.451,2.265,32.176,8.756,44.505,19.933.325.3,1.781.22,1.535,0C140.566,7.318,119.063.26,97.989.12c-10.679,0-20.4,1.761-30.693,4.6C60.309,6.6,47.257,9.142,47.345,18.52,47.345,18.775,48.888,17.443,48.879,16.987Z" transform="translate(-6.356 -0.12)"/>
        <path id="Path_3-2" data-name="Path 3" class="cls-4" d="M160.7,14.45c13.182-13.417,34.491-9.7,50.644-4.6,8.621,2.722,13.677,9.558,15.347,18.4,1.494,7.9-.274,18.171-7.673,23-.958.623.876.43,1.535,0,7.136-4.654,8.543-13.573,7.673-21.467-1.055-9.562-6.119-16.667-15.347-19.933-17.119-6.059-39.705-9.633-53.713,4.6C158.424,15.2,160.169,14.959,160.7,14.45Z" transform="translate(-19.954 -0.65)"/>
        <path id="Path_4-2" data-name="Path 4" class="cls-4" d="M228.967,57.133c8.788-4.575,21.958-3.12,30.693,1.533,6.776,3.609,10.82,10.735,7.673,18.4-3,7.314-11.1,15.766-18.416,18.4-9.2,3.337-20.476.674-29.159-3.067-.387-.167-.536,1.3,0,1.533,8.92,3.863,18.08,5.973,27.624,3.067a33.767,33.767,0,0,0,12.277-7.667c3.753-3.512,7.239-7.42,9.208-12.267,4.166-10.273-4.663-18.833-13.812-21.467-8.938-2.573-19.231-2.839-27.624,1.533C226.439,57.651,228.536,57.352,228.967,57.133Z" transform="translate(-26.838 -6.533)"/>
        <path id="Path_5-2" data-name="Path 5" class="cls-4" d="M255.879,93.783c-3.92,5.207-7.335,10.256-13.812,12.267a47.443,47.443,0,0,1-16.881,1.533c-10.432-.878-20.384-6.137-23.02-16.867-.167-.676-1.7-.694-1.535,0,3.041,12.381,15.848,18.233,27.624,18.4a39.492,39.492,0,0,0,16.881-3.067c5.572-2.52,8.692-7.5,12.277-12.267C257.914,93.116,256.257,93.274,255.879,93.783Z" transform="translate(-24.592 -10.983)"/>
        <path id="Path_6-2" data-name="Path 6" class="cls-4" d="M193.98,99.636c-2.636,11.309-15.781,18.455-26.089,21.467-11.644,3.389-25.9,2.6-36.832-3.067-.466-.237-2.2,1.191-1.535,1.533,11.75,6.094,27.484,5.441,39.9,1.533,10.449-3.284,23.374-11.445,26.089-23C195.655,97.523,194.111,99.083,193.98,99.636Z" transform="translate(-16.406 -12.236)"/>
        <path id="Path_7-2" data-name="Path 7" class="cls-4" d="M132.3,83.579c-1.151,5.1-1.654,10.32-3.069,15.333-1.222,4.39-2.143,8.351-4.6,12.267-3.4,5.418-9.7,6.192-15.347,7.667a50.052,50.052,0,0,1-18.416,1.533c-9.588-1.045-18.607-.42-27.624-4.6C55.261,112.04,48,106.354,43.292,98.912c-.29-.457-1.895-.571-1.535,0,5.5,8.652,13.39,16.405,23.02,19.933,4.211,1.6,9.306,1.514,13.812,1.533,6.152-.061,10.782,1.928,16.881,1.533,5.9-.4,12.66-1.925,18.416-3.067,3.981-.79,7.746-1.588,10.743-4.6,3.19-3.179,3.356-8.07,4.6-12.267,1.881-6.322,4.689-11.964,6.139-18.4C135.512,82.973,132.434,83.017,132.3,83.579Z" transform="translate(-5.372 -9.979)"/>
        <path id="Path_8-2" data-name="Path 8" class="cls-4" d="M51.879,94.544c-1.474,2.439-1.513,6.351-1.535,9.2,0,.228,1.535-1.077,1.535-1.533.03-2.789.087-5.282,1.535-7.667C53.511,94.386,52.126,94.123,51.879,94.544Z" transform="translate(-6.287 -11.744)"/>
        <path id="Path_9-2" data-name="Path 9" class="cls-4" d="M57.085,96.1l-1.535,9.2c-.29.931,1.315.685,1.535,0l3.069-9.2C60.444,95.17,57.3,95.416,57.085,96.1Z" transform="translate(-6.888 -11.768)"/>
        <path id="Path_10-2" data-name="Path 10" class="cls-4" d="M63.977,97.547c-1.172,5.4-3.174,10.012-4.6,15.333-.193.7,1.359.65,1.535,0,1.447-5.327,3.45-9.942,4.6-15.333C65.67,96.818,64.118,96.888,63.977,97.547Z" transform="translate(-7.642 -11.68)"/>
        <path id="Path_11-2" data-name="Path 11" class="cls-4" d="M69.306,99.675l-1.535,15.333c-.149.781,1.394.7,1.535,0l3.069-15.333C72.525,98.894,69.447,98.973,69.306,99.675Z" transform="translate(-8.367 -12.275)"/>
        <path id="Path_12-2" data-name="Path 12" class="cls-4" d="M76.759,101.1c-.586,5.216-1.991,10.194-3.069,15.333-.1.483,2.964.474,3.069,0,1.06-5.145.931-10.124,1.535-15.333C78.355,100.574,76.821,100.636,76.759,101.1Z" transform="translate(-9.681 -12.168)"/>
        <path id="Path_13-2" data-name="Path 13" class="cls-4" d="M83.439,104.513c-.476,4.532-2.041,7.827-3.069,12.267-.193.878,1.324.781,1.535,0,1.029-4.439,2.594-7.735,3.069-12.267C85.07,103.635,83.553,103.714,83.439,104.513Z" transform="translate(-10.222 -12.513)"/>
        <path id="Path_14-2" data-name="Path 14" class="cls-4" d="M90.019,105.086A78.185,78.185,0,0,1,86.95,120.42c-.22.676,1.324.65,1.535,0a78.078,78.078,0,0,0,3.069-15.333C91.642,104.314,90.1,104.419,90.019,105.086Z" transform="translate(-10.664 -13.086)"/>
        <path id="Path_15-2" data-name="Path 15" class="cls-4" d="M95.533,106.524c-.516,4.724-.7,9.129-1.535,13.8-.114.659,1.429.588,1.535,0,.832-4.683,1.019-9.088,1.535-13.8C97.138,105.839,95.595,105.945,95.533,106.524Z" transform="translate(-11.574 -12.991)"/>
        <path id="Path_16-2" data-name="Path 16" class="cls-4" d="M102.37,105.093a86.887,86.887,0,0,1-4.6,16.867c-.369.878,1.245,2.218,1.535,1.533,2.261-5.523,3.493-12.537,4.6-18.4C104.063,104.215,102.555,104.33,102.37,105.093Z" transform="translate(-12.272 -13.093)"/>
        <path id="Path_17-2" data-name="Path 17" class="cls-4" d="M111.024,104.548c-1.635,5.35-4.012,10.147-6.139,15.333-.22.544,1.306.562,1.535,0,2.133-5.175,4.51-9.971,6.139-15.333C112.744,103.951,111.2,103.968,111.024,104.548Z" transform="translate(-13.253 -12.548)"/>
        <path id="Path_18-2" data-name="Path 18" class="cls-4" d="M117.879,103.4c-2.129,4.724-4.5,10.417-6.139,15.333-.22.65,1.333.623,1.535,0,1.6-4.824,4.052-10.7,6.139-15.333C119.774,102.6,118.143,102.83,117.879,103.4Z" transform="translate(-13.969 -12.934)"/>
        <path id="Path_19-2" data-name="Path 19" class="cls-4" d="M124.846,104.685a89.319,89.319,0,0,1-4.6,10.733c-.141.307,1.324.448,1.535,0a89.328,89.328,0,0,0,4.6-10.733C126.495,104.317,125,104.238,124.846,104.685Z" transform="translate(-14.797 -12.685)"/>
        <path id="Path_20-2" data-name="Path 20" class="cls-4" d="M130.256,104.814l-3.069,10.733c-.308.878,1.306.641,1.535,0l3.069-10.733C132.1,103.936,130.485,104.173,130.256,104.814Z" transform="translate(-15.603 -12.814)"/>
        <path id="Path_21-2" data-name="Path 21" class="cls-4" d="M144.283,106.371l-4.6,10.733c-.413.878,1.209.676,1.535,0l4.6-10.733C146.231,105.492,144.609,105.694,144.283,106.371Z" transform="translate(-17.354 -12.837)"/>
        <path id="Path_22-2" data-name="Path 22" class="cls-4" d="M149.93,108.1a79.943,79.943,0,0,1-3.069,9.2c-.176.439,1.333.509,1.535,0a79.943,79.943,0,0,0,3.069-9.2C151.6,107.6,150.062,107.588,149.93,108.1Z" transform="translate(-18.396 -13.031)"/>
        <path id="Path_23-2" data-name="Path 23" class="cls-4" d="M158.474,111.877a37.982,37.982,0,0,0-3.069,9.2c-.114.509,1.42-1.033,1.535-1.533a37.982,37.982,0,0,1,3.069-9.2C160.193,109.975,158.72,111.394,158.474,111.877Z" transform="translate(-19.267 -13.743)"/>
        <path id="Path_24-2" data-name="Path 24" class="cls-4" d="M166.827,110.242l-4.6,10.733c-.369.755,1.271.536,1.535,0l4.6-10.733C168.731,109.487,167.091,109.707,166.827,110.242Z" transform="translate(-19.947 -13.642)"/>
        <path id="Path_25-2" data-name="Path 25" class="cls-4" d="M174.2,108.237l-4.6,9.2c-.36.817,1.28.588,1.535,0l4.6-9.2C176.09,107.42,174.45,107.648,174.2,108.237Z" transform="translate(-21.176 -13.17)"/>
        <path id="Path_26-2" data-name="Path 26" class="cls-4" d="M182.644,104.689l-4.6,10.733c-.36.8,1.271.58,1.535,0l4.6-10.733C184.539,103.89,182.908,104.109,182.644,104.689Z" transform="translate(-21.951 -12.689)"/>
        <path id="Path_27-2" data-name="Path 27" class="cls-4" d="M189.7,101.137l-4.6,9.2c-.114.272,1.341.439,1.535,0l4.6-9.2C191.346,100.865,189.89,100.7,189.7,101.137Z" transform="translate(-22.866 -12.204)"/>
        <path id="Path_28-2" data-name="Path 28" class="cls-4" d="M195.277,97.992l-4.6,7.667c-.22.483,2.832.536,3.069,0l3.069-7.667C197.032,97.509,195.515,97.456,195.277,97.992Z" transform="translate(-23.842 -12.125)"/>
        <path id="Path_29-2" data-name="Path 29" class="cls-4" d="M224.785,90.621l-1.535,4.6c-.185.3-.1.009,0,0,.385-.024,1.293.3,1.535,0l3.069-4.6c.185-.3-1.438-.009-1.535,0C225.934,90.645,225.027,90.32,224.785,90.621Z" transform="translate(-27.26 -10.888)"/>
        <path id="Path_30-2" data-name="Path 30" class="cls-4" d="M228.73,90.869l-1.535,4.6c-.114.334,1.376.439,1.535,0l1.535-4.6C230.379,90.536,228.889,90.43,228.73,90.869Z" transform="translate(-28.136 -11.136)"/>
        <path id="Path_31" data-name="Path 31" class="cls-4" d="M233.829,92.726,230.76,98.86c-.088.255,1.385.421,1.535,0l3.069-6.133C235.452,92.472,233.979,92.3,233.829,92.726Z" transform="translate(-28.631 -11.46)"/>
        <path id="Path_32" data-name="Path 32" class="cls-4" d="M237.145,94.119l-1.535,4.6c-.141.386,1.368.474,1.535,0l1.535-4.6C238.82,93.732,237.312,93.645,237.145,94.119Z" transform="translate(-28.877 -11.319)"/>
        <path id="Path_33" data-name="Path 33" class="cls-4" d="M242.387,94.389l-1.535,4.6c-.228.676,1.324.641,1.535,0l1.535-6.133C244.15,92.18,242.6,93.748,242.387,94.389Z" transform="translate(-29.516 -11.589)"/>
        <path id="Path_34" data-name="Path 34" class="cls-4" d="M247.589,94.411l-1.535,6.133c-.343.817,1.289.571,1.535,0l1.535-6.133C249.466,93.594,247.835,93.84,247.589,94.411Z" transform="translate(-30.113 -11.611)"/>
        <path id="Path_35" data-name="Path 35" class="cls-4" d="M209.16,94.413l-3.069,4.6c-.255.334-.255-.026,0,0,.429.033,1.266.336,1.535,0l3.069-4.6c.255-.334.255.026,0,0C210.265,94.379,209.429,94.077,209.16,94.413Z" transform="translate(-25.447 -11.613)"/>
        <path id="Path_36" data-name="Path 36" class="cls-4" d="M214.4,99.628c-.989,1.185-2.449,1.654-3.069,3.067-.158.36,1.359.018,1.535,0,.4-.013-.2.347,0,0,.6-1.322,2.131-1.96,3.069-3.067.264-.316-1.3-1.516-1.535-1.533C213.976,98.073,214.682,99.312,214.4,99.628Z" transform="translate(-26.083 -12.228)"/>
        <path id="Path_37" data-name="Path 37" class="cls-4" d="M219.75,103.062l-1.535,3.067c-.158.237-.053.018,0,0,.3-.053,1.35.281,1.535,0l1.535-3.067c.158-.237.053-.018,0,0C220.986,103.115,219.934,102.781,219.75,103.062Z" transform="translate(-26.829 -12.596)"/>
        <path id="Path_38" data-name="Path 38" class="cls-4" d="M225.18,104.527l-1.535,1.533c-.431.878,1.183,2.245,1.535,1.533l1.535-3.067C227.145,103.649,225.531,103.816,225.18,104.527Z" transform="translate(-27.655 -12.527)"/>
        <path id="Path_39" data-name="Path 39" class="cls-4" d="M232.095,105.1c-.472,1.039-2.374,2.162-3.069,3.067-.255.334,1.271,1.516,1.535,1.533.429.035-.268-1.2,0-1.533.7-.9,2.6-2.028,3.069-3.067C233.99,104.3,232.358,104.533,232.095,105.1Z" transform="translate(-28.432 -13.104)"/>
        <path id="Path_40" data-name="Path 40" class="cls-4" d="M235.832,106.525c-.033.782-1,.961-1.535,1.533-.272.3,1.324,0,1.535,0,.42.008-.3.294,0,0a6.11,6.11,0,0,0,1.535-3.067C237.366,104.562,235.849,105.911,235.832,106.525Z" transform="translate(-29.099 -12.992)"/>
        <path id="Path_41" data-name="Path 41" class="cls-4" d="M240.9,106.384v1.533c-.387.878,1.236.72,1.535,0l1.535-1.533C244.355,105.506,241.2,105.664,240.9,106.384Z" transform="translate(-29.562 -12.851)"/>
        <path id="Path_42" data-name="Path 42" class="cls-4" d="M247.97,104.994l-1.535,3.067c-.123.378,1.324.026,1.535,0,.4-.011-.188-1.176,0-1.533l1.535-1.533c.123-.378-1.324-.026-1.535,0C247.566,105.005,248.157,104.637,247.97,104.994Z" transform="translate(-30.494 -12.994)"/>
        <path id="Path_43" data-name="Path 43" class="cls-4" d="M47.976,92.394c-2.354,1.636-4.841,3.579-6.139,6.133-.387.773,1.262.553,1.535,0,1.168-2.346,2.461-4.623,4.6-6.133Z" transform="translate(-5.453 -11.127)"/>
      </g>
    </g>
    <g id="Bird" transform="translate(889.403 102.778)">
      <g id="Ebene_1-3" data-name="Ebene 1" transform="translate(0 0)">
        <path id="Path_44" data-name="Path 44" class="cls-4" d="M2.147,11.169C2.21,9.594,2.229,8.718,3.682,8.1c1.457-.577,3.452-1.062,4.6,0,.546.528.941,2.574,1.535,3.067s.989.522,1.535,0A18.521,18.521,0,0,0,12.89,9.635C15.768,4.111,20.469.492,26.7.435c-.855,3.659-4.361,6.967-4.6,10.733l6.139-4.6c.843-.522,2.114-1.794,3.069-1.533,1.543.421.879,3.271,0,4.6A10.793,10.793,0,0,1,28.236,12.7a11.943,11.943,0,0,0-3.069,3.067c-.348.448.08.971,0,1.533-.19,2.509,2.826,3.625,3.069,6.133.119,1.186-.359,1.213-1.535,1.533-1.2.236-1.955.506-3.069,0A29.9,29.9,0,0,1,17.494,21.9L.612,11.169" transform="translate(-0.505 -0.28)"/>
        <path id="Path_45" data-name="Path 45" class="cls-4" d="M1.569,10.787V9.254l4.6-1.533c.594.237,1.06,1.094,1.535,1.533.4.461.963,1.313,1.535,1.533.783.249,2.5.587,3.069,0,.932-.919.692-3.568,1.535-4.6.892-1.084,1.928-.716,3.069-1.533a16.109,16.109,0,0,1,9.208-3.067V.054c-1.116,3.713-5.587,6.807-6.139,10.733-.071.522,1.3.148,1.535,0,1.425-.89,9.819-7.556,9.208-3.067-.326,2.372-3.043,3.141-4.6,4.6-1.959,1.827-3.8,5.5-1.535,7.667.522.5,1-.463,1.535,0a7.539,7.539,0,0,1,1.535,1.533c-.914,2.847-2.558,4.17-4.6,3.067-2.642-.937-5.37-3.046-7.673-4.6l-13.812-9.2c-.421-.285-2.075-.368-1.535,0l10.743,7.667A93.655,93.655,0,0,0,21.52,24.587a6.392,6.392,0,0,0,6.139,0c1.662-1,1.241-1.566,0-3.067-.689-.83-.769-2.331-1.535-3.067-2.256-2.159-.472-4.615,1.535-6.133,1.739-1.329,4.283-2.151,4.6-4.6C33.29.473,22.986,8.347,21.52,9.254v1.533c.534-3.82,5.04-7.127,6.139-10.733.083-.35-1.2,0-1.535,0-4.594.069-9.009,1.373-12.277,4.6-1.14,1.127-.419,3.556-1.535,4.6-1.68,1.578-3.1-.9-4.6-1.533C6.87,7.372,5.535,6.04,4.639,6.187a5.907,5.907,0,0,0-4.6,4.6C-.037,11.381,1.48,11.309,1.569,10.787Z" transform="translate(0.073 0.101)"/>
      </g>
    </g>
    <g id="Group_1" data-name="Group 1" transform="translate(1063.771 69.2)">
      <g id="Bird_2" data-name="Bird 2" transform="translate(183.204 35.106)">
        <g id="Ebene_1-4" data-name="Ebene 1" transform="translate(0 0)">
          <path id="Path_44-2" data-name="Path 44" class="cls-4" d="M2.134,11.159C2.2,9.53,2.166,8.73,3.668,8.093c1.507-.6,3.413.434,4.6,1.533.565.546.921,1.024,1.535,1.533a3.19,3.19,0,0,0,3.069,0c.185-.194-.111-1.289,0-1.533A17.33,17.33,0,0,1,28.223.426c-.884,3.785-5.887,6.838-6.139,10.733l7.673-4.6c.872-.54.546-.27,1.535,0,1.6.436,2.443,1.693,1.535,3.067a10.442,10.442,0,0,1-3.069,3.067,11.554,11.554,0,0,0-3.069,3.067c-.36.464-1.452.952-1.535,1.533-.2,2.595,4.352,3.538,4.6,6.133.123,1.227-.319,2.735-1.535,3.067-1.243.244-3.451.523-4.6,0-2.2-.945-4.214-3.181-6.139-4.6L.6,11.159" transform="translate(-0.485 -0.265)"/>
          <path id="Path_45-2" data-name="Path 45" class="cls-4" d="M1.572,10.789h0L7.71,9.256c.614.245,1.043,1.079,1.535,1.533.417.477.943-.228,1.535,0,.81.258.941.608,1.535,0a42.557,42.557,0,0,0,3.069-3.067,16.692,16.692,0,0,1,3.069-3.067,15.6,15.6,0,0,1,9.208-3.067V.056c-1.154,3.84-5.568,6.672-6.139,10.733-.074.54,1.289.153,1.535,0,1.474-.92,9.84-7.71,9.208-3.067-.338,2.454-4.524,4.624-6.139,6.133-2.026,1.889-2.339,3.894,0,6.133.54.521.982,1.055,1.535,1.533.482.329-.329,1.051,0,1.533-.946,2.945-2.488,2.674-4.6,1.533a21.722,21.722,0,0,1-6.139-3.067L1.572,10.789c-.436-.294-2.093-.38-1.535,0l12.277,9.2c3.18,2.147,5.739,4.471,9.208,6.133a6.206,6.206,0,0,0,6.139,0c1.719-1.031,2.818-3.048,1.535-4.6-.712-.859-2.277-.773-3.069-1.533-2.333-2.233.994-4.563,3.069-6.133,1.8-1.374,4.272-3.6,4.6-6.133,1.062-7.5-10.761,2.128-12.277,3.067h1.535c.553-3.951,3.468-7,4.6-10.733.086-.362.344,0,0,0-4.752.071-8.9,1.262-12.277,4.6-1.179,1.166-1.915,3.52-3.069,4.6-1.738,1.632-3.045-.883-4.6-1.533a6.212,6.212,0,0,0-3.069,0,5.744,5.744,0,0,0-4.6,4.6C-.037,12.936,1.48,11.329,1.572,10.789Z" transform="translate(0.077 0.105)"/>
        </g>
      </g>
      <g id="Cloud-2" data-name="Cloud" transform="translate(0)">
        <g id="Ebene_1-5" data-name="Ebene 1">
          <path id="Path_1-3" data-name="Path 1" class="cls-4" d="M24.793,69.577C8.092,70.8-.605,53.526,1.773,38.911c1.3-8.056,5.813-16.029,13.812-18.4,8.529-2.532,17.577-.078,26.089,1.533.42.081,2.185.1,1.535,0-9.093-1.72-20.094-4.56-29.159-1.533A20.236,20.236,0,0,0,.238,35.844C-3.3,51.5,6.992,70.878,24.793,69.577,25.369,69.531,25.553,69.52,24.793,69.577Z" transform="translate(0.454 -8.244)"/>
          <path id="Path_2-3" data-name="Path 2" class="cls-4" d="M49.277,10.853C49.22,6.181,53.19,5.877,56.95,4.72A91.645,91.645,0,0,1,67.693,1.653c6.939-1.236,14.5-.916,21.485,0C99.959,3.138,110.257,6.6,118.337,13.92c.213.2.161.144,0,0C108.023,4.57,95.315.212,81.505.12A84.093,84.093,0,0,0,60.02,3.187c-4.578,1.231-12.335,3.055-12.277,9.2A4.7,4.7,0,0,0,49.277,10.853Z" transform="translate(-19.426 -0.12)"/>
          <path id="Path_3-3" data-name="Path 3" class="cls-4" d="M159.663,11.14c8.639-8.792,23.178-6.41,33.763-3.067,5.65,1.784,8.114,6.472,9.208,12.267.979,5.179.245,12.169-4.6,15.333-.628.409,1.1.282,1.535,0,4.676-3.05,5.174-8.627,4.6-13.8-.691-6.266-3.161-11.66-9.208-13.8-11.219-3.97-26.117-6.261-35.3,3.067C159.179,11.629,159.317,11.474,159.663,11.14Z" transform="translate(-66.89 -1.94)"/>
          <path id="Path_4-3" data-name="Path 4" class="cls-4" d="M225.043,56.384c5.759-3,14.226-3.05,19.951,0,4.44,2.365,8.2,7.243,6.139,12.267-1.964,4.793-7.48,10.54-12.277,12.267-6.03,2.187-12.726.918-18.416-1.533-.253-.109-1.886-.155-1.535,0,5.845,2.532,13.7,3.438,19.951,1.533a19.711,19.711,0,0,0,7.673-4.6c2.459-2.3,4.849-4.49,6.139-7.667,2.73-6.732-3.213-12.074-9.208-13.8a25.79,25.79,0,0,0-18.416,1.533C224.392,56.724,224.76,56.528,225.043,56.384Z" transform="translate(-92.369 -22.651)"/>
          <path id="Path_5-3" data-name="Path 5" class="cls-4" d="M237.01,91.932c-2.569,3.412-4.964,7.882-9.208,9.2-3.485.985-7.137.343-10.743,0-6.836-.575-13.619-3.7-15.347-10.733-.109-.443-1.644-.455-1.535,0,1.993,8.113,10.7,12.157,18.416,12.267,3.749.052,7.281.038,10.743-1.533,3.651-1.651,6.858-6.076,9.208-9.2C238.873,91.495,237.257,91.6,237.01,91.932Z" transform="translate(-84.386 -38.265)"/>
          <path id="Path_6-3" data-name="Path 6" class="cls-4" d="M171.626,98.525c-1.728,7.411-10.126,11.826-16.881,13.8-7.631,2.221-17.39,2.178-24.555-1.533-.305-.155-.438,1.309,0,1.533,7.7,3.993,16.417,2.561,24.555,0,6.847-2.152,16.636-6.228,18.416-13.8C173.253,98.146,171.713,98.163,171.626,98.525Z" transform="translate(-54.299 -41.792)"/>
          <path id="Path_7-3" data-name="Path 7" class="cls-4" d="M101.841,82.833c-.754,3.343-2.142,7.448-3.069,10.733a26.312,26.312,0,0,1-3.069,7.667c-2.229,3.55-7.04,3.633-10.743,4.6-3.991,1.036-8.137,1.994-12.277,1.533-6.283-.685-10.973-.328-16.881-3.067-5.23-2.45-10.723-5.856-13.812-10.733-.19-.3-.236-.374,0,0a30.633,30.633,0,0,0,15.347,12.267,19.552,19.552,0,0,0,7.673,1.533c4.031-.04,8.281,1.792,12.277,1.533,3.864-.259,6.971-2.319,10.743-3.067,2.609-.518,5.709-1.093,7.673-3.067,2.091-2.083,2.252-4.916,3.069-7.667,1.232-4.143,2.119-8.049,3.069-12.267C101.933,82.436,101.927,82.465,101.841,82.833Z" transform="translate(-16.742 -35.3)"/>
          <path id="Path_8-3" data-name="Path 8" class="cls-4" d="M51.739,95.635a8.118,8.118,0,0,0-1.535,4.6h0A13.979,13.979,0,0,1,51.739,94.1,3.414,3.414,0,0,1,51.739,95.635Z" transform="translate(-20.354 -40.435)"/>
          <path id="Path_9-3" data-name="Path 9" class="cls-4" d="M56.989,95.858l-1.535,6.133c-.19.61-.144.449,0,0l3.069-6.133C58.714,95.248,57.133,95.409,56.989,95.858Z" transform="translate(-22.535 -40.658)"/>
          <path id="Path_10-3" data-name="Path 10" class="cls-4" d="M62.157,96.535c-.768,3.537-2.133,7.246-3.069,10.733-.127.46,1.419.426,1.535,0,.948-3.491,2.313-7.2,3.069-10.733C63.8,96.057,62.249,96.1,62.157,96.535Z" transform="translate(-24.633 -41.335)"/>
          <path id="Path_11-3" data-name="Path 11" class="cls-4" d="M70.127,99.174l-3.069,10.733c-.1.512,1.443.46,1.535,0l1.535-10.733C70.225,98.662,70.219,98.714,70.127,99.174Z" transform="translate(-27.999 -42.441)"/>
          <path id="Path_12-3" data-name="Path 12" class="cls-4" d="M75.862,100.848a88.93,88.93,0,0,1-1.535,9.2c-.063.316,1.466.311,1.535,0,.695-3.372,1.139-5.786,1.535-9.2C77.437,100.5,75.9,100.543,75.862,100.848Z" transform="translate(-30.665 -42.582)"/>
          <path id="Path_13-3" data-name="Path 13" class="cls-4" d="M81.773,103.841a78.959,78.959,0,0,1-1.535,9.2c-.127.575,1.4.512,1.535,0a78.957,78.957,0,0,0,1.535-9.2C83.371,103.265,81.848,103.317,81.773,103.841Z" transform="translate(-33.507 -44.041)"/>
          <path id="Path_14-3" data-name="Path 14" class="cls-4" d="M89.079,105.7c-.4,3.4-2,5.952-3.069,9.2-.144.443,1.4.426,1.535,0,1.07-3.249,2.669-5.8,3.069-9.2C90.671,105.2,89.131,105.266,89.079,105.7Z" transform="translate(-36.208 -44.37)"/>
          <path id="Path_15-3" data-name="Path 15" class="cls-4" d="M95.006,106.361c-.338,3.1-.989,6.139-1.535,9.2-.075.432,1.466.386,1.535,0,.545-3.069,1.2-6.112,1.535-9.2C96.587,105.913,95.046,105.982,95.006,106.361Z" transform="translate(-39.066 -45.028)"/>
          <path id="Path_16-3" data-name="Path 16" class="cls-4" d="M101.156,105.692a54.052,54.052,0,0,1-3.069,10.733c-.242.575-.19.449,0,0,1.482-3.619,3.876-6.891,4.6-10.733C102.794,105.117,101.277,105.192,101.156,105.692Z" transform="translate(-40.612 -44.359)"/>
          <path id="Path_17-3" data-name="Path 17" class="cls-4" d="M109.215,103.944c-1.071,3.506-3.21,7.335-4.6,10.733-.144.357,1.385.368,1.535,0,1.4-3.391,3.537-7.22,4.6-10.733C110.87,103.552,109.33,103.564,109.215,103.944Z" transform="translate(-44.067 -44.144)"/>
          <path id="Path_18-3" data-name="Path 18" class="cls-4" d="M114.854,103.708c-1.4,3.1-2,5.978-3.069,9.2-.144.426,1.4.409,1.535,0a92.324,92.324,0,0,1,3.069-9.2C116.624,103.184,115.026,103.334,114.854,103.708Z" transform="translate(-46.636 -43.908)"/>
          <path id="Path_19-3" data-name="Path 19" class="cls-4" d="M122.976,104.183a68.105,68.105,0,0,1-3.069,7.667c-.092.2,1.4.293,1.535,0a68.109,68.109,0,0,0,3.069-7.667C124.585,103.941,123.074,103.889,122.976,104.183Z" transform="translate(-50.154 -44.383)"/>
          <path id="Path_20-3" data-name="Path 20" class="cls-4" d="M128.776,104.3l-1.535,7.667c-.2.575-.15.42,0,0l3.069-7.667C130.512,103.721,128.926,103.876,128.776,104.3Z" transform="translate(-52.885 -44.496)"/>
          <path id="Path_21-3" data-name="Path 21" class="cls-4" d="M143.825,106.106l-4.6,6.133c-.271.575,1.322.443,1.535,0l3.069-6.133C144.1,105.531,144.039,105.663,143.825,106.106Z" transform="translate(-58.727 -44.773)"/>
          <path id="Path_22-3" data-name="Path 22" class="cls-4" d="M149.96,107.227c-.559,2.091-2.266,4.123-3.069,6.133-.115.288,1.4.334,1.535,0a51.984,51.984,0,0,0,1.535-6.133C150.047,106.9,150.047,106.893,149.96,107.227Z" transform="translate(-61.792 -45.894)"/>
          <path id="Path_23-3" data-name="Path 23" class="cls-4" d="M158.143,111.2c-.984,1.933-2.6,4.016-3.069,6.133-.075.334,1.46.328,1.535,0,.473-2.117.551-4.2,1.535-6.133C158.264,110.955,158.3,110.88,158.143,111.2Z" transform="translate(-65.371 -46.797)"/>
          <path id="Path_24-3" data-name="Path 24" class="cls-4" d="M165.293,109.87l-3.069,7.667c-.242.495-.173.351,0,0l4.6-7.667C167.07,109.375,165.466,109.519,165.293,109.87Z" transform="translate(-67.917 -47.003)"/>
          <path id="Path_25-3" data-name="Path 25" class="cls-4" d="M173.216,108.388l-3.069,6.133c-.236.535-.167.386,0,0l3.069-6.133C173.452,107.853,173.383,108,173.216,108.388Z" transform="translate(-71.236 -45.521)"/>
          <path id="Path_26-3" data-name="Path 26" class="cls-4" d="M181.259,104.128l-3.069,7.667c-.236.524-.173.38,0,0l4.6-7.667C183.029,103.6,181.431,103.748,181.259,104.128Z" transform="translate(-74.674 -44.328)"/>
          <path id="Path_27-3" data-name="Path 27" class="cls-4" d="M187.692,100.93l-3.069,6.133c-.075.178,1.408.288,1.535,0l3.069-6.133C189.3,100.751,187.818,100.642,187.692,100.93Z" transform="translate(-78.038 -42.663)"/>
          <path id="Path_28-3" data-name="Path 28" class="cls-4" d="M192.965,98.224l-1.535,4.6c-.144.316-.155.351,0,0l3.069-4.6C194.643,97.908,193.12,97.873,192.965,98.224Z" transform="translate(-80.242 -41.491)"/>
          <path id="Path_29-3" data-name="Path 29" class="cls-4" d="M224.749,90.366l-1.535,3.067c-.121.2-.063.006,0,0,.252-.016-.158.2,0,0l3.069-3.067c.121-.2-1.471-.006-1.535,0C224.5,90.381,224.907,90.169,224.749,90.366Z" transform="translate(-93.61 -38.232)"/>
          <path id="Path_30-3" data-name="Path 30" class="cls-4" d="M228.621,90.685l-1.535,3.067c-.075.219,1.431.288,1.535,0l1.535-3.067C230.23,90.466,228.725,90.4,228.621,90.685Z" transform="translate(-95.947 -38.551)"/>
          <path id="Path_31-2" data-name="Path 31" class="cls-4" d="M232.929,92.947l-1.535,3.067c-.058.167-.1.276,0,0l1.535-3.067C232.986,92.78,233.027,92.671,232.929,92.947Z" transform="translate(-97.186 -39.28)"/>
          <path id="Path_32-2" data-name="Path 32" class="cls-4" d="M236.611,93.5l-1.535,4.6c-.092.253,1.425-1.223,1.535-1.533l1.535-3.067C238.238,93.249,236.72,93.191,236.611,93.5Z" transform="translate(-99.334 -39.835)"/>
          <path id="Path_33-2" data-name="Path 33" class="cls-4" d="M241.884,93.237,240.35,96.3c-.15.443,1.4.42,1.535,0l1.535-3.067C243.569,92.794,242.022,92.817,241.884,93.237Z" transform="translate(-101.537 -39.57)"/>
          <path id="Path_34-2" data-name="Path 34" class="cls-4" d="M247.094,93.873l-1.535,4.6c-.225.535,1.373.374,1.535,0l1.535-4.6C248.854,93.338,247.256,93.5,247.094,93.873Z" transform="translate(-103.678 -40.206)"/>
          <path id="Path_35-2" data-name="Path 35" class="cls-4" d="M208.754,95.476l-3.069,1.533c-.167.219,1.368,1.516,1.535,1.533.281.022-.176-1.313,0-1.533l1.535-1.533c.167-.219.167-1.516,0-1.533C208.473,93.921,208.931,95.256,208.754,95.476Z" transform="translate(-86.824 -40.276)"/>
          <path id="Path_36-2" data-name="Path 36" class="cls-4" d="M212.583,98.514a13.916,13.916,0,0,0-1.535,3.067c-.1.236,1.419.012,1.535,0,.263-.009-.131.227,0,0a14.889,14.889,0,0,1,1.535-3.067c.173-.207.156.012,0,0C213.84,98.5,212.768,98.307,212.583,98.514Z" transform="translate(-89.117 -41.78)"/>
          <path id="Path_37-2" data-name="Path 37" class="cls-4" d="M219.78,103.326l-1.535,1.533c-.1.155-.035.012,0,0,.2-.035,1.414.184,1.535,0v-1.533c.1-.155.035-.012,0,0C219.585,103.36,219.9,103.142,219.78,103.326Z" transform="translate(-91.711 -43.526)"/>
          <path id="Path_38-2" data-name="Path 38" class="cls-4" d="M225.331,103.87,223.8,105.4c-.282.575,1.3.466,1.535,0V103.87C225.614,103.295,225.562,103.4,225.331,103.87Z" transform="translate(-94.193 -44.07)"/>
          <path id="Path_39-2" data-name="Path 39" class="cls-4" d="M230.866,105.735c-.309.681-1.079.941-1.535,1.533-.167.219-.173-.012,0,0,.281.023,1.359.221,1.535,0,.456-.593,1.225-.853,1.535-1.533C232.637,105.212,231.039,105.361,230.866,105.735Z" transform="translate(-96.658 -44.402)"/>
          <path id="Path_40-2" data-name="Path 40" class="cls-4" d="M234.648,106.221c-.022.512.35,1.158,0,1.533-.178.2-.138,0,0,0,.275.005,1.338.193,1.535,0,.41-.458-.009-2.452,0-3.067C236.182,104.406,234.659,105.818,234.648,106.221Z" transform="translate(-98.905 -44.888)"/>
          <path id="Path_41-2" data-name="Path 41" class="cls-4" d="M241.94,106.121l-1.535,1.533c-.253.575,1.339.472,1.535,0v-1.533C242.193,105.546,242.136,105.65,241.94,106.121Z" transform="translate(-101.593 -44.788)"/>
          <path id="Path_42-2" data-name="Path 42" class="cls-4" d="M247.163,106.165h0c-.081.247-.138,1.551,0,1.533.265-.007-.123-1.3,0-1.533H248.7c.081-.247-1.4-1.551-1.535-1.533C246.9,104.639,247.286,105.931,247.163,106.165Z" transform="translate(-103.746 -44.832)"/>
          <path id="Path_43-2" data-name="Path 43" class="cls-4" d="M45.174,91.338c-1.543,1.072-2.219,2.926-3.069,4.6-.253.506-.179.363,0,0,.766-1.537,3.2-2.077,4.6-3.067C47.325,92.44,45.56,91.068,45.174,91.338Z" transform="translate(-16.858 -39.205)"/>
        </g>
      </g>
    </g>
    <g id="Group_2" data-name="Group 2" transform="translate(1452.62 67.667)">
      <g id="Bird_2-2" data-name="Bird 2" transform="translate(0 47.372)">
        <g id="Ebene_1-6" data-name="Ebene 1" transform="translate(0 0)">
          <path id="Path_44-3" data-name="Path 44" class="cls-4" d="M2.134,11.159C2.2,9.53,2.166,8.73,3.668,8.093c1.507-.6,3.413.434,4.6,1.533.565.546.921,1.024,1.535,1.533a3.19,3.19,0,0,0,3.069,0c.185-.194-.111-1.289,0-1.533A17.33,17.33,0,0,1,28.223.426c-.884,3.785-5.887,6.838-6.139,10.733l7.673-4.6c.872-.54.546-.27,1.535,0,1.6.436,2.443,1.693,1.535,3.067a10.442,10.442,0,0,1-3.069,3.067,11.554,11.554,0,0,0-3.069,3.067c-.36.464-1.452.952-1.535,1.533-.2,2.595,4.352,3.538,4.6,6.133.123,1.227-.319,2.735-1.535,3.067-1.243.244-3.451.523-4.6,0-2.2-.945-4.214-3.181-6.139-4.6L.6,11.159" transform="translate(-0.485 -0.265)"/>
          <path id="Path_45-3" data-name="Path 45" class="cls-4" d="M1.572,10.789h0L7.71,9.256c.614.245,1.043,1.079,1.535,1.533.417.477.943-.228,1.535,0,.81.258.941.608,1.535,0a42.557,42.557,0,0,0,3.069-3.067,16.692,16.692,0,0,1,3.069-3.067,15.6,15.6,0,0,1,9.208-3.067V.056c-1.154,3.84-5.568,6.672-6.139,10.733-.074.54,1.289.153,1.535,0,1.474-.92,9.84-7.71,9.208-3.067-.338,2.454-4.524,4.624-6.139,6.133-2.026,1.889-2.339,3.894,0,6.133.54.521.982,1.055,1.535,1.533.482.329-.329,1.051,0,1.533-.946,2.945-2.488,2.674-4.6,1.533a21.722,21.722,0,0,1-6.139-3.067L1.572,10.789c-.436-.294-2.093-.38-1.535,0l12.277,9.2c3.18,2.147,5.739,4.471,9.208,6.133a6.206,6.206,0,0,0,6.139,0c1.719-1.031,2.818-3.048,1.535-4.6-.712-.859-2.277-.773-3.069-1.533-2.333-2.233.994-4.563,3.069-6.133,1.8-1.374,4.272-3.6,4.6-6.133,1.062-7.5-10.761,2.128-12.277,3.067h1.535c.553-3.951,3.468-7,4.6-10.733.086-.362.344,0,0,0-4.752.071-8.9,1.262-12.277,4.6-1.179,1.166-1.915,3.52-3.069,4.6-1.738,1.632-3.045-.883-4.6-1.533a6.212,6.212,0,0,0-3.069,0,5.744,5.744,0,0,0-4.6,4.6C-.037,12.936,1.48,11.329,1.572,10.789Z" transform="translate(0.077 0.105)"/>
        </g>
      </g>
      <g id="Cloud-3" data-name="Cloud" transform="translate(68.29 0)">
        <g id="Ebene_1-7" data-name="Ebene 1" transform="translate(0)">
          <path id="Path_1-4" data-name="Path 1" class="cls-4" d="M28.929,78.24C9.236,79.679-1.5,58.674,1.305,41.44c1.528-9.5,7.449-17.138,16.881-19.933,10.057-2.985,20.656-.366,30.693,1.533.5.095,2.3-1.411,1.535-1.533-10.723-2.029-23.074-3.569-33.763,0C8.034,24.35,3.288,31.141,1.305,39.907-2.864,58.362,7.939,79.774,28.929,78.24,29.608,78.186,29.826,78.173,28.929,78.24Z" transform="translate(-0.421 -6.174)"/>
          <path id="Path_2-4" data-name="Path 2" class="cls-4" d="M49.076,13.92c-.068-5.509,4.774-7.836,9.208-9.2A99.645,99.645,0,0,1,70.561,1.653C78.743.2,88.41.573,96.651,1.653a61.831,61.831,0,0,1,33.763,15.333c.251.231,1.725.17,1.535,0A66.894,66.894,0,0,0,87.443.12,92.74,92.74,0,0,0,62.888,3.187c-5.4,1.452-15.415,3.487-15.347,10.733C47.541,14.117,49.083,14.273,49.076,13.92Z" transform="translate(-15.964 -0.12)"/>
          <path id="Path_3-4" data-name="Path 3" class="cls-4" d="M159.967,12.153c10.186-10.367,25.885-7.009,38.367-3.067a17.233,17.233,0,0,1,12.277,13.8c1.154,6.106,1.114,13.135-4.6,16.867-.74.482-.509,1.866,0,1.533,5.514-3.6,6.811-10.767,6.139-16.867-.815-7.389-5.147-12.809-12.277-15.333-13.229-4.682-29.077-7.932-39.9,3.067C159.4,12.73,159.56,12.547,159.967,12.153Z" transform="translate(-51.656 -1.42)"/>
          <path id="Path_4-4" data-name="Path 4" class="cls-4" d="M226.85,55.617c6.791-3.535,16.27-2.063,23.02,1.533,5.236,2.789,10.1,9.41,7.673,15.333-2.316,5.652-9.69,11.764-15.347,13.8-7.11,2.578-14.776-.176-21.485-3.067-.3-.129-1.949,1.35-1.535,1.533a30.43,30.43,0,0,0,21.485,1.533c3.4-1.092,6.642-2.121,9.208-4.6a34.037,34.037,0,0,0,7.673-10.733c3.219-7.938-3.673-13.3-10.743-15.333-6.906-1.988-15-3.379-21.485,0C224.548,56.018,226.518,55.787,226.85,55.617Z" transform="translate(-70.965 -17.284)"/>
          <path id="Path_5-4" data-name="Path 5" class="cls-4" d="M243.677,93.442c-3.029,4.023-7.272,7.646-12.277,9.2a32.761,32.761,0,0,1-12.277,1.533c-8.061-.678-14.844-5.509-16.881-13.8-.129-.522-1.664-.536-1.535,0,2.35,9.567,10.851,13.671,19.951,13.8,4.421.061,9.731.319,13.812-1.533,4.305-1.947,7.972-5.516,10.743-9.2C245.6,92.926,243.969,93.048,243.677,93.442Z" transform="translate(-64.771 -29.042)"/>
          <path id="Path_6-4" data-name="Path 6" class="cls-4" d="M179.589,98.944c-2.037,8.739-13.52,14.539-21.485,16.867a38.029,38.029,0,0,1-27.624-3.067c-.36-.183-.516,1.269,0,1.533,9.079,4.709,19.563,4.553,29.159,1.533,8.074-2.538,19.387-7.938,21.485-16.867C181.233,98.5,179.691,98.517,179.589,98.944Z" transform="translate(-42.12 -31.478)"/>
          <path id="Path_7-4" data-name="Path 7" class="cls-4" d="M111.748,83.3c-.89,3.942-.441,8.392-1.535,12.267-.944,3.393-2.7,6.174-4.6,9.2-2.628,4.186-7.911,4.993-12.277,6.133-4.706,1.221-8.929,2.076-13.812,1.533-7.409-.807-14.518-1.37-21.485-4.6-6.167-2.889-11.7-6.516-15.347-12.267-.224-.353-1.813-.441-1.535,0C45.4,102.249,52.128,108.17,59.569,110.9a31.824,31.824,0,0,0,10.743,1.533c4.754-.047,9.1.305,13.812,0A110.114,110.114,0,0,0,97.936,110.9c3.076-.611,5.358-2.273,7.673-4.6,2.465-2.456,3.64-5.957,4.6-9.2,1.453-4.885,1.949-8.827,3.069-13.8C113.391,82.828,111.849,82.862,111.748,83.3Z" transform="translate(-14.179 -26.563)"/>
          <path id="Path_8-4" data-name="Path 8" class="cls-4" d="M51.381,94.813a11.648,11.648,0,0,0-1.535,6.133c0,.176,1.535.353,1.535,0a11.915,11.915,0,0,1,1.535-6.133C52.99,94.691,51.571,94.487,51.381,94.813Z" transform="translate(-16.734 -30.413)"/>
          <path id="Path_9-4" data-name="Path 9" class="cls-4" d="M57.784,95.347l-3.069,7.667c-.224.719,1.365.529,1.535,0l3.069-6.133C59.543,96.161,57.954,94.817,57.784,95.347Z" transform="translate(-18.533 -30.947)"/>
          <path id="Path_10-4" data-name="Path 10" class="cls-4" d="M62.166,97.067c-.905,4.17-1.965,8.155-3.069,12.267-.149.543,1.4.5,1.535,0,1.118-4.116,2.177-8.1,3.069-12.267C63.823,96.5,62.275,96.558,62.166,97.067Z" transform="translate(-19.846 -31.133)"/>
          <path id="Path_11-4" data-name="Path 11" class="cls-4" d="M69.066,99.532,67.532,111.8c-.115.6,1.426.543,1.535,0L70.6,99.532C70.716,98.928,69.175,98.989,69.066,99.532Z" transform="translate(-22.142 -32.065)"/>
          <path id="Path_12-4" data-name="Path 12" class="cls-4" d="M75.876,101.121a101.908,101.908,0,0,1-1.535,10.733c-.075.373,1.453.366,1.535,0,.819-3.976,1.068-6.708,1.535-10.733C77.458,100.714,75.924,100.762,75.876,101.121Z" transform="translate(-24.348 -32.121)"/>
          <path id="Path_13-4" data-name="Path 13" class="cls-4" d="M82.4,103.916A90.521,90.521,0,0,1,80.87,114.65c-.149.679-.163.6,0,0,.795-3.43,2.7-7.231,3.069-10.733C84.014,103.238,82.493,103.3,82.4,103.916Z" transform="translate(-26.272 -33.383)"/>
          <path id="Path_14-4" data-name="Path 14" class="cls-4" d="M89.267,105.68c-.47,4-1.81,6.9-3.069,10.733-.17.522,1.372.5,1.535,0,1.262-3.831,2.6-6.728,3.069-10.733C90.87,105.083,89.329,105.165,89.267,105.68Z" transform="translate(-28.531 -33.614)"/>
          <path id="Path_15-4" data-name="Path 15" class="cls-4" d="M94.713,106.263c-.4,3.65-.892,7.124-1.535,10.733-.088.509,1.453.455,1.535,0,.643-3.619,1.136-7.092,1.535-10.733C96.3,105.734,94.761,105.815,94.713,106.263Z" transform="translate(-30.908 -34.197)"/>
          <path id="Path_16-4" data-name="Path 16" class="cls-4" d="M102.077,105.675c-.842,4.447-2.89,8.078-4.6,12.267-.285.678,1.311.529,1.535,0,1.747-4.268,3.745-7.736,4.6-12.267C103.734,105,102.22,105.085,102.077,105.675Z" transform="translate(-32.133 -33.609)"/>
          <path id="Path_17-4" data-name="Path 17" class="cls-4" d="M109.155,104c-1.263,4.134-2.961,8.259-4.6,12.267-.17.421,1.358.434,1.535,0,1.648-4,3.345-8.123,4.6-12.267C110.832,103.535,109.29,103.548,109.155,104Z" transform="translate(-34.606 -33.463)"/>
          <path id="Path_18-4" data-name="Path 18" class="cls-4" d="M115.879,103.79a111.279,111.279,0,0,0-4.6,10.733c-.17.5,1.378.482,1.535,0a113.457,113.457,0,0,1,4.6-10.733C117.692,103.173,116.083,103.349,115.879,103.79Z" transform="translate(-36.727 -33.257)"/>
          <path id="Path_19-4" data-name="Path 19" class="cls-4" d="M122.914,104.2a79.742,79.742,0,0,1-3.069,9.2c-.109.237,1.372.346,1.535,0a79.744,79.744,0,0,0,3.069-9.2C124.537,103.915,123.03,103.854,122.914,104.2Z" transform="translate(-39.158 -33.667)"/>
          <path id="Path_20-4" data-name="Path 20" class="cls-4" d="M129.749,104.319l-3.069,9.2c-.238.679,1.358.5,1.535,0l3.069-9.2C131.522,103.64,129.926,103.824,129.749,104.319Z" transform="translate(-41.389 -33.786)"/>
          <path id="Path_21-4" data-name="Path 21" class="cls-4" d="M142.908,106.043l-3.069,7.667c-.319.679,1.283.522,1.535,0l3.069-7.667C144.762,105.364,143.16,105.52,142.908,106.043Z" transform="translate(-45.34 -33.976)"/>
          <path id="Path_22-4" data-name="Path 22" class="cls-4" d="M150.071,108.029c-.659,2.466-2.122,3.763-3.069,6.133-.136.339,1.378.394,1.535,0,.947-2.37,2.41-3.668,3.069-6.133C151.708,107.643,150.173,107.636,150.071,108.029Z" transform="translate(-47.899 -34.429)"/>
          <path id="Path_23-4" data-name="Path 23" class="cls-4" d="M157.161,110.783c-1.161,2.28-.977,5.171-1.535,7.667-.088.394,1.446.387,1.535,0,.558-2.5.374-5.387,1.535-7.667C158.838,110.5,157.351,110.41,157.161,110.783Z" transform="translate(-50.385 -35.65)"/>
          <path id="Path_24-4" data-name="Path 24" class="cls-4" d="M165.414,110.5l-3.069,7.667c-.285.583-.2.414,0,0l4.6-7.667C167.234,109.919,165.618,110.089,165.414,110.5Z" transform="translate(-52.499 -35.369)"/>
          <path id="Path_25-4" data-name="Path 25" class="cls-4" d="M172.756,108.183l-3.069,7.667c-.278.631,1.338.455,1.535,0l3.069-7.667C174.569,107.552,172.953,107.728,172.756,108.183Z" transform="translate(-55.237 -34.583)"/>
          <path id="Path_26-4" data-name="Path 26" class="cls-4" d="M181.255,104.165l-3.069,9.2c-.278.617,1.331.448,1.535,0l3.069-9.2C183.068,103.548,181.459,103.717,181.255,104.165Z" transform="translate(-57.597 -33.632)"/>
          <path id="Path_27-4" data-name="Path 27" class="cls-4" d="M188.248,101.187l-3.069,7.667c-.088.21,1.385.339,1.535,0l3.069-7.667C189.871,100.977,188.4,100.848,188.248,101.187Z" transform="translate(-59.986 -32.187)"/>
          <path id="Path_28-4" data-name="Path 28" class="cls-4" d="M193.122,97.673l-1.535,6.133c-.17.373-.183.414,0,0l3.069-6.133C194.827,97.3,193.305,97.259,193.122,97.673Z" transform="translate(-61.791 -31.739)"/>
          <path id="Path_29-4" data-name="Path 29" class="cls-4" d="M224.773,90.321l-1.535,3.067a3.6,3.6,0,0,0,0,1.533c.3-.018-.187-1.3,0-1.533l3.069-3.067c.143-.231.075-.007,0,0C226.01,90.339,224.959,90.089,224.773,90.321Z" transform="translate(-71.956 -28.988)"/>
          <path id="Path_30-4" data-name="Path 30" class="cls-4" d="M227.821,90.616v3.067c-.088.258-.122.339,0,0l1.535-3.067C229.444,90.358,227.943,90.277,227.821,90.616Z" transform="translate(-73.47 -29.282)"/>
          <path id="Path_31-3" data-name="Path 31" class="cls-4" d="M232.37,92.74l-1.535,4.6c-.068.2,1.419.326,1.535,0l1.535-4.6C233.973,92.543,232.486,92.414,232.37,92.74Z" transform="translate(-74.95 -29.873)"/>
          <path id="Path_32-3" data-name="Path 32" class="cls-4" d="M236.782,94.7l-1.535,3.067c-.109.3,1.406.366,1.535,0l1.535-4.6C238.426,92.868,236.911,94.334,236.782,94.7Z" transform="translate(-76.293 -30.3)"/>
          <path id="Path_33-3" data-name="Path 33" class="cls-4" d="M241.209,93.014v4.6c-.177.522-.163.5,0,0l1.535-4.6C242.92,92.492,241.372,92.519,241.209,93.014Z" transform="translate(-77.65 -30.148)"/>
          <path id="Path_34-3" data-name="Path 34" class="cls-4" d="M247.571,94.584l-1.535,4.6c-.265.631,1.345.441,1.535,0l1.535-4.6C249.37,93.953,247.761,94.143,247.571,94.584Z" transform="translate(-79.408 -30.184)"/>
          <path id="Path_35-3" data-name="Path 35" class="cls-4" d="M208.952,94.654l-3.069,3.067c-.2.258-.2-.02,0,0,.332.026,1.327.259,1.535,0l3.069-3.067c.2-.258-1.338.02-1.535,0C208.62,94.628,209.16,94.395,208.952,94.654Z" transform="translate(-66.878 -30.254)"/>
          <path id="Path_36-3" data-name="Path 36" class="cls-4" d="M213.4,99.41a11.819,11.819,0,0,0-1.535,3.067c-.122.278-.136.014,0,0,.31-.01-.155.268,0,0,.46-1.022,2.345-2.212,3.069-3.067.2-.244-1.351-1.52-1.535-1.533C213.076,97.861,213.621,99.166,213.4,99.41Z" transform="translate(-68.26 -31.943)"/>
          <path id="Path_37-3" data-name="Path 37" class="cls-4" d="M218.587,103.926v1.533c-.122.183-.041.014,0,0,.231-.041-.143.217,0,0l1.535-1.533a4.8,4.8,0,0,0,0-1.533A8.41,8.41,0,0,0,218.587,103.926Z" transform="translate(-70.375 -33.393)"/>
          <path id="Path_38-3" data-name="Path 38" class="cls-4" d="M225.291,103.94l-1.535,1.533c-.333.678,1.263,2.083,1.535,1.533l1.535-3.067C227.158,103.262,225.563,103.391,225.291,103.94Z" transform="translate(-72.475 -33.407)"/>
          <path id="Path_39-3" data-name="Path 39" class="cls-4" d="M229.918,105.707c-.365.8.538.835,0,1.533-.2.258-.2-.014,0,0,.332.027-.207.26,0,0,.538-.7,1.17-.731,1.535-1.533C231.731,105.09,230.122,105.266,229.918,105.707Z" transform="translate(-74.032 -33.641)"/>
          <path id="Path_40-3" data-name="Path 40" class="cls-4" d="M234.876,105.726c-.026.6.413,1.091,0,1.533-.21.231-.163,0,0,0,.325.006,1.3.227,1.535,0,.484-.54-.011-.809,0-1.533C236.411,105.393,234.89,105.251,234.876,105.726Z" transform="translate(-75.921 -33.659)"/>
          <path id="Path_41-3" data-name="Path 41" class="cls-4" d="M241.279,106.057v1.533c-.3.678-.231.556,0,0l1.535-1.533C243.112,105.379,241.509,105.5,241.279,106.057Z" transform="translate(-77.72 -33.991)"/>
          <path id="Path_42-3" data-name="Path 42" class="cls-4" d="M246.543,106.115v1.533c-.1.292,1.372.02,1.535,0,.312-.009-.145-1.257,0-1.533h0c.1-.292.163-1.554,0-1.533C247.765,104.59,246.688,105.838,246.543,106.115Z" transform="translate(-79.914 -34.048)"/>
          <path id="Path_43-3" data-name="Path 43" class="cls-4" d="M45.861,92.278a13.281,13.281,0,0,0-4.6,4.6c-.3.6,1.324.427,1.535,0,.9-1.812,2.948-3.433,4.6-4.6C48.122,91.77,46.316,91.96,45.861,92.278Z" transform="translate(-14.283 -29.412)"/>
        </g>
      </g>
    </g>
  </g>
</svg>
